<?xml version="1.0" standalone="no"?>
<!DOCTYPE svg PUBLIC "-//W3C//DTD SVG 1.1//EN"
  "http://www.w3.org/Graphics/SVG/1.1/DTD/svg11.dtd">
<!-- Created with matplotlib (http://matplotlib.sourceforge.net/) -->
<svg width="1148pt" height="770pt" viewBox="0 0 1148 770"
   xmlns="http://www.w3.org/2000/svg"
   xmlns:xlink="http://www.w3.org/1999/xlink"
   version="1.1"
   id="svg1">
<g id="figure1">
<g id="patch1">
<path style="fill: #ffffff; stroke: #ffffff; stroke-width: 1.000000; stroke-linejoin: round; stroke-linecap: square;  opacity: 1.000000"  d="M0.000000 770.400000L1148.400000 770.400000L1148.400000 0.000000
L0.000000 0.000000L0.000000 770.400000"/>
</g>
<g id="axes1">
<g id="patch2">
<path style="fill: #ffffff; opacity: 1.000000"  d="M58.103571 729.128571L1093.714286 729.128571L1093.714286 38.978571
L58.103571 38.978571L58.103571 729.128571"/>
</g>
<g id="line2d1">
<defs>
  <clipPath id="p987148bbe494badabf5617e1e8385f7f">
<rect x="58.103571" y="38.978571" width="1035.610714" height="690.150000"/>
  </clipPath>
</defs><path style="fill: none; stroke: #008000; stroke-width: 1.000000; stroke-linejoin: round; stroke-linecap: square;  opacity: 1.000000" clip-path="url(#p987148bbe494badabf5617e1e8385f7f)" d="M508.165193 559.282656L501.705941 574.742016L492.237501 595.584546
L485.346251 609.410551L475.215019 627.814551L465.323458 643.734011
L455.665648 657.421986L446.238632 669.200546L437.033532 679.253731
L428.047390 687.834596L419.274287 695.104176L410.709787 701.246511
L402.347970 706.390429L394.184399 710.701566L386.214635 714.283445
L375.880719 718.111477L365.873761 721.049215L356.180444 723.278400
L344.492838 725.293638L331.071323 726.886504L316.204391 727.981312
L296.360611 728.725754L266.064559 729.076856L171.689355 729.128571
L171.689355 729.128571"/>
</g>
<g id="line2d2">
<path style="fill: none; stroke: #008000; stroke-width: 1.000000; stroke-linejoin: round; stroke-linecap: square;  opacity: 1.000000" clip-path="url(#p987148bbe494badabf5617e1e8385f7f)" d="M1056.728189 690.480171L1041.553533 695.127181L1019.089657 701.200501
L996.300304 706.487050L974.052427 710.883306L952.331232 714.520396
L931.124883 717.508746L903.630898 720.660431L877.002388 723.043749
L844.892538 725.185514L808.018879 726.864419L767.177351 728.002937
L712.661323 728.756581L629.429290 729.088336L379.270125 729.128571
L379.270125 729.128571"/>
</g>
<g id="line2d3">
<path style="fill: none; stroke: #000000; stroke-width: 1.000000; stroke-linejoin: round; stroke-linecap: square;  opacity: 1.000000" clip-path="url(#p987148bbe494badabf5617e1e8385f7f)" d="M1056.728189 690.480171L1038.956517 638.711330L1022.152994 591.774918
L1006.244534 549.187372L990.956404 509.996514L975.297822 471.664433
L961.362645 439.127311L946.689372 406.510362L931.881767 375.346639
L916.949739 345.748636L904.402428 322.332307L892.054102 300.615817
L880.050486 280.798390L868.540560 263.019665L857.672566 247.356711
L846.301856 232.164439L835.756824 219.191690L826.180532 208.361626
L816.268406 198.125091L807.497966 189.909545L798.468329 182.293510
L789.173427 175.364404L781.221120 170.183218L773.077521 165.605223
L764.739523 161.694833L756.203576 158.521523L750.412589 156.854811
L743.242612 155.344763L735.070016 154.382924L726.995063 154.241443
L719.016275 154.905828L711.132762 156.362044L703.343194 158.595599
L695.646683 161.592001L688.041750 165.336755L680.527802 169.813988
L673.103213 175.008517L665.767391 180.903548L658.519003 187.482288
L651.357016 194.725642L644.280540 202.614287L637.288540 211.125907
L626.956400 225.008274L616.808746 240.141883L606.841881 256.407108
L597.052993 273.650046L584.272225 297.794023L550.666213 363.236807
L544.790898 372.527836L541.879500 376.360469L538.985560 379.438308
L536.108929 381.524402L533.249460 382.276205L530.407005 381.164373
L527.581711 377.298383L524.773282 368.963672L521.981720 351.955615
L520.566632 335.900426L519.574665 316.852746L518.764817 282.998588
L518.640544 243.081922L519.353340 180.586769L520.905128 107.218533
L522.544500 44.612956L522.544500 44.612956"/>
</g>
<g id="line2d4">
<path style="fill: none; stroke: #000000; stroke-width: 1.000000; stroke-linejoin: round; stroke-linecap: square;  opacity: 1.000000" clip-path="url(#p987148bbe494badabf5617e1e8385f7f)" d="M508.165193 559.282656L508.163862 559.281736L508.164010 559.281506
L508.164306 559.281046L508.164898 559.280126L508.166081 559.278285
L508.168448 559.274145L508.173034 559.266323L508.182207 559.250679
L508.200700 559.219393L508.237686 559.156819L508.311362 559.031902
L508.458271 558.782528L508.750018 558.285850L509.324634 557.301236
L510.073232 556.006974L510.833962 554.677285L511.573536 553.370832
L512.292102 552.087613L512.989956 550.827859L513.667689 549.591800
L514.325302 548.379667L514.963090 547.191689L515.581202 546.028326
L516.180229 544.889808L516.759875 543.776366L517.320732 542.688460
L517.862800 541.626319L518.386227 540.590404L518.891162 539.581174
L519.377899 538.598861L519.846438 537.643923L520.106673 537.109517"/>
</g>
<g id="line2d5">
<path style="fill: none; stroke: #ff0000; stroke-width: 1.000000; stroke-linejoin: round; stroke-linecap: square;  opacity: 1.000000" clip-path="url(#p987148bbe494badabf5617e1e8385f7f)" d="M520.106673 537.105836L512.505142 556.522056L505.015014 573.959846
L496.816823 591.374631L488.129677 608.168281L479.614590 623.121531
L471.268159 636.464431L463.086982 648.427031L455.067657 659.078346
L447.207223 668.579411L439.502576 677.022246L431.950311 684.452861
L424.547617 690.963276L417.291537 696.668516L406.675935 703.846076
L396.374124 709.622632L386.376634 714.221331L376.674737 717.849220
L367.259556 720.683436L355.137437 723.487745L343.490515 725.438569
L329.572055 727.024764L313.763013 728.109680L294.106974 728.775675
L261.233583 729.093673L164.146706 729.128571L164.146706 729.128571"/>
</g>
<g id="line2d6">
<path style="fill: none; stroke: #008000; stroke-width: 1.000000; stroke-linejoin: round; stroke-linecap: square;  opacity: 1.000000" clip-path="url(#p987148bbe494badabf5617e1e8385f7f)" d="M508.165193 559.282656L501.705941 574.742016L492.237501 595.584546
L485.346251 609.410551L475.215019 627.814551L465.323458 643.734011
L455.665648 657.421986L446.238632 669.200546L437.033532 679.253731
L428.047390 687.834596L419.274287 695.104176L410.709787 701.246511
L402.347970 706.390429L394.184399 710.701566L386.214635 714.283445
L375.880719 718.111477L365.873761 721.049215L356.180444 723.278400
L344.492838 725.293638L331.071323 726.886504L316.204391 727.981312
L296.360611 728.725754L266.064559 729.076856L171.689355 729.128571
L171.689355 729.128571"/>
</g>
<g id="line2d7">
<path style="fill: none; stroke: #008000; stroke-width: 1.000000; stroke-linejoin: round; stroke-linecap: square;  opacity: 1.000000" clip-path="url(#p987148bbe494badabf5617e1e8385f7f)" d="M1056.728189 690.480171L1041.553533 695.127181L1019.089657 701.200501
L996.300304 706.487050L974.052427 710.883306L952.331232 714.520396
L931.124883 717.508746L903.630898 720.660431L877.002388 723.043749
L844.892538 725.185514L808.018879 726.864419L767.177351 728.002937
L712.661323 728.756581L629.429290 729.088336L379.270125 729.128571
L379.270125 729.128571"/>
</g>
<g id="line2d8">
<path style="fill: none; stroke: #000000; stroke-width: 1.000000; stroke-linejoin: round; stroke-linecap: square;  opacity: 1.000000" clip-path="url(#p987148bbe494badabf5617e1e8385f7f)" d="M1056.728189 690.480171L1039.245157 641.886020L1023.153541 599.078086
L1007.721758 559.793137L991.760778 521.022351L976.570736 485.921322
L963.184728 456.473541L949.229873 427.286178L935.298542 399.720897
L922.225880 375.313972L908.080769 350.532296L895.797391 330.413733
L883.849550 312.122688L872.386967 295.782466L861.558473 281.455412
L851.509646 269.142676L841.048055 257.348243L831.544995 247.557545
L821.706545 238.364977L813.000314 231.045016L804.036068 224.322955
L794.809072 218.282302L786.915795 213.834975L778.834037 209.981868
L770.561579 206.784403L762.096201 204.308375L755.183943 202.894027
L749.780126 202.174891L741.577794 201.741247L733.425170 202.109787
L725.369746 203.271770L717.410338 205.213622L709.545910 207.922460
L701.775279 211.385173L694.097410 215.589337L686.511117 220.522069
L679.015367 226.171407L671.608827 232.524698L664.290758 239.569979
L657.059976 247.295288L649.915593 255.688432L642.856279 264.737679
L632.424868 279.515171L622.179571 295.700108L612.116986 313.249933
L602.234005 332.118404L592.527226 352.255370L582.993689 373.600790
L573.630141 396.078515L564.433770 419.579273L552.426456 452.162404
L533.317219 504.900217L525.442139 524.098809L517.875967 540.593164
L510.314382 555.367435L508.165193 559.282656L508.165193 559.282656"/>
</g>
<g id="line2d9">
<path style="fill: none; stroke: #000000; stroke-width: 1.000000; stroke-linejoin: round; stroke-linecap: square;  opacity: 1.000000" clip-path="url(#p987148bbe494badabf5617e1e8385f7f)" d="M456.833077 42.160623L455.657215 75.927592L454.094627 120.064295
L452.119569 174.682076L450.154424 227.763813L448.199043 279.362647
L446.253426 329.530571L444.317574 378.318195L442.391338 425.775209
L440.474570 471.950615L438.567567 516.893183L437.617616 538.917480
L436.354615 567.833385L434.677222 605.612196L433.841336 624.179071
L432.729682 648.611301L432.175038 660.691917L431.436944 676.661988
L431.068414 684.589051L430.999176 686.075864"/>
</g>
<g id="line2d10">
<path style="fill: none; stroke: #ff0000; stroke-width: 1.000000; stroke-linejoin: round; stroke-linecap: square;  opacity: 1.000000" clip-path="url(#p987148bbe494badabf5617e1e8385f7f)" d="M430.999176 686.086216L422.857944 692.803676L413.474572 699.636161
L406.437745 704.145141L396.142887 709.811273L386.152350 714.347859
L376.457110 717.936639L367.048291 720.747850L354.934457 723.529154
L343.295524 725.466175L329.386532 727.041558L313.588291 728.118422
L291.599021 728.824905L257.075162 729.104117L163.019813 729.128571
L163.019813 729.128571"/>
</g>
<g id="line2d11">
<path style="fill: none; stroke: #008000; stroke-width: 1.000000; stroke-linejoin: round; stroke-linecap: square;  opacity: 1.000000" clip-path="url(#p987148bbe494badabf5617e1e8385f7f)" d="M508.165193 559.282656L501.705941 574.742016L492.237501 595.584546
L485.346251 609.410551L475.215019 627.814551L465.323458 643.734011
L455.665648 657.421986L446.238632 669.200546L437.033532 679.253731
L428.047390 687.834596L419.274287 695.104176L410.709787 701.246511
L402.347970 706.390429L394.184399 710.701566L386.214635 714.283445
L375.880719 718.111477L365.873761 721.049215L356.180444 723.278400
L344.492838 725.293638L331.071323 726.886504L316.204391 727.981312
L296.360611 728.725754L266.064559 729.076856L171.689355 729.128571
L171.689355 729.128571"/>
</g>
<g id="line2d12">
<path style="fill: none; stroke: #008000; stroke-width: 1.000000; stroke-linejoin: round; stroke-linecap: square;  opacity: 1.000000" clip-path="url(#p987148bbe494badabf5617e1e8385f7f)" d="M1056.728189 690.480171L1041.553533 695.127181L1019.089657 701.200501
L996.300304 706.487050L974.052427 710.883306L952.331232 714.520396
L931.124883 717.508746L903.630898 720.660431L877.002388 723.043749
L844.892538 725.185514L808.018879 726.864419L767.177351 728.002937
L712.661323 728.756581L629.429290 729.088336L379.270125 729.128571
L379.270125 729.128571"/>
</g>
<g id="line2d13">
<path style="fill: none; stroke: #000000; stroke-width: 1.000000; stroke-linejoin: round; stroke-linecap: square;  opacity: 1.000000" clip-path="url(#p987148bbe494badabf5617e1e8385f7f)" d="M1056.728189 690.480171L1039.094105 640.318919L1022.300346 594.580148
L1006.476067 553.340695L991.340320 515.623997L975.914307 478.963460
L962.254158 448.033927L947.943201 417.212058L933.580760 387.944177
L920.030385 361.896306L905.621194 335.904797L893.258813 315.041792
L881.237148 296.055306L869.705622 279.076005L858.813957 264.171526
L848.707432 251.346468L838.186515 239.044775L828.629899 228.816752
L818.736118 219.196981L809.980473 211.521823L800.964890 204.457677
L791.683895 198.091734L783.742980 193.389512L775.611217 189.298993
L767.285498 185.885281L758.763310 183.218081L751.227318 181.570003
L744.037073 180.631169L735.855157 180.329573L727.770736 180.849026
L719.782774 182.176645L711.890089 184.300236L704.091497 187.207378
L696.385961 190.886108L688.772299 195.324692L681.249475 200.511860
L673.816453 206.436107L666.472050 213.086393L659.215230 220.451674
L652.045105 228.521367L644.960344 237.284662L637.960208 246.731665
L631.043512 256.851795L620.822773 273.272074L610.784451 291.150640
L600.925141 310.454135L591.241885 331.149663L581.731132 353.203636
L572.390219 376.580857L563.215892 401.243598L554.205191 427.148378
L545.355306 454.239296L533.800405 492.059516L521.591738 534.830872
L518.819113 544.886818L519.595673 542.059273"/>
</g>
<g id="line2d14">
<path style="fill: none; stroke: #000000; stroke-width: 1.000000; stroke-linejoin: round; stroke-linecap: square;  opacity: 1.000000" clip-path="url(#p987148bbe494badabf5617e1e8385f7f)" d="M488.673816 39.508377L487.377084 74.967133L485.654123 121.555479
L483.521653 178.500906L481.399835 234.562480L479.380394 287.610170
L477.511116 336.743099L475.795849 382.233186L474.239474 424.322214
L472.849093 463.220908L471.634765 499.106177L470.609954 532.116972
L469.794189 562.348303L469.214395 589.840198L468.909482 614.562751
L468.876638 625.850385L468.977388 639.727001L469.003130 641.389342"/>
</g>
<g id="line2d15">
<path style="fill: none; stroke: #000000; stroke-width: 1.000000; stroke-linejoin: round; stroke-linecap: square;  opacity: 1.000000" clip-path="url(#p987148bbe494badabf5617e1e8385f7f)" d="M508.165193 559.282656L508.164010 559.281736L508.164158 559.281506
L508.164454 559.280816L508.165193 559.279666L508.166377 559.277365
L508.169040 559.272764L508.174366 559.263562L508.184870 559.245158
L508.206026 559.208350L508.248190 559.134504L508.332223 558.987502
L508.499252 558.694879L508.829316 558.114693L509.260870 557.351617
L509.822319 556.352510L510.547098 555.050887L511.366858 553.563153
L512.154070 552.117749L512.911101 550.712144L513.640023 549.344266
L514.342463 548.012277L515.019901 546.714335L515.673519 545.449290
L516.304650 544.215532L516.914329 543.012370L517.503443 541.838655
L518.072881 540.693696L518.623234 539.576803L519.155390 538.487057
L519.669793 537.424226L520.167182 536.387390L520.648149 535.376551
L521.112842 534.391246L521.562150 533.431018L521.996218 532.495404
L522.415493 531.584406L522.820417 530.697564L523.211138 529.834646
L523.588248 528.995654L523.951895 528.180357L524.302228 527.388524
L524.639837 526.619927L524.964722 525.874565L525.277329 525.152438
L525.577656 524.453316L525.866148 523.777200L526.142804 523.123858
L526.407920 522.493290L526.661645 521.885728L526.904273 521.300711
L527.135806 520.738469L527.356539 520.198772L527.566620 519.681849
L527.766197 519.187472L527.894465 518.867702"/>
</g>
<g id="line2d16">
<path style="fill: none; stroke: #ff0000; stroke-width: 1.000000; stroke-linejoin: round; stroke-linecap: square;  opacity: 1.000000" clip-path="url(#p987148bbe494badabf5617e1e8385f7f)" d="M527.894465 518.862871L520.424013 539.843431L519.617421 542.005901
L519.617421 542.005901"/>
</g>
<g id="line2d17">
<path style="fill: none; stroke: #0000ff; stroke-width: 1.000000; stroke-linejoin: round; stroke-linecap: square;  opacity: 1.000000" clip-path="url(#p987148bbe494badabf5617e1e8385f7f)" d="M469.003130 641.387501L461.786699 651.371671L455.396389 659.538446
L447.529446 668.809461L439.818289 677.068256L432.259810 684.406851
L424.851051 690.871256L417.589053 696.530486L410.470709 701.476561
L400.056755 707.710916L389.950378 712.693799L380.142849 716.646058
L370.625143 719.744832L361.388827 722.151155L349.496761 724.513768
L335.285371 726.457691L319.143603 727.809465L299.073911 728.658349
L271.825070 729.048100L198.528538 729.128559L163.178558 729.128571
L163.178558 729.128571"/>
</g>
<g id="matplotlib.axis1">
<g id="xtick1">
<g id="line2d18">
<path style="fill: none; stroke: #000000; stroke-width: 0.500000; stroke-linejoin: round; stroke-linecap: butt; stroke-dasharray: 1.000000,3.000000; stroke-dashoffset: 0.000000; opacity: 1.000000" clip-path="url(#p987148bbe494badabf5617e1e8385f7f)" d="M58.103571 729.128571L58.103571 38.978571"/>
</g>
<g id="line2d19">
<defs><path id="m30e32995789d870ad79a2e54c91cf9c6" d="M0.000000 0.000000L0.000000 -4.000000"/></defs>
<g ><use style="fill: none; stroke: #000000; stroke-width: 0.500000; stroke-linejoin: round; stroke-linecap: butt;  opacity: 1.000000" xlink:href="#m30e32995789d870ad79a2e54c91cf9c6" x="58.103571" y="729.128571"/>
</g></g>
<g id="line2d20">
<defs><path id="m9281cae24120827b11d5ea8a7ad3e96b" d="M0.000000 0.000000L0.000000 4.000000"/></defs>
<g ><use style="fill: none; stroke: #000000; stroke-width: 0.500000; stroke-linejoin: round; stroke-linecap: butt;  opacity: 1.000000" xlink:href="#m9281cae24120827b11d5ea8a7ad3e96b" x="58.103571" y="38.978571"/>
</g></g>
<g id="text1">
<defs>
<path id="c_7a2040fe3b94fcd41d0a72c84e93b115" d="M31.781250 -66.406250q-7.609375 0.000000 -11.453125 7.500000q-3.828125 7.484375 -3.828125 22.531250q0.000000 14.984375 3.828125 22.484375q3.843750 7.500000 11.453125 7.500000q7.671875 0.000000 11.500000 -7.500000q3.843750 -7.500000 3.843750 -22.484375q0.000000 -15.046875 -3.843750 -22.531250q-3.828125 -7.500000 -11.500000 -7.500000M31.781250 -74.218750q12.265625 0.000000 18.734375 9.703125q6.468750 9.687500 6.468750 28.140625q0.000000 18.406250 -6.468750 28.109375q-6.468750 9.687500 -18.734375 9.687500q-12.250000 0.000000 -18.718750 -9.687500q-6.468750 -9.703125 -6.468750 -28.109375q0.000000 -18.453125 6.468750 -28.140625q6.468750 -9.703125 18.718750 -9.703125"/>
</defs>
<g style="fill: #000000; opacity: 1.000000" transform="translate(55.080134,742.034821)scale(0.120000)">
<use xlink:href="#c_7a2040fe3b94fcd41d0a72c84e93b115"/>
</g>
</g>
</g>
<g id="xtick2">
<g id="line2d21">
<path style="fill: none; stroke: #000000; stroke-width: 0.500000; stroke-linejoin: round; stroke-linecap: butt; stroke-dasharray: 1.000000,3.000000; stroke-dashoffset: 0.000000; opacity: 1.000000" clip-path="url(#p987148bbe494badabf5617e1e8385f7f)" d="M206.047959 729.128571L206.047959 38.978571"/>
</g>
<g id="line2d22">
<g ><use style="fill: none; stroke: #000000; stroke-width: 0.500000; stroke-linejoin: round; stroke-linecap: butt;  opacity: 1.000000" xlink:href="#m30e32995789d870ad79a2e54c91cf9c6" x="206.047959" y="729.128571"/>
</g></g>
<g id="line2d23">
<g ><use style="fill: none; stroke: #000000; stroke-width: 0.500000; stroke-linejoin: round; stroke-linecap: butt;  opacity: 1.000000" xlink:href="#m9281cae24120827b11d5ea8a7ad3e96b" x="206.047959" y="38.978571"/>
</g></g>
<g id="text2">
<defs>
<path id="c_42baa63129a918535c52adb20d687ea7" d="M12.406250 -8.296875l16.109375 0.000000l0.000000 -55.625000l-17.531250 3.515625l0.000000 -8.984375l17.437500 -3.515625l9.859375 0.000000l0.000000 64.609375l16.109375 0.000000l0.000000 8.296875l-41.984375 0.000000z"/>
</defs>
<g style="fill: #000000; opacity: 1.000000" transform="translate(195.641709,742.034821)scale(0.120000)">
<use xlink:href="#c_42baa63129a918535c52adb20d687ea7"/>
<use xlink:href="#c_7a2040fe3b94fcd41d0a72c84e93b115" x="63.623047"/>
<use xlink:href="#c_7a2040fe3b94fcd41d0a72c84e93b115" x="127.246094"/>
</g>
</g>
</g>
<g id="xtick3">
<g id="line2d24">
<path style="fill: none; stroke: #000000; stroke-width: 0.500000; stroke-linejoin: round; stroke-linecap: butt; stroke-dasharray: 1.000000,3.000000; stroke-dashoffset: 0.000000; opacity: 1.000000" clip-path="url(#p987148bbe494badabf5617e1e8385f7f)" d="M353.992347 729.128571L353.992347 38.978571"/>
</g>
<g id="line2d25">
<g ><use style="fill: none; stroke: #000000; stroke-width: 0.500000; stroke-linejoin: round; stroke-linecap: butt;  opacity: 1.000000" xlink:href="#m30e32995789d870ad79a2e54c91cf9c6" x="353.992347" y="729.128571"/>
</g></g>
<g id="line2d26">
<g ><use style="fill: none; stroke: #000000; stroke-width: 0.500000; stroke-linejoin: round; stroke-linecap: butt;  opacity: 1.000000" xlink:href="#m9281cae24120827b11d5ea8a7ad3e96b" x="353.992347" y="38.978571"/>
</g></g>
<g id="text3">
<defs>
<path id="c_ed3f3ed3ebfbd18bcb9c012009a68ad1" d="M19.187500 -8.296875l34.421875 0.000000l0.000000 8.296875l-46.281250 0.000000l0.000000 -8.296875q5.609375 -5.812500 15.296875 -15.593750q9.703125 -9.796875 12.187500 -12.640625q4.734375 -5.312500 6.609375 -9.000000q1.890625 -3.687500 1.890625 -7.250000q0.000000 -5.812500 -4.078125 -9.468750q-4.078125 -3.671875 -10.625000 -3.671875q-4.640625 0.000000 -9.796875 1.609375q-5.140625 1.609375 -11.000000 4.890625l0.000000 -9.968750q5.953125 -2.390625 11.125000 -3.609375q5.187500 -1.218750 9.484375 -1.218750q11.328125 0.000000 18.062500 5.671875q6.734375 5.656250 6.734375 15.125000q0.000000 4.500000 -1.687500 8.531250q-1.671875 4.015625 -6.125000 9.484375q-1.218750 1.421875 -7.765625 8.187500q-6.531250 6.765625 -18.453125 18.921875"/>
</defs>
<g style="fill: #000000; opacity: 1.000000" transform="translate(343.367347,742.034821)scale(0.120000)">
<use xlink:href="#c_ed3f3ed3ebfbd18bcb9c012009a68ad1"/>
<use xlink:href="#c_7a2040fe3b94fcd41d0a72c84e93b115" x="63.623047"/>
<use xlink:href="#c_7a2040fe3b94fcd41d0a72c84e93b115" x="127.246094"/>
</g>
</g>
</g>
<g id="xtick4">
<g id="line2d27">
<path style="fill: none; stroke: #000000; stroke-width: 0.500000; stroke-linejoin: round; stroke-linecap: butt; stroke-dasharray: 1.000000,3.000000; stroke-dashoffset: 0.000000; opacity: 1.000000" clip-path="url(#p987148bbe494badabf5617e1e8385f7f)" d="M501.936735 729.128571L501.936735 38.978571"/>
</g>
<g id="line2d28">
<g ><use style="fill: none; stroke: #000000; stroke-width: 0.500000; stroke-linejoin: round; stroke-linecap: butt;  opacity: 1.000000" xlink:href="#m30e32995789d870ad79a2e54c91cf9c6" x="501.936735" y="729.128571"/>
</g></g>
<g id="line2d29">
<g ><use style="fill: none; stroke: #000000; stroke-width: 0.500000; stroke-linejoin: round; stroke-linecap: butt;  opacity: 1.000000" xlink:href="#m9281cae24120827b11d5ea8a7ad3e96b" x="501.936735" y="38.978571"/>
</g></g>
<g id="text4">
<defs>
<path id="c_3dcfa38a02242cb63ec6726c6e70be7a" d="M40.578125 -39.312500q7.078125 1.515625 11.046875 6.312500q3.984375 4.781250 3.984375 11.812500q0.000000 10.781250 -7.421875 16.703125q-7.421875 5.906250 -21.093750 5.906250q-4.578125 0.000000 -9.437500 -0.906250q-4.859375 -0.906250 -10.031250 -2.718750l0.000000 -9.515625q4.093750 2.390625 8.968750 3.609375q4.890625 1.218750 10.218750 1.218750q9.265625 0.000000 14.125000 -3.656250q4.859375 -3.656250 4.859375 -10.640625q0.000000 -6.453125 -4.515625 -10.078125q-4.515625 -3.640625 -12.562500 -3.640625l-8.500000 0.000000l0.000000 -8.109375l8.890625 0.000000q7.265625 0.000000 11.125000 -2.906250q3.859375 -2.906250 3.859375 -8.375000q0.000000 -5.609375 -3.984375 -8.609375q-3.968750 -3.015625 -11.390625 -3.015625q-4.062500 0.000000 -8.703125 0.890625q-4.640625 0.875000 -10.203125 2.718750l0.000000 -8.781250q5.625000 -1.562500 10.531250 -2.343750q4.906250 -0.781250 9.250000 -0.781250q11.234375 0.000000 17.765625 5.109375q6.546875 5.093750 6.546875 13.781250q0.000000 6.062500 -3.468750 10.234375q-3.468750 4.171875 -9.859375 5.781250"/>
</defs>
<g style="fill: #000000; opacity: 1.000000" transform="translate(491.335172,742.034821)scale(0.120000)">
<use xlink:href="#c_3dcfa38a02242cb63ec6726c6e70be7a"/>
<use xlink:href="#c_7a2040fe3b94fcd41d0a72c84e93b115" x="63.623047"/>
<use xlink:href="#c_7a2040fe3b94fcd41d0a72c84e93b115" x="127.246094"/>
</g>
</g>
</g>
<g id="xtick5">
<g id="line2d30">
<path style="fill: none; stroke: #000000; stroke-width: 0.500000; stroke-linejoin: round; stroke-linecap: butt; stroke-dasharray: 1.000000,3.000000; stroke-dashoffset: 0.000000; opacity: 1.000000" clip-path="url(#p987148bbe494badabf5617e1e8385f7f)" d="M649.881122 729.128571L649.881122 38.978571"/>
</g>
<g id="line2d31">
<g ><use style="fill: none; stroke: #000000; stroke-width: 0.500000; stroke-linejoin: round; stroke-linecap: butt;  opacity: 1.000000" xlink:href="#m30e32995789d870ad79a2e54c91cf9c6" x="649.881122" y="729.128571"/>
</g></g>
<g id="line2d32">
<g ><use style="fill: none; stroke: #000000; stroke-width: 0.500000; stroke-linejoin: round; stroke-linecap: butt;  opacity: 1.000000" xlink:href="#m9281cae24120827b11d5ea8a7ad3e96b" x="649.881122" y="38.978571"/>
</g></g>
<g id="text5">
<defs>
<path id="c_a0416418d96557a09b8c1332d34883ba" d="M37.796875 -64.312500l-24.906250 38.921875l24.906250 0.000000zM35.203125 -72.906250l12.406250 0.000000l0.000000 47.515625l10.406250 0.000000l0.000000 8.203125l-10.406250 0.000000l0.000000 17.187500l-9.812500 0.000000l0.000000 -17.187500l-32.906250 0.000000l0.000000 -9.515625z"/>
</defs>
<g style="fill: #000000; opacity: 1.000000" transform="translate(639.115497,742.034821)scale(0.120000)">
<use xlink:href="#c_a0416418d96557a09b8c1332d34883ba"/>
<use xlink:href="#c_7a2040fe3b94fcd41d0a72c84e93b115" x="63.623047"/>
<use xlink:href="#c_7a2040fe3b94fcd41d0a72c84e93b115" x="127.246094"/>
</g>
</g>
</g>
<g id="xtick6">
<g id="line2d33">
<path style="fill: none; stroke: #000000; stroke-width: 0.500000; stroke-linejoin: round; stroke-linecap: butt; stroke-dasharray: 1.000000,3.000000; stroke-dashoffset: 0.000000; opacity: 1.000000" clip-path="url(#p987148bbe494badabf5617e1e8385f7f)" d="M797.825510 729.128571L797.825510 38.978571"/>
</g>
<g id="line2d34">
<g ><use style="fill: none; stroke: #000000; stroke-width: 0.500000; stroke-linejoin: round; stroke-linecap: butt;  opacity: 1.000000" xlink:href="#m30e32995789d870ad79a2e54c91cf9c6" x="797.825510" y="729.128571"/>
</g></g>
<g id="line2d35">
<g ><use style="fill: none; stroke: #000000; stroke-width: 0.500000; stroke-linejoin: round; stroke-linecap: butt;  opacity: 1.000000" xlink:href="#m9281cae24120827b11d5ea8a7ad3e96b" x="797.825510" y="38.978571"/>
</g></g>
<g id="text6">
<defs>
<path id="c_1260a2df50f305f3db244e29828f968e" d="M10.796875 -72.906250l38.718750 0.000000l0.000000 8.312500l-29.687500 0.000000l0.000000 17.859375q2.140625 -0.734375 4.281250 -1.093750q2.156250 -0.359375 4.312500 -0.359375q12.203125 0.000000 19.328125 6.687500q7.140625 6.687500 7.140625 18.109375q0.000000 11.765625 -7.328125 18.296875q-7.328125 6.515625 -20.656250 6.515625q-4.593750 0.000000 -9.359375 -0.781250q-4.750000 -0.781250 -9.828125 -2.343750l0.000000 -9.921875q4.390625 2.390625 9.078125 3.562500q4.687500 1.171875 9.906250 1.171875q8.453125 0.000000 13.375000 -4.437500q4.937500 -4.437500 4.937500 -12.062500q0.000000 -7.609375 -4.937500 -12.046875q-4.921875 -4.453125 -13.375000 -4.453125q-3.953125 0.000000 -7.890625 0.875000q-3.921875 0.875000 -8.015625 2.734375z"/>
</defs>
<g style="fill: #000000; opacity: 1.000000" transform="translate(787.223948,742.034821)scale(0.120000)">
<use xlink:href="#c_1260a2df50f305f3db244e29828f968e"/>
<use xlink:href="#c_7a2040fe3b94fcd41d0a72c84e93b115" x="63.623047"/>
<use xlink:href="#c_7a2040fe3b94fcd41d0a72c84e93b115" x="127.246094"/>
</g>
</g>
</g>
<g id="xtick7">
<g id="line2d36">
<path style="fill: none; stroke: #000000; stroke-width: 0.500000; stroke-linejoin: round; stroke-linecap: butt; stroke-dasharray: 1.000000,3.000000; stroke-dashoffset: 0.000000; opacity: 1.000000" clip-path="url(#p987148bbe494badabf5617e1e8385f7f)" d="M945.769898 729.128571L945.769898 38.978571"/>
</g>
<g id="line2d37">
<g ><use style="fill: none; stroke: #000000; stroke-width: 0.500000; stroke-linejoin: round; stroke-linecap: butt;  opacity: 1.000000" xlink:href="#m30e32995789d870ad79a2e54c91cf9c6" x="945.769898" y="729.128571"/>
</g></g>
<g id="line2d38">
<g ><use style="fill: none; stroke: #000000; stroke-width: 0.500000; stroke-linejoin: round; stroke-linecap: butt;  opacity: 1.000000" xlink:href="#m9281cae24120827b11d5ea8a7ad3e96b" x="945.769898" y="38.978571"/>
</g></g>
<g id="text7">
<defs>
<path id="c_cc8d6d580d1b10c8632f7a42cd53db8a" d="M33.015625 -40.375000q-6.640625 0.000000 -10.531250 4.546875q-3.875000 4.531250 -3.875000 12.437500q0.000000 7.859375 3.875000 12.437500q3.890625 4.562500 10.531250 4.562500q6.640625 0.000000 10.515625 -4.562500q3.875000 -4.578125 3.875000 -12.437500q0.000000 -7.906250 -3.875000 -12.437500q-3.875000 -4.546875 -10.515625 -4.546875M52.593750 -71.296875l0.000000 8.984375q-3.718750 -1.750000 -7.500000 -2.671875q-3.781250 -0.937500 -7.500000 -0.937500q-9.765625 0.000000 -14.921875 6.593750q-5.140625 6.593750 -5.875000 19.921875q2.875000 -4.250000 7.218750 -6.515625q4.359375 -2.265625 9.578125 -2.265625q10.984375 0.000000 17.359375 6.671875q6.375000 6.656250 6.375000 18.125000q0.000000 11.234375 -6.640625 18.031250q-6.640625 6.781250 -17.671875 6.781250q-12.656250 0.000000 -19.343750 -9.687500q-6.687500 -9.703125 -6.687500 -28.109375q0.000000 -17.281250 8.203125 -27.562500q8.203125 -10.281250 22.015625 -10.281250q3.718750 0.000000 7.500000 0.734375q3.781250 0.734375 7.890625 2.187500"/>
</defs>
<g style="fill: #000000; opacity: 1.000000" transform="translate(935.129273,742.034821)scale(0.120000)">
<use xlink:href="#c_cc8d6d580d1b10c8632f7a42cd53db8a"/>
<use xlink:href="#c_7a2040fe3b94fcd41d0a72c84e93b115" x="63.623047"/>
<use xlink:href="#c_7a2040fe3b94fcd41d0a72c84e93b115" x="127.246094"/>
</g>
</g>
</g>
<g id="xtick8">
<g id="line2d39">
<path style="fill: none; stroke: #000000; stroke-width: 0.500000; stroke-linejoin: round; stroke-linecap: butt; stroke-dasharray: 1.000000,3.000000; stroke-dashoffset: 0.000000; opacity: 1.000000" clip-path="url(#p987148bbe494badabf5617e1e8385f7f)" d="M1093.714286 729.128571L1093.714286 38.978571"/>
</g>
<g id="line2d40">
<g ><use style="fill: none; stroke: #000000; stroke-width: 0.500000; stroke-linejoin: round; stroke-linecap: butt;  opacity: 1.000000" xlink:href="#m30e32995789d870ad79a2e54c91cf9c6" x="1093.714286" y="729.128571"/>
</g></g>
<g id="line2d41">
<g ><use style="fill: none; stroke: #000000; stroke-width: 0.500000; stroke-linejoin: round; stroke-linecap: butt;  opacity: 1.000000" xlink:href="#m9281cae24120827b11d5ea8a7ad3e96b" x="1093.714286" y="38.978571"/>
</g></g>
<g id="text8">
<defs>
<path id="c_956f18cfdaf972f35a6c2b4aaac2532b" d="M8.203125 -72.906250l46.875000 0.000000l0.000000 4.203125l-26.468750 68.703125l-10.296875 0.000000l24.906250 -64.593750l-35.015625 0.000000z"/>
</defs>
<g style="fill: #000000; opacity: 1.000000" transform="translate(1083.143973,742.034821)scale(0.120000)">
<use xlink:href="#c_956f18cfdaf972f35a6c2b4aaac2532b"/>
<use xlink:href="#c_7a2040fe3b94fcd41d0a72c84e93b115" x="63.623047"/>
<use xlink:href="#c_7a2040fe3b94fcd41d0a72c84e93b115" x="127.246094"/>
</g>
</g>
</g>
<g id="text9">
<defs>
<path id="c_9e4b30cbdf32072672ded72e9074c4c9" d="M-0.296875 -72.906250l61.671875 0.000000l0.000000 8.312500l-25.875000 0.000000l0.000000 64.593750l-9.906250 0.000000l0.000000 -64.593750l-25.890625 0.000000z"/>
<path id="c_0bce5afba2dc6b9024b26277c38ad8e8" d="M56.203125 -29.593750l0.000000 4.390625l-41.312500 0.000000q0.593750 9.281250 5.593750 14.140625q5.000000 4.859375 13.937500 4.859375q5.171875 0.000000 10.031250 -1.265625q4.859375 -1.265625 9.656250 -3.812500l0.000000 8.500000q-4.843750 2.046875 -9.921875 3.125000q-5.078125 1.078125 -10.296875 1.078125q-13.093750 0.000000 -20.734375 -7.609375q-7.640625 -7.625000 -7.640625 -20.625000q0.000000 -13.421875 7.250000 -21.296875q7.250000 -7.890625 19.562500 -7.890625q11.031250 0.000000 17.453125 7.109375q6.421875 7.093750 6.421875 19.296875M47.218750 -32.234375q-0.093750 -7.359375 -4.125000 -11.750000q-4.031250 -4.406250 -10.671875 -4.406250q-7.515625 0.000000 -12.031250 4.250000q-4.515625 4.250000 -5.203125 11.968750z"/>
<path id="c_4653c6dfde66c7610eae0911760d3490" d="M52.000000 -44.187500q3.375000 -6.062500 8.062500 -8.937500q4.687500 -2.875000 11.031250 -2.875000q8.546875 0.000000 13.187500 5.984375q4.640625 5.968750 4.640625 17.000000l0.000000 33.015625l-9.031250 0.000000l0.000000 -32.718750q0.000000 -7.859375 -2.796875 -11.656250q-2.781250 -3.812500 -8.484375 -3.812500q-6.984375 0.000000 -11.046875 4.640625q-4.046875 4.625000 -4.046875 12.640625l0.000000 30.906250l-9.031250 0.000000l0.000000 -32.718750q0.000000 -7.906250 -2.781250 -11.687500q-2.781250 -3.781250 -8.593750 -3.781250q-6.890625 0.000000 -10.953125 4.656250q-4.046875 4.656250 -4.046875 12.625000l0.000000 30.906250l-9.031250 0.000000l0.000000 -54.687500l9.031250 0.000000l0.000000 8.500000q3.078125 -5.031250 7.375000 -7.421875q4.296875 -2.390625 10.203125 -2.390625q5.968750 0.000000 10.140625 3.031250q4.171875 3.015625 6.171875 8.781250"/>
<path id="c_f15a64fcd463ef4629c48bab42cde24c" d="M18.109375 -8.203125l0.000000 29.000000l-9.031250 0.000000l0.000000 -75.484375l9.031250 0.000000l0.000000 8.296875q2.843750 -4.875000 7.156250 -7.234375q4.328125 -2.375000 10.328125 -2.375000q9.968750 0.000000 16.187500 7.906250q6.234375 7.906250 6.234375 20.796875q0.000000 12.890625 -6.234375 20.812500q-6.218750 7.906250 -16.187500 7.906250q-6.000000 0.000000 -10.328125 -2.375000q-4.312500 -2.375000 -7.156250 -7.250000M48.687500 -27.296875q0.000000 -9.906250 -4.078125 -15.546875q-4.078125 -5.640625 -11.203125 -5.640625q-7.140625 0.000000 -11.218750 5.640625q-4.078125 5.640625 -4.078125 15.546875q0.000000 9.906250 4.078125 15.546875q4.078125 5.640625 11.218750 5.640625q7.125000 0.000000 11.203125 -5.640625q4.078125 -5.640625 4.078125 -15.546875"/>
<path id="c_6ec8d5749226675394676a5d2a3b468b" d="M41.109375 -46.296875q-1.515625 -0.875000 -3.296875 -1.281250q-1.781250 -0.421875 -3.921875 -0.421875q-7.625000 0.000000 -11.703125 4.953125q-4.078125 4.953125 -4.078125 14.234375l0.000000 28.812500l-9.031250 0.000000l0.000000 -54.687500l9.031250 0.000000l0.000000 8.500000q2.843750 -4.984375 7.375000 -7.390625q4.546875 -2.421875 11.046875 -2.421875q0.921875 0.000000 2.046875 0.125000q1.125000 0.109375 2.484375 0.359375z"/>
<path id="c_01d93a582460e35a7945ca50d148ffeb" d="M34.281250 -27.484375q-10.890625 0.000000 -15.093750 2.484375q-4.203125 2.484375 -4.203125 8.500000q0.000000 4.781250 3.156250 7.593750q3.156250 2.796875 8.562500 2.796875q7.484375 0.000000 12.000000 -5.296875q4.515625 -5.296875 4.515625 -14.078125l0.000000 -2.000000zM52.203125 -31.203125l0.000000 31.203125l-8.984375 0.000000l0.000000 -8.296875q-3.078125 4.968750 -7.671875 7.343750q-4.593750 2.375000 -11.234375 2.375000q-8.390625 0.000000 -13.359375 -4.718750q-4.953125 -4.718750 -4.953125 -12.625000q0.000000 -9.218750 6.171875 -13.906250q6.187500 -4.687500 18.437500 -4.687500l12.609375 0.000000l0.000000 -0.890625q0.000000 -6.203125 -4.078125 -9.593750q-4.078125 -3.390625 -11.453125 -3.390625q-4.687500 0.000000 -9.140625 1.125000q-4.437500 1.125000 -8.531250 3.375000l0.000000 -8.312500q4.921875 -1.906250 9.562500 -2.843750q4.640625 -0.953125 9.031250 -0.953125q11.875000 0.000000 17.734375 6.156250q5.859375 6.140625 5.859375 18.640625"/>
<path id="c_0f8c41144cfbf448378cb6fd1cc8e549" d="M18.312500 -70.218750l0.000000 15.531250l18.500000 0.000000l0.000000 6.984375l-18.500000 0.000000l0.000000 29.687500q0.000000 6.687500 1.828125 8.593750q1.828125 1.906250 7.453125 1.906250l9.218750 0.000000l0.000000 7.515625l-9.218750 0.000000q-10.406250 0.000000 -14.359375 -3.875000q-3.953125 -3.890625 -3.953125 -14.140625l0.000000 -29.687500l-6.593750 0.000000l0.000000 -6.984375l6.593750 0.000000l0.000000 -15.531250z"/>
<path id="c_3b515ad41f960e225ec85275856806ca" d="M8.500000 -21.578125l0.000000 -33.109375l8.984375 0.000000l0.000000 32.765625q0.000000 7.765625 3.015625 11.656250q3.031250 3.875000 9.093750 3.875000q7.265625 0.000000 11.484375 -4.640625q4.234375 -4.640625 4.234375 -12.656250l0.000000 -31.000000l8.984375 0.000000l0.000000 54.687500l-8.984375 0.000000l0.000000 -8.406250q-3.265625 4.984375 -7.593750 7.406250q-4.312500 2.421875 -10.031250 2.421875q-9.421875 0.000000 -14.312500 -5.859375q-4.875000 -5.859375 -4.875000 -17.140625M31.109375 -56.000000z"/>
<path id="c_d41d8cd98f00b204e9800998ecf8427e" d=""/>
<path id="c_1a1d9ef1e4ddee695bd67a282879f099" d="M8.593750 -75.984375l20.703125 0.000000l0.000000 6.984375l-11.718750 0.000000l0.000000 75.203125l11.718750 0.000000l0.000000 6.984375l-20.703125 0.000000z"/>
<path id="c_7aecf22c350a602b3f972fa102c17cac" d="M9.812500 -72.906250l9.859375 0.000000l0.000000 30.812500l32.718750 -30.812500l12.703125 0.000000l-36.187500 33.984375l38.765625 38.921875l-12.984375 0.000000l-35.015625 -35.109375l0.000000 35.109375l-9.859375 0.000000z"/>
<path id="c_5bcf09947f6bf611091602c6fea1d302" d="M30.421875 -75.984375l0.000000 89.171875l-20.703125 0.000000l0.000000 -6.984375l11.671875 0.000000l0.000000 -75.203125l-11.671875 0.000000l0.000000 -6.984375z"/>
</defs>
<g style="fill: #000000; opacity: 1.000000" transform="translate(527.822991,756.331696)scale(0.120000)">
<use xlink:href="#c_9e4b30cbdf32072672ded72e9074c4c9"/>
<use xlink:href="#c_0bce5afba2dc6b9024b26277c38ad8e8" x="44.083984"/>
<use xlink:href="#c_4653c6dfde66c7610eae0911760d3490" x="105.607422"/>
<use xlink:href="#c_f15a64fcd463ef4629c48bab42cde24c" x="203.019531"/>
<use xlink:href="#c_0bce5afba2dc6b9024b26277c38ad8e8" x="266.496094"/>
<use xlink:href="#c_6ec8d5749226675394676a5d2a3b468b" x="328.019531"/>
<use xlink:href="#c_01d93a582460e35a7945ca50d148ffeb" x="369.132812"/>
<use xlink:href="#c_0f8c41144cfbf448378cb6fd1cc8e549" x="430.412109"/>
<use xlink:href="#c_3b515ad41f960e225ec85275856806ca" x="469.621094"/>
<use xlink:href="#c_6ec8d5749226675394676a5d2a3b468b" x="533.000000"/>
<use xlink:href="#c_0bce5afba2dc6b9024b26277c38ad8e8" x="571.863281"/>
<use xlink:href="#c_d41d8cd98f00b204e9800998ecf8427e" x="633.386719"/>
<use xlink:href="#c_1a1d9ef1e4ddee695bd67a282879f099" x="665.173828"/>
<use xlink:href="#c_7aecf22c350a602b3f972fa102c17cac" x="704.187500"/>
<use xlink:href="#c_5bcf09947f6bf611091602c6fea1d302" x="769.763672"/>
</g>
</g>
</g>
<g id="matplotlib.axis2">
<g id="ytick1">
<g id="line2d42">
<path style="fill: none; stroke: #000000; stroke-width: 0.500000; stroke-linejoin: round; stroke-linecap: butt; stroke-dasharray: 1.000000,3.000000; stroke-dashoffset: 0.000000; opacity: 1.000000" clip-path="url(#p987148bbe494badabf5617e1e8385f7f)" d="M58.103571 729.128571L1093.714286 729.128571"/>
</g>
<g id="line2d43">
<defs><path id="m3400efa6b1638b3fea9e19e898273957" d="M0.000000 0.000000L4.000000 0.000000"/></defs>
<g ><use style="fill: none; stroke: #000000; stroke-width: 0.500000; stroke-linejoin: round; stroke-linecap: butt;  opacity: 1.000000" xlink:href="#m3400efa6b1638b3fea9e19e898273957" x="58.103571" y="729.128571"/>
</g></g>
<g id="line2d44">
<defs><path id="m20b58b2501143cb5e0a5e8f1ef6f1643" d="M0.000000 0.000000L-4.000000 0.000000"/></defs>
<g ><use style="fill: none; stroke: #000000; stroke-width: 0.500000; stroke-linejoin: round; stroke-linecap: butt;  opacity: 1.000000" xlink:href="#m20b58b2501143cb5e0a5e8f1ef6f1643" x="1093.714286" y="729.128571"/>
</g></g>
<g id="text10">
<g style="fill: #000000; opacity: 1.000000" transform="translate(48.056696,733.495759)scale(0.120000)">
<use xlink:href="#c_7a2040fe3b94fcd41d0a72c84e93b115"/>
</g>
</g>
</g>
<g id="ytick2">
<g id="line2d45">
<path style="fill: none; stroke: #000000; stroke-width: 0.500000; stroke-linejoin: round; stroke-linecap: butt; stroke-dasharray: 1.000000,3.000000; stroke-dashoffset: 0.000000; opacity: 1.000000" clip-path="url(#p987148bbe494badabf5617e1e8385f7f)" d="M58.103571 614.103571L1093.714286 614.103571"/>
</g>
<g id="line2d46">
<g ><use style="fill: none; stroke: #000000; stroke-width: 0.500000; stroke-linejoin: round; stroke-linecap: butt;  opacity: 1.000000" xlink:href="#m3400efa6b1638b3fea9e19e898273957" x="58.103571" y="614.103571"/>
</g></g>
<g id="line2d47">
<g ><use style="fill: none; stroke: #000000; stroke-width: 0.500000; stroke-linejoin: round; stroke-linecap: butt;  opacity: 1.000000" xlink:href="#m20b58b2501143cb5e0a5e8f1ef6f1643" x="1093.714286" y="614.103571"/>
</g></g>
<g id="text11">
<g style="fill: #000000; opacity: 1.000000" transform="translate(40.541071,618.470759)scale(0.120000)">
<use xlink:href="#c_1260a2df50f305f3db244e29828f968e"/>
<use xlink:href="#c_7a2040fe3b94fcd41d0a72c84e93b115" x="63.623047"/>
</g>
</g>
</g>
<g id="ytick3">
<g id="line2d48">
<path style="fill: none; stroke: #000000; stroke-width: 0.500000; stroke-linejoin: round; stroke-linecap: butt; stroke-dasharray: 1.000000,3.000000; stroke-dashoffset: 0.000000; opacity: 1.000000" clip-path="url(#p987148bbe494badabf5617e1e8385f7f)" d="M58.103571 499.078571L1093.714286 499.078571"/>
</g>
<g id="line2d49">
<g ><use style="fill: none; stroke: #000000; stroke-width: 0.500000; stroke-linejoin: round; stroke-linecap: butt;  opacity: 1.000000" xlink:href="#m3400efa6b1638b3fea9e19e898273957" x="58.103571" y="499.078571"/>
</g></g>
<g id="line2d50">
<g ><use style="fill: none; stroke: #000000; stroke-width: 0.500000; stroke-linejoin: round; stroke-linecap: butt;  opacity: 1.000000" xlink:href="#m20b58b2501143cb5e0a5e8f1ef6f1643" x="1093.714286" y="499.078571"/>
</g></g>
<g id="text12">
<g style="fill: #000000; opacity: 1.000000" transform="translate(33.291071,503.445759)scale(0.120000)">
<use xlink:href="#c_42baa63129a918535c52adb20d687ea7"/>
<use xlink:href="#c_7a2040fe3b94fcd41d0a72c84e93b115" x="63.623047"/>
<use xlink:href="#c_7a2040fe3b94fcd41d0a72c84e93b115" x="127.246094"/>
</g>
</g>
</g>
<g id="ytick4">
<g id="line2d51">
<path style="fill: none; stroke: #000000; stroke-width: 0.500000; stroke-linejoin: round; stroke-linecap: butt; stroke-dasharray: 1.000000,3.000000; stroke-dashoffset: 0.000000; opacity: 1.000000" clip-path="url(#p987148bbe494badabf5617e1e8385f7f)" d="M58.103571 384.053571L1093.714286 384.053571"/>
</g>
<g id="line2d52">
<g ><use style="fill: none; stroke: #000000; stroke-width: 0.500000; stroke-linejoin: round; stroke-linecap: butt;  opacity: 1.000000" xlink:href="#m3400efa6b1638b3fea9e19e898273957" x="58.103571" y="384.053571"/>
</g></g>
<g id="line2d53">
<g ><use style="fill: none; stroke: #000000; stroke-width: 0.500000; stroke-linejoin: round; stroke-linecap: butt;  opacity: 1.000000" xlink:href="#m20b58b2501143cb5e0a5e8f1ef6f1643" x="1093.714286" y="384.053571"/>
</g></g>
<g id="text13">
<g style="fill: #000000; opacity: 1.000000" transform="translate(33.291071,388.420759)scale(0.120000)">
<use xlink:href="#c_42baa63129a918535c52adb20d687ea7"/>
<use xlink:href="#c_1260a2df50f305f3db244e29828f968e" x="63.623047"/>
<use xlink:href="#c_7a2040fe3b94fcd41d0a72c84e93b115" x="127.246094"/>
</g>
</g>
</g>
<g id="ytick5">
<g id="line2d54">
<path style="fill: none; stroke: #000000; stroke-width: 0.500000; stroke-linejoin: round; stroke-linecap: butt; stroke-dasharray: 1.000000,3.000000; stroke-dashoffset: 0.000000; opacity: 1.000000" clip-path="url(#p987148bbe494badabf5617e1e8385f7f)" d="M58.103571 269.028571L1093.714286 269.028571"/>
</g>
<g id="line2d55">
<g ><use style="fill: none; stroke: #000000; stroke-width: 0.500000; stroke-linejoin: round; stroke-linecap: butt;  opacity: 1.000000" xlink:href="#m3400efa6b1638b3fea9e19e898273957" x="58.103571" y="269.028571"/>
</g></g>
<g id="line2d56">
<g ><use style="fill: none; stroke: #000000; stroke-width: 0.500000; stroke-linejoin: round; stroke-linecap: butt;  opacity: 1.000000" xlink:href="#m20b58b2501143cb5e0a5e8f1ef6f1643" x="1093.714286" y="269.028571"/>
</g></g>
<g id="text14">
<g style="fill: #000000; opacity: 1.000000" transform="translate(32.853571,273.395759)scale(0.120000)">
<use xlink:href="#c_ed3f3ed3ebfbd18bcb9c012009a68ad1"/>
<use xlink:href="#c_7a2040fe3b94fcd41d0a72c84e93b115" x="63.623047"/>
<use xlink:href="#c_7a2040fe3b94fcd41d0a72c84e93b115" x="127.246094"/>
</g>
</g>
</g>
<g id="ytick6">
<g id="line2d57">
<path style="fill: none; stroke: #000000; stroke-width: 0.500000; stroke-linejoin: round; stroke-linecap: butt; stroke-dasharray: 1.000000,3.000000; stroke-dashoffset: 0.000000; opacity: 1.000000" clip-path="url(#p987148bbe494badabf5617e1e8385f7f)" d="M58.103571 154.003571L1093.714286 154.003571"/>
</g>
<g id="line2d58">
<g ><use style="fill: none; stroke: #000000; stroke-width: 0.500000; stroke-linejoin: round; stroke-linecap: butt;  opacity: 1.000000" xlink:href="#m3400efa6b1638b3fea9e19e898273957" x="58.103571" y="154.003571"/>
</g></g>
<g id="line2d59">
<g ><use style="fill: none; stroke: #000000; stroke-width: 0.500000; stroke-linejoin: round; stroke-linecap: butt;  opacity: 1.000000" xlink:href="#m20b58b2501143cb5e0a5e8f1ef6f1643" x="1093.714286" y="154.003571"/>
</g></g>
<g id="text15">
<g style="fill: #000000; opacity: 1.000000" transform="translate(32.853571,158.370759)scale(0.120000)">
<use xlink:href="#c_ed3f3ed3ebfbd18bcb9c012009a68ad1"/>
<use xlink:href="#c_1260a2df50f305f3db244e29828f968e" x="63.623047"/>
<use xlink:href="#c_7a2040fe3b94fcd41d0a72c84e93b115" x="127.246094"/>
</g>
</g>
</g>
<g id="ytick7">
<g id="line2d60">
<path style="fill: none; stroke: #000000; stroke-width: 0.500000; stroke-linejoin: round; stroke-linecap: butt; stroke-dasharray: 1.000000,3.000000; stroke-dashoffset: 0.000000; opacity: 1.000000" clip-path="url(#p987148bbe494badabf5617e1e8385f7f)" d="M58.103571 38.978571L1093.714286 38.978571"/>
</g>
<g id="line2d61">
<g ><use style="fill: none; stroke: #000000; stroke-width: 0.500000; stroke-linejoin: round; stroke-linecap: butt;  opacity: 1.000000" xlink:href="#m3400efa6b1638b3fea9e19e898273957" x="58.103571" y="38.978571"/>
</g></g>
<g id="line2d62">
<g ><use style="fill: none; stroke: #000000; stroke-width: 0.500000; stroke-linejoin: round; stroke-linecap: butt;  opacity: 1.000000" xlink:href="#m20b58b2501143cb5e0a5e8f1ef6f1643" x="1093.714286" y="38.978571"/>
</g></g>
<g id="text16">
<g style="fill: #000000; opacity: 1.000000" transform="translate(32.900446,43.345759)scale(0.120000)">
<use xlink:href="#c_3dcfa38a02242cb63ec6726c6e70be7a"/>
<use xlink:href="#c_7a2040fe3b94fcd41d0a72c84e93b115" x="63.623047"/>
<use xlink:href="#c_7a2040fe3b94fcd41d0a72c84e93b115" x="127.246094"/>
</g>
</g>
</g>
<g id="text17">
<defs>
<path id="c_518d586bee075aa0153eaebfcb5ab11f" d="M19.671875 -64.796875l0.000000 27.390625l12.406250 0.000000q6.890625 0.000000 10.640625 -3.562500q3.765625 -3.562500 3.765625 -10.156250q0.000000 -6.546875 -3.765625 -10.109375q-3.750000 -3.562500 -10.640625 -3.562500zM9.812500 -72.906250l22.265625 0.000000q12.265625 0.000000 18.531250 5.546875q6.281250 5.546875 6.281250 16.234375q0.000000 10.796875 -6.281250 16.312500q-6.265625 5.515625 -18.531250 5.515625l-12.406250 0.000000l0.000000 29.296875l-9.859375 0.000000z"/>
<path id="c_8e0810ad13fe20a2a87a2619799b154d" d="M44.281250 -53.078125l0.000000 8.500000q-3.796875 -1.953125 -7.906250 -2.921875q-4.093750 -0.984375 -8.500000 -0.984375q-6.687500 0.000000 -10.031250 2.046875q-3.343750 2.046875 -3.343750 6.156250q0.000000 3.125000 2.390625 4.906250q2.390625 1.781250 9.625000 3.390625l3.078125 0.687500q9.562500 2.046875 13.593750 5.781250q4.031250 3.734375 4.031250 10.421875q0.000000 7.625000 -6.031250 12.078125q-6.031250 4.437500 -16.578125 4.437500q-4.390625 0.000000 -9.156250 -0.859375q-4.765625 -0.859375 -10.031250 -2.562500l0.000000 -9.281250q4.984375 2.593750 9.812500 3.890625q4.828125 1.281250 9.578125 1.281250q6.343750 0.000000 9.750000 -2.171875q3.421875 -2.171875 3.421875 -6.125000q0.000000 -3.656250 -2.468750 -5.609375q-2.453125 -1.953125 -10.812500 -3.765625l-3.125000 -0.734375q-8.343750 -1.750000 -12.062500 -5.390625q-3.703125 -3.640625 -3.703125 -9.984375q0.000000 -7.718750 5.468750 -11.906250q5.468750 -4.203125 15.531250 -4.203125q4.968750 0.000000 9.359375 0.734375q4.406250 0.718750 8.109375 2.187500"/>
<path id="c_5cc9741494d2ad8f9764e03ae145569f" d="M48.687500 -27.296875q0.000000 -9.906250 -4.078125 -15.546875q-4.078125 -5.640625 -11.203125 -5.640625q-7.140625 0.000000 -11.218750 5.640625q-4.078125 5.640625 -4.078125 15.546875q0.000000 9.906250 4.078125 15.546875q4.078125 5.640625 11.218750 5.640625q7.125000 0.000000 11.203125 -5.640625q4.078125 -5.640625 4.078125 -15.546875M18.109375 -46.390625q2.843750 -4.875000 7.156250 -7.234375q4.328125 -2.375000 10.328125 -2.375000q9.968750 0.000000 16.187500 7.906250q6.234375 7.906250 6.234375 20.796875q0.000000 12.890625 -6.234375 20.812500q-6.218750 7.906250 -16.187500 7.906250q-6.000000 0.000000 -10.328125 -2.375000q-4.312500 -2.375000 -7.156250 -7.250000l0.000000 8.203125l-9.031250 0.000000l0.000000 -75.984375l9.031250 0.000000z"/>
</defs>
<g style="fill: #000000; opacity: 1.000000" transform="translate(27.853571,424.139509)rotate(-90.0)scale(0.120000)">
<use xlink:href="#c_518d586bee075aa0153eaebfcb5ab11f"/>
<use xlink:href="#c_6ec8d5749226675394676a5d2a3b468b" x="58.552734"/>
<use xlink:href="#c_0bce5afba2dc6b9024b26277c38ad8e8" x="97.416016"/>
<use xlink:href="#c_8e0810ad13fe20a2a87a2619799b154d" x="158.939453"/>
<use xlink:href="#c_8e0810ad13fe20a2a87a2619799b154d" x="211.039062"/>
<use xlink:href="#c_3b515ad41f960e225ec85275856806ca" x="263.138672"/>
<use xlink:href="#c_6ec8d5749226675394676a5d2a3b468b" x="326.517578"/>
<use xlink:href="#c_0bce5afba2dc6b9024b26277c38ad8e8" x="365.380859"/>
<use xlink:href="#c_d41d8cd98f00b204e9800998ecf8427e" x="426.904297"/>
<use xlink:href="#c_1a1d9ef1e4ddee695bd67a282879f099" x="458.691406"/>
<use xlink:href="#c_5cc9741494d2ad8f9764e03ae145569f" x="497.705078"/>
<use xlink:href="#c_01d93a582460e35a7945ca50d148ffeb" x="561.181641"/>
<use xlink:href="#c_6ec8d5749226675394676a5d2a3b468b" x="622.460937"/>
<use xlink:href="#c_5bcf09947f6bf611091602c6fea1d302" x="663.574219"/>
</g>
</g>
</g>
<g id="patch3">
<path style="fill: none; stroke: #000000; stroke-width: 1.000000; stroke-linejoin: round; stroke-linecap: square;  opacity: 1.000000"  d="M58.103571 38.978571L1093.714286 38.978571"/>
</g>
<g id="patch4">
<path style="fill: none; stroke: #000000; stroke-width: 1.000000; stroke-linejoin: round; stroke-linecap: square;  opacity: 1.000000"  d="M1093.714286 729.128571L1093.714286 38.978571"/>
</g>
<g id="patch5">
<path style="fill: none; stroke: #000000; stroke-width: 1.000000; stroke-linejoin: round; stroke-linecap: square;  opacity: 1.000000"  d="M58.103571 729.128571L1093.714286 729.128571"/>
</g>
<g id="patch6">
<path style="fill: none; stroke: #000000; stroke-width: 1.000000; stroke-linejoin: round; stroke-linecap: square;  opacity: 1.000000"  d="M58.103571 729.128571L58.103571 38.978571"/>
</g>
<g id="text18">
<defs>
<path id="c_a469f8ee191679fe73f3b765bd271597" d="M64.406250 -67.281250l0.000000 10.390625q-4.984375 -4.640625 -10.625000 -6.921875q-5.640625 -2.296875 -11.984375 -2.296875q-12.500000 0.000000 -19.140625 7.640625q-6.640625 7.640625 -6.640625 22.093750q0.000000 14.406250 6.640625 22.046875q6.640625 7.640625 19.140625 7.640625q6.343750 0.000000 11.984375 -2.296875q5.640625 -2.296875 10.625000 -6.937500l0.000000 10.312500q-5.171875 3.515625 -10.968750 5.281250q-5.781250 1.750000 -12.218750 1.750000q-16.562500 0.000000 -26.093750 -10.125000q-9.515625 -10.140625 -9.515625 -27.671875q0.000000 -17.578125 9.515625 -27.703125q9.531250 -10.140625 26.093750 -10.140625q6.531250 0.000000 12.312500 1.734375q5.796875 1.734375 10.875000 5.203125"/>
<path id="c_680e57528fc97ec49605e10827a40086" d="M39.406250 -66.218750q-10.750000 0.000000 -17.078125 8.015625q-6.312500 8.000000 -6.312500 21.828125q0.000000 13.765625 6.312500 21.781250q6.328125 8.000000 17.078125 8.000000q10.734375 0.000000 17.015625 -8.000000q6.281250 -8.015625 6.281250 -21.781250q0.000000 -13.828125 -6.281250 -21.828125q-6.281250 -8.015625 -17.015625 -8.015625M39.406250 -74.218750q15.328125 0.000000 24.500000 10.281250q9.187500 10.281250 9.187500 27.562500q0.000000 17.234375 -9.187500 27.515625q-9.171875 10.281250 -24.500000 10.281250q-15.375000 0.000000 -24.593750 -10.250000q-9.203125 -10.265625 -9.203125 -27.546875q0.000000 -17.281250 9.203125 -27.562500q9.218750 -10.281250 24.593750 -10.281250"/>
<path id="c_5190dbc1cdbe53cbdd605e1721869cb7" d="M46.000000 -62.703125l0.000000 27.203125l27.187500 0.000000l0.000000 8.296875l-27.187500 0.000000l0.000000 27.203125l-8.203125 0.000000l0.000000 -27.203125l-27.203125 0.000000l0.000000 -8.296875l27.203125 0.000000l0.000000 -27.203125z"/>
<path id="c_fe791a90f5471e2ab20a5ed41a7fa451" d="M54.890625 -33.015625l0.000000 33.015625l-8.984375 0.000000l0.000000 -32.718750q0.000000 -7.765625 -3.031250 -11.609375q-3.031250 -3.859375 -9.078125 -3.859375q-7.281250 0.000000 -11.484375 4.640625q-4.203125 4.625000 -4.203125 12.640625l0.000000 30.906250l-9.031250 0.000000l0.000000 -54.687500l9.031250 0.000000l0.000000 8.500000q3.234375 -4.937500 7.593750 -7.375000q4.375000 -2.437500 10.093750 -2.437500q9.421875 0.000000 14.250000 5.828125q4.843750 5.828125 4.843750 17.156250"/>
<path id="c_7b26b13f539f13a4c64eef23b6952d29" d="M4.890625 -31.390625l26.312500 0.000000l0.000000 8.000000l-26.312500 0.000000z"/>
<path id="c_6a63bda47b2f3da1cec6aadd80692cfe" d="M9.421875 -54.687500l8.984375 0.000000l0.000000 54.687500l-8.984375 0.000000zM9.421875 -75.984375l8.984375 0.000000l0.000000 11.390625l-8.984375 0.000000z"/>
<path id="c_d821beae607506e87470f334d9ff47af" d="M45.406250 -46.390625l0.000000 -29.593750l8.984375 0.000000l0.000000 75.984375l-8.984375 0.000000l0.000000 -8.203125q-2.828125 4.875000 -7.156250 7.250000q-4.312500 2.375000 -10.375000 2.375000q-9.906250 0.000000 -16.140625 -7.906250q-6.218750 -7.921875 -6.218750 -20.812500q0.000000 -12.890625 6.218750 -20.796875q6.234375 -7.906250 16.140625 -7.906250q6.062500 0.000000 10.375000 2.375000q4.328125 2.359375 7.156250 7.234375M14.796875 -27.296875q0.000000 9.906250 4.078125 15.546875q4.078125 5.640625 11.203125 5.640625q7.125000 0.000000 11.218750 -5.640625q4.109375 -5.640625 4.109375 -15.546875q0.000000 -9.906250 -4.109375 -15.546875q-4.093750 -5.640625 -11.218750 -5.640625q-7.125000 0.000000 -11.203125 5.640625q-4.078125 5.640625 -4.078125 15.546875"/>
<path id="c_d650c37394b681142a10dfc54356d478" d="M48.781250 -52.593750l0.000000 8.406250q-3.812500 -2.109375 -7.640625 -3.156250q-3.828125 -1.046875 -7.734375 -1.046875q-8.750000 0.000000 -13.593750 5.546875q-4.828125 5.531250 -4.828125 15.546875q0.000000 10.015625 4.828125 15.562500q4.843750 5.531250 13.593750 5.531250q3.906250 0.000000 7.734375 -1.046875q3.828125 -1.046875 7.640625 -3.156250l0.000000 8.312500q-3.765625 1.750000 -7.796875 2.625000q-4.015625 0.890625 -8.562500 0.890625q-12.359375 0.000000 -19.640625 -7.765625q-7.265625 -7.765625 -7.265625 -20.953125q0.000000 -13.375000 7.343750 -21.031250q7.359375 -7.671875 20.156250 -7.671875q4.140625 0.000000 8.093750 0.859375q3.953125 0.843750 7.671875 2.546875"/>
<path id="c_83c92fcf7184248154f741f54a0382f5" d="M11.718750 -12.406250l10.296875 0.000000l0.000000 8.406250l-8.000000 15.625000l-6.296875 0.000000l4.000000 -15.625000z"/>
<path id="c_b672e4bee30772019085dff1098f516d" d="M53.515625 -70.515625l0.000000 9.625000q-5.609375 -2.687500 -10.593750 -4.000000q-4.984375 -1.328125 -9.625000 -1.328125q-8.046875 0.000000 -12.421875 3.125000q-4.375000 3.125000 -4.375000 8.890625q0.000000 4.843750 2.906250 7.312500q2.906250 2.453125 11.015625 3.968750l5.953125 1.218750q11.031250 2.109375 16.281250 7.406250q5.250000 5.296875 5.250000 14.171875q0.000000 10.609375 -7.109375 16.078125q-7.093750 5.468750 -20.812500 5.468750q-5.171875 0.000000 -11.015625 -1.171875q-5.828125 -1.171875 -12.078125 -3.468750l0.000000 -10.156250q6.000000 3.359375 11.765625 5.078125q5.765625 1.703125 11.328125 1.703125q8.437500 0.000000 13.031250 -3.312500q4.593750 -3.328125 4.593750 -9.484375q0.000000 -5.359375 -3.296875 -8.390625q-3.296875 -3.031250 -10.812500 -4.546875l-6.015625 -1.171875q-11.031250 -2.187500 -15.968750 -6.875000q-4.921875 -4.687500 -4.921875 -13.046875q0.000000 -9.671875 6.812500 -15.234375q6.812500 -5.562500 18.765625 -5.562500q5.140625 0.000000 10.453125 0.937500q5.328125 0.921875 10.890625 2.765625"/>
<path id="c_4c6532c564269b2c70b230c2e45c01e4" d="M44.390625 -34.187500q3.171875 1.078125 6.171875 4.593750q3.000000 3.515625 6.031250 9.671875l10.015625 19.921875l-10.609375 0.000000l-9.312500 -18.703125q-3.625000 -7.328125 -7.015625 -9.718750q-3.390625 -2.390625 -9.250000 -2.390625l-10.750000 0.000000l0.000000 30.812500l-9.859375 0.000000l0.000000 -72.906250l22.265625 0.000000q12.500000 0.000000 18.656250 5.234375q6.156250 5.218750 6.156250 15.765625q0.000000 6.890625 -3.203125 11.437500q-3.203125 4.531250 -9.296875 6.281250M19.671875 -64.796875l0.000000 25.875000l12.406250 0.000000q7.125000 0.000000 10.765625 -3.296875q3.640625 -3.296875 3.640625 -9.687500q0.000000 -6.390625 -3.640625 -9.640625q-3.640625 -3.250000 -10.765625 -3.250000z"/>
<path id="c_dcb78ab3124be785176d70a27dde1356" d="M9.078125 -75.984375l9.031250 0.000000l0.000000 44.875000l26.812500 -23.578125l11.468750 0.000000l-29.000000 25.578125l30.234375 29.109375l-11.718750 0.000000l-27.796875 -26.703125l0.000000 26.703125l-9.031250 0.000000z"/>
<path id="c_9266f381a194deb1d9d439e9a9317ead" d="M9.421875 -54.687500l8.984375 0.000000l0.000000 55.671875q0.000000 10.437500 -3.984375 15.125000q-3.968750 4.687500 -12.812500 4.687500l-3.421875 0.000000l0.000000 -7.609375l2.406250 0.000000q5.125000 0.000000 6.968750 -2.375000q1.859375 -2.359375 1.859375 -9.828125zM9.421875 -75.984375l8.984375 0.000000l0.000000 11.390625l-8.984375 0.000000z"/>
<path id="c_8c0379a31aa3b07b28207e25658c6113" d="M10.593750 -45.406250l62.593750 0.000000l0.000000 8.203125l-62.593750 0.000000zM10.593750 -25.484375l62.593750 0.000000l0.000000 8.296875l-62.593750 0.000000z"/>
<path id="c_ed3e21196fb739f392806f09ca0594ef" d="M10.687500 -12.406250l10.312500 0.000000l0.000000 12.406250l-10.312500 0.000000z"/>
<path id="c_cd96f817f3cab988d24a2b49a5577fe6" d="M10.984375 -1.515625l0.000000 -8.984375q3.718750 1.765625 7.515625 2.687500q3.812500 0.921875 7.484375 0.921875q9.765625 0.000000 14.906250 -6.562500q5.156250 -6.562500 5.890625 -19.953125q-2.828125 4.203125 -7.187500 6.453125q-4.343750 2.250000 -9.609375 2.250000q-10.937500 0.000000 -17.312500 -6.609375q-6.375000 -6.625000 -6.375000 -18.109375q0.000000 -11.218750 6.640625 -18.000000q6.640625 -6.796875 17.671875 -6.796875q12.656250 0.000000 19.312500 9.703125q6.671875 9.687500 6.671875 28.140625q0.000000 17.234375 -8.187500 27.515625q-8.171875 10.281250 -21.984375 10.281250q-3.718750 0.000000 -7.531250 -0.734375q-3.796875 -0.734375 -7.906250 -2.203125M30.609375 -32.421875q6.640625 0.000000 10.515625 -4.531250q3.890625 -4.546875 3.890625 -12.468750q0.000000 -7.859375 -3.890625 -12.421875q-3.875000 -4.562500 -10.515625 -4.562500q-6.640625 0.000000 -10.515625 4.562500q-3.875000 4.562500 -3.875000 12.421875q0.000000 7.921875 3.875000 12.468750q3.875000 4.531250 10.515625 4.531250"/>
</defs>
<g style="fill: #000000; opacity: 1.000000" transform="translate(410.322991,31.072321)scale(0.144000)">
<use xlink:href="#c_a469f8ee191679fe73f3b765bd271597"/>
<use xlink:href="#c_680e57528fc97ec49605e10827a40086" x="69.824219"/>
<use xlink:href="#c_ed3f3ed3ebfbd18bcb9c012009a68ad1" x="148.535156"/>
<use xlink:href="#c_d41d8cd98f00b204e9800998ecf8427e" x="212.158203"/>
<use xlink:href="#c_5190dbc1cdbe53cbdd605e1721869cb7" x="243.945312"/>
<use xlink:href="#c_d41d8cd98f00b204e9800998ecf8427e" x="327.734375"/>
<use xlink:href="#c_fe791a90f5471e2ab20a5ed41a7fa451" x="359.521484"/>
<use xlink:href="#c_7b26b13f539f13a4c64eef23b6952d29" x="422.900391"/>
<use xlink:href="#c_9e4b30cbdf32072672ded72e9074c4c9" x="449.859375"/>
<use xlink:href="#c_6ec8d5749226675394676a5d2a3b468b" x="496.193359"/>
<use xlink:href="#c_6a63bda47b2f3da1cec6aadd80692cfe" x="537.306641"/>
<use xlink:href="#c_d821beae607506e87470f334d9ff47af" x="565.089844"/>
<use xlink:href="#c_0bce5afba2dc6b9024b26277c38ad8e8" x="628.566406"/>
<use xlink:href="#c_d650c37394b681142a10dfc54356d478" x="690.089844"/>
<use xlink:href="#c_01d93a582460e35a7945ca50d148ffeb" x="745.070312"/>
<use xlink:href="#c_fe791a90f5471e2ab20a5ed41a7fa451" x="806.349609"/>
<use xlink:href="#c_0bce5afba2dc6b9024b26277c38ad8e8" x="869.728516"/>
<use xlink:href="#c_83c92fcf7184248154f741f54a0382f5" x="931.251953"/>
<use xlink:href="#c_d41d8cd98f00b204e9800998ecf8427e" x="963.039063"/>
<use xlink:href="#c_b672e4bee30772019085dff1098f516d" x="994.826172"/>
<use xlink:href="#c_4c6532c564269b2c70b230c2e45c01e4" x="1058.302734"/>
<use xlink:href="#c_7aecf22c350a602b3f972fa102c17cac" x="1127.785156"/>
<use xlink:href="#c_83c92fcf7184248154f741f54a0382f5" x="1193.361328"/>
<use xlink:href="#c_d41d8cd98f00b204e9800998ecf8427e" x="1225.148438"/>
<use xlink:href="#c_dcb78ab3124be785176d70a27dde1356" x="1256.935547"/>
<use xlink:href="#c_6a63bda47b2f3da1cec6aadd80692cfe" x="1314.845703"/>
<use xlink:href="#c_9266f381a194deb1d9d439e9a9317ead" x="1342.628906"/>
<use xlink:href="#c_d41d8cd98f00b204e9800998ecf8427e" x="1370.412109"/>
<use xlink:href="#c_8c0379a31aa3b07b28207e25658c6113" x="1402.199219"/>
<use xlink:href="#c_d41d8cd98f00b204e9800998ecf8427e" x="1485.988281"/>
<use xlink:href="#c_7a2040fe3b94fcd41d0a72c84e93b115" x="1517.775391"/>
<use xlink:href="#c_ed3e21196fb739f392806f09ca0594ef" x="1581.398438"/>
<use xlink:href="#c_7a2040fe3b94fcd41d0a72c84e93b115" x="1613.185547"/>
<use xlink:href="#c_956f18cfdaf972f35a6c2b4aaac2532b" x="1676.808594"/>
<use xlink:href="#c_83c92fcf7184248154f741f54a0382f5" x="1740.431641"/>
<use xlink:href="#c_d41d8cd98f00b204e9800998ecf8427e" x="1772.218750"/>
<use xlink:href="#c_7a2040fe3b94fcd41d0a72c84e93b115" x="1804.005859"/>
<use xlink:href="#c_ed3e21196fb739f392806f09ca0594ef" x="1867.628906"/>
<use xlink:href="#c_7a2040fe3b94fcd41d0a72c84e93b115" x="1899.416016"/>
<use xlink:href="#c_cd96f817f3cab988d24a2b49a5577fe6" x="1963.039063"/>
<use xlink:href="#c_83c92fcf7184248154f741f54a0382f5" x="2026.662109"/>
<use xlink:href="#c_d41d8cd98f00b204e9800998ecf8427e" x="2058.449219"/>
<use xlink:href="#c_7a2040fe3b94fcd41d0a72c84e93b115" x="2090.236328"/>
<use xlink:href="#c_ed3e21196fb739f392806f09ca0594ef" x="2153.859375"/>
<use xlink:href="#c_42baa63129a918535c52adb20d687ea7" x="2185.646484"/>
<use xlink:href="#c_42baa63129a918535c52adb20d687ea7" x="2249.269531"/>
</g>
</g>
</g>
</g>
</svg>
