<?xml version="1.0" standalone="no"?>
<!DOCTYPE svg PUBLIC "-//W3C//DTD SVG 1.1//EN"
  "http://www.w3.org/Graphics/SVG/1.1/DTD/svg11.dtd">
<!-- Created with matplotlib (http://matplotlib.sourceforge.net/) -->
<svg width="915pt" height="732pt" viewBox="0 0 915 732"
   xmlns="http://www.w3.org/2000/svg"
   xmlns:xlink="http://www.w3.org/1999/xlink"
   version="1.1"
   id="svg1">
<g id="figure1">
<g id="patch1">
<path style="fill: #ffffff; stroke: #ffffff; stroke-width: 1.000000; stroke-linejoin: round; stroke-linecap: square;  opacity: 1.000000"  d="M0.000000 732.600000L915.300000 732.600000L915.300000 0.000000
L0.000000 0.000000L0.000000 732.600000"/>
</g>
<g id="patch2">
<path style="fill: #ffffff; opacity: 1.000000"  d="M0.000000 732.600000L915.300000 732.600000L915.300000 0.000000
L0.000000 0.000000L0.000000 732.600000"/>
</g>
<g id="axis3d1">
<g id="patch3">
<path style="fill: #f2f2f2; stroke: #f2f2f2; stroke-width: 1.000000; stroke-linejoin: round; stroke-linecap: square;  opacity: 0.500000"  d="M828.385891 554.294971L497.262998 434.795435L498.255087 71.891268
L842.424114 168.587000"/>
</g>
<g id="line2d1">
<path style="fill: none; stroke: #000000; stroke-width: 0.750000; stroke-linejoin: round; stroke-linecap: square;  opacity: 1.000000"  d="M828.385891 554.294971L438.860930 670.349106"/>
</g>
<g id="text1">
<defs>
<path id="c_9e4b30cbdf32072672ded72e9074c4c9" d="M-0.296875 -72.906250l61.671875 0.000000l0.000000 8.312500l-25.875000 0.000000l0.000000 64.593750l-9.906250 0.000000l0.000000 -64.593750l-25.890625 0.000000z"/>
<path id="c_0bce5afba2dc6b9024b26277c38ad8e8" d="M56.203125 -29.593750l0.000000 4.390625l-41.312500 0.000000q0.593750 9.281250 5.593750 14.140625q5.000000 4.859375 13.937500 4.859375q5.171875 0.000000 10.031250 -1.265625q4.859375 -1.265625 9.656250 -3.812500l0.000000 8.500000q-4.843750 2.046875 -9.921875 3.125000q-5.078125 1.078125 -10.296875 1.078125q-13.093750 0.000000 -20.734375 -7.609375q-7.640625 -7.625000 -7.640625 -20.625000q0.000000 -13.421875 7.250000 -21.296875q7.250000 -7.890625 19.562500 -7.890625q11.031250 0.000000 17.453125 7.109375q6.421875 7.093750 6.421875 19.296875M47.218750 -32.234375q-0.093750 -7.359375 -4.125000 -11.750000q-4.031250 -4.406250 -10.671875 -4.406250q-7.515625 0.000000 -12.031250 4.250000q-4.515625 4.250000 -5.203125 11.968750z"/>
<path id="c_4653c6dfde66c7610eae0911760d3490" d="M52.000000 -44.187500q3.375000 -6.062500 8.062500 -8.937500q4.687500 -2.875000 11.031250 -2.875000q8.546875 0.000000 13.187500 5.984375q4.640625 5.968750 4.640625 17.000000l0.000000 33.015625l-9.031250 0.000000l0.000000 -32.718750q0.000000 -7.859375 -2.796875 -11.656250q-2.781250 -3.812500 -8.484375 -3.812500q-6.984375 0.000000 -11.046875 4.640625q-4.046875 4.625000 -4.046875 12.640625l0.000000 30.906250l-9.031250 0.000000l0.000000 -32.718750q0.000000 -7.906250 -2.781250 -11.687500q-2.781250 -3.781250 -8.593750 -3.781250q-6.890625 0.000000 -10.953125 4.656250q-4.046875 4.656250 -4.046875 12.625000l0.000000 30.906250l-9.031250 0.000000l0.000000 -54.687500l9.031250 0.000000l0.000000 8.500000q3.078125 -5.031250 7.375000 -7.421875q4.296875 -2.390625 10.203125 -2.390625q5.968750 0.000000 10.140625 3.031250q4.171875 3.015625 6.171875 8.781250"/>
<path id="c_f15a64fcd463ef4629c48bab42cde24c" d="M18.109375 -8.203125l0.000000 29.000000l-9.031250 0.000000l0.000000 -75.484375l9.031250 0.000000l0.000000 8.296875q2.843750 -4.875000 7.156250 -7.234375q4.328125 -2.375000 10.328125 -2.375000q9.968750 0.000000 16.187500 7.906250q6.234375 7.906250 6.234375 20.796875q0.000000 12.890625 -6.234375 20.812500q-6.218750 7.906250 -16.187500 7.906250q-6.000000 0.000000 -10.328125 -2.375000q-4.312500 -2.375000 -7.156250 -7.250000M48.687500 -27.296875q0.000000 -9.906250 -4.078125 -15.546875q-4.078125 -5.640625 -11.203125 -5.640625q-7.140625 0.000000 -11.218750 5.640625q-4.078125 5.640625 -4.078125 15.546875q0.000000 9.906250 4.078125 15.546875q4.078125 5.640625 11.218750 5.640625q7.125000 0.000000 11.203125 -5.640625q4.078125 -5.640625 4.078125 -15.546875"/>
<path id="c_6ec8d5749226675394676a5d2a3b468b" d="M41.109375 -46.296875q-1.515625 -0.875000 -3.296875 -1.281250q-1.781250 -0.421875 -3.921875 -0.421875q-7.625000 0.000000 -11.703125 4.953125q-4.078125 4.953125 -4.078125 14.234375l0.000000 28.812500l-9.031250 0.000000l0.000000 -54.687500l9.031250 0.000000l0.000000 8.500000q2.843750 -4.984375 7.375000 -7.390625q4.546875 -2.421875 11.046875 -2.421875q0.921875 0.000000 2.046875 0.125000q1.125000 0.109375 2.484375 0.359375z"/>
<path id="c_01d93a582460e35a7945ca50d148ffeb" d="M34.281250 -27.484375q-10.890625 0.000000 -15.093750 2.484375q-4.203125 2.484375 -4.203125 8.500000q0.000000 4.781250 3.156250 7.593750q3.156250 2.796875 8.562500 2.796875q7.484375 0.000000 12.000000 -5.296875q4.515625 -5.296875 4.515625 -14.078125l0.000000 -2.000000zM52.203125 -31.203125l0.000000 31.203125l-8.984375 0.000000l0.000000 -8.296875q-3.078125 4.968750 -7.671875 7.343750q-4.593750 2.375000 -11.234375 2.375000q-8.390625 0.000000 -13.359375 -4.718750q-4.953125 -4.718750 -4.953125 -12.625000q0.000000 -9.218750 6.171875 -13.906250q6.187500 -4.687500 18.437500 -4.687500l12.609375 0.000000l0.000000 -0.890625q0.000000 -6.203125 -4.078125 -9.593750q-4.078125 -3.390625 -11.453125 -3.390625q-4.687500 0.000000 -9.140625 1.125000q-4.437500 1.125000 -8.531250 3.375000l0.000000 -8.312500q4.921875 -1.906250 9.562500 -2.843750q4.640625 -0.953125 9.031250 -0.953125q11.875000 0.000000 17.734375 6.156250q5.859375 6.140625 5.859375 18.640625"/>
<path id="c_0f8c41144cfbf448378cb6fd1cc8e549" d="M18.312500 -70.218750l0.000000 15.531250l18.500000 0.000000l0.000000 6.984375l-18.500000 0.000000l0.000000 29.687500q0.000000 6.687500 1.828125 8.593750q1.828125 1.906250 7.453125 1.906250l9.218750 0.000000l0.000000 7.515625l-9.218750 0.000000q-10.406250 0.000000 -14.359375 -3.875000q-3.953125 -3.890625 -3.953125 -14.140625l0.000000 -29.687500l-6.593750 0.000000l0.000000 -6.984375l6.593750 0.000000l0.000000 -15.531250z"/>
<path id="c_3b515ad41f960e225ec85275856806ca" d="M8.500000 -21.578125l0.000000 -33.109375l8.984375 0.000000l0.000000 32.765625q0.000000 7.765625 3.015625 11.656250q3.031250 3.875000 9.093750 3.875000q7.265625 0.000000 11.484375 -4.640625q4.234375 -4.640625 4.234375 -12.656250l0.000000 -31.000000l8.984375 0.000000l0.000000 54.687500l-8.984375 0.000000l0.000000 -8.406250q-3.265625 4.984375 -7.593750 7.406250q-4.312500 2.421875 -10.031250 2.421875q-9.421875 0.000000 -14.312500 -5.859375q-4.875000 -5.859375 -4.875000 -17.140625M31.109375 -56.000000z"/>
<path id="c_d41d8cd98f00b204e9800998ecf8427e" d=""/>
<path id="c_1a1d9ef1e4ddee695bd67a282879f099" d="M8.593750 -75.984375l20.703125 0.000000l0.000000 6.984375l-11.718750 0.000000l0.000000 75.203125l11.718750 0.000000l0.000000 6.984375l-20.703125 0.000000z"/>
<path id="c_7aecf22c350a602b3f972fa102c17cac" d="M9.812500 -72.906250l9.859375 0.000000l0.000000 30.812500l32.718750 -30.812500l12.703125 0.000000l-36.187500 33.984375l38.765625 38.921875l-12.984375 0.000000l-35.015625 -35.109375l0.000000 35.109375l-9.859375 0.000000z"/>
<path id="c_5bcf09947f6bf611091602c6fea1d302" d="M30.421875 -75.984375l0.000000 89.171875l-20.703125 0.000000l0.000000 -6.984375l11.671875 0.000000l0.000000 -75.203125l-11.671875 0.000000l0.000000 -6.984375z"/>
</defs>
<g style="fill: #000000; opacity: 1.000000" transform="translate(673.020816,671.820526)rotate(-20.4)scale(0.120000)">
<use xlink:href="#c_9e4b30cbdf32072672ded72e9074c4c9"/>
<use xlink:href="#c_0bce5afba2dc6b9024b26277c38ad8e8" x="44.083984"/>
<use xlink:href="#c_4653c6dfde66c7610eae0911760d3490" x="105.607422"/>
<use xlink:href="#c_f15a64fcd463ef4629c48bab42cde24c" x="203.019531"/>
<use xlink:href="#c_0bce5afba2dc6b9024b26277c38ad8e8" x="266.496094"/>
<use xlink:href="#c_6ec8d5749226675394676a5d2a3b468b" x="328.019531"/>
<use xlink:href="#c_01d93a582460e35a7945ca50d148ffeb" x="369.132812"/>
<use xlink:href="#c_0f8c41144cfbf448378cb6fd1cc8e549" x="430.412109"/>
<use xlink:href="#c_3b515ad41f960e225ec85275856806ca" x="469.621094"/>
<use xlink:href="#c_6ec8d5749226675394676a5d2a3b468b" x="533.000000"/>
<use xlink:href="#c_0bce5afba2dc6b9024b26277c38ad8e8" x="571.863281"/>
<use xlink:href="#c_d41d8cd98f00b204e9800998ecf8427e" x="633.386719"/>
<use xlink:href="#c_1a1d9ef1e4ddee695bd67a282879f099" x="665.173828"/>
<use xlink:href="#c_7aecf22c350a602b3f972fa102c17cac" x="704.187500"/>
<use xlink:href="#c_5bcf09947f6bf611091602c6fea1d302" x="769.763672"/>
</g>
</g>
<g id="Line3DCollection1">
<defs>
<path id="coll0_0_9dd5c8f1225dc653dc08645631d67e36" d="M489.516903 -77.343214L164.995884 -210.434214L153.273907 -590.061596"/>
<path id="coll0_1_1d0ea12e22d8d03917583514e727acda" d="M573.262221 -102.294093L246.869354 -231.963019L238.404716 -607.495149"/>
<path id="coll0_2_cb21a3afb7aa585cde7e8df2fad89b78" d="M654.790616 -126.584468L326.726710 -252.961682L321.360697 -624.483330"/>
<path id="coll0_3_0f9955edbd3617c1866034aeaecf2474" d="M734.188968 -150.240223L404.641516 -273.449547L402.224138 -641.042988"/>
<path id="coll0_4_bb35bef6db98302b8439fce6a5688047" d="M811.539677 -173.285908L480.683798 -293.445028L481.073228 -657.190137"/>
</defs>
<use style="fill: none; stroke: #e6e6e6; stroke-width: 1.000000; stroke-linejoin: round; stroke-linecap: butt;  opacity: 1.000000" xlink:href="#coll0_0_9dd5c8f1225dc653dc08645631d67e36" x="0.000000" y="732.600000"/>
<use style="fill: none; stroke: #e6e6e6; stroke-width: 1.000000; stroke-linejoin: round; stroke-linecap: butt;  opacity: 1.000000" xlink:href="#coll0_1_1d0ea12e22d8d03917583514e727acda" x="0.000000" y="732.600000"/>
<use style="fill: none; stroke: #e6e6e6; stroke-width: 1.000000; stroke-linejoin: round; stroke-linecap: butt;  opacity: 1.000000" xlink:href="#coll0_2_cb21a3afb7aa585cde7e8df2fad89b78" x="0.000000" y="732.600000"/>
<use style="fill: none; stroke: #e6e6e6; stroke-width: 1.000000; stroke-linejoin: round; stroke-linecap: butt;  opacity: 1.000000" xlink:href="#coll0_3_0f9955edbd3617c1866034aeaecf2474" x="0.000000" y="732.600000"/>
<use style="fill: none; stroke: #e6e6e6; stroke-width: 1.000000; stroke-linejoin: round; stroke-linecap: butt;  opacity: 1.000000" xlink:href="#coll0_4_bb35bef6db98302b8439fce6a5688047" x="0.000000" y="732.600000"/>
</g>
<g id="xtick1">
<g id="line2d2">
<path style="fill: none; stroke: #000000; stroke-width: 1.000000; stroke-linejoin: round; stroke-linecap: square;  opacity: 1.000000"  d="M486.722387 654.110713L495.116285 657.553178"/>
</g>
<g id="text2">
<defs>
<path id="c_42baa63129a918535c52adb20d687ea7" d="M12.406250 -8.296875l16.109375 0.000000l0.000000 -55.625000l-17.531250 3.515625l0.000000 -8.984375l17.437500 -3.515625l9.859375 0.000000l0.000000 64.609375l16.109375 0.000000l0.000000 8.296875l-41.984375 0.000000z"/>
<path id="c_7a2040fe3b94fcd41d0a72c84e93b115" d="M31.781250 -66.406250q-7.609375 0.000000 -11.453125 7.500000q-3.828125 7.484375 -3.828125 22.531250q0.000000 14.984375 3.828125 22.484375q3.843750 7.500000 11.453125 7.500000q7.671875 0.000000 11.500000 -7.500000q3.843750 -7.500000 3.843750 -22.484375q0.000000 -15.046875 -3.843750 -22.531250q-3.828125 -7.500000 -11.500000 -7.500000M31.781250 -74.218750q12.265625 0.000000 18.734375 9.703125q6.468750 9.687500 6.468750 28.140625q0.000000 18.406250 -6.468750 28.109375q-6.468750 9.687500 -18.734375 9.687500q-12.250000 0.000000 -18.718750 -9.687500q-6.468750 -9.703125 -6.468750 -28.109375q0.000000 -18.453125 6.468750 -28.140625q6.468750 -9.703125 18.718750 -9.703125"/>
</defs>
<g style="fill: #000000; opacity: 1.000000" transform="translate(495.880730,689.734802)scale(0.120000)">
<use xlink:href="#c_42baa63129a918535c52adb20d687ea7"/>
<use xlink:href="#c_7a2040fe3b94fcd41d0a72c84e93b115" x="63.623047"/>
<use xlink:href="#c_7a2040fe3b94fcd41d0a72c84e93b115" x="127.246094"/>
</g>
</g>
</g>
<g id="xtick2">
<g id="line2d3">
<path style="fill: none; stroke: #000000; stroke-width: 1.000000; stroke-linejoin: round; stroke-linecap: square;  opacity: 1.000000"  d="M570.454260 629.190364L578.888402 632.541069"/>
</g>
<g id="text3">
<defs>
<path id="c_ed3f3ed3ebfbd18bcb9c012009a68ad1" d="M19.187500 -8.296875l34.421875 0.000000l0.000000 8.296875l-46.281250 0.000000l0.000000 -8.296875q5.609375 -5.812500 15.296875 -15.593750q9.703125 -9.796875 12.187500 -12.640625q4.734375 -5.312500 6.609375 -9.000000q1.890625 -3.687500 1.890625 -7.250000q0.000000 -5.812500 -4.078125 -9.468750q-4.078125 -3.671875 -10.625000 -3.671875q-4.640625 0.000000 -9.796875 1.609375q-5.140625 1.609375 -11.000000 4.890625l0.000000 -9.968750q5.953125 -2.390625 11.125000 -3.609375q5.187500 -1.218750 9.484375 -1.218750q11.328125 0.000000 18.062500 5.671875q6.734375 5.656250 6.734375 15.125000q0.000000 4.500000 -1.687500 8.531250q-1.671875 4.015625 -6.125000 9.484375q-1.218750 1.421875 -7.765625 8.187500q-6.531250 6.765625 -18.453125 18.921875"/>
</defs>
<g style="fill: #000000; opacity: 1.000000" transform="translate(579.329761,664.396269)scale(0.120000)">
<use xlink:href="#c_ed3f3ed3ebfbd18bcb9c012009a68ad1"/>
<use xlink:href="#c_7a2040fe3b94fcd41d0a72c84e93b115" x="63.623047"/>
<use xlink:href="#c_7a2040fe3b94fcd41d0a72c84e93b115" x="127.246094"/>
</g>
</g>
</g>
<g id="xtick3">
<g id="line2d4">
<path style="fill: none; stroke: #000000; stroke-width: 1.000000; stroke-linejoin: round; stroke-linecap: square;  opacity: 1.000000"  d="M651.970896 604.929316L660.440222 608.191881"/>
</g>
<g id="text4">
<defs>
<path id="c_3dcfa38a02242cb63ec6726c6e70be7a" d="M40.578125 -39.312500q7.078125 1.515625 11.046875 6.312500q3.984375 4.781250 3.984375 11.812500q0.000000 10.781250 -7.421875 16.703125q-7.421875 5.906250 -21.093750 5.906250q-4.578125 0.000000 -9.437500 -0.906250q-4.859375 -0.906250 -10.031250 -2.718750l0.000000 -9.515625q4.093750 2.390625 8.968750 3.609375q4.890625 1.218750 10.218750 1.218750q9.265625 0.000000 14.125000 -3.656250q4.859375 -3.656250 4.859375 -10.640625q0.000000 -6.453125 -4.515625 -10.078125q-4.515625 -3.640625 -12.562500 -3.640625l-8.500000 0.000000l0.000000 -8.109375l8.890625 0.000000q7.265625 0.000000 11.125000 -2.906250q3.859375 -2.906250 3.859375 -8.375000q0.000000 -5.609375 -3.984375 -8.609375q-3.968750 -3.015625 -11.390625 -3.015625q-4.062500 0.000000 -8.703125 0.890625q-4.640625 0.875000 -10.203125 2.718750l0.000000 -8.781250q5.625000 -1.562500 10.531250 -2.343750q4.906250 -0.781250 9.250000 -0.781250q11.234375 0.000000 17.765625 5.109375q6.546875 5.093750 6.546875 13.781250q0.000000 6.062500 -3.468750 10.234375q-3.468750 4.171875 -9.859375 5.781250"/>
</defs>
<g style="fill: #000000; opacity: 1.000000" transform="translate(660.802251,639.729671)scale(0.120000)">
<use xlink:href="#c_3dcfa38a02242cb63ec6726c6e70be7a"/>
<use xlink:href="#c_7a2040fe3b94fcd41d0a72c84e93b115" x="63.623047"/>
<use xlink:href="#c_7a2040fe3b94fcd41d0a72c84e93b115" x="127.246094"/>
</g>
</g>
</g>
<g id="xtick4">
<g id="line2d5">
<path style="fill: none; stroke: #000000; stroke-width: 1.000000; stroke-linejoin: round; stroke-linecap: square;  opacity: 1.000000"  d="M731.359057 581.301746L739.858860 584.479603"/>
</g>
<g id="text5">
<defs>
<path id="c_a0416418d96557a09b8c1332d34883ba" d="M37.796875 -64.312500l-24.906250 38.921875l24.906250 0.000000zM35.203125 -72.906250l12.406250 0.000000l0.000000 47.515625l10.406250 0.000000l0.000000 8.203125l-10.406250 0.000000l0.000000 17.187500l-9.812500 0.000000l0.000000 -17.187500l-32.906250 0.000000l0.000000 -9.515625z"/>
</defs>
<g style="fill: #000000; opacity: 1.000000" transform="translate(739.955615,615.708630)scale(0.120000)">
<use xlink:href="#c_a0416418d96557a09b8c1332d34883ba"/>
<use xlink:href="#c_7a2040fe3b94fcd41d0a72c84e93b115" x="63.623047"/>
<use xlink:href="#c_7a2040fe3b94fcd41d0a72c84e93b115" x="127.246094"/>
</g>
</g>
</g>
<g id="xtick5">
<g id="line2d6">
<path style="fill: none; stroke: #000000; stroke-width: 1.000000; stroke-linejoin: round; stroke-linecap: square;  opacity: 1.000000"  d="M808.701034 558.283163L817.226933 561.379570"/>
</g>
<g id="text6">
<defs>
<path id="c_1260a2df50f305f3db244e29828f968e" d="M10.796875 -72.906250l38.718750 0.000000l0.000000 8.312500l-29.687500 0.000000l0.000000 17.859375q2.140625 -0.734375 4.281250 -1.093750q2.156250 -0.359375 4.312500 -0.359375q12.203125 0.000000 19.328125 6.687500q7.140625 6.687500 7.140625 18.109375q0.000000 11.765625 -7.328125 18.296875q-7.328125 6.515625 -20.656250 6.515625q-4.593750 0.000000 -9.359375 -0.781250q-4.750000 -0.781250 -9.828125 -2.343750l0.000000 -9.921875q4.390625 2.390625 9.078125 3.562500q4.687500 1.171875 9.906250 1.171875q8.453125 0.000000 13.375000 -4.437500q4.937500 -4.437500 4.937500 -12.062500q0.000000 -7.609375 -4.937500 -12.046875q-4.921875 -4.453125 -13.375000 -4.453125q-3.953125 0.000000 -7.890625 0.875000q-3.921875 0.875000 -8.015625 2.734375z"/>
</defs>
<g style="fill: #000000; opacity: 1.000000" transform="translate(817.388076,592.308130)scale(0.120000)">
<use xlink:href="#c_1260a2df50f305f3db244e29828f968e"/>
<use xlink:href="#c_7a2040fe3b94fcd41d0a72c84e93b115" x="63.623047"/>
<use xlink:href="#c_7a2040fe3b94fcd41d0a72c84e93b115" x="127.246094"/>
</g>
</g>
</g>
</g>
<g id="axis3d2">
<g id="patch4">
<path style="fill: #e6e6e6; stroke: #e6e6e6; stroke-width: 1.000000; stroke-linejoin: round; stroke-linecap: square;  opacity: 0.500000"  d="M115.548394 535.168110L497.262998 434.795435L498.255087 71.891268
L101.819628 153.075493"/>
</g>
<g id="line2d7">
<path style="fill: none; stroke: #000000; stroke-width: 0.750000; stroke-linejoin: round; stroke-linecap: square;  opacity: 1.000000"  d="M115.548394 535.168110L438.860930 670.349106"/>
</g>
<g id="text7">
<defs>
<path id="c_ff9441f72805bc441fcb0bfe0d774f13" d="M19.671875 -64.796875l0.000000 56.687500l11.921875 0.000000q15.093750 0.000000 22.093750 -6.828125q7.000000 -6.843750 7.000000 -21.593750q0.000000 -14.640625 -7.000000 -21.453125q-7.000000 -6.812500 -22.093750 -6.812500zM9.812500 -72.906250l20.265625 0.000000q21.187500 0.000000 31.093750 8.812500q9.921875 8.812500 9.921875 27.562500q0.000000 18.859375 -9.968750 27.703125q-9.953125 8.828125 -31.046875 8.828125l-20.265625 0.000000z"/>
<path id="c_fe791a90f5471e2ab20a5ed41a7fa451" d="M54.890625 -33.015625l0.000000 33.015625l-8.984375 0.000000l0.000000 -32.718750q0.000000 -7.765625 -3.031250 -11.609375q-3.031250 -3.859375 -9.078125 -3.859375q-7.281250 0.000000 -11.484375 4.640625q-4.203125 4.625000 -4.203125 12.640625l0.000000 30.906250l-9.031250 0.000000l0.000000 -54.687500l9.031250 0.000000l0.000000 8.500000q3.234375 -4.937500 7.593750 -7.375000q4.375000 -2.437500 10.093750 -2.437500q9.421875 0.000000 14.250000 5.828125q4.843750 5.828125 4.843750 17.156250"/>
<path id="c_8e0810ad13fe20a2a87a2619799b154d" d="M44.281250 -53.078125l0.000000 8.500000q-3.796875 -1.953125 -7.906250 -2.921875q-4.093750 -0.984375 -8.500000 -0.984375q-6.687500 0.000000 -10.031250 2.046875q-3.343750 2.046875 -3.343750 6.156250q0.000000 3.125000 2.390625 4.906250q2.390625 1.781250 9.625000 3.390625l3.078125 0.687500q9.562500 2.046875 13.593750 5.781250q4.031250 3.734375 4.031250 10.421875q0.000000 7.625000 -6.031250 12.078125q-6.031250 4.437500 -16.578125 4.437500q-4.390625 0.000000 -9.156250 -0.859375q-4.765625 -0.859375 -10.031250 -2.562500l0.000000 -9.281250q4.984375 2.593750 9.812500 3.890625q4.828125 1.281250 9.578125 1.281250q6.343750 0.000000 9.750000 -2.171875q3.421875 -2.171875 3.421875 -6.125000q0.000000 -3.656250 -2.468750 -5.609375q-2.453125 -1.953125 -10.812500 -3.765625l-3.125000 -0.734375q-8.343750 -1.750000 -12.062500 -5.390625q-3.703125 -3.640625 -3.703125 -9.984375q0.000000 -7.718750 5.468750 -11.906250q5.468750 -4.203125 15.531250 -4.203125q4.968750 0.000000 9.359375 0.734375q4.406250 0.718750 8.109375 2.187500"/>
<path id="c_6a63bda47b2f3da1cec6aadd80692cfe" d="M9.421875 -54.687500l8.984375 0.000000l0.000000 54.687500l-8.984375 0.000000zM9.421875 -75.984375l8.984375 0.000000l0.000000 11.390625l-8.984375 0.000000z"/>
<path id="c_3fe22c4af425ac970aec982ae9662abe" d="M32.171875 5.078125q-3.796875 9.765625 -7.421875 12.734375q-3.609375 2.984375 -9.656250 2.984375l-7.187500 0.000000l0.000000 -7.515625l5.281250 0.000000q3.703125 0.000000 5.750000 -1.765625q2.062500 -1.750000 4.546875 -8.296875l1.609375 -4.093750l-22.109375 -53.812500l9.515625 0.000000l17.093750 42.765625l17.093750 -42.765625l9.515625 0.000000z"/>
<path id="c_f05dd90d41f04bb96ef1ca503cc2044b" d="M30.609375 -48.390625q-7.218750 0.000000 -11.421875 5.640625q-4.203125 5.640625 -4.203125 15.453125q0.000000 9.812500 4.171875 15.453125q4.187500 5.640625 11.453125 5.640625q7.187500 0.000000 11.375000 -5.656250q4.203125 -5.671875 4.203125 -15.437500q0.000000 -9.718750 -4.203125 -15.406250q-4.187500 -5.687500 -11.375000 -5.687500M30.609375 -56.000000q11.718750 0.000000 18.406250 7.625000q6.703125 7.609375 6.703125 21.078125q0.000000 13.421875 -6.703125 21.078125q-6.687500 7.640625 -18.406250 7.640625q-11.765625 0.000000 -18.437500 -7.640625q-6.656250 -7.656250 -6.656250 -21.078125q0.000000 -13.468750 6.656250 -21.078125q6.671875 -7.625000 18.437500 -7.625000"/>
<path id="c_5099edb83619131346ae654950954dea" d="M9.421875 -75.984375l8.984375 0.000000l0.000000 75.984375l-8.984375 0.000000z"/>
<path id="c_9c6d5cbc59c6231647eb409cc6b37bb3" d="M25.390625 -72.906250l8.296875 0.000000l-25.390625 82.187500l-8.296875 0.000000z"/>
</defs>
<g style="fill: #000000; opacity: 1.000000" transform="translate(154.620428,619.737047)rotate(-332.4)scale(0.120000)">
<use xlink:href="#c_ff9441f72805bc441fcb0bfe0d774f13"/>
<use xlink:href="#c_0bce5afba2dc6b9024b26277c38ad8e8" x="77.001953"/>
<use xlink:href="#c_fe791a90f5471e2ab20a5ed41a7fa451" x="138.525391"/>
<use xlink:href="#c_8e0810ad13fe20a2a87a2619799b154d" x="201.904297"/>
<use xlink:href="#c_6a63bda47b2f3da1cec6aadd80692cfe" x="254.003906"/>
<use xlink:href="#c_0f8c41144cfbf448378cb6fd1cc8e549" x="281.787109"/>
<use xlink:href="#c_3fe22c4af425ac970aec982ae9662abe" x="320.996094"/>
<use xlink:href="#c_d41d8cd98f00b204e9800998ecf8427e" x="380.175781"/>
<use xlink:href="#c_1a1d9ef1e4ddee695bd67a282879f099" x="411.962891"/>
<use xlink:href="#c_4653c6dfde66c7610eae0911760d3490" x="450.976563"/>
<use xlink:href="#c_f05dd90d41f04bb96ef1ca503cc2044b" x="548.388672"/>
<use xlink:href="#c_5099edb83619131346ae654950954dea" x="609.570312"/>
<use xlink:href="#c_9c6d5cbc59c6231647eb409cc6b37bb3" x="637.353516"/>
<use xlink:href="#c_5099edb83619131346ae654950954dea" x="671.044922"/>
<use xlink:href="#c_5bcf09947f6bf611091602c6fea1d302" x="698.828125"/>
</g>
</g>
<g id="Line3DCollection2">
<defs>
<path id="coll1_0_e9f66d992032fbb64794855150e22c8c" d="M756.033374 -588.284841L745.435220 -208.241246L357.595119 -96.229142"/>
<path id="coll1_1_67d33c713581f21c7c0d0e372a047a1d" d="M679.552443 -609.772479L671.907406 -234.776831L285.713003 -126.283949"/>
<path id="coll1_2_51ac95251e36e009641c6627a37dc771" d="M605.469477 -630.586399L600.602121 -260.510323L216.139897 -155.373331"/>
<path id="coll1_3_4f4ee148d1563970c9a62b6b12871d77" d="M533.673439 -650.757798L531.420098 -285.477548L148.766304 -183.543068"/>
</defs>
<use style="fill: none; stroke: #e6e6e6; stroke-width: 1.000000; stroke-linejoin: round; stroke-linecap: butt;  opacity: 1.000000" xlink:href="#coll1_0_e9f66d992032fbb64794855150e22c8c" x="0.000000" y="732.600000"/>
<use style="fill: none; stroke: #e6e6e6; stroke-width: 1.000000; stroke-linejoin: round; stroke-linecap: butt;  opacity: 1.000000" xlink:href="#coll1_1_67d33c713581f21c7c0d0e372a047a1d" x="0.000000" y="732.600000"/>
<use style="fill: none; stroke: #e6e6e6; stroke-width: 1.000000; stroke-linejoin: round; stroke-linecap: butt;  opacity: 1.000000" xlink:href="#coll1_2_51ac95251e36e009641c6627a37dc771" x="0.000000" y="732.600000"/>
<use style="fill: none; stroke: #e6e6e6; stroke-width: 1.000000; stroke-linejoin: round; stroke-linecap: butt;  opacity: 1.000000" xlink:href="#coll1_3_4f4ee148d1563970c9a62b6b12871d77" x="0.000000" y="732.600000"/>
</g>
<g id="xtick6">
<g id="line2d8">
<path style="fill: none; stroke: #000000; stroke-width: 1.000000; stroke-linejoin: round; stroke-linecap: square;  opacity: 1.000000"  d="M360.897111 635.417210L350.980856 638.281123"/>
</g>
<g id="text8">
<g style="fill: #000000; opacity: 1.000000" transform="translate(335.126009,669.367060)scale(0.120000)">
<use xlink:href="#c_1260a2df50f305f3db244e29828f968e"/>
</g>
</g>
</g>
<g id="xtick7">
<g id="line2d9">
<path style="fill: none; stroke: #000000; stroke-width: 1.000000; stroke-linejoin: round; stroke-linecap: square;  opacity: 1.000000"  d="M288.997747 605.393274L279.133458 608.164430"/>
</g>
<g id="text9">
<g style="fill: #000000; opacity: 1.000000" transform="translate(259.728709,639.036276)scale(0.120000)">
<use xlink:href="#c_42baa63129a918535c52adb20d687ea7"/>
<use xlink:href="#c_7a2040fe3b94fcd41d0a72c84e93b115" x="63.623047"/>
</g>
</g>
</g>
<g id="xtick8">
<g id="line2d10">
<path style="fill: none; stroke: #000000; stroke-width: 1.000000; stroke-linejoin: round; stroke-linecap: square;  opacity: 1.000000"  d="M219.406788 576.333288L209.596272 579.016122"/>
</g>
<g id="text10">
<g style="fill: #000000; opacity: 1.000000" transform="translate(190.510587,609.373455)scale(0.120000)">
<use xlink:href="#c_42baa63129a918535c52adb20d687ea7"/>
<use xlink:href="#c_1260a2df50f305f3db244e29828f968e" x="63.623047"/>
</g>
</g>
</g>
<g id="xtick9">
<g id="line2d11">
<path style="fill: none; stroke: #000000; stroke-width: 1.000000; stroke-linejoin: round; stroke-linecap: square;  opacity: 1.000000"  d="M152.014822 548.191564L142.259636 550.790232"/>
</g>
<g id="text11">
<g style="fill: #000000; opacity: 1.000000" transform="translate(123.018499,580.957048)scale(0.120000)">
<use xlink:href="#c_ed3f3ed3ebfbd18bcb9c012009a68ad1"/>
<use xlink:href="#c_7a2040fe3b94fcd41d0a72c84e93b115" x="63.623047"/>
</g>
</g>
</g>
</g>
<g id="axis3d3">
<g id="patch5">
<path style="fill: #ececec; stroke: #ececec; stroke-width: 1.000000; stroke-linejoin: round; stroke-linecap: square;  opacity: 0.500000"  d="M438.860930 670.349106L828.385891 554.294971L497.262998 434.795435
L115.548394 535.168110"/>
</g>
<g id="line2d12">
<path style="fill: none; stroke: #000000; stroke-width: 0.750000; stroke-linejoin: round; stroke-linecap: square;  opacity: 1.000000"  d="M115.548394 535.168110L101.819628 153.075493"/>
</g>
<g id="text12">
<defs>
<path id="c_518d586bee075aa0153eaebfcb5ab11f" d="M19.671875 -64.796875l0.000000 27.390625l12.406250 0.000000q6.890625 0.000000 10.640625 -3.562500q3.765625 -3.562500 3.765625 -10.156250q0.000000 -6.546875 -3.765625 -10.109375q-3.750000 -3.562500 -10.640625 -3.562500zM9.812500 -72.906250l22.265625 0.000000q12.265625 0.000000 18.531250 5.546875q6.281250 5.546875 6.281250 16.234375q0.000000 10.796875 -6.281250 16.312500q-6.265625 5.515625 -18.531250 5.515625l-12.406250 0.000000l0.000000 29.296875l-9.859375 0.000000z"/>
<path id="c_5cc9741494d2ad8f9764e03ae145569f" d="M48.687500 -27.296875q0.000000 -9.906250 -4.078125 -15.546875q-4.078125 -5.640625 -11.203125 -5.640625q-7.140625 0.000000 -11.218750 5.640625q-4.078125 5.640625 -4.078125 15.546875q0.000000 9.906250 4.078125 15.546875q4.078125 5.640625 11.218750 5.640625q7.125000 0.000000 11.203125 -5.640625q4.078125 -5.640625 4.078125 -15.546875M18.109375 -46.390625q2.843750 -4.875000 7.156250 -7.234375q4.328125 -2.375000 10.328125 -2.375000q9.968750 0.000000 16.187500 7.906250q6.234375 7.906250 6.234375 20.796875q0.000000 12.890625 -6.234375 20.812500q-6.218750 7.906250 -16.187500 7.906250q-6.000000 0.000000 -10.328125 -2.375000q-4.312500 -2.375000 -7.156250 -7.250000l0.000000 8.203125l-9.031250 0.000000l0.000000 -75.984375l9.031250 0.000000z"/>
</defs>
<g style="fill: #000000; opacity: 1.000000" transform="translate(29.352436,342.421710)rotate(-271.6)scale(0.120000)">
<use xlink:href="#c_518d586bee075aa0153eaebfcb5ab11f"/>
<use xlink:href="#c_6ec8d5749226675394676a5d2a3b468b" x="58.552734"/>
<use xlink:href="#c_0bce5afba2dc6b9024b26277c38ad8e8" x="97.416016"/>
<use xlink:href="#c_8e0810ad13fe20a2a87a2619799b154d" x="158.939453"/>
<use xlink:href="#c_8e0810ad13fe20a2a87a2619799b154d" x="211.039062"/>
<use xlink:href="#c_3b515ad41f960e225ec85275856806ca" x="263.138672"/>
<use xlink:href="#c_6ec8d5749226675394676a5d2a3b468b" x="326.517578"/>
<use xlink:href="#c_0bce5afba2dc6b9024b26277c38ad8e8" x="365.380859"/>
<use xlink:href="#c_d41d8cd98f00b204e9800998ecf8427e" x="426.904297"/>
<use xlink:href="#c_1a1d9ef1e4ddee695bd67a282879f099" x="458.691406"/>
<use xlink:href="#c_5cc9741494d2ad8f9764e03ae145569f" x="497.705078"/>
<use xlink:href="#c_01d93a582460e35a7945ca50d148ffeb" x="561.181641"/>
<use xlink:href="#c_6ec8d5749226675394676a5d2a3b468b" x="622.460937"/>
<use xlink:href="#c_5bcf09947f6bf611091602c6fea1d302" x="663.574219"/>
</g>
</g>
<g id="Line3DCollection3">
<defs>
<path id="coll2_0_4146abac8ee6835f351cbdf2c0c17dbc" d="M112.057722 -294.582637L497.515667 -390.230109L831.954112 -276.343875"/>
<path id="coll2_1_6db6d98b6d13062b95c07209e1a52215" d="M108.772366 -386.019126L497.753211 -477.123507L835.313161 -368.635620"/>
<path id="coll2_2_c19bf477e701ca1e11482b19c72f6d2f" d="M105.426146 -479.149563L497.994896 -565.531335L838.735144 -462.656495"/>
</defs>
<use style="fill: none; stroke: #e6e6e6; stroke-width: 1.000000; stroke-linejoin: round; stroke-linecap: butt;  opacity: 1.000000" xlink:href="#coll2_0_4146abac8ee6835f351cbdf2c0c17dbc" x="0.000000" y="732.600000"/>
<use style="fill: none; stroke: #e6e6e6; stroke-width: 1.000000; stroke-linejoin: round; stroke-linecap: butt;  opacity: 1.000000" xlink:href="#coll2_1_6db6d98b6d13062b95c07209e1a52215" x="0.000000" y="732.600000"/>
<use style="fill: none; stroke: #e6e6e6; stroke-width: 1.000000; stroke-linejoin: round; stroke-linecap: butt;  opacity: 1.000000" xlink:href="#coll2_2_c19bf477e701ca1e11482b19c72f6d2f" x="0.000000" y="732.600000"/>
</g>
<g id="xtick10">
<g id="line2d13">
<path style="fill: none; stroke: #000000; stroke-width: 1.000000; stroke-linejoin: round; stroke-linecap: square;  opacity: 1.000000"  d="M115.330395 437.205283L105.502655 439.643936"/>
</g>
<g id="text13">
<g style="fill: #000000; opacity: 1.000000" transform="translate(71.118857,446.058221)scale(0.120000)">
<use xlink:href="#c_1260a2df50f305f3db244e29828f968e"/>
<use xlink:href="#c_7a2040fe3b94fcd41d0a72c84e93b115" x="63.623047"/>
</g>
</g>
</g>
<g id="xtick11">
<g id="line2d14">
<path style="fill: none; stroke: #000000; stroke-width: 1.000000; stroke-linejoin: round; stroke-linecap: square;  opacity: 1.000000"  d="M112.076700 345.806956L102.153794 348.131030"/>
</g>
<g id="text14">
<g style="fill: #000000; opacity: 1.000000" transform="translate(63.896917,354.662401)scale(0.120000)">
<use xlink:href="#c_42baa63129a918535c52adb20d687ea7"/>
<use xlink:href="#c_7a2040fe3b94fcd41d0a72c84e93b115" x="63.623047"/>
<use xlink:href="#c_7a2040fe3b94fcd41d0a72c84e93b115" x="127.246094"/>
</g>
</g>
</g>
<g id="xtick12">
<g id="line2d15">
<path style="fill: none; stroke: #000000; stroke-width: 1.000000; stroke-linejoin: round; stroke-linecap: square;  opacity: 1.000000"  d="M108.762757 252.716241L98.742830 254.921050"/>
</g>
<g id="text15">
<g style="fill: #000000; opacity: 1.000000" transform="translate(60.233376,261.574293)scale(0.120000)">
<use xlink:href="#c_42baa63129a918535c52adb20d687ea7"/>
<use xlink:href="#c_1260a2df50f305f3db244e29828f968e" x="63.623047"/>
<use xlink:href="#c_7a2040fe3b94fcd41d0a72c84e93b115" x="127.246094"/>
</g>
</g>
</g>
</g>
<g id="axes1">
<g id="line2d16">
<defs>
  <clipPath id="pc795f77287078aebad9d590e53fe2616">
<rect x="0.000000" y="0.000000" width="915.300000" height="732.600000"/>
  </clipPath>
</defs><path style="fill: none; stroke: #008000; stroke-width: 1.000000; stroke-linejoin: round; stroke-linecap: square;  opacity: 1.000000" clip-path="url(#pc795f77287078aebad9d590e53fe2616)" d="M566.483321 472.421410L563.932203 471.565019L556.597549 469.805096
L549.425028 468.954312L542.969233 468.751511L536.424421 469.017387
L529.467948 469.716741L521.883948 470.912751L505.484621 474.577278
L491.628708 478.510332L468.103159 486.081635L426.065960 499.895959
L406.623023 505.585432L389.091793 510.047914L373.098571 513.515509
L355.578646 516.621349L337.051988 519.143975L317.973006 521.014761
L296.719675 522.419586L264.231979 523.787949L215.231922 525.883445
L184.809485 527.862749L155.864490 530.327450L155.864490 530.327450"/>
</g>
<g id="line2d17">
<path style="fill: none; stroke: #008000; stroke-width: 1.000000; stroke-linejoin: round; stroke-linecap: square;  opacity: 1.000000" clip-path="url(#pc795f77287078aebad9d590e53fe2616)" d="M566.475876 472.418702L568.953293 473.390932L575.292516 476.607182
L580.562523 480.295476L584.636699 483.947500L588.222085 487.937811
L591.509917 492.423098L594.547559 497.569636L597.390690 503.628229
L599.439556 509.244788L602.036862 519.468845L603.327266 528.614016
L603.774988 536.902156L603.603998 544.468646L602.993787 551.378662
L601.432218 560.656317L599.316617 568.840568L596.782749 576.054812
L593.952050 582.437446L589.840857 589.811183L585.457246 596.090125
L580.895010 601.449075L576.225594 606.040928L570.311706 610.891321
L564.383656 614.943581L557.324459 618.987649L549.251191 622.860000
L539.235374 626.906534L525.653559 631.595486L501.889810 638.891195
L453.483504 653.228863L453.483504 653.228863"/>
</g>
<g id="line2d18">
<path style="fill: none; stroke: #008000; stroke-width: 1.000000; stroke-linejoin: round; stroke-linecap: square;  opacity: 1.000000" clip-path="url(#pc795f77287078aebad9d590e53fe2616)" d="M731.819513 370.307186L729.257204 369.570649L721.838956 368.442642
L714.524040 368.570670L707.901523 369.517124L701.155620 371.127600
L693.955778 373.448220L686.073736 376.581621L674.595147 381.970104
L663.539226 387.858545L644.249495 399.152043L591.548089 431.296520
L572.943322 441.696968L555.888606 450.398541L540.081886 457.659389
L525.318175 463.674599L511.444700 468.649890L498.343330 472.770400
L481.918881 477.172665L466.536225 480.605647L448.571556 483.895855
L428.614213 486.847771L401.433201 490.111810L312.590903 500.184211
L274.551231 505.489683L235.921867 511.574028L235.921867 511.574028"/>
</g>
<g id="line2d19">
<path style="fill: none; stroke: #008000; stroke-width: 1.000000; stroke-linejoin: round; stroke-linecap: square;  opacity: 1.000000" clip-path="url(#pc795f77287078aebad9d590e53fe2616)" d="M731.825556 370.309179L734.289569 371.229821L740.585280 374.628492
L745.739063 378.887566L749.680531 383.353082L753.073616 388.363333
L756.118798 394.146876L758.853729 400.904007L761.854227 411.301775
L763.786517 421.760578L764.823161 431.454896L765.237436 440.527826
L765.196379 449.033868L764.097926 464.530810L762.086184 478.276924
L759.416276 490.520453L756.286312 501.438693L752.810088 511.179879
L749.073857 519.884345L745.140942 527.683794L741.058594 534.649874
L734.733089 543.756689L728.244525 551.506944L721.664154 558.111988
L715.038323 563.770411L708.407645 568.644783L699.609149 574.162891
L690.906045 578.799775L680.216910 583.678974L667.734354 588.583503
L651.760294 594.091686L627.549743 601.645978L558.233446 622.232826
L531.625288 630.106321L531.625288 630.106321"/>
</g>
<g id="line2d20">
<path style="fill: none; stroke: #000000; stroke-width: 1.000000; stroke-linejoin: round; stroke-linecap: square;  opacity: 1.000000" clip-path="url(#pc795f77287078aebad9d590e53fe2616)" d="M731.819513 370.307186L721.290897 359.131101L710.656656 348.813221
L701.198763 340.499578L692.079526 333.288491L683.627762 327.336445
L674.253928 321.586988L664.885593 316.765548L656.881485 313.400809
L649.442678 310.914833L641.392438 308.937795L634.152640 307.808444
L626.363261 307.296247L619.683935 307.449466L612.556841 308.229720
L604.920950 309.785297L596.706943 312.307646L590.108688 314.980558
L583.081845 318.471348L575.554557 322.952161L567.426778 328.652407
L558.529828 335.897426L548.518962 345.220929L536.321248 357.881991
L521.251718 373.617434L513.294638 380.687491L505.100413 386.801436
L493.086118 394.713099L459.268415 416.072746L450.068454 420.991837
L442.813839 424.127389L436.982906 425.987597L431.323533 427.078557
L426.907880 427.344273L422.584494 427.026536L418.345133 426.083320
L414.184111 424.473235L410.094488 422.152405L406.072099 419.077772
L401.131288 414.105788L397.241820 409.168484L393.404995 403.326920
L388.676289 394.678164L384.014249 384.439937L379.414272 372.510336
L374.867367 358.781417L370.368579 343.142862L365.911409 325.479209
L360.609077 301.440953L355.347704 274.098582L350.117181 243.227952
L344.907031 208.595085L339.707983 169.957667L336.242930 141.850718
L336.242930 141.850718"/>
</g>
<g id="line2d21">
<path style="fill: none; stroke: #000000; stroke-width: 1.000000; stroke-linejoin: round; stroke-linecap: square;  opacity: 1.000000" clip-path="url(#pc795f77287078aebad9d590e53fe2616)" d="M566.483321 472.421410L566.181634 462.850725L565.269082 453.649149
L563.743333 444.862866L561.598112 436.564401L559.127457 429.584418
L556.121076 423.143654L552.757879 417.638430L549.326898 413.328416
L548.331912 412.277640L548.331912 412.277640"/>
</g>
<g id="line2d22">
<path style="fill: none; stroke: #0000ff; stroke-width: 1.000000; stroke-linejoin: round; stroke-linecap: square;  opacity: 1.000000" clip-path="url(#pc795f77287078aebad9d590e53fe2616)" d="M479.642530 387.610660L474.602744 394.159475L468.647985 400.798108
L461.771656 406.972507L457.012310 410.485540L445.453148 417.595820
L419.272712 431.771449L347.587431 470.197199L329.844094 478.537611
L317.076380 483.966114L302.572473 489.450736L286.928364 494.531151
L272.869602 498.389888L256.147392 502.240961L236.198470 506.112970
L178.845590 516.843582L152.985515 522.599087L144.228486 524.701308
L144.228486 524.701308"/>
</g>
<g id="line2d23">
<path style="fill: none; stroke: #0000ff; stroke-width: 1.000000; stroke-linejoin: round; stroke-linecap: square;  opacity: 1.000000" clip-path="url(#pc795f77287078aebad9d590e53fe2616)" d="M547.554092 411.506766L540.625855 409.415774L533.661474 407.959860
L527.273989 407.145080L519.937363 406.762124L511.146365 407.085387
L500.494343 408.558968L494.399442 409.956584L487.831402 412.002650
L482.198616 414.276393L476.227830 417.378515L471.192583 420.671585
L465.830471 424.956626L458.258282 432.134591L426.266483 464.605882
L415.753284 473.773532L405.557567 481.704007L395.645091 488.518871
L386.002452 494.345604L376.617963 499.293438L367.486623 503.478168
L355.701480 508.045865L344.353330 511.646962L333.436712 514.466114
L320.385766 517.128682L305.573690 519.390414L289.425486 521.163906
L268.358010 522.776092L220.370326 525.485426L183.257783 527.972528
L156.737440 530.244626L156.737440 530.244626"/>
</g>
<g id="line2d24">
<path style="fill: none; stroke: #ff0000; stroke-width: 1.000000; stroke-linejoin: round; stroke-linecap: square;  opacity: 1.000000" clip-path="url(#pc795f77287078aebad9d590e53fe2616)" d="M547.559966 411.508833L554.220796 414.200468L560.468032 417.400162
L565.792552 420.722010L571.517619 424.967895L577.833350 430.673366
L584.805924 438.478171L588.485999 443.418360L592.273815 449.248417
L595.374699 454.743754L598.540511 461.254411L601.126703 467.428114
L605.410499 480.553850L607.926016 491.435377L609.485858 501.487955
L610.446551 512.998335L610.586027 523.482021L610.072678 533.218223
L609.051509 542.108157L607.625818 550.206483L604.879625 561.043436
L601.605025 570.477047L597.935303 578.686134L593.976774 585.840792
L589.811330 592.054131L585.500459 597.469670L579.609647 603.624021
L573.634710 608.763901L567.645410 613.080555L560.212243 617.559042
L551.468880 621.920309L541.618846 626.022268L528.356006 630.714989
L508.215750 636.997856L454.727638 652.860717L454.727638 652.860717"/>
</g>
<g id="line2d25">
<path style="fill: none; stroke: #000000; stroke-width: 1.000000; stroke-linejoin: round; stroke-linecap: butt; stroke-dasharray: 6.000000,6.000000; stroke-dashoffset: 0.000000; opacity: 1.000000" clip-path="url(#pc795f77287078aebad9d590e53fe2616)" d="M387.310479 449.231176L426.917823 464.008615L610.134050 532.366305"/>
</g>
<g id="line2d26">
<path style="fill: none; stroke: #000000; stroke-width: 1.000000; stroke-linejoin: round; stroke-linecap: butt; stroke-dasharray: 6.000000,6.000000; stroke-dashoffset: 0.000000; opacity: 1.000000" clip-path="url(#pc795f77287078aebad9d590e53fe2616)" d="M426.929048 464.012803L610.126448 532.363469L387.295317 449.225519"/>
</g>
<g id="line2d27">
<path style="fill: none; stroke: #000000; stroke-width: 1.000000; stroke-linejoin: round; stroke-linecap: butt; stroke-dasharray: 6.000000,6.000000; stroke-dashoffset: 0.000000; opacity: 1.000000" clip-path="url(#pc795f77287078aebad9d590e53fe2616)" d="M427.014638 464.044736L430.800834 465.529041L433.657630 466.666685
L436.765270 467.918541L440.191205 469.325242L444.024863 470.920291
L448.326294 472.751983L453.193552 474.867525L458.732924 477.327674
L465.035440 480.213618L466.668715 480.973740L468.764849 481.953519
L469.705164 482.398055L470.465262 482.759759L471.082172 483.052447
L471.577793 483.289468L471.977831 483.480418L472.302297 483.632768
L472.555111 483.758349L472.765270 483.857624L472.934739 483.936510
L473.065491 484.000929L473.174184 484.051919L473.258494 484.093798
L473.598093 484.257014"/>
</g>
<g id="line2d28">
<path style="fill: none; stroke: #000000; stroke-width: 1.000000; stroke-linejoin: round; stroke-linecap: butt; stroke-dasharray: 6.000000,6.000000; stroke-dashoffset: 0.000000; opacity: 1.000000" clip-path="url(#pc795f77287078aebad9d590e53fe2616)" d="M610.141652 532.369141L609.982542 532.384327L609.823429 532.399513
L609.616680 532.418228L609.322764 532.441700L608.956877 532.475603
L608.432859 532.514422L607.764869 532.574104L606.859636 532.641162
L605.628896 532.730633L605.272030 532.751969L604.811733 532.782667
L604.589694 532.795715L604.407191 532.807534L604.264225 532.818124
L604.137490 532.824112L604.042177 532.831173L603.963098 532.833630
L603.899207 532.841764L603.851549 532.845294L603.812009 532.846523
L603.772469 532.847752L603.756234 532.852355L603.724811 532.851282
L603.637613 532.856041"/>
</g>
<g id="line2d29">
<path style="fill: none; stroke: #000000; stroke-width: 1.000000; stroke-linejoin: round; stroke-linecap: butt; stroke-dasharray: 6.000000,6.000000; stroke-dashoffset: 0.000000; opacity: 1.000000" clip-path="url(#pc795f77287078aebad9d590e53fe2616)" d="M387.333911 449.239919L385.581866 448.464608L384.457621 447.923608
L383.420089 447.374526L382.491806 446.810629L381.703533 446.228275
L381.114330 445.624291L380.816731 444.992872L380.900863 444.337491
L381.543589 443.648589L382.935381 442.926879L385.365444 442.164664
L387.228284 441.735832L389.925297 441.230705L393.812518 440.641512
L398.550428 440.053521L403.553639 439.530298L408.781191 439.056482
L414.215094 438.620283L419.833856 438.218625L425.626647 437.847399
L431.596028 437.502481L437.739406 437.182824L444.049092 436.890452
L450.538254 436.620218L457.204772 436.376176L460.596072 436.265770
L465.200061 436.125878L468.317863 436.038975L472.527237 435.932510
L475.369180 435.868081L478.246075 435.806637L481.150116 435.750229
L484.084122 435.699867L487.053136 435.652488L490.052162 435.611154
L492.071825 435.586100L494.099826 435.564082L496.146774 435.544060
L498.211274 435.525527L500.285541 435.510536L502.378778 435.497540
L504.489590 435.486033L506.610197 435.478067L508.751205 435.472601
L510.902033 435.470676L513.071878 435.470746L515.260746 435.472811
L517.460877 435.478922L519.680053 435.487029L521.919692 435.497636
L524.170632 435.512289L526.442061 435.529444L528.733990 435.549100
L531.037263 435.572803L533.361063 435.599008L535.697651 435.629767
L536.875504 435.646144L538.056208 435.663534L539.247509 435.679884
L540.435334 435.699803L541.633758 435.718684L542.835041 435.738576
L544.040598 435.759987L545.250435 435.782916L546.461722 435.806352
L547.686444 435.829761L548.912618 435.853676L550.136766 435.881668
L551.377835 435.906062L552.616884 435.934534L553.858814 435.964019
L555.111352 435.992465L556.360468 436.024482L557.621615 436.055966
L558.885651 436.088464L560.163141 436.120936L561.434384 436.155967
L562.719084 436.190972L563.998967 436.229044L565.290892 436.266583
L566.587144 436.305642L567.895440 436.344170L569.200358 436.386271
L570.515900 436.427334L571.828075 436.471971L573.153727 436.516583
L574.490007 436.560156L576.270777 436.622675L577.459745 436.666561
L579.064150 436.723851L579.606777 436.744121L580.057548 436.760506
L580.411616 436.776074L580.697780 436.786688L580.933729 436.793841
L581.116046 436.801104L581.256712 436.807945L581.375403 436.811775
L581.467277 436.815660L581.542887 436.818560L581.603661 436.820981
L581.649599 436.822924L581.691253 436.823347L581.722354 436.824811
L581.749171 436.824755L581.858184 436.834719"/>
</g>
<g id="line2d30">
<path style="fill: none; stroke: #000000; stroke-width: 1.000000; stroke-linejoin: round; stroke-linecap: butt; stroke-dasharray: 6.000000,6.000000; stroke-dashoffset: 0.000000; opacity: 1.000000" clip-path="url(#pc795f77287078aebad9d590e53fe2616)" d="M610.141652 532.369141L610.427438 532.347971L610.698012 532.321129
L611.063833 532.287232L611.564411 532.245052L612.208832 532.182020
L613.067986 532.097985L614.221824 531.980229L615.718801 531.814973
L617.710540 531.579106L620.325061 531.246189L623.762680 530.769187
L626.036665 530.432769L629.037981 529.959441L633.036831 529.302205
L637.555273 528.506832L642.064806 527.673604L646.565140 526.802633
L651.079293 525.897381L655.598956 524.960236L660.123862 523.991305
L664.677036 522.994031L669.258195 521.968515L673.859087 520.917129
L678.495377 519.835436L683.174117 518.731399L685.504139 518.167015
L688.655707 517.408244L690.768602 516.895638L693.584350 516.202556
L695.465702 515.735947L697.361860 515.265082L699.249550 514.786661
L701.144094 514.306254L703.068719 513.827165L704.969478 513.334994
L706.254167 513.008486L707.538367 512.682102L708.814617 512.348051
L710.113600 512.017424L711.396733 511.681387L712.687239 511.343235
L714.000459 511.008507L715.297815 510.668378L716.587167 510.320612
L717.891351 509.978514L719.202874 509.634312L720.506368 509.282486
L721.824686 508.936325L723.134959 508.582548L724.452538 508.226680
L725.769568 507.870959L727.093891 507.513152L728.425495 507.153260
L729.756539 506.793519L731.079487 506.426193L732.417234 506.064527
L733.074439 505.877135L733.746868 505.695284L734.411606 505.505743
L735.083747 505.323970L735.748193 505.134512L736.427860 504.950590
L737.092012 504.761214L737.771387 504.577373L738.435244 504.388080
L739.106762 504.196602L739.778130 504.005168L740.456916 503.821489
L741.135787 503.627914L741.806704 503.436607L742.477471 503.245342
L743.155885 503.051897L743.826349 502.860719L744.504458 502.667361
L745.182412 502.474048L745.868003 502.278556L746.530273 502.079854
L747.215551 501.884453L747.892888 501.691316L748.562477 501.490531
L749.247287 501.295265L749.939719 501.097825L750.608834 500.897180
L751.285568 500.694365L751.969746 500.499281L752.646160 500.296560
L753.330184 500.091672L754.239319 499.822600L754.852914 499.647645
L755.668405 499.405278L755.932517 499.320127L756.165408 499.253724
L756.343946 499.202818L756.476043 499.155309L756.600231 499.119900
L756.693368 499.093344L756.763219 499.073428L756.825308 499.055725
L756.871873 499.042448L756.910677 499.031384L756.941720 499.022533
L756.965002 499.015894L756.988284 499.009256L757.003805 499.004831
L757.003944 498.994948L757.035124 498.976216"/>
</g>
<g id="line2d31">
<path style="fill: none; stroke: #000000; stroke-width: 1.000000; stroke-linejoin: round; stroke-linecap: butt; stroke-dasharray: 6.000000,6.000000; stroke-dashoffset: 0.000000; opacity: 1.000000" clip-path="url(#pc795f77287078aebad9d590e53fe2616)" d="M387.302209 449.228091L381.249290 448.901073L375.245695 448.566336
L369.354586 448.247516L363.606064 447.961053L358.032193 447.708912
L352.626040 447.498814L347.405939 447.327593L342.341874 447.199413
L337.453487 447.106476L332.717521 447.050364L328.128212 447.029020
L323.685194 447.037282L319.373377 447.074666L315.195206 447.137046
L311.127569 447.226023L307.181064 447.335390L303.342067 447.465185
L299.151393 447.631861L295.075917 447.822072L291.126345 448.029617
L287.278280 448.255592L283.546544 448.495332L279.906762 448.749932
L276.357535 449.018894L272.911075 449.296516L269.545712 449.584922
L266.268238 449.881521L263.066470 450.186866L259.937719 450.499936
L256.887478 450.817620L253.906252 451.141498L250.990034 451.470030
L248.140177 451.803737L245.351349 452.140561L242.630434 452.477897
L239.961064 452.819933L237.350124 453.164063L234.793637 453.508739
L232.292970 453.854480L229.837263 454.202348L227.434764 454.550248
L225.082841 454.897145L222.773295 455.245137L220.513057 455.591606
L218.293920 455.938653L216.121497 456.283138L213.988902 456.627680
L211.894831 456.971760L209.836651 457.314338L207.823987 457.653827
L205.848607 457.992329L203.907880 458.328804L202.001835 458.663248
L200.130501 458.995659L198.285616 459.328146L196.482456 459.655965
L194.712762 459.981221L192.976565 460.303913L191.262934 460.625109
L189.582849 460.943734L187.933683 461.258743L186.308478 461.572770
L184.714243 461.883174L183.151005 462.189950L181.610468 462.495215
L180.099651 462.796323L178.611576 463.095914L177.151946 463.390818
L175.715097 463.684199L174.299722 463.975532L172.912860 464.262167
L171.547513 464.546747L170.202372 464.828747L168.885810 465.106038
L167.589495 465.380742L166.314765 465.653380L165.058991 465.922902
L163.823512 466.189828L162.607021 466.453632L161.410856 466.714835
L160.233711 466.972910L159.085301 467.226248L157.947566 467.478583
L156.828896 467.727781L155.729307 467.973840L154.648814 468.216757
L153.579039 468.458662L152.536777 468.695286L151.503936 468.930368
L150.490243 469.162298L149.495712 469.391073L148.510632 469.618301
L147.544736 469.842369L146.596718 470.062748L145.667910 470.279963
L144.748593 470.495622L143.838773 470.709725L142.946875 470.920129
L142.074229 471.127360L141.209789 471.332501L140.364622 471.534465
L139.528995 471.734863L138.702915 471.933695L137.893498 472.128287
L137.103393 472.319694L136.314427 472.511673L135.550586 472.697261
L134.787894 472.883420L134.044548 473.066386L133.308162 473.246717
L132.582697 473.425999L131.873967 473.601024L131.174852 473.774468
L130.485359 473.946329L129.804175 474.116077L129.132622 474.284240
L128.477841 474.448138L127.832704 474.610449"/>
</g>
<g id="line2d32">
<path style="fill: none; stroke: #000000; stroke-width: 1.000000; stroke-linejoin: round; stroke-linecap: butt; stroke-dasharray: 6.000000,6.000000; stroke-dashoffset: 0.000000; opacity: 1.000000" clip-path="url(#pc795f77287078aebad9d590e53fe2616)" d="M426.929048 464.012803L420.507359 463.565323L414.688673 463.316676
L409.330950 463.214384L404.424647 463.260513L399.566388 463.293918
L395.018668 463.423459L390.518633 463.540290L386.320191 463.755431
L382.030237 463.905548L377.910619 464.099554L373.822404 464.285110
L369.773758 464.460088L365.756671 464.626605L361.917654 464.834931
L357.963789 464.984521L354.187931 465.175930L350.443706 465.358879
L346.292432 465.559602L342.172709 465.751865L338.100898 465.931406
L334.060809 466.102473L330.068824 466.260804L326.246075 466.463151
L322.455066 466.657029L318.575072 466.785647L314.864222 466.958296
L311.193524 467.120328L307.554869 467.273867L303.948322 467.418908
L300.518780 467.605889L296.984748 467.731797L293.619463 467.901786
L290.286352 468.063276L286.985477 468.216264L283.725121 468.358611
L280.488897 468.494580L277.285084 468.622032L274.113738 468.740964
L271.110728 468.904028L268.131876 469.060716L265.185476 469.208890
L262.136009 469.295862L259.381983 469.481812L256.524987 469.606553
L253.692374 469.724900L251.027717 469.887430L248.252186 469.990850
L245.636269 470.140602L243.044742 470.283963L240.485931 470.418793
L237.951590 470.547226L235.441752 470.669260L232.956453 470.784891
L230.630430 470.946900L228.185931 471.051866L225.908950 471.201081
L223.656512 471.343897L221.428649 471.480313L219.217069 471.612466
L217.030119 471.738213L214.867830 471.857550L212.721900 471.972618
L210.734857 472.134130L208.638326 472.236373L206.692291 472.387215
L204.636927 472.478768L202.731996 472.618929L200.851803 472.752679
L198.988021 472.882160L197.140666 473.007369L195.318120 473.126159
L193.512042 473.240673L191.856131 473.403847L190.091367 473.507664
L188.343129 473.607199L186.744980 473.755411L185.029797 473.846384
L183.464649 473.986046L181.916007 474.121434L180.383887 474.252545
L178.868305 474.379379L177.377665 474.499783L175.895206 474.618055
L174.429329 474.732043L172.980049 474.841746L171.547381 474.947161
L170.122936 475.050439L168.856627 475.200328L167.465432 475.295030
L166.090900 475.385440L164.866039 475.524628L163.516421 475.608605
L162.316433 475.741371L161.133093 475.869852L159.833534 475.940945
L158.675131 476.062996L157.524984 476.182910L156.391527 476.298534
L155.274771 476.409865L154.166298 476.519056L152.941836 476.570809
L151.858408 476.673555L150.915942 476.827313L149.857540 476.923624
L148.815897 477.015633L147.774139 477.107653L146.757599 477.193213
L145.740955 477.278782L144.873614 477.413237L143.882087 477.492357
L142.898918 477.569327L142.065009 477.695198L141.106998 477.765712
L140.289768 477.887296L139.348488 477.953510L138.415592 478.017571
L137.631885 478.130555L136.856535 478.241396"/>
</g>
<g id="line2d33">
<path style="fill: none; stroke: #000000; stroke-width: 1.000000; stroke-linejoin: round; stroke-linecap: butt; stroke-dasharray: 6.000000,6.000000; stroke-dashoffset: 0.000000; opacity: 1.000000" clip-path="url(#pc795f77287078aebad9d590e53fe2616)" d="M464.674075 404.533478L486.793081 412.425324L592.848571 450.264892"/>
</g>
<g id="line2d34">
<path style="fill: none; stroke: #000000; stroke-width: 1.000000; stroke-linejoin: round; stroke-linecap: butt; stroke-dasharray: 6.000000,6.000000; stroke-dashoffset: 0.000000; opacity: 1.000000" clip-path="url(#pc795f77287078aebad9d590e53fe2616)" d="M486.780196 412.420727L592.847071 450.264357L464.696760 404.541571"/>
</g>
<g id="line2d35">
<path style="fill: none; stroke: #000000; stroke-width: 1.000000; stroke-linejoin: round; stroke-linecap: butt; stroke-dasharray: 6.000000,6.000000; stroke-dashoffset: 0.000000; opacity: 1.000000" clip-path="url(#pc795f77287078aebad9d590e53fe2616)" d="M485.683769 412.029532L490.555445 413.787418L492.540914 414.505687
L494.658065 415.275883L496.980010 416.119165L499.539514 417.062044
L502.427804 418.122274L505.695750 419.332855L509.426757 420.728545
L513.753016 422.351635L518.830548 424.267808L524.898430 426.577448
L532.430636 429.454995L535.532638 430.642000L539.757019 432.254742
L543.205928 433.565867L546.804506 434.930556L549.926449 436.110194
L552.494303 437.067061L554.569013 437.837880L556.236319 438.453239
L557.567056 438.943426L558.627152 439.331972L559.473906 439.639333
L560.144898 439.883937L560.685012 440.076795L561.114234 440.230057
L561.448148 440.354303L561.720564 440.451574L561.936743 440.528766
L562.109997 440.590630L562.797217 440.836016"/>
</g>
<g id="line2d36">
<path style="fill: none; stroke: #000000; stroke-width: 1.000000; stroke-linejoin: round; stroke-linecap: butt; stroke-dasharray: 6.000000,6.000000; stroke-dashoffset: 0.000000; opacity: 1.000000" clip-path="url(#pc795f77287078aebad9d590e53fe2616)" d="M592.922047 450.291107L592.739905 450.246284L592.618850 450.213174
L592.459765 450.171536L592.270705 450.119201L591.982560 450.046633
L591.619498 449.947330L591.112450 449.811766L590.423473 449.631435
L589.470873 449.372132L588.134033 449.000870L586.209847 448.460230
L583.273075 447.603374L581.859836 447.179455L579.750558 446.532179
L577.832234 445.927839L575.647207 445.228220L573.547691 444.543983
L571.713172 443.929183L570.118990 443.390120L568.764694 442.926648
L567.641849 442.540786L566.720461 442.221831L565.955800 441.953815
L565.339676 441.738835L564.850361 441.564115L564.450089 441.421190
L564.115952 441.306898L563.849180 441.211641L563.641713 441.137561
L563.478716 441.079359L562.797217 440.836016"/>
</g>
<g id="line2d37">
<path style="fill: none; stroke: #000000; stroke-width: 1.000000; stroke-linejoin: round; stroke-linecap: butt; stroke-dasharray: 6.000000,6.000000; stroke-dashoffset: 0.000000; opacity: 1.000000" clip-path="url(#pc795f77287078aebad9d590e53fe2616)" d="M464.186411 404.359484L460.558980 403.035869L458.595420 402.305934
L456.783817 401.620455L455.042881 400.945548L453.327353 400.265088
L451.630635 399.566967L449.958861 398.843643L448.318650 398.092647
L446.742406 397.310969L445.286853 396.494554L444.015619 395.641872
L443.011811 394.758398L442.422470 393.838417L442.415707 392.888732
L443.238648 391.910454L445.224597 390.906513L448.821678 389.887087
L453.513523 389.031890L458.777118 388.347930L464.486633 387.785202
L470.576351 387.315202L476.983415 386.924954L483.697553 386.600931
L490.698266 386.335636L497.969856 386.128048L501.708718 386.043951
L505.513783 385.973647L509.385142 385.917132L513.329306 385.871907
L517.332112 385.842470L521.417150 385.822808L525.561033 385.818933
L529.773120 385.829334L534.062758 385.852501L538.428629 385.887943
L542.858094 385.940657L545.106026 385.971423L547.368317 386.007132
L549.652778 386.045782L551.959424 386.087372L554.280485 386.133908
L556.626627 386.184375L558.985795 386.239294L561.370085 386.298146
L563.776650 386.359942L566.200603 386.427677L568.639105 386.500363
L571.112016 386.575475L573.600955 386.656035L576.113711 386.740040
L578.645421 386.830485L581.202436 386.924872L583.778465 387.025704
L586.379854 387.130482L589.009508 387.240196L591.666017 387.354354
L594.341666 387.474966L597.037937 387.602530L599.770340 387.733031
L602.524882 387.870986L605.300157 388.015902L608.114560 388.164754
L610.951223 388.321070L613.813094 388.485845L616.712761 388.654072
L619.639179 388.831262L621.108217 388.924102L622.590953 389.016926
L624.081130 389.112241L625.585013 389.207541L627.088642 389.307347
L628.607444 389.407633L630.124556 389.511932L631.656853 389.616713
L633.196638 389.723991L634.745377 389.834263L636.307864 389.944524
L637.871622 390.059794L639.450601 390.175551L641.037111 390.293810
L642.632620 390.415068L644.235679 390.538830L646.393227 390.707503
L647.845749 390.821611L649.789962 390.977769L652.400780 391.193664
L653.303550 391.268914L654.515798 391.370575L655.004622 391.411636
L655.391676 391.445896L655.711723 391.471282L655.958185 391.494814
L656.158503 391.511932L656.321470 391.525621L656.450016 391.536877
L656.556220 391.545174L656.643014 391.551507L656.704181 391.558393
L656.758018 391.562790L657.059881 391.609747"/>
</g>
<g id="line2d38">
<path style="fill: none; stroke: #000000; stroke-width: 1.000000; stroke-linejoin: round; stroke-linecap: butt; stroke-dasharray: 6.000000,6.000000; stroke-dashoffset: 0.000000; opacity: 1.000000" clip-path="url(#pc795f77287078aebad9d590e53fe2616)" d="M592.922047 450.291107L593.270265 450.385100L593.603524 450.473753
L594.057925 450.595538L594.626565 450.742948L595.354530 450.932060
L596.273038 451.163912L597.428377 451.444913L598.858874 451.783658
L600.588989 452.173695L602.689423 452.614948L605.200894 453.096615
L608.164165 453.607873L611.676318 454.122623L615.826314 454.616880
L620.728937 455.040568L626.561673 455.335806L633.541934 455.424012
L640.443547 455.248136L646.912858 454.884845L653.092992 454.380594
L659.066819 453.760325L664.893647 453.055492L670.603944 452.267324
L676.227558 451.406776L681.771231 450.481595L684.537912 450.001104
L687.272947 449.500521L690.006861 448.990567L692.732213 448.463756
L695.448426 447.929782L698.163853 447.376842L700.870042 446.816784
L703.559532 446.242139L706.240147 445.650781L708.927133 445.048062
L711.604698 444.438317L712.946867 444.127728L714.273203 443.811947
L715.606887 443.494136L716.947908 443.174296L718.273077 442.849278
L719.605568 442.522239L720.937531 442.195329L722.261468 441.861107
L723.592704 441.524873L724.908058 441.183484L726.222867 440.842238
L727.537442 440.491557L728.851457 440.141027L730.172730 439.788503
L731.478095 439.430850L732.790704 439.071213L734.087395 438.706457
L735.375971 438.334451L736.687110 437.965747L737.974767 437.584536
L739.277172 437.208767L740.548289 436.822643L741.834381 436.432434
L743.119863 436.042410L744.374037 435.642060L745.643153 435.237644
L746.911644 434.833428L748.164160 434.424163L749.416234 434.005602
L750.652320 433.582012L751.258569 433.368742L751.872418 433.153402
L752.486106 432.938118L753.107388 432.720768L753.720752 432.505598
L754.326358 432.283127L754.924049 432.062840L755.529328 431.840490
L756.119094 431.612970L756.708696 431.385513L757.305876 431.156000
L757.895149 430.928671L758.491996 430.699286L759.073329 430.464742
L759.654496 430.230266L760.220150 429.990637L760.979251 429.669831
L761.490305 429.454620L762.163812 429.166726L763.038419 428.776781
L763.347847 428.645056L763.742457 428.461805L763.904888 428.389135
L764.020986 428.329146L764.129258 428.280707L764.198928 428.242831
L764.268497 428.214389L764.322627 428.190172L764.361317 428.170180
L764.392288 428.152301L764.430881 428.141741L764.438695 428.130198
L764.461851 428.123862L764.462422 428.067275"/>
</g>
<g id="line2d39">
<path style="fill: none; stroke: #000000; stroke-width: 1.000000; stroke-linejoin: round; stroke-linecap: butt; stroke-dasharray: 6.000000,6.000000; stroke-dashoffset: 0.000000; opacity: 1.000000" clip-path="url(#pc795f77287078aebad9d590e53fe2616)" d="M464.659897 404.528419L465.115466 404.735082L465.819911 405.035462
L466.960103 405.515869L467.967155 405.919370L468.486760 406.129320
L469.039534 406.341297L469.609506 406.559415L470.196692 406.783679
L470.697654 406.967358L471.103448 407.117078L471.433935 407.239925
L471.699038 407.339439L471.920954 407.418631L472.100210 407.482600
L472.243909 407.533880L472.359159 407.575008L472.453071 407.608521
L472.527065 407.634926L472.586832 407.656254L472.635215 407.673520
L472.673638 407.687231L472.704946 407.698404L472.828759 407.742587"/>
</g>
<g id="line2d40">
<path style="fill: none; stroke: #000000; stroke-width: 1.000000; stroke-linejoin: round; stroke-linecap: butt; stroke-dasharray: 6.000000,6.000000; stroke-dashoffset: 0.000000; opacity: 1.000000" clip-path="url(#pc795f77287078aebad9d590e53fe2616)" d="M486.780196 412.420727L485.420026 411.979751L483.766602 411.439037
L481.217121 410.603161L479.289054 409.959442L478.392928 409.664261
L477.513123 409.365061L476.633645 409.065971L475.896997 408.817846
L475.176566 408.565673L474.741218 408.415232L474.305951 408.264819
L474.013153 408.165246L473.728386 408.063625L473.586016 408.012820
L473.443655 407.962017L473.301303 407.911218L473.158960 407.860422
L473.158960 407.860422L473.016626 407.809629L473.016626 407.809629
L473.016626 407.809629L473.016626 407.809629L472.874301 407.758839"/>
</g>
<g id="line2d41">
<path style="fill: none; stroke: #000000; stroke-width: 1.000000; stroke-linejoin: round; stroke-linecap: butt; stroke-dasharray: 6.000000,6.000000; stroke-dashoffset: 0.000000; opacity: 1.000000" clip-path="url(#pc795f77287078aebad9d590e53fe2616)" d="M391.567222 400.153824L386.136046 398.694454L377.397178 397.175409
L364.220794 395.624500L348.723655 394.464520L331.130759 393.793177
L312.517871 393.728474L290.967889 394.406684L269.036430 395.862691
L247.371422 398.002498L224.091980 401.010539L198.914597 405.010018
L172.866429 409.872681L145.894265 415.601663L126.659581 420.102194
L126.659581 420.102194"/>
</g>
<g id="line2d42">
<path style="fill: none; stroke: #000000; stroke-width: 1.000000; stroke-linejoin: round; stroke-linecap: butt; stroke-dasharray: 6.000000,6.000000; stroke-dashoffset: 0.000000; opacity: 1.000000" clip-path="url(#pc795f77287078aebad9d590e53fe2616)" d="M391.570004 400.154830L393.664068 401.165095L394.374657 402.270755
L393.323255 403.395753L389.356077 404.746015L383.863921 405.881491
L375.880256 407.046092L362.116342 408.555364L335.068066 410.668422
L185.189417 419.333053L135.822124 423.670302L135.822124 423.670302"/>
</g>
<g id="line2d43">
<path style="fill: none; stroke: #000000; stroke-width: 1.000000; stroke-linejoin: round; stroke-linecap: butt; stroke-dasharray: 6.000000,6.000000; stroke-dashoffset: 0.000000; opacity: 1.000000" clip-path="url(#pc795f77287078aebad9d590e53fe2616)" d="M715.992436 353.868396L714.038689 353.251545L713.629655 353.131248
L713.133092 352.986828L712.536999 352.814354L711.812627 352.608941
L710.923539 352.367713L709.855028 352.081316L708.550803 351.749416
L706.974838 351.364714L705.086500 350.922916L702.852570 350.426659
L700.185474 349.869797L696.990652 349.239313L693.129293 348.530237
L688.435922 347.733255L685.512753 347.267495L682.718373 346.839176
L680.016136 346.445356L677.407875 346.077619L672.406462 345.407599
L669.202422 345.001749L666.086122 344.624413L663.051736 344.269180
L660.086882 343.936536L657.181025 343.623039L654.338821 343.325718
L651.554233 343.042605L648.814964 342.774199L646.119437 342.519999
L643.464608 342.279016L640.853735 342.047807L638.286750 341.826365
L635.752873 341.615679L633.249096 341.414770L630.783134 341.221658
L628.347161 341.038308L625.936716 340.863257L623.561001 340.695015
L621.209256 340.534576L616.594550 340.233636L612.075718 339.959461
L607.657350 339.709089L603.333357 339.480555L599.091335 339.274353
L594.929611 339.089980L590.851432 338.924004L586.855170 338.775927
L582.929937 338.646735L579.083397 338.534456L575.304678 338.440076
L571.600023 338.361142L567.961468 338.299613L564.387438 338.255000
L560.894952 338.223859L557.458909 338.211591L554.093456 338.213788
L550.801381 338.231418L544.411933 338.318382L540.487406 338.409300
L536.677362 338.529705L529.427960 338.863855L522.719664 339.340375
L516.642803 339.990571L511.356471 340.869265L507.146609 342.079387
L505.613471 342.866405L504.466924 344.203108L504.534611 345.374662
L506.471910 347.552043L508.881825 349.131687L511.537136 350.541964
L514.147639 351.763198L516.516015 352.798351L518.573542 353.647305
L522.410317 355.156015L525.334210 356.253888L527.428039 357.016300
L528.280376 357.326334L529.151210 357.637952L530.039102 357.950660
L530.938980 358.267466L531.681394 358.525755L532.280014 358.734938
L532.760920 358.903920L533.153859 359.038116L533.469714 359.145987
L533.723011 359.232493L533.917388 359.303622L534.080459 359.359314
L534.211507 359.404069L534.316351 359.439876L534.400812 359.468721
L534.467800 359.491599L534.521683 359.510001L534.563917 359.524425
L534.748095 359.573087"/>
</g>
<g id="line2d44">
<path style="fill: none; stroke: #000000; stroke-width: 1.000000; stroke-linejoin: round; stroke-linecap: butt; stroke-dasharray: 6.000000,6.000000; stroke-dashoffset: 0.000000; opacity: 1.000000" clip-path="url(#pc795f77287078aebad9d590e53fe2616)" d="M715.990927 353.867902L717.808532 354.485513L718.147706 354.610137
L718.554715 354.761502L719.029599 354.939625L719.579784 355.151475
L720.189875 355.401091L720.913033 355.701353L721.703338 356.055397
L722.568315 356.470261L723.492655 356.950061L724.438171 357.495992
L725.381473 358.123223L726.306907 358.844979L727.144926 359.679677
L727.818096 360.647875L728.067310 361.226868L728.202850 361.764362
L728.239491 362.274301L728.207859 362.757575L727.954450 363.657987
L727.666150 364.218129L727.301508 364.753637L726.883465 365.267436
L726.404211 365.761518L725.863708 366.235845L725.284940 366.693364
L724.683134 367.139068L724.035255 367.569951L723.341283 367.985986
L722.631697 368.397211L721.883787 368.791512L721.128051 369.178933
L720.341439 369.556469L719.523945 369.924106L718.698623 370.284828
L717.857669 370.640671L716.985826 370.986580L716.106161 371.325545
L715.210861 371.659604L713.373748 372.303827L711.466683 372.921227
L709.528029 373.519815L707.557821 374.099548L705.532998 374.657368
L703.453586 375.193229L701.357976 375.715182L699.215712 376.213037
L697.049473 376.698977L694.851917 377.165831L692.615220 377.615629
L690.347303 378.046275L688.040338 378.459806L685.709600 378.861290
L683.340467 379.236374L680.939768 379.601431L678.508124 379.947203
L676.045606 380.273664L670.974065 380.864558L667.667577 381.202344
L664.269242 381.500325L657.190639 381.969501L649.679574 382.251312
L641.557029 382.284122L632.585354 381.986014L622.250969 381.185592
L616.300321 380.503585L607.110129 379.144128L599.704651 377.795743
L587.011702 375.015960L578.416100 372.854313L571.118749 370.875688
L565.079556 369.148685L560.215724 367.717313L556.393154 366.560032
L550.038695 364.590356L545.769641 363.232478L543.057129 362.353712
L542.002195 362.012460L540.809681 361.619463L539.771718 361.274488
L538.734212 360.929665L537.996841 360.682590L537.259703 360.435593
L536.814335 360.288240L536.377042 360.138896L536.085560 360.039349
L535.794115 359.939815L535.494716 359.842312L535.349026 359.792556
L535.203346 359.742803L535.203346 359.742803L535.057674 359.693053
L535.057674 359.693053L534.912012 359.643306L534.912012 359.643306
L534.790333 359.587512"/>
</g>
<g id="line2d45">
<path style="fill: none; stroke: #000000; stroke-width: 1.000000; stroke-linejoin: round; stroke-linecap: butt; stroke-dasharray: 6.000000,6.000000; stroke-dashoffset: 0.000000; opacity: 1.000000" clip-path="url(#pc795f77287078aebad9d590e53fe2616)" d="M370.802946 344.741098L365.402467 343.333740L356.169884 341.872899
L343.900349 340.692651L327.531425 339.886447L307.876236 339.743503
L286.547020 340.416382L264.910797 341.863404L243.547617 343.967617
L220.566700 346.903347L195.680012 350.783849L169.908741 355.479326
L142.224410 361.209756L124.768861 365.175318L124.768861 365.175318"/>
</g>
<g id="line2d46">
<path style="fill: none; stroke: #000000; stroke-width: 1.000000; stroke-linejoin: round; stroke-linecap: butt; stroke-dasharray: 6.000000,6.000000; stroke-dashoffset: 0.000000; opacity: 1.000000" clip-path="url(#pc795f77287078aebad9d590e53fe2616)" d="M370.851632 344.758178L373.089869 345.785063L374.076527 346.953566
L373.576604 347.988758L371.117788 349.254240L368.120451 350.236130
L357.431073 352.181162L346.758040 353.537155L328.129932 355.247356
L303.191272 357.071422L220.437510 361.833698L205.478178 362.788771
L149.481390 367.139669L134.876036 368.569580L133.148653 368.734896
L133.148653 368.734896"/>
</g>
<g id="line2d47">
<path style="fill: none; stroke: #000000; stroke-width: 1.000000; stroke-linejoin: round; stroke-linecap: butt; stroke-dasharray: 6.000000,6.000000; stroke-dashoffset: 0.000000; opacity: 1.000000" clip-path="url(#pc795f77287078aebad9d590e53fe2616)" d="M358.192767 289.342742L354.275242 288.299799L347.043858 287.092914
L336.035005 285.993605L320.427860 285.246504L301.363905 285.177005
L280.588065 285.909849L259.493965 287.377827L235.909677 289.770594
L211.659581 292.958246L186.405444 296.964458L159.777411 301.852209
L131.358598 307.747395L122.590785 309.706457L122.590785 309.706457"/>
</g>
<g id="line2d48">
<path style="fill: none; stroke: #000000; stroke-width: 1.000000; stroke-linejoin: round; stroke-linecap: butt; stroke-dasharray: 6.000000,6.000000; stroke-dashoffset: 0.000000; opacity: 1.000000" clip-path="url(#pc795f77287078aebad9d590e53fe2616)" d="M358.256897 289.364499L360.687296 290.475582L361.530435 291.640947
L360.569087 292.830668L357.569335 294.179313L353.930601 295.195982
L345.026719 296.806001L330.993045 298.571713L306.304699 300.736429
L289.519527 301.928198L165.887319 309.970348L149.595326 311.412371
L131.772947 313.042531L131.772947 313.042531"/>
</g>
<g id="line2d49">
<path style="fill: none; stroke: #000000; stroke-width: 1.000000; stroke-linejoin: round; stroke-linecap: butt; stroke-dasharray: 3.000000,5.000000,1.000000,5.000000; stroke-dashoffset: 0.000000; opacity: 1.000000" clip-path="url(#pc795f77287078aebad9d590e53fe2616)" d="M270.207279 499.054140L317.327695 517.655579L564.350058 615.171088"/>
</g>
<g id="line2d50">
<path style="fill: none; stroke: #000000; stroke-width: 1.000000; stroke-linejoin: round; stroke-linecap: butt; stroke-dasharray: 3.000000,5.000000,1.000000,5.000000; stroke-dashoffset: 0.000000; opacity: 1.000000" clip-path="url(#pc795f77287078aebad9d590e53fe2616)" d="M317.322235 517.653424L564.350058 615.171088L270.199265 499.050977"/>
</g>
<g id="line2d51">
<path style="fill: none; stroke: #000000; stroke-width: 1.000000; stroke-linejoin: round; stroke-linecap: butt; stroke-dasharray: 3.000000,5.000000,1.000000,5.000000; stroke-dashoffset: 0.000000; opacity: 1.000000" clip-path="url(#pc795f77287078aebad9d590e53fe2616)" d="M270.204608 499.053086L269.823175 500.107732L271.573848 502.095197
L274.623747 504.175443L275.630517 504.730662L275.630517 504.730662"/>
</g>
<g id="line2d52">
<path style="fill: none; stroke: #000000; stroke-width: 1.000000; stroke-linejoin: round; stroke-linecap: butt; stroke-dasharray: 3.000000,5.000000,1.000000,5.000000; stroke-dashoffset: 0.000000; opacity: 1.000000" clip-path="url(#pc795f77287078aebad9d590e53fe2616)" d="M564.350058 615.171088L566.069698 619.213114L566.069698 619.213114"/>
</g>
<g id="line2d53">
<path style="fill: none; stroke: #000000; stroke-width: 1.000000; stroke-linejoin: round; stroke-linecap: butt; stroke-dasharray: 3.000000,5.000000,1.000000,5.000000; stroke-dashoffset: 0.000000; opacity: 1.000000" clip-path="url(#pc795f77287078aebad9d590e53fe2616)" d="M317.319505 517.652346L317.925507 517.883279L318.692796 518.175055
L319.661158 518.542494L320.869120 518.999388L322.364946 519.563190
L323.310264 519.918326L323.991800 520.173924L324.336751 520.303020
L324.509247 520.367575L324.681757 520.432136"/>
</g>
<g id="line2d54">
<path style="fill: none; stroke: #000000; stroke-width: 1.000000; stroke-linejoin: round; stroke-linecap: butt; stroke-dasharray: 3.000000,5.000000,1.000000,5.000000; stroke-dashoffset: 0.000000; opacity: 1.000000" clip-path="url(#pc795f77287078aebad9d590e53fe2616)" d="M564.350058 615.171088L564.345571 615.160553L564.339588 615.146445
L564.330595 615.127233L564.318606 615.101431L564.303637 615.067368
L564.293153 615.044211L564.285670 615.027086L564.282693 615.018453
L564.279681 615.013535L564.278193 615.009219"/>
</g>
<g id="line2d55">
<path style="fill: none; stroke: #000000; stroke-width: 1.000000; stroke-linejoin: round; stroke-linecap: butt; stroke-dasharray: 3.000000,5.000000,1.000000,5.000000; stroke-dashoffset: 0.000000; opacity: 1.000000" clip-path="url(#pc795f77287078aebad9d590e53fe2616)" d="M270.204608 499.053086L262.021376 144.062567L262.021376 144.062567"/>
</g>
<g id="line2d56">
<path style="fill: none; stroke: #000000; stroke-width: 1.000000; stroke-linejoin: round; stroke-linecap: butt; stroke-dasharray: 3.000000,5.000000,1.000000,5.000000; stroke-dashoffset: 0.000000; opacity: 1.000000" clip-path="url(#pc795f77287078aebad9d590e53fe2616)" d="M317.322235 517.653424L316.936614 510.267930L316.594442 505.708175
L316.210165 498.451298L315.686170 490.974983L315.285657 482.728846
L314.742772 474.109547L314.014451 462.393444L313.602374 453.515041
L313.079406 446.285500L312.655063 436.690603L311.935841 425.761727
L311.502311 415.665636L310.562379 399.591010L309.581521 381.082254
L308.414872 359.703862L307.977234 349.597000L304.916062 288.338390
L298.692949 155.544906L298.692949 155.544906"/>
</g>
<g id="line2d57">
<path style="fill: none; stroke: #000000; stroke-width: 1.000000; stroke-linejoin: round; stroke-linecap: butt; stroke-dasharray: 3.000000,5.000000,1.000000,5.000000; stroke-dashoffset: 0.000000; opacity: 1.000000" clip-path="url(#pc795f77287078aebad9d590e53fe2616)" d="M330.199975 478.383008L380.046679 497.555484L596.778737 580.916864"/>
</g>
<g id="line2d58">
<path style="fill: none; stroke: #000000; stroke-width: 1.000000; stroke-linejoin: round; stroke-linecap: butt; stroke-dasharray: 3.000000,5.000000,1.000000,5.000000; stroke-dashoffset: 0.000000; opacity: 1.000000" clip-path="url(#pc795f77287078aebad9d590e53fe2616)" d="M380.020357 497.545360L596.778737 580.916864L330.160699 478.367902"/>
</g>
<g id="line2d59">
<path style="fill: none; stroke: #000000; stroke-width: 1.000000; stroke-linejoin: round; stroke-linecap: butt; stroke-dasharray: 3.000000,5.000000,1.000000,5.000000; stroke-dashoffset: 0.000000; opacity: 1.000000" clip-path="url(#pc795f77287078aebad9d590e53fe2616)" d="M330.213519 478.388218L327.929746 478.345911L326.704109 478.597857
L325.412082 479.212453L323.612399 481.280444L322.864908 483.343426
L322.520939 486.720344L322.852725 490.018211L323.744452 493.223760
L325.220737 496.261519L326.689240 498.282522L326.689240 498.282522"/>
</g>
<g id="line2d60">
<path style="fill: none; stroke: #000000; stroke-width: 1.000000; stroke-linejoin: round; stroke-linecap: butt; stroke-dasharray: 3.000000,5.000000,1.000000,5.000000; stroke-dashoffset: 0.000000; opacity: 1.000000" clip-path="url(#pc795f77287078aebad9d590e53fe2616)" d="M596.778737 580.916864L601.060900 590.549918L605.317167 601.699950
L607.101279 606.867610L607.101279 606.867610"/>
</g>
<g id="line2d61">
<path style="fill: none; stroke: #000000; stroke-width: 1.000000; stroke-linejoin: round; stroke-linecap: butt; stroke-dasharray: 3.000000,5.000000,1.000000,5.000000; stroke-dashoffset: 0.000000; opacity: 1.000000" clip-path="url(#pc795f77287078aebad9d590e53fe2616)" d="M380.171368 497.603443L382.956948 498.564804L384.586900 499.117109
L386.569402 499.781842L388.967917 500.570910L391.860375 501.505282
L393.643061 502.071486L395.884575 502.773031L398.682660 503.633119
L402.154121 504.676833L402.929088 504.905108L403.943684 505.204036
L404.916737 505.488742L405.408323 505.631240L405.654860 505.702770
L405.907067 505.781831"/>
</g>
<g id="line2d62">
<path style="fill: none; stroke: #000000; stroke-width: 1.000000; stroke-linejoin: round; stroke-linecap: butt; stroke-dasharray: 3.000000,5.000000,1.000000,5.000000; stroke-dashoffset: 0.000000; opacity: 1.000000" clip-path="url(#pc795f77287078aebad9d590e53fe2616)" d="M596.778737 580.916864L596.710097 580.775098L596.663845 580.679159
L596.602660 580.553287L596.519089 580.381592L596.407153 580.152472
L596.332538 579.999109L596.231036 579.792612L596.093693 579.514652
L595.907055 579.139594L595.863784 579.050388L595.804033 578.932520
L595.745784 578.817090L595.715921 578.757230L595.700989 578.727300
L595.685987 578.702926"/>
</g>
<g id="line2d63">
<path style="fill: none; stroke: #000000; stroke-width: 1.000000; stroke-linejoin: round; stroke-linecap: butt; stroke-dasharray: 3.000000,5.000000,1.000000,5.000000; stroke-dashoffset: 0.000000; opacity: 1.000000" clip-path="url(#pc795f77287078aebad9d590e53fe2616)" d="M330.197266 478.381967L330.225996 348.163277L330.807240 272.028851
L331.769643 220.404401L332.830995 190.335107L334.041528 170.857604
L335.533319 158.547794L336.313190 155.430540L336.784838 154.374943
L336.784838 154.374943"/>
</g>
<g id="line2d64">
<path style="fill: none; stroke: #000000; stroke-width: 1.000000; stroke-linejoin: round; stroke-linecap: butt; stroke-dasharray: 3.000000,5.000000,1.000000,5.000000; stroke-dashoffset: 0.000000; opacity: 1.000000" clip-path="url(#pc795f77287078aebad9d590e53fe2616)" d="M380.020357 497.545360L372.867955 442.452172L371.056098 427.075187
L369.850164 417.223058L368.632448 406.361137L366.044098 383.774817
L359.252570 320.170621L358.001455 307.696513L344.872545 187.686589
L342.878552 173.633153L340.326654 160.039315L338.865439 155.283274
L338.292417 154.278750L338.292417 154.278750"/>
</g>
<g id="line2d65">
<path style="fill: none; stroke: #000000; stroke-width: 1.000000; stroke-linejoin: round; stroke-linecap: butt; stroke-dasharray: 3.000000,5.000000,1.000000,5.000000; stroke-dashoffset: 0.000000; opacity: 1.000000" clip-path="url(#pc795f77287078aebad9d590e53fe2616)" d="M435.800917 485.857036L435.510719 476.261814L435.843926 464.416022
L436.979616 450.625857L438.550984 438.712166L440.934628 425.663146
L443.818488 413.799955L447.156877 403.188595L450.483363 394.839556
L454.024888 387.727886L458.109571 381.259182L462.760916 375.640169
L466.790852 371.955988L470.568808 369.310542L475.346118 366.881595
L481.325143 364.996837L487.067373 364.133158L491.816556 363.970232
L497.455783 364.292306L505.826926 365.577874L514.014447 367.556194
L523.789437 370.608001L523.789437 370.608001"/>
</g>
<g id="line2d66">
<path style="fill: none; stroke: #000000; stroke-width: 1.000000; stroke-linejoin: round; stroke-linecap: butt; stroke-dasharray: 3.000000,5.000000,1.000000,5.000000; stroke-dashoffset: 0.000000; opacity: 1.000000" clip-path="url(#pc795f77287078aebad9d590e53fe2616)" d="M687.066165 580.642783L680.922913 557.186258L674.944518 536.841405
L668.967130 518.669291L662.136797 500.332013L655.692824 485.099178
L650.463265 474.034867L643.807632 461.501149L636.969692 450.180943
L630.460490 440.729306L623.645013 432.035436L616.810994 424.373642
L610.424778 418.054003L602.327700 411.023019L592.054085 403.391576
L581.924031 396.964521L569.297319 390.050328L554.168991 382.822301
L535.962023 375.124177L524.904101 370.994115L524.904101 370.994115"/>
</g>
<g id="matplotlib.axis1">
</g>
<g id="matplotlib.axis2">
</g>
</g>
<g id="text16">
<defs>
<path id="c_7b26b13f539f13a4c64eef23b6952d29" d="M4.890625 -31.390625l26.312500 0.000000l0.000000 8.000000l-26.312500 0.000000z"/>
<path id="c_9266f381a194deb1d9d439e9a9317ead" d="M9.421875 -54.687500l8.984375 0.000000l0.000000 55.671875q0.000000 10.437500 -3.984375 15.125000q-3.968750 4.687500 -12.812500 4.687500l-3.421875 0.000000l0.000000 -7.609375l2.406250 0.000000q5.125000 0.000000 6.968750 -2.375000q1.859375 -2.359375 1.859375 -9.828125zM9.421875 -75.984375l8.984375 0.000000l0.000000 11.390625l-8.984375 0.000000z"/>
<path id="c_d650c37394b681142a10dfc54356d478" d="M48.781250 -52.593750l0.000000 8.406250q-3.812500 -2.109375 -7.640625 -3.156250q-3.828125 -1.046875 -7.734375 -1.046875q-8.750000 0.000000 -13.593750 5.546875q-4.828125 5.531250 -4.828125 15.546875q0.000000 10.015625 4.828125 15.562500q4.843750 5.531250 13.593750 5.531250q3.906250 0.000000 7.734375 -1.046875q3.828125 -1.046875 7.640625 -3.156250l0.000000 8.312500q-3.765625 1.750000 -7.796875 2.625000q-4.015625 0.890625 -8.562500 0.890625q-12.359375 0.000000 -19.640625 -7.765625q-7.265625 -7.765625 -7.265625 -20.953125q0.000000 -13.375000 7.343750 -21.031250q7.359375 -7.671875 20.156250 -7.671875q4.140625 0.000000 8.093750 0.859375q3.953125 0.843750 7.671875 2.546875"/>
<path id="c_73b12fe3945075d29fe0cc9a468fa31e" d="M37.109375 -75.984375l0.000000 7.484375l-8.593750 0.000000q-4.828125 0.000000 -6.718750 1.953125q-1.875000 1.953125 -1.875000 7.031250l0.000000 4.828125l14.796875 0.000000l0.000000 6.984375l-14.796875 0.000000l0.000000 47.703125l-9.031250 0.000000l0.000000 -47.703125l-8.593750 0.000000l0.000000 -6.984375l8.593750 0.000000l0.000000 -3.812500q0.000000 -9.125000 4.250000 -13.296875q4.250000 -4.187500 13.468750 -4.187500z"/>
<path id="c_e3864de5dabf2f8dd9eee74726882ec1" d="M45.406250 -27.984375q0.000000 -9.765625 -4.031250 -15.125000q-4.015625 -5.375000 -11.296875 -5.375000q-7.218750 0.000000 -11.250000 5.375000q-4.031250 5.359375 -4.031250 15.125000q0.000000 9.718750 4.031250 15.093750q4.031250 5.375000 11.250000 5.375000q7.281250 0.000000 11.296875 -5.375000q4.031250 -5.375000 4.031250 -15.093750M54.390625 -6.781250q0.000000 13.953125 -6.203125 20.765625q-6.187500 6.812500 -18.984375 6.812500q-4.734375 0.000000 -8.937500 -0.703125q-4.203125 -0.703125 -8.156250 -2.171875l0.000000 -8.734375q3.953125 2.140625 7.812500 3.156250q3.859375 1.031250 7.859375 1.031250q8.843750 0.000000 13.234375 -4.609375q4.390625 -4.609375 4.390625 -13.937500l0.000000 -4.453125q-2.781250 4.843750 -7.125000 7.234375q-4.343750 2.390625 -10.406250 2.390625q-10.046875 0.000000 -16.203125 -7.656250q-6.156250 -7.671875 -6.156250 -20.328125q0.000000 -12.687500 6.156250 -20.343750q6.156250 -7.671875 16.203125 -7.671875q6.062500 0.000000 10.406250 2.390625q4.343750 2.390625 7.125000 7.218750l0.000000 -8.296875l8.984375 0.000000z"/>
<path id="c_74d54c94aa871ec39e2bc6697dde6c00" d="M54.890625 -33.015625l0.000000 33.015625l-8.984375 0.000000l0.000000 -32.718750q0.000000 -7.765625 -3.031250 -11.609375q-3.031250 -3.859375 -9.078125 -3.859375q-7.281250 0.000000 -11.484375 4.640625q-4.203125 4.625000 -4.203125 12.640625l0.000000 30.906250l-9.031250 0.000000l0.000000 -75.984375l9.031250 0.000000l0.000000 29.796875q3.234375 -4.937500 7.593750 -7.375000q4.375000 -2.437500 10.093750 -2.437500q9.421875 0.000000 14.250000 5.828125q4.843750 5.828125 4.843750 17.156250"/>
<path id="c_a66ecc39892414b9ca9362e0fffdc75b" d="M14.796875 -27.296875q0.000000 9.906250 4.078125 15.546875q4.078125 5.640625 11.203125 5.640625q7.125000 0.000000 11.218750 -5.640625q4.109375 -5.640625 4.109375 -15.546875q0.000000 -9.906250 -4.109375 -15.546875q-4.093750 -5.640625 -11.218750 -5.640625q-7.125000 0.000000 -11.203125 5.640625q-4.078125 5.640625 -4.078125 15.546875M45.406250 -8.203125q-2.828125 4.875000 -7.156250 7.250000q-4.312500 2.375000 -10.375000 2.375000q-9.906250 0.000000 -16.140625 -7.906250q-6.218750 -7.921875 -6.218750 -20.812500q0.000000 -12.890625 6.218750 -20.796875q6.234375 -7.906250 16.140625 -7.906250q6.062500 0.000000 10.375000 2.375000q4.328125 2.359375 7.156250 7.234375l0.000000 -8.296875l8.984375 0.000000l0.000000 75.484375l-8.984375 0.000000z"/>
<path id="c_d821beae607506e87470f334d9ff47af" d="M45.406250 -46.390625l0.000000 -29.593750l8.984375 0.000000l0.000000 75.984375l-8.984375 0.000000l0.000000 -8.203125q-2.828125 4.875000 -7.156250 7.250000q-4.312500 2.375000 -10.375000 2.375000q-9.906250 0.000000 -16.140625 -7.906250q-6.218750 -7.921875 -6.218750 -20.812500q0.000000 -12.890625 6.218750 -20.796875q6.234375 -7.906250 16.140625 -7.906250q6.062500 0.000000 10.375000 2.375000q4.328125 2.359375 7.156250 7.234375M14.796875 -27.296875q0.000000 9.906250 4.078125 15.546875q4.078125 5.640625 11.203125 5.640625q7.125000 0.000000 11.218750 -5.640625q4.109375 -5.640625 4.109375 -15.546875q0.000000 -9.906250 -4.109375 -15.546875q-4.093750 -5.640625 -11.218750 -5.640625q-7.125000 0.000000 -11.203125 5.640625q-4.078125 5.640625 -4.078125 15.546875"/>
</defs>
<g style="fill: #000000; opacity: 1.000000" transform="translate(219.837500,23.777000)scale(0.120000)">
<use xlink:href="#c_518d586bee075aa0153eaebfcb5ab11f"/>
<use xlink:href="#c_6ec8d5749226675394676a5d2a3b468b" x="58.552734"/>
<use xlink:href="#c_0bce5afba2dc6b9024b26277c38ad8e8" x="97.416016"/>
<use xlink:href="#c_8e0810ad13fe20a2a87a2619799b154d" x="158.939453"/>
<use xlink:href="#c_8e0810ad13fe20a2a87a2619799b154d" x="211.039062"/>
<use xlink:href="#c_3b515ad41f960e225ec85275856806ca" x="263.138672"/>
<use xlink:href="#c_6ec8d5749226675394676a5d2a3b468b" x="326.517578"/>
<use xlink:href="#c_0bce5afba2dc6b9024b26277c38ad8e8" x="365.380859"/>
<use xlink:href="#c_7b26b13f539f13a4c64eef23b6952d29" x="426.904297"/>
<use xlink:href="#c_9e4b30cbdf32072672ded72e9074c4c9" x="453.863281"/>
<use xlink:href="#c_0bce5afba2dc6b9024b26277c38ad8e8" x="497.947266"/>
<use xlink:href="#c_4653c6dfde66c7610eae0911760d3490" x="559.470703"/>
<use xlink:href="#c_f15a64fcd463ef4629c48bab42cde24c" x="656.882812"/>
<use xlink:href="#c_0bce5afba2dc6b9024b26277c38ad8e8" x="720.359375"/>
<use xlink:href="#c_6ec8d5749226675394676a5d2a3b468b" x="781.882812"/>
<use xlink:href="#c_01d93a582460e35a7945ca50d148ffeb" x="822.996094"/>
<use xlink:href="#c_0f8c41144cfbf448378cb6fd1cc8e549" x="884.275391"/>
<use xlink:href="#c_3b515ad41f960e225ec85275856806ca" x="923.484375"/>
<use xlink:href="#c_6ec8d5749226675394676a5d2a3b468b" x="986.863281"/>
<use xlink:href="#c_0bce5afba2dc6b9024b26277c38ad8e8" x="1025.726562"/>
<use xlink:href="#c_7b26b13f539f13a4c64eef23b6952d29" x="1087.250000"/>
<use xlink:href="#c_ff9441f72805bc441fcb0bfe0d774f13" x="1123.333984"/>
<use xlink:href="#c_0bce5afba2dc6b9024b26277c38ad8e8" x="1200.335938"/>
<use xlink:href="#c_fe791a90f5471e2ab20a5ed41a7fa451" x="1261.859375"/>
<use xlink:href="#c_8e0810ad13fe20a2a87a2619799b154d" x="1325.238281"/>
<use xlink:href="#c_6a63bda47b2f3da1cec6aadd80692cfe" x="1377.337891"/>
<use xlink:href="#c_0f8c41144cfbf448378cb6fd1cc8e549" x="1405.121094"/>
<use xlink:href="#c_3fe22c4af425ac970aec982ae9662abe" x="1444.330078"/>
<use xlink:href="#c_d41d8cd98f00b204e9800998ecf8427e" x="1503.509766"/>
<use xlink:href="#c_f15a64fcd463ef4629c48bab42cde24c" x="1535.296875"/>
<use xlink:href="#c_6ec8d5749226675394676a5d2a3b468b" x="1598.773438"/>
<use xlink:href="#c_f05dd90d41f04bb96ef1ca503cc2044b" x="1637.636719"/>
<use xlink:href="#c_9266f381a194deb1d9d439e9a9317ead" x="1698.818359"/>
<use xlink:href="#c_0bce5afba2dc6b9024b26277c38ad8e8" x="1726.601562"/>
<use xlink:href="#c_d650c37394b681142a10dfc54356d478" x="1788.125000"/>
<use xlink:href="#c_0f8c41144cfbf448378cb6fd1cc8e549" x="1843.105469"/>
<use xlink:href="#c_6a63bda47b2f3da1cec6aadd80692cfe" x="1882.314453"/>
<use xlink:href="#c_f05dd90d41f04bb96ef1ca503cc2044b" x="1910.097656"/>
<use xlink:href="#c_fe791a90f5471e2ab20a5ed41a7fa451" x="1971.279297"/>
<use xlink:href="#c_d41d8cd98f00b204e9800998ecf8427e" x="2034.658203"/>
<use xlink:href="#c_f05dd90d41f04bb96ef1ca503cc2044b" x="2066.445312"/>
<use xlink:href="#c_73b12fe3945075d29fe0cc9a468fa31e" x="2127.626953"/>
<use xlink:href="#c_d41d8cd98f00b204e9800998ecf8427e" x="2162.832031"/>
<use xlink:href="#c_01d93a582460e35a7945ca50d148ffeb" x="2194.619141"/>
<use xlink:href="#c_d41d8cd98f00b204e9800998ecf8427e" x="2255.898438"/>
<use xlink:href="#c_e3864de5dabf2f8dd9eee74726882ec1" x="2287.685547"/>
<use xlink:href="#c_5099edb83619131346ae654950954dea" x="2351.162109"/>
<use xlink:href="#c_f05dd90d41f04bb96ef1ca503cc2044b" x="2378.945312"/>
<use xlink:href="#c_5cc9741494d2ad8f9764e03ae145569f" x="2440.126953"/>
<use xlink:href="#c_01d93a582460e35a7945ca50d148ffeb" x="2503.603516"/>
<use xlink:href="#c_5099edb83619131346ae654950954dea" x="2564.882812"/>
<use xlink:href="#c_d41d8cd98f00b204e9800998ecf8427e" x="2592.666016"/>
<use xlink:href="#c_f15a64fcd463ef4629c48bab42cde24c" x="2624.453125"/>
<use xlink:href="#c_74d54c94aa871ec39e2bc6697dde6c00" x="2687.929688"/>
<use xlink:href="#c_01d93a582460e35a7945ca50d148ffeb" x="2751.308594"/>
<use xlink:href="#c_8e0810ad13fe20a2a87a2619799b154d" x="2812.587891"/>
<use xlink:href="#c_0bce5afba2dc6b9024b26277c38ad8e8" x="2864.687500"/>
<use xlink:href="#c_d41d8cd98f00b204e9800998ecf8427e" x="2926.210938"/>
<use xlink:href="#c_0bce5afba2dc6b9024b26277c38ad8e8" x="2957.998047"/>
<use xlink:href="#c_a66ecc39892414b9ca9362e0fffdc75b" x="3019.521484"/>
<use xlink:href="#c_3b515ad41f960e225ec85275856806ca" x="3082.998047"/>
<use xlink:href="#c_6a63bda47b2f3da1cec6aadd80692cfe" x="3146.376953"/>
<use xlink:href="#c_5099edb83619131346ae654950954dea" x="3174.160156"/>
<use xlink:href="#c_6a63bda47b2f3da1cec6aadd80692cfe" x="3201.943359"/>
<use xlink:href="#c_5cc9741494d2ad8f9764e03ae145569f" x="3229.726562"/>
<use xlink:href="#c_6ec8d5749226675394676a5d2a3b468b" x="3293.203125"/>
<use xlink:href="#c_6a63bda47b2f3da1cec6aadd80692cfe" x="3334.316406"/>
<use xlink:href="#c_3b515ad41f960e225ec85275856806ca" x="3362.099609"/>
<use xlink:href="#c_4653c6dfde66c7610eae0911760d3490" x="3425.478516"/>
<use xlink:href="#c_d41d8cd98f00b204e9800998ecf8427e" x="3522.890625"/>
<use xlink:href="#c_d821beae607506e87470f334d9ff47af" x="3554.677734"/>
<use xlink:href="#c_6a63bda47b2f3da1cec6aadd80692cfe" x="3618.154297"/>
<use xlink:href="#c_01d93a582460e35a7945ca50d148ffeb" x="3645.937500"/>
<use xlink:href="#c_e3864de5dabf2f8dd9eee74726882ec1" x="3707.216797"/>
<use xlink:href="#c_6ec8d5749226675394676a5d2a3b468b" x="3770.693359"/>
<use xlink:href="#c_01d93a582460e35a7945ca50d148ffeb" x="3811.806641"/>
<use xlink:href="#c_4653c6dfde66c7610eae0911760d3490" x="3873.085938"/>
</g>
</g>
<g id="text17">
<defs>
<path id="c_dbe439baa035de1a298d0549b22269d8" d="M9.812500 -72.906250l46.093750 0.000000l0.000000 8.312500l-36.234375 0.000000l0.000000 21.578125l34.718750 0.000000l0.000000 8.296875l-34.718750 0.000000l0.000000 26.421875l37.109375 0.000000l0.000000 8.296875l-46.968750 0.000000z"/>
<path id="c_5e9f44da4350eed47d2641510279ca20" d="M9.812500 -72.906250l9.859375 0.000000l0.000000 29.890625l35.843750 0.000000l0.000000 -29.890625l9.859375 0.000000l0.000000 72.906250l-9.859375 0.000000l0.000000 -34.718750l-35.843750 0.000000l0.000000 34.718750l-9.859375 0.000000z"/>
<path id="c_6023715d605f81e6eb43b7f9d77e7c51" d="M34.187500 -63.187500l-13.390625 36.281250l26.812500 0.000000zM28.609375 -72.906250l11.187500 0.000000l27.781250 72.906250l-10.250000 0.000000l-6.640625 -18.703125l-32.859375 0.000000l-6.640625 18.703125l-10.406250 0.000000z"/>
<path id="c_fabc000b0fb83f456ee9f092ad635e20" d="M9.812500 -72.906250l13.281250 0.000000l32.328125 60.984375l0.000000 -60.984375l9.562500 0.000000l0.000000 72.906250l-13.281250 0.000000l-32.312500 -60.984375l0.000000 60.984375l-9.578125 0.000000z"/>
<path id="c_5190dbc1cdbe53cbdd605e1721869cb7" d="M46.000000 -62.703125l0.000000 27.203125l27.187500 0.000000l0.000000 8.296875l-27.187500 0.000000l0.000000 27.203125l-8.203125 0.000000l0.000000 -27.203125l-27.203125 0.000000l0.000000 -8.296875l27.203125 0.000000l0.000000 -27.203125z"/>
<path id="c_72234ddc5dcad8d05c893ef0371171da" d="M9.812500 -72.906250l14.703125 0.000000l18.593750 49.609375l18.703125 -49.609375l14.703125 0.000000l0.000000 72.906250l-9.625000 0.000000l0.000000 -64.015625l-18.796875 50.000000l-9.906250 0.000000l-18.796875 -50.000000l0.000000 64.015625l-9.578125 0.000000z"/>
<path id="c_680e57528fc97ec49605e10827a40086" d="M39.406250 -66.218750q-10.750000 0.000000 -17.078125 8.015625q-6.312500 8.000000 -6.312500 21.828125q0.000000 13.765625 6.312500 21.781250q6.328125 8.000000 17.078125 8.000000q10.734375 0.000000 17.015625 -8.000000q6.281250 -8.015625 6.281250 -21.781250q0.000000 -13.828125 -6.281250 -21.828125q-6.281250 -8.015625 -17.015625 -8.015625M39.406250 -74.218750q15.328125 0.000000 24.500000 10.281250q9.187500 10.281250 9.187500 27.562500q0.000000 17.234375 -9.187500 27.515625q-9.171875 10.281250 -24.500000 10.281250q-15.375000 0.000000 -24.593750 -10.250000q-9.203125 -10.265625 -9.203125 -27.546875q0.000000 -17.281250 9.203125 -27.562500q9.218750 -10.281250 24.593750 -10.281250"/>
<path id="c_07e3f33241aff50afcba519606f2a979" d="M9.812500 -72.906250l9.859375 0.000000l0.000000 64.609375l35.500000 0.000000l0.000000 8.296875l-45.359375 0.000000z"/>
<path id="c_83c92fcf7184248154f741f54a0382f5" d="M11.718750 -12.406250l10.296875 0.000000l0.000000 8.406250l-8.000000 15.625000l-6.296875 0.000000l4.000000 -15.625000z"/>
<path id="c_b672e4bee30772019085dff1098f516d" d="M53.515625 -70.515625l0.000000 9.625000q-5.609375 -2.687500 -10.593750 -4.000000q-4.984375 -1.328125 -9.625000 -1.328125q-8.046875 0.000000 -12.421875 3.125000q-4.375000 3.125000 -4.375000 8.890625q0.000000 4.843750 2.906250 7.312500q2.906250 2.453125 11.015625 3.968750l5.953125 1.218750q11.031250 2.109375 16.281250 7.406250q5.250000 5.296875 5.250000 14.171875q0.000000 10.609375 -7.109375 16.078125q-7.093750 5.468750 -20.812500 5.468750q-5.171875 0.000000 -11.015625 -1.171875q-5.828125 -1.171875 -12.078125 -3.468750l0.000000 -10.156250q6.000000 3.359375 11.765625 5.078125q5.765625 1.703125 11.328125 1.703125q8.437500 0.000000 13.031250 -3.312500q4.593750 -3.328125 4.593750 -9.484375q0.000000 -5.359375 -3.296875 -8.390625q-3.296875 -3.031250 -10.812500 -4.546875l-6.015625 -1.171875q-11.031250 -2.187500 -15.968750 -6.875000q-4.921875 -4.687500 -4.921875 -13.046875q0.000000 -9.671875 6.812500 -15.234375q6.812500 -5.562500 18.765625 -5.562500q5.140625 0.000000 10.453125 0.937500q5.328125 0.921875 10.890625 2.765625"/>
<path id="c_4c6532c564269b2c70b230c2e45c01e4" d="M44.390625 -34.187500q3.171875 1.078125 6.171875 4.593750q3.000000 3.515625 6.031250 9.671875l10.015625 19.921875l-10.609375 0.000000l-9.312500 -18.703125q-3.625000 -7.328125 -7.015625 -9.718750q-3.390625 -2.390625 -9.250000 -2.390625l-10.750000 0.000000l0.000000 30.812500l-9.859375 0.000000l0.000000 -72.906250l22.265625 0.000000q12.500000 0.000000 18.656250 5.234375q6.156250 5.218750 6.156250 15.765625q0.000000 6.890625 -3.203125 11.437500q-3.203125 4.531250 -9.296875 6.281250M19.671875 -64.796875l0.000000 25.875000l12.406250 0.000000q7.125000 0.000000 10.765625 -3.296875q3.640625 -3.296875 3.640625 -9.687500q0.000000 -6.390625 -3.640625 -9.640625q-3.640625 -3.250000 -10.765625 -3.250000z"/>
<path id="c_8c0379a31aa3b07b28207e25658c6113" d="M10.593750 -45.406250l62.593750 0.000000l0.000000 8.203125l-62.593750 0.000000zM10.593750 -25.484375l62.593750 0.000000l0.000000 8.296875l-62.593750 0.000000z"/>
<path id="c_ed3e21196fb739f392806f09ca0594ef" d="M10.687500 -12.406250l10.312500 0.000000l0.000000 12.406250l-10.312500 0.000000z"/>
</defs>
<g style="fill: #000000; opacity: 1.000000" transform="translate(9.153000,723.399000)scale(0.090000)">
<use xlink:href="#c_dbe439baa035de1a298d0549b22269d8"/>
<use xlink:href="#c_9e4b30cbdf32072672ded72e9074c4c9" x="63.183594"/>
<use xlink:href="#c_5e9f44da4350eed47d2641510279ca20" x="124.267578"/>
<use xlink:href="#c_6023715d605f81e6eb43b7f9d77e7c51" x="199.462891"/>
<use xlink:href="#c_fabc000b0fb83f456ee9f092ad635e20" x="267.871094"/>
<use xlink:href="#c_dbe439baa035de1a298d0549b22269d8" x="342.675781"/>
<use xlink:href="#c_d41d8cd98f00b204e9800998ecf8427e" x="405.859375"/>
<use xlink:href="#c_5190dbc1cdbe53cbdd605e1721869cb7" x="437.646484"/>
<use xlink:href="#c_d41d8cd98f00b204e9800998ecf8427e" x="521.435547"/>
<use xlink:href="#c_72234ddc5dcad8d05c893ef0371171da" x="553.222656"/>
<use xlink:href="#c_dbe439baa035de1a298d0549b22269d8" x="639.501953"/>
<use xlink:href="#c_9e4b30cbdf32072672ded72e9074c4c9" x="702.685547"/>
<use xlink:href="#c_5e9f44da4350eed47d2641510279ca20" x="763.769531"/>
<use xlink:href="#c_6023715d605f81e6eb43b7f9d77e7c51" x="838.964844"/>
<use xlink:href="#c_fabc000b0fb83f456ee9f092ad635e20" x="907.373047"/>
<use xlink:href="#c_680e57528fc97ec49605e10827a40086" x="982.177734"/>
<use xlink:href="#c_07e3f33241aff50afcba519606f2a979" x="1060.888672"/>
<use xlink:href="#c_83c92fcf7184248154f741f54a0382f5" x="1116.601562"/>
<use xlink:href="#c_d41d8cd98f00b204e9800998ecf8427e" x="1148.388672"/>
<use xlink:href="#c_b672e4bee30772019085dff1098f516d" x="1180.175781"/>
<use xlink:href="#c_4c6532c564269b2c70b230c2e45c01e4" x="1243.652344"/>
<use xlink:href="#c_7aecf22c350a602b3f972fa102c17cac" x="1313.134766"/>
<use xlink:href="#c_d41d8cd98f00b204e9800998ecf8427e" x="1378.710938"/>
<use xlink:href="#c_dbe439baa035de1a298d0549b22269d8" x="1410.498047"/>
<use xlink:href="#c_680e57528fc97ec49605e10827a40086" x="1473.681641"/>
<use xlink:href="#c_b672e4bee30772019085dff1098f516d" x="1552.392578"/>
<use xlink:href="#c_83c92fcf7184248154f741f54a0382f5" x="1615.869141"/>
<use xlink:href="#c_d41d8cd98f00b204e9800998ecf8427e" x="1647.656250"/>
<use xlink:href="#c_7aecf22c350a602b3f972fa102c17cac" x="1679.443359"/>
<use xlink:href="#c_6a63bda47b2f3da1cec6aadd80692cfe" x="1745.019531"/>
<use xlink:href="#c_9266f381a194deb1d9d439e9a9317ead" x="1772.802734"/>
<use xlink:href="#c_d41d8cd98f00b204e9800998ecf8427e" x="1800.585938"/>
<use xlink:href="#c_8c0379a31aa3b07b28207e25658c6113" x="1832.373047"/>
<use xlink:href="#c_d41d8cd98f00b204e9800998ecf8427e" x="1916.162109"/>
<use xlink:href="#c_7a2040fe3b94fcd41d0a72c84e93b115" x="1947.949219"/>
<use xlink:href="#c_ed3e21196fb739f392806f09ca0594ef" x="2011.572266"/>
<use xlink:href="#c_7a2040fe3b94fcd41d0a72c84e93b115" x="2043.359375"/>
<use xlink:href="#c_83c92fcf7184248154f741f54a0382f5" x="2106.982422"/>
<use xlink:href="#c_d41d8cd98f00b204e9800998ecf8427e" x="2138.769531"/>
<use xlink:href="#c_07e3f33241aff50afcba519606f2a979" x="2170.556641"/>
<use xlink:href="#c_6a63bda47b2f3da1cec6aadd80692cfe" x="2226.269531"/>
<use xlink:href="#c_9266f381a194deb1d9d439e9a9317ead" x="2254.052734"/>
<use xlink:href="#c_d41d8cd98f00b204e9800998ecf8427e" x="2281.835938"/>
<use xlink:href="#c_8c0379a31aa3b07b28207e25658c6113" x="2313.623047"/>
<use xlink:href="#c_d41d8cd98f00b204e9800998ecf8427e" x="2397.412109"/>
<use xlink:href="#c_7a2040fe3b94fcd41d0a72c84e93b115" x="2429.199219"/>
<use xlink:href="#c_ed3e21196fb739f392806f09ca0594ef" x="2492.822266"/>
<use xlink:href="#c_42baa63129a918535c52adb20d687ea7" x="2524.609375"/>
</g>
</g>
</g>
</svg>
