<?xml version="1.0" standalone="no"?>
<!DOCTYPE svg PUBLIC "-//W3C//DTD SVG 1.1//EN"
  "http://www.w3.org/Graphics/SVG/1.1/DTD/svg11.dtd">
<!-- Created with matplotlib (http://matplotlib.sourceforge.net/) -->
<svg width="1148pt" height="770pt" viewBox="0 0 1148 770"
   xmlns="http://www.w3.org/2000/svg"
   xmlns:xlink="http://www.w3.org/1999/xlink"
   version="1.1"
   id="svg1">
<g id="figure1">
<g id="patch1">
<path style="fill: #ffffff; stroke: #ffffff; stroke-width: 1.000000; stroke-linejoin: round; stroke-linecap: square;  opacity: 1.000000"  d="M0.000000 770.400000L1148.400000 770.400000L1148.400000 0.000000
L0.000000 0.000000L0.000000 770.400000"/>
</g>
<g id="patch2">
<path style="fill: #ffffff; opacity: 1.000000"  d="M0.000000 770.400000L1148.400000 770.400000L1148.400000 0.000000
L0.000000 0.000000L0.000000 770.400000"/>
</g>
<g id="axis3d1">
<g id="patch3">
<path style="fill: #f2f2f2; stroke: #f2f2f2; stroke-width: 1.000000; stroke-linejoin: round; stroke-linecap: square;  opacity: 0.500000"  d="M1012.634050 622.059679L763.631126 493.609813L768.547885 100.785948
L1025.757972 194.864911"/>
</g>
<g id="line2d1">
<path style="fill: none; stroke: #000000; stroke-width: 0.750000; stroke-linejoin: round; stroke-linecap: square;  opacity: 1.000000"  d="M1012.634050 622.059679L392.245508 677.359604"/>
</g>
<g id="text1">
<defs>
<path id="c_9e4b30cbdf32072672ded72e9074c4c9" d="M-0.296875 -72.906250l61.671875 0.000000l0.000000 8.312500l-25.875000 0.000000l0.000000 64.593750l-9.906250 0.000000l0.000000 -64.593750l-25.890625 0.000000z"/>
<path id="c_0bce5afba2dc6b9024b26277c38ad8e8" d="M56.203125 -29.593750l0.000000 4.390625l-41.312500 0.000000q0.593750 9.281250 5.593750 14.140625q5.000000 4.859375 13.937500 4.859375q5.171875 0.000000 10.031250 -1.265625q4.859375 -1.265625 9.656250 -3.812500l0.000000 8.500000q-4.843750 2.046875 -9.921875 3.125000q-5.078125 1.078125 -10.296875 1.078125q-13.093750 0.000000 -20.734375 -7.609375q-7.640625 -7.625000 -7.640625 -20.625000q0.000000 -13.421875 7.250000 -21.296875q7.250000 -7.890625 19.562500 -7.890625q11.031250 0.000000 17.453125 7.109375q6.421875 7.093750 6.421875 19.296875M47.218750 -32.234375q-0.093750 -7.359375 -4.125000 -11.750000q-4.031250 -4.406250 -10.671875 -4.406250q-7.515625 0.000000 -12.031250 4.250000q-4.515625 4.250000 -5.203125 11.968750z"/>
<path id="c_4653c6dfde66c7610eae0911760d3490" d="M52.000000 -44.187500q3.375000 -6.062500 8.062500 -8.937500q4.687500 -2.875000 11.031250 -2.875000q8.546875 0.000000 13.187500 5.984375q4.640625 5.968750 4.640625 17.000000l0.000000 33.015625l-9.031250 0.000000l0.000000 -32.718750q0.000000 -7.859375 -2.796875 -11.656250q-2.781250 -3.812500 -8.484375 -3.812500q-6.984375 0.000000 -11.046875 4.640625q-4.046875 4.625000 -4.046875 12.640625l0.000000 30.906250l-9.031250 0.000000l0.000000 -32.718750q0.000000 -7.906250 -2.781250 -11.687500q-2.781250 -3.781250 -8.593750 -3.781250q-6.890625 0.000000 -10.953125 4.656250q-4.046875 4.656250 -4.046875 12.625000l0.000000 30.906250l-9.031250 0.000000l0.000000 -54.687500l9.031250 0.000000l0.000000 8.500000q3.078125 -5.031250 7.375000 -7.421875q4.296875 -2.390625 10.203125 -2.390625q5.968750 0.000000 10.140625 3.031250q4.171875 3.015625 6.171875 8.781250"/>
<path id="c_f15a64fcd463ef4629c48bab42cde24c" d="M18.109375 -8.203125l0.000000 29.000000l-9.031250 0.000000l0.000000 -75.484375l9.031250 0.000000l0.000000 8.296875q2.843750 -4.875000 7.156250 -7.234375q4.328125 -2.375000 10.328125 -2.375000q9.968750 0.000000 16.187500 7.906250q6.234375 7.906250 6.234375 20.796875q0.000000 12.890625 -6.234375 20.812500q-6.218750 7.906250 -16.187500 7.906250q-6.000000 0.000000 -10.328125 -2.375000q-4.312500 -2.375000 -7.156250 -7.250000M48.687500 -27.296875q0.000000 -9.906250 -4.078125 -15.546875q-4.078125 -5.640625 -11.203125 -5.640625q-7.140625 0.000000 -11.218750 5.640625q-4.078125 5.640625 -4.078125 15.546875q0.000000 9.906250 4.078125 15.546875q4.078125 5.640625 11.218750 5.640625q7.125000 0.000000 11.203125 -5.640625q4.078125 -5.640625 4.078125 -15.546875"/>
<path id="c_6ec8d5749226675394676a5d2a3b468b" d="M41.109375 -46.296875q-1.515625 -0.875000 -3.296875 -1.281250q-1.781250 -0.421875 -3.921875 -0.421875q-7.625000 0.000000 -11.703125 4.953125q-4.078125 4.953125 -4.078125 14.234375l0.000000 28.812500l-9.031250 0.000000l0.000000 -54.687500l9.031250 0.000000l0.000000 8.500000q2.843750 -4.984375 7.375000 -7.390625q4.546875 -2.421875 11.046875 -2.421875q0.921875 0.000000 2.046875 0.125000q1.125000 0.109375 2.484375 0.359375z"/>
<path id="c_01d93a582460e35a7945ca50d148ffeb" d="M34.281250 -27.484375q-10.890625 0.000000 -15.093750 2.484375q-4.203125 2.484375 -4.203125 8.500000q0.000000 4.781250 3.156250 7.593750q3.156250 2.796875 8.562500 2.796875q7.484375 0.000000 12.000000 -5.296875q4.515625 -5.296875 4.515625 -14.078125l0.000000 -2.000000zM52.203125 -31.203125l0.000000 31.203125l-8.984375 0.000000l0.000000 -8.296875q-3.078125 4.968750 -7.671875 7.343750q-4.593750 2.375000 -11.234375 2.375000q-8.390625 0.000000 -13.359375 -4.718750q-4.953125 -4.718750 -4.953125 -12.625000q0.000000 -9.218750 6.171875 -13.906250q6.187500 -4.687500 18.437500 -4.687500l12.609375 0.000000l0.000000 -0.890625q0.000000 -6.203125 -4.078125 -9.593750q-4.078125 -3.390625 -11.453125 -3.390625q-4.687500 0.000000 -9.140625 1.125000q-4.437500 1.125000 -8.531250 3.375000l0.000000 -8.312500q4.921875 -1.906250 9.562500 -2.843750q4.640625 -0.953125 9.031250 -0.953125q11.875000 0.000000 17.734375 6.156250q5.859375 6.140625 5.859375 18.640625"/>
<path id="c_0f8c41144cfbf448378cb6fd1cc8e549" d="M18.312500 -70.218750l0.000000 15.531250l18.500000 0.000000l0.000000 6.984375l-18.500000 0.000000l0.000000 29.687500q0.000000 6.687500 1.828125 8.593750q1.828125 1.906250 7.453125 1.906250l9.218750 0.000000l0.000000 7.515625l-9.218750 0.000000q-10.406250 0.000000 -14.359375 -3.875000q-3.953125 -3.890625 -3.953125 -14.140625l0.000000 -29.687500l-6.593750 0.000000l0.000000 -6.984375l6.593750 0.000000l0.000000 -15.531250z"/>
<path id="c_3b515ad41f960e225ec85275856806ca" d="M8.500000 -21.578125l0.000000 -33.109375l8.984375 0.000000l0.000000 32.765625q0.000000 7.765625 3.015625 11.656250q3.031250 3.875000 9.093750 3.875000q7.265625 0.000000 11.484375 -4.640625q4.234375 -4.640625 4.234375 -12.656250l0.000000 -31.000000l8.984375 0.000000l0.000000 54.687500l-8.984375 0.000000l0.000000 -8.406250q-3.265625 4.984375 -7.593750 7.406250q-4.312500 2.421875 -10.031250 2.421875q-9.421875 0.000000 -14.312500 -5.859375q-4.875000 -5.859375 -4.875000 -17.140625M31.109375 -56.000000z"/>
<path id="c_d41d8cd98f00b204e9800998ecf8427e" d=""/>
<path id="c_1a1d9ef1e4ddee695bd67a282879f099" d="M8.593750 -75.984375l20.703125 0.000000l0.000000 6.984375l-11.718750 0.000000l0.000000 75.203125l11.718750 0.000000l0.000000 6.984375l-20.703125 0.000000z"/>
<path id="c_7aecf22c350a602b3f972fa102c17cac" d="M9.812500 -72.906250l9.859375 0.000000l0.000000 30.812500l32.718750 -30.812500l12.703125 0.000000l-36.187500 33.984375l38.765625 38.921875l-12.984375 0.000000l-35.015625 -35.109375l0.000000 35.109375l-9.859375 0.000000z"/>
<path id="c_5bcf09947f6bf611091602c6fea1d302" d="M30.421875 -75.984375l0.000000 89.171875l-20.703125 0.000000l0.000000 -6.984375l11.671875 0.000000l0.000000 -75.203125l-11.671875 0.000000l0.000000 -6.984375z"/>
</defs>
<g style="fill: #000000; opacity: 1.000000" transform="translate(751.417925,712.168463)rotate(-7.6)scale(0.120000)">
<use xlink:href="#c_9e4b30cbdf32072672ded72e9074c4c9"/>
<use xlink:href="#c_0bce5afba2dc6b9024b26277c38ad8e8" x="44.083984"/>
<use xlink:href="#c_4653c6dfde66c7610eae0911760d3490" x="105.607422"/>
<use xlink:href="#c_f15a64fcd463ef4629c48bab42cde24c" x="203.019531"/>
<use xlink:href="#c_0bce5afba2dc6b9024b26277c38ad8e8" x="266.496094"/>
<use xlink:href="#c_6ec8d5749226675394676a5d2a3b468b" x="328.019531"/>
<use xlink:href="#c_01d93a582460e35a7945ca50d148ffeb" x="369.132812"/>
<use xlink:href="#c_0f8c41144cfbf448378cb6fd1cc8e549" x="430.412109"/>
<use xlink:href="#c_3b515ad41f960e225ec85275856806ca" x="469.621094"/>
<use xlink:href="#c_6ec8d5749226675394676a5d2a3b468b" x="533.000000"/>
<use xlink:href="#c_0bce5afba2dc6b9024b26277c38ad8e8" x="571.863281"/>
<use xlink:href="#c_d41d8cd98f00b204e9800998ecf8427e" x="633.386719"/>
<use xlink:href="#c_1a1d9ef1e4ddee695bd67a282879f099" x="665.173828"/>
<use xlink:href="#c_7aecf22c350a602b3f972fa102c17cac" x="704.187500"/>
<use xlink:href="#c_5bcf09947f6bf611091602c6fea1d302" x="769.763672"/>
</g>
</g>
<g id="Line3DCollection1">
<defs>
<path id="coll0_0_ceb8213a2b02950c74cc7753e6f1ecd2" d="M431.873362 -96.572726L226.801888 -233.722102L216.206366 -638.126412"/>
<path id="coll0_1_d92a5dff0d54e8451668b57b41a9d2eb" d="M546.297236 -106.772192L332.314650 -242.187052L324.846397 -644.319714"/>
<path id="coll0_2_0d5453239e802c5402b8c9df7f0f1ba9" d="M659.212037 -116.837143L436.558578 -250.550207L432.142317 -650.436392"/>
<path id="coll0_3_1d40c3f941a8bba63afbc9cc4c619ee6" d="M770.647424 -126.770222L539.556423 -258.813393L538.118918 -656.477859"/>
<path id="coll0_4_ffbb3d9e64e972480c69c7e007e3fbad" d="M880.632283 -136.574005L641.330395 -266.978392L642.800385 -662.445494"/>
<path id="coll0_5_5d6e413ef7c19bb759c67d8e7f0d68f1" d="M989.194752 -146.250999L741.902179 -275.046943L746.210314 -668.340641"/>
</defs>
<use style="fill: none; stroke: #e6e6e6; stroke-width: 1.000000; stroke-linejoin: round; stroke-linecap: butt;  opacity: 1.000000" xlink:href="#coll0_0_ceb8213a2b02950c74cc7753e6f1ecd2" x="0.000000" y="770.400000"/>
<use style="fill: none; stroke: #e6e6e6; stroke-width: 1.000000; stroke-linejoin: round; stroke-linecap: butt;  opacity: 1.000000" xlink:href="#coll0_1_d92a5dff0d54e8451668b57b41a9d2eb" x="0.000000" y="770.400000"/>
<use style="fill: none; stroke: #e6e6e6; stroke-width: 1.000000; stroke-linejoin: round; stroke-linecap: butt;  opacity: 1.000000" xlink:href="#coll0_2_0d5453239e802c5402b8c9df7f0f1ba9" x="0.000000" y="770.400000"/>
<use style="fill: none; stroke: #e6e6e6; stroke-width: 1.000000; stroke-linejoin: round; stroke-linecap: butt;  opacity: 1.000000" xlink:href="#coll0_3_1d40c3f941a8bba63afbc9cc4c619ee6" x="0.000000" y="770.400000"/>
<use style="fill: none; stroke: #e6e6e6; stroke-width: 1.000000; stroke-linejoin: round; stroke-linecap: butt;  opacity: 1.000000" xlink:href="#coll0_4_ffbb3d9e64e972480c69c7e007e3fbad" x="0.000000" y="770.400000"/>
<use style="fill: none; stroke: #e6e6e6; stroke-width: 1.000000; stroke-linejoin: round; stroke-linecap: butt;  opacity: 1.000000" xlink:href="#coll0_5_5d6e413ef7c19bb759c67d8e7f0d68f1" x="0.000000" y="770.400000"/>
</g>
<g id="xtick1">
<g id="line2d2">
<path style="fill: none; stroke: #000000; stroke-width: 1.000000; stroke-linejoin: round; stroke-linecap: square;  opacity: 1.000000"  d="M430.073414 672.623489L435.481740 676.240514"/>
</g>
<g id="text2">
<defs>
<path id="c_1260a2df50f305f3db244e29828f968e" d="M10.796875 -72.906250l38.718750 0.000000l0.000000 8.312500l-29.687500 0.000000l0.000000 17.859375q2.140625 -0.734375 4.281250 -1.093750q2.156250 -0.359375 4.312500 -0.359375q12.203125 0.000000 19.328125 6.687500q7.140625 6.687500 7.140625 18.109375q0.000000 11.765625 -7.328125 18.296875q-7.328125 6.515625 -20.656250 6.515625q-4.593750 0.000000 -9.359375 -0.781250q-4.750000 -0.781250 -9.828125 -2.343750l0.000000 -9.921875q4.390625 2.390625 9.078125 3.562500q4.687500 1.171875 9.906250 1.171875q8.453125 0.000000 13.375000 -4.437500q4.937500 -4.437500 4.937500 -12.062500q0.000000 -7.609375 -4.937500 -12.046875q-4.921875 -4.453125 -13.375000 -4.453125q-3.953125 0.000000 -7.890625 0.875000q-3.921875 0.875000 -8.015625 2.734375z"/>
<path id="c_7a2040fe3b94fcd41d0a72c84e93b115" d="M31.781250 -66.406250q-7.609375 0.000000 -11.453125 7.500000q-3.828125 7.484375 -3.828125 22.531250q0.000000 14.984375 3.828125 22.484375q3.843750 7.500000 11.453125 7.500000q7.671875 0.000000 11.500000 -7.500000q3.843750 -7.500000 3.843750 -22.484375q0.000000 -15.046875 -3.843750 -22.531250q-3.828125 -7.500000 -11.500000 -7.500000M31.781250 -74.218750q12.265625 0.000000 18.734375 9.703125q6.468750 9.687500 6.468750 28.140625q0.000000 18.406250 -6.468750 28.109375q-6.468750 9.687500 -18.734375 9.687500q-12.250000 0.000000 -18.718750 -9.687500q-6.468750 -9.703125 -6.468750 -28.109375q0.000000 -18.453125 6.468750 -28.140625q6.468750 -9.703125 18.718750 -9.703125"/>
</defs>
<g style="fill: #000000; opacity: 1.000000" transform="translate(436.171820,710.555381)scale(0.120000)">
<use xlink:href="#c_1260a2df50f305f3db244e29828f968e"/>
<use xlink:href="#c_7a2040fe3b94fcd41d0a72c84e93b115" x="63.623047"/>
</g>
</g>
</g>
<g id="xtick2">
<g id="line2d3">
<path style="fill: none; stroke: #000000; stroke-width: 1.000000; stroke-linejoin: round; stroke-linecap: square;  opacity: 1.000000"  d="M544.420176 662.439946L550.060141 666.009092"/>
</g>
<g id="text3">
<defs>
<path id="c_42baa63129a918535c52adb20d687ea7" d="M12.406250 -8.296875l16.109375 0.000000l0.000000 -55.625000l-17.531250 3.515625l0.000000 -8.984375l17.437500 -3.515625l9.859375 0.000000l0.000000 64.609375l16.109375 0.000000l0.000000 8.296875l-41.984375 0.000000z"/>
</defs>
<g style="fill: #000000; opacity: 1.000000" transform="translate(547.262858,700.138024)scale(0.120000)">
<use xlink:href="#c_42baa63129a918535c52adb20d687ea7"/>
<use xlink:href="#c_7a2040fe3b94fcd41d0a72c84e93b115" x="63.623047"/>
<use xlink:href="#c_7a2040fe3b94fcd41d0a72c84e93b115" x="127.246094"/>
</g>
</g>
</g>
<g id="xtick3">
<g id="line2d4">
<path style="fill: none; stroke: #000000; stroke-width: 1.000000; stroke-linejoin: round; stroke-linecap: square;  opacity: 1.000000"  d="M657.260049 652.390604L663.125089 655.912815"/>
</g>
<g id="text4">
<g style="fill: #000000; opacity: 1.000000" transform="translate(660.461163,689.858492)scale(0.120000)">
<use xlink:href="#c_42baa63129a918535c52adb20d687ea7"/>
<use xlink:href="#c_1260a2df50f305f3db244e29828f968e" x="63.623047"/>
<use xlink:href="#c_7a2040fe3b94fcd41d0a72c84e93b115" x="127.246094"/>
</g>
</g>
</g>
<g id="xtick4">
<g id="line2d5">
<path style="fill: none; stroke: #000000; stroke-width: 1.000000; stroke-linejoin: round; stroke-linecap: square;  opacity: 1.000000"  d="M768.622625 642.472827L774.706376 645.949024"/>
</g>
<g id="text5">
<defs>
<path id="c_ed3f3ed3ebfbd18bcb9c012009a68ad1" d="M19.187500 -8.296875l34.421875 0.000000l0.000000 8.296875l-46.281250 0.000000l0.000000 -8.296875q5.609375 -5.812500 15.296875 -15.593750q9.703125 -9.796875 12.187500 -12.640625q4.734375 -5.312500 6.609375 -9.000000q1.890625 -3.687500 1.890625 -7.250000q0.000000 -5.812500 -4.078125 -9.468750q-4.078125 -3.671875 -10.625000 -3.671875q-4.640625 0.000000 -9.796875 1.609375q-5.140625 1.609375 -11.000000 4.890625l0.000000 -9.968750q5.953125 -2.390625 11.125000 -3.609375q5.187500 -1.218750 9.484375 -1.218750q11.328125 0.000000 18.062500 5.671875q6.734375 5.656250 6.734375 15.125000q0.000000 4.500000 -1.687500 8.531250q-1.671875 4.015625 -6.125000 9.484375q-1.218750 1.421875 -7.765625 8.187500q-6.531250 6.765625 -18.453125 18.921875"/>
</defs>
<g style="fill: #000000; opacity: 1.000000" transform="translate(771.952909,679.714068)scale(0.120000)">
<use xlink:href="#c_ed3f3ed3ebfbd18bcb9c012009a68ad1"/>
<use xlink:href="#c_7a2040fe3b94fcd41d0a72c84e93b115" x="63.623047"/>
<use xlink:href="#c_7a2040fe3b94fcd41d0a72c84e93b115" x="127.246094"/>
</g>
</g>
</g>
<g id="xtick5">
<g id="line2d6">
<path style="fill: none; stroke: #000000; stroke-width: 1.000000; stroke-linejoin: round; stroke-linecap: square;  opacity: 1.000000"  d="M878.536726 632.684049L884.833013 636.115127"/>
</g>
<g id="text6">
<g style="fill: #000000; opacity: 1.000000" transform="translate(882.204736,669.702106)scale(0.120000)">
<use xlink:href="#c_ed3f3ed3ebfbd18bcb9c012009a68ad1"/>
<use xlink:href="#c_1260a2df50f305f3db244e29828f968e" x="63.623047"/>
<use xlink:href="#c_7a2040fe3b94fcd41d0a72c84e93b115" x="127.246094"/>
</g>
</g>
</g>
<g id="xtick6">
<g id="line2d7">
<path style="fill: none; stroke: #000000; stroke-width: 1.000000; stroke-linejoin: round; stroke-linecap: square;  opacity: 1.000000"  d="M987.030430 623.021770L993.533262 626.408602"/>
</g>
<g id="text7">
<defs>
<path id="c_3dcfa38a02242cb63ec6726c6e70be7a" d="M40.578125 -39.312500q7.078125 1.515625 11.046875 6.312500q3.984375 4.781250 3.984375 11.812500q0.000000 10.781250 -7.421875 16.703125q-7.421875 5.906250 -21.093750 5.906250q-4.578125 0.000000 -9.437500 -0.906250q-4.859375 -0.906250 -10.031250 -2.718750l0.000000 -9.515625q4.093750 2.390625 8.968750 3.609375q4.890625 1.218750 10.218750 1.218750q9.265625 0.000000 14.125000 -3.656250q4.859375 -3.656250 4.859375 -10.640625q0.000000 -6.453125 -4.515625 -10.078125q-4.515625 -3.640625 -12.562500 -3.640625l-8.500000 0.000000l0.000000 -8.109375l8.890625 0.000000q7.265625 0.000000 11.125000 -2.906250q3.859375 -2.906250 3.859375 -8.375000q0.000000 -5.609375 -3.984375 -8.609375q-3.968750 -3.015625 -11.390625 -3.015625q-4.062500 0.000000 -8.703125 0.890625q-4.640625 0.875000 -10.203125 2.718750l0.000000 -8.781250q5.625000 -1.562500 10.531250 -2.343750q4.906250 -0.781250 9.250000 -0.781250q11.234375 0.000000 17.765625 5.109375q6.546875 5.093750 6.546875 13.781250q0.000000 6.062500 -3.468750 10.234375q-3.468750 4.171875 -9.859375 5.781250"/>
</defs>
<g style="fill: #000000; opacity: 1.000000" transform="translate(991.049717,659.820027)scale(0.120000)">
<use xlink:href="#c_3dcfa38a02242cb63ec6726c6e70be7a"/>
<use xlink:href="#c_7a2040fe3b94fcd41d0a72c84e93b115" x="63.623047"/>
<use xlink:href="#c_7a2040fe3b94fcd41d0a72c84e93b115" x="127.246094"/>
</g>
</g>
</g>
</g>
<g id="axis3d2">
<g id="patch4">
<path style="fill: #e6e6e6; stroke: #e6e6e6; stroke-width: 1.000000; stroke-linejoin: round; stroke-linecap: square;  opacity: 0.500000"  d="M190.289318 539.607184L763.631126 493.609813L768.547885 100.785948
L178.602671 134.417283"/>
</g>
<g id="line2d8">
<path style="fill: none; stroke: #000000; stroke-width: 0.750000; stroke-linejoin: round; stroke-linecap: square;  opacity: 1.000000"  d="M190.289318 539.607184L392.245508 677.359604"/>
</g>
<g id="text8">
<defs>
<path id="c_72234ddc5dcad8d05c893ef0371171da" d="M9.812500 -72.906250l14.703125 0.000000l18.593750 49.609375l18.703125 -49.609375l14.703125 0.000000l0.000000 72.906250l-9.625000 0.000000l0.000000 -64.015625l-18.796875 50.000000l-9.906250 0.000000l-18.796875 -50.000000l0.000000 64.015625l-9.578125 0.000000z"/>
<path id="c_dbe439baa035de1a298d0549b22269d8" d="M9.812500 -72.906250l46.093750 0.000000l0.000000 8.312500l-36.234375 0.000000l0.000000 21.578125l34.718750 0.000000l0.000000 8.296875l-34.718750 0.000000l0.000000 26.421875l37.109375 0.000000l0.000000 8.296875l-46.968750 0.000000z"/>
<path id="c_5e9f44da4350eed47d2641510279ca20" d="M9.812500 -72.906250l9.859375 0.000000l0.000000 29.890625l35.843750 0.000000l0.000000 -29.890625l9.859375 0.000000l0.000000 72.906250l-9.859375 0.000000l0.000000 -34.718750l-35.843750 0.000000l0.000000 34.718750l-9.859375 0.000000z"/>
<path id="c_6023715d605f81e6eb43b7f9d77e7c51" d="M34.187500 -63.187500l-13.390625 36.281250l26.812500 0.000000zM28.609375 -72.906250l11.187500 0.000000l27.781250 72.906250l-10.250000 0.000000l-6.640625 -18.703125l-32.859375 0.000000l-6.640625 18.703125l-10.406250 0.000000z"/>
<path id="c_fabc000b0fb83f456ee9f092ad635e20" d="M9.812500 -72.906250l13.281250 0.000000l32.328125 60.984375l0.000000 -60.984375l9.562500 0.000000l0.000000 72.906250l-13.281250 0.000000l-32.312500 -60.984375l0.000000 60.984375l-9.578125 0.000000z"/>
<path id="c_f05dd90d41f04bb96ef1ca503cc2044b" d="M30.609375 -48.390625q-7.218750 0.000000 -11.421875 5.640625q-4.203125 5.640625 -4.203125 15.453125q0.000000 9.812500 4.171875 15.453125q4.187500 5.640625 11.453125 5.640625q7.187500 0.000000 11.375000 -5.656250q4.203125 -5.671875 4.203125 -15.437500q0.000000 -9.718750 -4.203125 -15.406250q-4.187500 -5.687500 -11.375000 -5.687500M30.609375 -56.000000q11.718750 0.000000 18.406250 7.625000q6.703125 7.609375 6.703125 21.078125q0.000000 13.421875 -6.703125 21.078125q-6.687500 7.640625 -18.406250 7.640625q-11.765625 0.000000 -18.437500 -7.640625q-6.656250 -7.656250 -6.656250 -21.078125q0.000000 -13.468750 6.656250 -21.078125q6.671875 -7.625000 18.437500 -7.625000"/>
<path id="c_5099edb83619131346ae654950954dea" d="M9.421875 -75.984375l8.984375 0.000000l0.000000 75.984375l-8.984375 0.000000z"/>
<path id="c_73b12fe3945075d29fe0cc9a468fa31e" d="M37.109375 -75.984375l0.000000 7.484375l-8.593750 0.000000q-4.828125 0.000000 -6.718750 1.953125q-1.875000 1.953125 -1.875000 7.031250l0.000000 4.828125l14.796875 0.000000l0.000000 6.984375l-14.796875 0.000000l0.000000 47.703125l-9.031250 0.000000l0.000000 -47.703125l-8.593750 0.000000l0.000000 -6.984375l8.593750 0.000000l0.000000 -3.812500q0.000000 -9.125000 4.250000 -13.296875q4.250000 -4.187500 13.468750 -4.187500z"/>
<path id="c_d650c37394b681142a10dfc54356d478" d="M48.781250 -52.593750l0.000000 8.406250q-3.812500 -2.109375 -7.640625 -3.156250q-3.828125 -1.046875 -7.734375 -1.046875q-8.750000 0.000000 -13.593750 5.546875q-4.828125 5.531250 -4.828125 15.546875q0.000000 10.015625 4.828125 15.562500q4.843750 5.531250 13.593750 5.531250q3.906250 0.000000 7.734375 -1.046875q3.828125 -1.046875 7.640625 -3.156250l0.000000 8.312500q-3.765625 1.750000 -7.796875 2.625000q-4.015625 0.890625 -8.562500 0.890625q-12.359375 0.000000 -19.640625 -7.765625q-7.265625 -7.765625 -7.265625 -20.953125q0.000000 -13.375000 7.343750 -21.031250q7.359375 -7.671875 20.156250 -7.671875q4.140625 0.000000 8.093750 0.859375q3.953125 0.843750 7.671875 2.546875"/>
<path id="c_6a63bda47b2f3da1cec6aadd80692cfe" d="M9.421875 -54.687500l8.984375 0.000000l0.000000 54.687500l-8.984375 0.000000zM9.421875 -75.984375l8.984375 0.000000l0.000000 11.390625l-8.984375 0.000000z"/>
<path id="c_fe791a90f5471e2ab20a5ed41a7fa451" d="M54.890625 -33.015625l0.000000 33.015625l-8.984375 0.000000l0.000000 -32.718750q0.000000 -7.765625 -3.031250 -11.609375q-3.031250 -3.859375 -9.078125 -3.859375q-7.281250 0.000000 -11.484375 4.640625q-4.203125 4.625000 -4.203125 12.640625l0.000000 30.906250l-9.031250 0.000000l0.000000 -54.687500l9.031250 0.000000l0.000000 8.500000q3.234375 -4.937500 7.593750 -7.375000q4.375000 -2.437500 10.093750 -2.437500q9.421875 0.000000 14.250000 5.828125q4.843750 5.828125 4.843750 17.156250"/>
</defs>
<g style="fill: #000000; opacity: 1.000000" transform="translate(189.163343,619.171629)rotate(-314.5)scale(0.120000)">
<use xlink:href="#c_72234ddc5dcad8d05c893ef0371171da"/>
<use xlink:href="#c_dbe439baa035de1a298d0549b22269d8" x="86.279297"/>
<use xlink:href="#c_9e4b30cbdf32072672ded72e9074c4c9" x="149.462891"/>
<use xlink:href="#c_5e9f44da4350eed47d2641510279ca20" x="210.546875"/>
<use xlink:href="#c_6023715d605f81e6eb43b7f9d77e7c51" x="285.742188"/>
<use xlink:href="#c_fabc000b0fb83f456ee9f092ad635e20" x="354.150391"/>
<use xlink:href="#c_dbe439baa035de1a298d0549b22269d8" x="428.955078"/>
<use xlink:href="#c_d41d8cd98f00b204e9800998ecf8427e" x="492.138672"/>
<use xlink:href="#c_4653c6dfde66c7610eae0911760d3490" x="523.925781"/>
<use xlink:href="#c_f05dd90d41f04bb96ef1ca503cc2044b" x="621.337891"/>
<use xlink:href="#c_5099edb83619131346ae654950954dea" x="682.519531"/>
<use xlink:href="#c_01d93a582460e35a7945ca50d148ffeb" x="710.302734"/>
<use xlink:href="#c_6ec8d5749226675394676a5d2a3b468b" x="771.582031"/>
<use xlink:href="#c_d41d8cd98f00b204e9800998ecf8427e" x="812.695313"/>
<use xlink:href="#c_73b12fe3945075d29fe0cc9a468fa31e" x="844.482422"/>
<use xlink:href="#c_6ec8d5749226675394676a5d2a3b468b" x="879.687500"/>
<use xlink:href="#c_01d93a582460e35a7945ca50d148ffeb" x="920.800781"/>
<use xlink:href="#c_d650c37394b681142a10dfc54356d478" x="982.080078"/>
<use xlink:href="#c_0f8c41144cfbf448378cb6fd1cc8e549" x="1037.060547"/>
<use xlink:href="#c_6a63bda47b2f3da1cec6aadd80692cfe" x="1076.269531"/>
<use xlink:href="#c_f05dd90d41f04bb96ef1ca503cc2044b" x="1104.052734"/>
<use xlink:href="#c_fe791a90f5471e2ab20a5ed41a7fa451" x="1165.234375"/>
</g>
</g>
<g id="Line3DCollection2">
<defs>
<path id="coll1_0_6d819c4b6710b650b426d3b046f7c064" d="M967.118901 -596.983326L955.983472 -177.563910L346.184236 -124.458357"/>
<path id="coll1_1_8182d124b5115116ebb7585db0676d06" d="M916.027293 -615.670951L906.567971 -203.055235L306.060708 -151.826238"/>
<path id="coll1_2_8508fdd7f89b5ce91384282a75e16fd0" d="M866.746028 -633.696411L858.853540 -227.669051L267.366982 -178.218865"/>
<path id="coll1_3_6a3f382480f8a5226ae0de2328bcfbf3" d="M819.180562 -651.094289L812.753828 -251.449904L230.027970 -203.687455"/>
</defs>
<use style="fill: none; stroke: #e6e6e6; stroke-width: 1.000000; stroke-linejoin: round; stroke-linecap: butt;  opacity: 1.000000" xlink:href="#coll1_0_6d819c4b6710b650b426d3b046f7c064" x="0.000000" y="770.400000"/>
<use style="fill: none; stroke: #e6e6e6; stroke-width: 1.000000; stroke-linejoin: round; stroke-linecap: butt;  opacity: 1.000000" xlink:href="#coll1_1_8182d124b5115116ebb7585db0676d06" x="0.000000" y="770.400000"/>
<use style="fill: none; stroke: #e6e6e6; stroke-width: 1.000000; stroke-linejoin: round; stroke-linecap: butt;  opacity: 1.000000" xlink:href="#coll1_2_8508fdd7f89b5ce91384282a75e16fd0" x="0.000000" y="770.400000"/>
<use style="fill: none; stroke: #e6e6e6; stroke-width: 1.000000; stroke-linejoin: round; stroke-linecap: butt;  opacity: 1.000000" xlink:href="#coll1_3_6a3f382480f8a5226ae0de2328bcfbf3" x="0.000000" y="770.400000"/>
</g>
<g id="xtick7">
<g id="line2d9">
<path style="fill: none; stroke: #000000; stroke-width: 1.000000; stroke-linejoin: round; stroke-linecap: square;  opacity: 1.000000"  d="M351.239144 645.501427L336.065564 646.822848"/>
</g>
<g id="text9">
<defs>
<path id="c_ed3e21196fb739f392806f09ca0594ef" d="M10.687500 -12.406250l10.312500 0.000000l0.000000 12.406250l-10.312500 0.000000z"/>
</defs>
<g style="fill: #000000; opacity: 1.000000" transform="translate(307.648062,677.669446)scale(0.120000)">
<use xlink:href="#c_7a2040fe3b94fcd41d0a72c84e93b115"/>
<use xlink:href="#c_ed3e21196fb739f392806f09ca0594ef" x="63.623047"/>
<use xlink:href="#c_ed3f3ed3ebfbd18bcb9c012009a68ad1" x="95.410156"/>
</g>
</g>
</g>
<g id="xtick8">
<g id="line2d10">
<path style="fill: none; stroke: #000000; stroke-width: 1.000000; stroke-linejoin: round; stroke-linecap: square;  opacity: 1.000000"  d="M311.035438 618.149370L296.102690 619.423276"/>
</g>
<g id="text10">
<defs>
<path id="c_a0416418d96557a09b8c1332d34883ba" d="M37.796875 -64.312500l-24.906250 38.921875l24.906250 0.000000zM35.203125 -72.906250l12.406250 0.000000l0.000000 47.515625l10.406250 0.000000l0.000000 8.203125l-10.406250 0.000000l0.000000 17.187500l-9.812500 0.000000l0.000000 -17.187500l-32.906250 0.000000l0.000000 -9.515625z"/>
</defs>
<g style="fill: #000000; opacity: 1.000000" transform="translate(267.791922,649.879833)scale(0.120000)">
<use xlink:href="#c_7a2040fe3b94fcd41d0a72c84e93b115"/>
<use xlink:href="#c_ed3e21196fb739f392806f09ca0594ef" x="63.623047"/>
<use xlink:href="#c_a0416418d96557a09b8c1332d34883ba" x="95.410156"/>
</g>
</g>
</g>
<g id="xtick9">
<g id="line2d11">
<path style="fill: none; stroke: #000000; stroke-width: 1.000000; stroke-linejoin: round; stroke-linecap: square;  opacity: 1.000000"  d="M272.263988 591.771729L257.564696 593.000638"/>
</g>
<g id="text11">
<defs>
<path id="c_cc8d6d580d1b10c8632f7a42cd53db8a" d="M33.015625 -40.375000q-6.640625 0.000000 -10.531250 4.546875q-3.875000 4.531250 -3.875000 12.437500q0.000000 7.859375 3.875000 12.437500q3.890625 4.562500 10.531250 4.562500q6.640625 0.000000 10.515625 -4.562500q3.875000 -4.578125 3.875000 -12.437500q0.000000 -7.906250 -3.875000 -12.437500q-3.875000 -4.546875 -10.515625 -4.546875M52.593750 -71.296875l0.000000 8.984375q-3.718750 -1.750000 -7.500000 -2.671875q-3.781250 -0.937500 -7.500000 -0.937500q-9.765625 0.000000 -14.921875 6.593750q-5.140625 6.593750 -5.875000 19.921875q2.875000 -4.250000 7.218750 -6.515625q4.359375 -2.265625 9.578125 -2.265625q10.984375 0.000000 17.359375 6.671875q6.375000 6.656250 6.375000 18.125000q0.000000 11.234375 -6.640625 18.031250q-6.640625 6.781250 -17.671875 6.781250q-12.656250 0.000000 -19.343750 -9.687500q-6.687500 -9.703125 -6.687500 -28.109375q0.000000 -17.281250 8.203125 -27.562500q8.203125 -10.281250 22.015625 -10.281250q3.718750 0.000000 7.500000 0.734375q3.781250 0.734375 7.890625 2.187500"/>
</defs>
<g style="fill: #000000; opacity: 1.000000" transform="translate(229.659476,623.080775)scale(0.120000)">
<use xlink:href="#c_7a2040fe3b94fcd41d0a72c84e93b115"/>
<use xlink:href="#c_ed3e21196fb739f392806f09ca0594ef" x="63.623047"/>
<use xlink:href="#c_cc8d6d580d1b10c8632f7a42cd53db8a" x="95.410156"/>
</g>
</g>
</g>
<g id="xtick10">
<g id="line2d12">
<path style="fill: none; stroke: #000000; stroke-width: 1.000000; stroke-linejoin: round; stroke-linecap: square;  opacity: 1.000000"  d="M234.849598 566.317346L220.376709 567.503599"/>
</g>
<g id="text12">
<defs>
<path id="c_bef35738d52871942e50b9de9b122bab" d="M31.781250 -34.625000q-7.031250 0.000000 -11.062500 3.765625q-4.015625 3.765625 -4.015625 10.343750q0.000000 6.593750 4.015625 10.359375q4.031250 3.765625 11.062500 3.765625q7.031250 0.000000 11.078125 -3.781250q4.062500 -3.796875 4.062500 -10.343750q0.000000 -6.578125 -4.031250 -10.343750q-4.015625 -3.765625 -11.109375 -3.765625M21.921875 -38.812500q-6.343750 -1.562500 -9.890625 -5.906250q-3.531250 -4.359375 -3.531250 -10.609375q0.000000 -8.734375 6.218750 -13.812500q6.234375 -5.078125 17.062500 -5.078125q10.890625 0.000000 17.093750 5.078125q6.203125 5.078125 6.203125 13.812500q0.000000 6.250000 -3.546875 10.609375q-3.531250 4.343750 -9.828125 5.906250q7.125000 1.656250 11.093750 6.500000q3.984375 4.828125 3.984375 11.796875q0.000000 10.609375 -6.468750 16.281250q-6.468750 5.656250 -18.531250 5.656250q-12.046875 0.000000 -18.531250 -5.656250q-6.468750 -5.671875 -6.468750 -16.281250q0.000000 -6.968750 4.000000 -11.796875q4.015625 -4.843750 11.140625 -6.500000M18.312500 -54.390625q0.000000 5.656250 3.531250 8.828125q3.546875 3.171875 9.937500 3.171875q6.359375 0.000000 9.937500 -3.171875q3.593750 -3.171875 3.593750 -8.828125q0.000000 -5.671875 -3.593750 -8.843750q-3.578125 -3.171875 -9.937500 -3.171875q-6.390625 0.000000 -9.937500 3.171875q-3.531250 3.171875 -3.531250 8.843750"/>
</defs>
<g style="fill: #000000; opacity: 1.000000" transform="translate(192.848467,597.220235)scale(0.120000)">
<use xlink:href="#c_7a2040fe3b94fcd41d0a72c84e93b115"/>
<use xlink:href="#c_ed3e21196fb739f392806f09ca0594ef" x="63.623047"/>
<use xlink:href="#c_bef35738d52871942e50b9de9b122bab" x="95.410156"/>
</g>
</g>
</g>
</g>
<g id="axis3d3">
<g id="patch5">
<path style="fill: #ececec; stroke: #ececec; stroke-width: 1.000000; stroke-linejoin: round; stroke-linecap: square;  opacity: 0.500000"  d="M392.245508 677.359604L1012.634050 622.059679L763.631126 493.609813
L190.289318 539.607184"/>
</g>
<g id="line2d13">
<path style="fill: none; stroke: #000000; stroke-width: 0.750000; stroke-linejoin: round; stroke-linecap: square;  opacity: 1.000000"  d="M190.289318 539.607184L178.602671 134.417283"/>
</g>
<g id="text13">
<defs>
<path id="c_518d586bee075aa0153eaebfcb5ab11f" d="M19.671875 -64.796875l0.000000 27.390625l12.406250 0.000000q6.890625 0.000000 10.640625 -3.562500q3.765625 -3.562500 3.765625 -10.156250q0.000000 -6.546875 -3.765625 -10.109375q-3.750000 -3.562500 -10.640625 -3.562500zM9.812500 -72.906250l22.265625 0.000000q12.265625 0.000000 18.531250 5.546875q6.281250 5.546875 6.281250 16.234375q0.000000 10.796875 -6.281250 16.312500q-6.265625 5.515625 -18.531250 5.515625l-12.406250 0.000000l0.000000 29.296875l-9.859375 0.000000z"/>
<path id="c_8e0810ad13fe20a2a87a2619799b154d" d="M44.281250 -53.078125l0.000000 8.500000q-3.796875 -1.953125 -7.906250 -2.921875q-4.093750 -0.984375 -8.500000 -0.984375q-6.687500 0.000000 -10.031250 2.046875q-3.343750 2.046875 -3.343750 6.156250q0.000000 3.125000 2.390625 4.906250q2.390625 1.781250 9.625000 3.390625l3.078125 0.687500q9.562500 2.046875 13.593750 5.781250q4.031250 3.734375 4.031250 10.421875q0.000000 7.625000 -6.031250 12.078125q-6.031250 4.437500 -16.578125 4.437500q-4.390625 0.000000 -9.156250 -0.859375q-4.765625 -0.859375 -10.031250 -2.562500l0.000000 -9.281250q4.984375 2.593750 9.812500 3.890625q4.828125 1.281250 9.578125 1.281250q6.343750 0.000000 9.750000 -2.171875q3.421875 -2.171875 3.421875 -6.125000q0.000000 -3.656250 -2.468750 -5.609375q-2.453125 -1.953125 -10.812500 -3.765625l-3.125000 -0.734375q-8.343750 -1.750000 -12.062500 -5.390625q-3.703125 -3.640625 -3.703125 -9.984375q0.000000 -7.718750 5.468750 -11.906250q5.468750 -4.203125 15.531250 -4.203125q4.968750 0.000000 9.359375 0.734375q4.406250 0.718750 8.109375 2.187500"/>
<path id="c_5cc9741494d2ad8f9764e03ae145569f" d="M48.687500 -27.296875q0.000000 -9.906250 -4.078125 -15.546875q-4.078125 -5.640625 -11.203125 -5.640625q-7.140625 0.000000 -11.218750 5.640625q-4.078125 5.640625 -4.078125 15.546875q0.000000 9.906250 4.078125 15.546875q4.078125 5.640625 11.218750 5.640625q7.125000 0.000000 11.203125 -5.640625q4.078125 -5.640625 4.078125 -15.546875M18.109375 -46.390625q2.843750 -4.875000 7.156250 -7.234375q4.328125 -2.375000 10.328125 -2.375000q9.968750 0.000000 16.187500 7.906250q6.234375 7.906250 6.234375 20.796875q0.000000 12.890625 -6.234375 20.812500q-6.218750 7.906250 -16.187500 7.906250q-6.000000 0.000000 -10.328125 -2.375000q-4.312500 -2.375000 -7.156250 -7.250000l0.000000 8.203125l-9.031250 0.000000l0.000000 -75.984375l9.031250 0.000000z"/>
</defs>
<g style="fill: #000000; opacity: 1.000000" transform="translate(95.490158,247.765854)rotate(-271.1)scale(0.120000)">
<use xlink:href="#c_518d586bee075aa0153eaebfcb5ab11f"/>
<use xlink:href="#c_6ec8d5749226675394676a5d2a3b468b" x="58.552734"/>
<use xlink:href="#c_0bce5afba2dc6b9024b26277c38ad8e8" x="97.416016"/>
<use xlink:href="#c_8e0810ad13fe20a2a87a2619799b154d" x="158.939453"/>
<use xlink:href="#c_8e0810ad13fe20a2a87a2619799b154d" x="211.039062"/>
<use xlink:href="#c_3b515ad41f960e225ec85275856806ca" x="263.138672"/>
<use xlink:href="#c_6ec8d5749226675394676a5d2a3b468b" x="326.517578"/>
<use xlink:href="#c_0bce5afba2dc6b9024b26277c38ad8e8" x="365.380859"/>
<use xlink:href="#c_d41d8cd98f00b204e9800998ecf8427e" x="426.904297"/>
<use xlink:href="#c_1a1d9ef1e4ddee695bd67a282879f099" x="458.691406"/>
<use xlink:href="#c_5cc9741494d2ad8f9764e03ae145569f" x="497.705078"/>
<use xlink:href="#c_01d93a582460e35a7945ca50d148ffeb" x="561.181641"/>
<use xlink:href="#c_6ec8d5749226675394676a5d2a3b468b" x="622.460937"/>
<use xlink:href="#c_5bcf09947f6bf611091602c6fea1d302" x="663.574219"/>
</g>
</g>
<g id="Line3DCollection3">
<defs>
<path id="coll2_0_84cfbc0fca9dc474426ff56c27ff4193" d="M188.502664 -292.738236L764.383411 -336.893904L1014.637510 -213.554642"/>
<path id="coll2_1_0e286894c52da429e2412d6ebbdf5456" d="M186.931010 -347.229331L765.044986 -389.750344L1016.400751 -270.949643"/>
<path id="coll2_2_8d38a3a2810a7d62898f9d46598eda89" d="M185.346995 -402.149013L765.711591 -443.008715L1018.178687 -328.822961"/>
<path id="coll2_3_d84afca60780f7a922548880b3ac82f2" d="M183.750472 -457.502357L766.383285 -496.673618L1019.971502 -387.180600"/>
<path id="coll2_4_feaf644f624b04b4fd449ce8adadfddc" d="M182.141292 -513.294521L767.060126 -550.749725L1021.779384 -446.028666"/>
<path id="coll2_5_87803bf84235f1a51ab2f38c3cd28de8" d="M180.519305 -569.530744L767.742173 -605.241781L1023.602522 -505.373367"/>
<path id="coll2_6_f28e24b515baa5ae0a74e432746d5971" d="M178.884356 -626.216349L768.429486 -660.154604L1025.441112 -565.221017"/>
</defs>
<use style="fill: none; stroke: #e6e6e6; stroke-width: 1.000000; stroke-linejoin: round; stroke-linecap: butt;  opacity: 1.000000" xlink:href="#coll2_0_84cfbc0fca9dc474426ff56c27ff4193" x="0.000000" y="770.400000"/>
<use style="fill: none; stroke: #e6e6e6; stroke-width: 1.000000; stroke-linejoin: round; stroke-linecap: butt;  opacity: 1.000000" xlink:href="#coll2_1_0e286894c52da429e2412d6ebbdf5456" x="0.000000" y="770.400000"/>
<use style="fill: none; stroke: #e6e6e6; stroke-width: 1.000000; stroke-linejoin: round; stroke-linecap: butt;  opacity: 1.000000" xlink:href="#coll2_2_8d38a3a2810a7d62898f9d46598eda89" x="0.000000" y="770.400000"/>
<use style="fill: none; stroke: #e6e6e6; stroke-width: 1.000000; stroke-linejoin: round; stroke-linecap: butt;  opacity: 1.000000" xlink:href="#coll2_3_d84afca60780f7a922548880b3ac82f2" x="0.000000" y="770.400000"/>
<use style="fill: none; stroke: #e6e6e6; stroke-width: 1.000000; stroke-linejoin: round; stroke-linecap: butt;  opacity: 1.000000" xlink:href="#coll2_4_feaf644f624b04b4fd449ce8adadfddc" x="0.000000" y="770.400000"/>
<use style="fill: none; stroke: #e6e6e6; stroke-width: 1.000000; stroke-linejoin: round; stroke-linecap: butt;  opacity: 1.000000" xlink:href="#coll2_5_87803bf84235f1a51ab2f38c3cd28de8" x="0.000000" y="770.400000"/>
<use style="fill: none; stroke: #e6e6e6; stroke-width: 1.000000; stroke-linejoin: round; stroke-linecap: butt;  opacity: 1.000000" xlink:href="#coll2_6_f28e24b515baa5ae0a74e432746d5971" x="0.000000" y="770.400000"/>
</g>
<g id="xtick11">
<g id="line2d14">
<path style="fill: none; stroke: #000000; stroke-width: 1.000000; stroke-linejoin: round; stroke-linecap: square;  opacity: 1.000000"  d="M193.265352 477.296585L178.969495 478.392720"/>
</g>
<g id="text14">
<g style="fill: #000000; opacity: 1.000000" transform="translate(144.574199,482.988798)scale(0.120000)">
<use xlink:href="#c_42baa63129a918535c52adb20d687ea7"/>
<use xlink:href="#c_7a2040fe3b94fcd41d0a72c84e93b115" x="63.623047"/>
</g>
</g>
</g>
<g id="xtick12">
<g id="line2d15">
<path style="fill: none; stroke: #000000; stroke-width: 1.000000; stroke-linejoin: round; stroke-linecap: square;  opacity: 1.000000"  d="M191.712780 422.818964L177.359617 423.874657"/>
</g>
<g id="text15">
<g style="fill: #000000; opacity: 1.000000" transform="translate(142.642122,428.629798)scale(0.120000)">
<use xlink:href="#c_ed3f3ed3ebfbd18bcb9c012009a68ad1"/>
<use xlink:href="#c_7a2040fe3b94fcd41d0a72c84e93b115" x="63.623047"/>
</g>
</g>
</g>
<g id="xtick13">
<g id="line2d16">
<path style="fill: none; stroke: #000000; stroke-width: 1.000000; stroke-linejoin: round; stroke-linecap: square;  opacity: 1.000000"  d="M190.147999 367.912980L175.737070 368.927560"/>
</g>
<g id="text16">
<g style="fill: #000000; opacity: 1.000000" transform="translate(140.938793,373.844400)scale(0.120000)">
<use xlink:href="#c_3dcfa38a02242cb63ec6726c6e70be7a"/>
<use xlink:href="#c_7a2040fe3b94fcd41d0a72c84e93b115" x="63.623047"/>
</g>
</g>
</g>
<g id="xtick14">
<g id="line2d17">
<path style="fill: none; stroke: #000000; stroke-width: 1.000000; stroke-linejoin: round; stroke-linecap: square;  opacity: 1.000000"  d="M188.570866 312.573561L174.101704 313.546344"/>
</g>
<g id="text17">
<g style="fill: #000000; opacity: 1.000000" transform="translate(139.034365,318.627569)scale(0.120000)">
<use xlink:href="#c_a0416418d96557a09b8c1332d34883ba"/>
<use xlink:href="#c_7a2040fe3b94fcd41d0a72c84e93b115" x="63.623047"/>
</g>
</g>
</g>
<g id="xtick15">
<g id="line2d18">
<path style="fill: none; stroke: #000000; stroke-width: 1.000000; stroke-linejoin: round; stroke-linecap: square;  opacity: 1.000000"  d="M186.981234 256.795554L172.453365 257.725844"/>
</g>
<g id="text18">
<g style="fill: #000000; opacity: 1.000000" transform="translate(137.444303,262.974188)scale(0.120000)">
<use xlink:href="#c_1260a2df50f305f3db244e29828f968e"/>
<use xlink:href="#c_7a2040fe3b94fcd41d0a72c84e93b115" x="63.623047"/>
</g>
</g>
</g>
<g id="xtick16">
<g id="line2d19">
<path style="fill: none; stroke: #000000; stroke-width: 1.000000; stroke-linejoin: round; stroke-linecap: square;  opacity: 1.000000"  d="M185.378953 200.573724L170.791901 201.460813"/>
</g>
<g id="text19">
<g style="fill: #000000; opacity: 1.000000" transform="translate(135.637192,206.879059)scale(0.120000)">
<use xlink:href="#c_cc8d6d580d1b10c8632f7a42cd53db8a"/>
<use xlink:href="#c_7a2040fe3b94fcd41d0a72c84e93b115" x="63.623047"/>
</g>
</g>
</g>
<g id="xtick17">
<g id="line2d20">
<path style="fill: none; stroke: #000000; stroke-width: 1.000000; stroke-linejoin: round; stroke-linecap: square;  opacity: 1.000000"  d="M183.763871 143.902753L169.117152 144.745919"/>
</g>
<g id="text20">
<defs>
<path id="c_956f18cfdaf972f35a6c2b4aaac2532b" d="M8.203125 -72.906250l46.875000 0.000000l0.000000 4.203125l-26.468750 68.703125l-10.296875 0.000000l24.906250 -64.593750l-35.015625 0.000000z"/>
</defs>
<g style="fill: #000000; opacity: 1.000000" transform="translate(133.925367,150.336902)scale(0.120000)">
<use xlink:href="#c_956f18cfdaf972f35a6c2b4aaac2532b"/>
<use xlink:href="#c_7a2040fe3b94fcd41d0a72c84e93b115" x="63.623047"/>
</g>
</g>
</g>
</g>
<g id="axes1">
<g id="line2d21">
<defs>
  <clipPath id="p7465c351b3ff3dd617c2a96a1fda549e">
<rect x="0.000000" y="0.000000" width="1148.400000" height="770.400000"/>
  </clipPath>
</defs><path style="fill: none; stroke: #008000; stroke-width: 1.000000; stroke-linejoin: round; stroke-linecap: square;  opacity: 1.000000" clip-path="url(#p7465c351b3ff3dd617c2a96a1fda549e)" d="M523.202770 259.580369L516.372953 283.737710L507.707840 312.111301
L498.801968 338.679318L490.111497 362.232998L481.630170 383.012973
L473.349691 401.416860L465.263034 417.620789L457.364749 431.905389
L449.646445 444.386913L442.104461 455.394421L434.730687 464.970376
L427.525566 473.338139L420.482645 480.623831L413.597798 486.947300
L406.867256 492.433162L398.124939 498.608378L389.645220 503.681960
L381.416846 507.837189L371.477669 511.985318L361.909079 515.205933
L350.897190 518.143612L338.677692 520.652533L323.903179 522.922526
L304.302803 525.138714L271.774956 527.979076L205.621533 533.280600
L205.621533 533.280600"/>
</g>
<g id="line2d22">
<path style="fill: none; stroke: #008000; stroke-width: 1.000000; stroke-linejoin: round; stroke-linecap: square;  opacity: 1.000000" clip-path="url(#p7465c351b3ff3dd617c2a96a1fda549e)" d="M1003.776824 330.498751L992.293972 357.825824L982.377014 380.115634
L971.450954 403.256595L960.758053 424.473259L950.289225 443.953077
L940.033168 461.822968L929.981273 478.207725L920.125397 493.230432
L910.460519 506.897042L900.974337 519.444032L891.665626 530.932574
L878.016858 546.289138L864.730753 559.597385L851.788779 571.220181
L839.176012 581.282545L826.881053 589.994079L814.887424 597.523666
L803.188402 604.021480L791.769200 609.626488L780.624685 614.453609
L766.172230 619.872001L752.169355 624.320136L738.597661 627.976344
L722.218236 631.678722L703.380739 635.156808L682.481905 638.281970
L657.212551 641.360289L621.228087 645.008017L542.913237 652.059500
L464.833671 658.965854L464.833671 658.965854"/>
</g>
<g id="line2d23">
<path style="fill: none; stroke: #000000; stroke-width: 1.000000; stroke-linejoin: round; stroke-linecap: square;  opacity: 1.000000" clip-path="url(#p7465c351b3ff3dd617c2a96a1fda549e)" d="M1003.776824 330.498751L971.548171 300.391461L943.945332 275.437353
L919.777138 254.463357L899.224744 237.449231L880.367970 222.646821
L863.291735 210.021992L845.892737 198.033824L830.383398 188.186089
L816.863378 180.316507L803.122839 173.064110L789.150682 166.523475
L777.322893 161.693118L765.321362 157.496822L753.141209 154.006777
L743.265244 151.773001L733.270533 150.080140L723.155260 148.969651
L712.918601 148.483748L702.560311 148.664819L692.080505 149.555404
L681.479898 151.195863L670.759376 153.622686L659.920828 156.870697
L648.965240 160.969190L637.893755 165.940193L626.705302 171.801467
L615.397455 178.561434L603.962178 186.223449L592.386050 194.788091
L580.645033 204.253545L568.701601 214.624748L553.397975 228.888761
L537.515179 244.676134L523.202770 259.580369L523.202770 259.580369"/>
</g>
<g id="line2d24">
<path style="fill: none; stroke: #008000; stroke-width: 1.000000; stroke-linejoin: round; stroke-linecap: butt; stroke-dasharray: 6.000000,6.000000; stroke-dashoffset: 0.000000; opacity: 1.000000" clip-path="url(#p7465c351b3ff3dd617c2a96a1fda549e)" d="M925.258895 259.144320L925.848371 260.856644L926.079016 264.856939
L925.594560 270.611674L924.024232 280.064668L921.448155 291.762523
L916.243628 311.282196L909.362439 333.547033L901.029124 357.550820
L892.904528 378.773884L884.038475 400.010897L874.527634 420.810831
L866.237519 437.532477L857.691495 453.516478L849.334814 467.997429
L839.584268 483.531128L830.354423 497.003436L821.371089 509.073166
L810.580321 522.219619L801.662762 532.096795L791.069499 542.715132
L780.646992 552.079394L770.434746 560.294568L760.472724 567.469895
L750.736173 573.721190L739.735168 579.982788L729.108084 585.286817
L717.452781 590.352991L706.406852 594.507993L693.407739 598.691429
L680.048300 602.305545L665.425563 605.603429L648.851321 608.671188
L628.486481 611.709487L603.243842 614.728884L566.651623 618.329121
L479.881890 625.939746L404.774834 632.444181L404.774834 632.444181"/>
</g>
<g id="line2d25">
<path style="fill: none; stroke: #008000; stroke-width: 1.000000; stroke-linejoin: round; stroke-linecap: butt; stroke-dasharray: 6.000000,6.000000; stroke-dashoffset: 0.000000; opacity: 1.000000" clip-path="url(#p7465c351b3ff3dd617c2a96a1fda549e)" d="M925.258895 259.144320L923.931504 258.292820L922.397815 258.798584
L919.668175 261.154538L915.232378 266.755078L909.645636 275.191931
L901.446120 288.762268L882.554156 321.716514L856.903394 365.559670
L842.503683 388.876577L827.275720 412.239730L814.074807 431.317608
L800.549017 449.742638L786.808349 467.281763L772.961066 483.771256
L761.877698 496.125625L748.112638 510.455260L734.517745 523.519665
L723.844246 533.068763L710.796456 543.906983L695.749548 555.309617
L681.828951 564.855469L666.916343 574.073365L654.159076 581.167388
L641.462542 587.548783L628.052701 593.573997L614.190849 599.079085
L598.768154 604.403209L583.547542 608.894289L567.574101 612.875009
L550.797640 616.348680L533.434388 619.307372L510.884232 622.397474
L484.201372 625.322403L440.374172 629.349647L384.916102 634.163956
L384.916102 634.163956"/>
</g>
<g id="line2d26">
<path style="fill: none; stroke: #008000; stroke-width: 1.000000; stroke-linejoin: round; stroke-linecap: butt; stroke-dasharray: 6.000000,6.000000; stroke-dashoffset: 0.000000; opacity: 1.000000" clip-path="url(#p7465c351b3ff3dd617c2a96a1fda549e)" d="M840.833562 194.730083L841.762556 195.871172L843.090170 198.828610
L844.067853 203.224342L844.570626 208.826581L844.643489 215.554868
L844.087684 226.119305L842.794405 238.271697L840.255883 255.309486
L836.728321 273.943073L832.331498 293.658828L827.183367 314.004548
L821.336290 334.553701L814.905121 354.930395L808.002593 374.824258
L800.675347 393.988557L793.032562 412.229908L785.139259 429.403984
L777.059155 445.422998L768.855022 460.243808L760.589093 473.850678
L752.280430 486.258483L743.990516 497.511421L735.759481 507.665633
L727.606151 516.789328L717.973658 526.469898L708.114927 535.245065
L697.359358 543.635411L686.911244 550.721751L676.810141 556.691273
L665.718096 562.349476L655.204854 566.954379L643.996999 571.145157
L631.163314 575.173086L618.101199 578.555520L604.980763 581.364429
L587.944235 584.322739L567.250737 587.166822L540.346008 590.107721
L496.798002 594.077962L361.944050 605.544249L361.944050 605.544249"/>
</g>
<g id="line2d27">
<path style="fill: none; stroke: #008000; stroke-width: 1.000000; stroke-linejoin: round; stroke-linecap: butt; stroke-dasharray: 6.000000,6.000000; stroke-dashoffset: 0.000000; opacity: 1.000000" clip-path="url(#p7465c351b3ff3dd617c2a96a1fda549e)" d="M840.833562 194.730083L839.789540 193.978444L838.415558 193.566166
L836.686064 193.715288L833.703745 195.120105L830.221355 197.959577
L826.283145 202.213047L820.299193 210.030698L813.523987 220.181911
L804.010211 235.849642L791.186947 258.379092L729.968138 368.309981
L712.338738 397.668033L696.791048 422.118227L683.394304 442.037506
L667.360559 464.279429L653.442528 482.150950L640.345125 497.676763
L627.106234 512.099053L616.394509 522.818851L604.577819 533.648178
L593.435192 542.922214L582.899331 550.859361L572.925338 557.649088
L560.859316 564.955825L549.567995 570.934756L537.853172 576.317502
L525.886294 581.019251L513.883217 584.999177L500.923964 588.568063
L486.696374 591.749909L471.763510 594.413375L452.975507 597.039725
L428.297356 599.718264L386.041559 603.494137L344.155442 607.053285
L344.155442 607.053285"/>
</g>
<g id="line2d28">
<path style="fill: none; stroke: #008000; stroke-width: 1.000000; stroke-linejoin: round; stroke-linecap: butt; stroke-dasharray: 6.000000,6.000000; stroke-dashoffset: 0.000000; opacity: 1.000000" clip-path="url(#p7465c351b3ff3dd617c2a96a1fda549e)" d="M747.491258 152.666429L748.751783 152.929293L750.219817 153.753242
L752.435673 156.515769L753.666426 159.255644L755.122283 164.643034
L756.111144 171.472242L756.656269 179.623751L756.699217 192.308157
L755.996510 206.758226L754.618400 222.620242L751.989526 243.894833
L748.463565 266.188566L744.135614 288.915663L739.120116 311.562664
L733.529142 333.722278L727.451599 355.065201L720.974667 375.331722
L714.183724 394.358259L705.719257 415.410631L698.471664 431.408420
L691.138425 446.010944L683.738354 459.245674L676.332291 471.174292
L667.469921 483.875293L660.151955 493.207219L652.926171 501.508077
L644.368363 510.234351L636.006324 517.759384L627.837780 524.234105
L618.566747 530.638936L609.676417 535.955874L599.976566 540.942530
L589.613041 545.450433L579.794638 549.051492L568.499756 552.516808
L556.042033 555.639752L541.882110 558.486353L525.027149 561.158447
L504.238449 563.734896L475.271385 566.603472L412.814729 571.929981
L321.130890 579.553277L321.130890 579.553277"/>
</g>
<g id="line2d29">
<path style="fill: none; stroke: #008000; stroke-width: 1.000000; stroke-linejoin: round; stroke-linecap: butt; stroke-dasharray: 6.000000,6.000000; stroke-dashoffset: 0.000000; opacity: 1.000000" clip-path="url(#p7465c351b3ff3dd617c2a96a1fda549e)" d="M747.491258 152.666429L746.141150 152.735962L743.128902 153.932488
L740.667021 155.715870L736.637628 159.819802L732.163144 165.578871
L727.331466 172.911146L720.335541 184.947047L712.789437 199.264963
L702.714704 219.785136L687.730911 251.904999L644.180648 345.961777
L626.024581 382.334663L614.166880 404.578233L601.066075 427.615790
L589.334137 446.681100L580.458504 460.121518L570.349499 474.363897
L562.103798 485.135723L551.980861 497.286303L542.264267 507.867733
L532.951981 517.043111L525.281976 523.912159L515.470799 531.815119
L506.123498 538.469789L497.218297 544.061848L486.697135 549.781767
L476.785968 554.389207L465.594337 558.752003L454.450746 562.333337
L442.643148 565.417425L430.362404 567.990740L416.026242 570.359332
L396.759196 572.796878L369.717520 575.440900L304.801119 580.910831
L304.801119 580.910831"/>
</g>
<g id="line2d30">
<path style="fill: none; stroke: #008000; stroke-width: 1.000000; stroke-linejoin: round; stroke-linecap: butt; stroke-dasharray: 6.000000,6.000000; stroke-dashoffset: 0.000000; opacity: 1.000000" clip-path="url(#p7465c351b3ff3dd617c2a96a1fda549e)" d="M642.616921 163.721316L645.021826 161.719177L646.700479 160.974600
L648.270105 160.914081L649.688080 161.551274L650.954271 162.891469
L652.592760 166.193974L653.905604 171.018611L654.850844 177.297201
L655.585303 187.765559L655.695925 200.355071L654.978219 218.567647
L653.367581 238.841388L650.913273 260.436014L647.726983 282.670162
L643.898103 304.932058L639.493524 326.722894L634.599676 347.652105
L629.343501 367.428314L623.766863 385.877512L617.973661 402.887230
L610.786699 421.353610L604.662365 435.140930L598.483482 447.530040
L592.290022 458.599649L586.122079 468.443475L579.978105 477.163879
L572.686956 486.288962L565.521848 494.118354L558.481275 500.814605
L550.560928 507.349396L542.950496 512.741965L534.603053 517.779620
L525.620659 522.313185L516.189429 526.260451L505.509191 529.878967
L493.889799 533.001174L481.579327 535.598442L466.844248 538.008649
L448.550171 540.305173L421.561203 542.951708L359.673027 548.113941
L280.982689 554.528011L280.982689 554.528011"/>
</g>
<g id="line2d31">
<path style="fill: none; stroke: #008000; stroke-width: 1.000000; stroke-linejoin: round; stroke-linecap: butt; stroke-dasharray: 6.000000,6.000000; stroke-dashoffset: 0.000000; opacity: 1.000000" clip-path="url(#p7465c351b3ff3dd617c2a96a1fda549e)" d="M642.616921 163.721316L639.953059 166.929989L636.732158 171.825008
L632.186116 180.136740L626.231027 192.781010L620.044668 207.315268
L611.735396 228.174488L601.232069 255.611599L567.519943 341.759597
L556.721414 366.902634L546.004373 390.170453L535.406085 411.393063
L526.934485 427.067955L517.335130 443.418709L505.453281 461.539556
L495.728099 474.690505L487.445621 484.739158L479.410327 493.542512
L470.507973 502.229880L461.912261 509.611187L453.517880 515.948118
L445.514193 521.239302L436.931412 526.177109L426.921106 531.043286
L417.635429 534.801377L407.381521 538.231514L396.473047 541.174452
L383.672456 543.882022L369.331927 546.199219L351.262340 548.405148
L323.711273 550.996645L266.930334 555.673309L266.930334 555.673309"/>
</g>
<g id="line2d32">
<path style="fill: none; stroke: #000000; stroke-width: 1.000000; stroke-linejoin: round; stroke-linecap: butt; stroke-dasharray: 6.000000,6.000000; stroke-dashoffset: 0.000000; opacity: 1.000000" clip-path="url(#p7465c351b3ff3dd617c2a96a1fda549e)" d="M856.525212 567.130037L781.987327 560.263205L751.113786 556.843944
L724.589148 553.346050L706.598703 550.588423L681.352411 546.074264
L658.972152 541.364098L635.123021 535.543111L614.387249 529.802191
L588.086005 521.613108L566.108304 514.054350L541.751206 504.993029
L512.211973 493.176490L480.686669 479.861678L437.996061 461.332265
L437.996061 461.332265"/>
</g>
<g id="line2d33">
<path style="fill: none; stroke: #000000; stroke-width: 1.000000; stroke-linejoin: round; stroke-linecap: butt; stroke-dasharray: 6.000000,6.000000; stroke-dashoffset: 0.000000; opacity: 1.000000" clip-path="url(#p7465c351b3ff3dd617c2a96a1fda549e)" d="M856.525212 567.130037L811.691981 550.233564L762.522616 532.264073
L719.651811 517.251814L682.330975 504.838700L649.788063 494.683297
L621.360563 486.454131L596.436901 479.865169L574.481282 474.651130
L555.000045 470.576429L539.935896 467.853922L521.881907 465.120271
L502.035570 462.876355L483.731185 461.564665L466.298552 460.984648
L444.871008 461.058460L437.922962 461.208724L437.922962 461.208724"/>
</g>
<g id="line2d34">
<path style="fill: none; stroke: #000000; stroke-width: 1.000000; stroke-linejoin: round; stroke-linecap: butt; stroke-dasharray: 6.000000,6.000000; stroke-dashoffset: 0.000000; opacity: 1.000000" clip-path="url(#p7465c351b3ff3dd617c2a96a1fda549e)" d="M950.297991 443.952392L899.668700 437.208708L801.527209 424.318371
L763.681862 418.633265L729.177002 412.743894L709.229175 408.953081
L674.720788 401.625971L645.426954 394.587896L614.076615 386.194164
L583.082585 377.081539L545.703934 365.247352L496.358880 349.274428
L496.358880 349.274428"/>
</g>
<g id="line2d35">
<path style="fill: none; stroke: #000000; stroke-width: 1.000000; stroke-linejoin: round; stroke-linecap: butt; stroke-dasharray: 6.000000,6.000000; stroke-dashoffset: 0.000000; opacity: 1.000000" clip-path="url(#p7465c351b3ff3dd617c2a96a1fda549e)" d="M950.297991 443.952392L831.268079 410.414403L780.665877 396.897310
L735.977194 385.651733L701.995647 377.673717L671.581224 371.075123
L639.802470 364.863184L609.574742 359.735992L583.002960 355.977807
L559.362611 353.296658L534.126707 351.150819L504.552375 349.407809
L495.677790 348.924946L495.677790 348.924946"/>
</g>
<g id="line2d36">
<path style="fill: none; stroke: #000000; stroke-width: 1.000000; stroke-linejoin: round; stroke-linecap: butt; stroke-dasharray: 6.000000,6.000000; stroke-dashoffset: 0.000000; opacity: 1.000000" clip-path="url(#p7465c351b3ff3dd617c2a96a1fda549e)" d="M992.662894 320.024318L992.616436 320.036973L992.580758 320.032836
L992.513637 320.026314L992.432762 320.014100L992.287944 319.996677
L992.094763 319.969866L991.844237 319.929945L991.482755 319.875979
L991.022751 319.802477L990.431776 319.706625L989.677942 319.585831
L988.752632 319.436503L987.525851 319.236649L985.886560 318.972073
L983.731964 318.621287L980.857929 318.163193L977.084235 317.565102
L972.122711 316.791695L965.615771 315.799435L961.342939 315.159908
L955.724346 314.330924L952.030091 313.791465L948.363559 313.262671
L944.745434 312.742546L941.129306 312.233056L937.556183 311.730030
L934.025956 311.233451L930.494852 310.746363L927.003882 310.264610
L923.550394 309.787103L920.093227 309.317959L916.670841 308.851962
L913.266453 308.392773L909.894167 307.935638L906.515400 307.485738
L903.168631 307.037876L899.832012 306.593565L896.529823 306.152350
L893.237691 305.714672L889.953060 305.279456L886.678419 304.847764
L883.430482 304.415944L880.192467 303.987637L876.961833 303.561774
L873.757819 303.135774L870.561135 302.712210L867.366773 302.288954
L864.179705 301.868128L857.860921 301.026497L851.553736 300.187139
L845.301567 299.347045L839.077689 298.505611L832.877182 297.660738
L826.702512 296.813494L820.543939 295.959693L814.401551 295.099364
L808.273016 294.231493L802.177703 293.353586L796.065169 292.465524
L789.959689 291.566920L783.854264 290.654704L777.770767 289.727466
L771.661401 288.786156L765.543356 287.827303L759.438563 286.849529
L753.299418 285.853805L747.164800 284.835238L740.989609 283.795848
L734.793549 282.733270L728.572438 281.645586L722.343694 280.529449
L709.746358 278.214648L702.297567 276.799977L694.786096 275.341766
L687.223215 273.833873L679.584241 272.276123L671.861571 270.664923
L664.054498 268.999743L656.157916 267.278081L648.188203 265.496073
L640.121355 263.653739L631.961460 261.752685L623.731661 259.792136
L618.184789 258.454472L612.615893 257.093088L607.008573 255.711517
L601.388826 254.310484L595.742318 252.894455L590.101286 251.467034
L582.585931 249.558371L572.672239 247.024804L566.141575 245.366499
L557.624444 243.225239L552.105428 241.855697L548.506097 240.966708
L546.113229 240.376430L545.175596 240.144713L544.482604 239.970076
L543.979783 239.838596L543.623160 239.741134L543.347840 239.669912
L543.181210 239.615565L543.047834 239.576433L542.958299 239.546412
L542.885387 239.523996L542.827017 239.508236L542.795861 239.493978"/>
</g>
<g id="line2d37">
<path style="fill: none; stroke: #000000; stroke-width: 1.000000; stroke-linejoin: round; stroke-linecap: butt; stroke-dasharray: 6.000000,6.000000; stroke-dashoffset: 0.000000; opacity: 1.000000" clip-path="url(#p7465c351b3ff3dd617c2a96a1fda549e)" d="M992.661307 320.023662L992.436844 319.962657L992.362028 319.942324
L992.238848 319.912602L992.089232 319.871940L991.895786 319.834388
L991.627560 319.776512L991.284577 319.698316L990.796613 319.591978
L990.212073 319.466896L989.456288 319.302770L988.481103 319.090257
L987.339506 318.851255L985.781473 318.514023L983.742054 318.083379
L980.994457 317.486330L977.330923 316.700004L972.458221 315.644413
L965.947354 314.224928L957.254578 312.319077L951.447791 311.037052
L943.731029 309.327430L938.596386 308.182278L933.497386 307.050069
L928.404434 305.907844L923.325165 304.780026L918.277406 303.652872
L913.261086 302.526383L908.258026 301.414177L903.286180 300.302590
L898.370606 299.202186L893.442681 298.105359L888.545681 297.009107
L883.707771 295.935931L878.900408 294.863251L874.105142 293.804506
L869.364942 292.756659L864.633323 291.710709L859.981006 290.685990
L855.336941 289.663088L850.750048 288.662744L846.171112 287.664135
L841.645956 286.676126L837.177138 285.710450L832.715824 284.746396
L828.307620 283.792783L823.954952 282.861290L819.609351 281.931309
L815.318784 281.023308L806.848597 279.229127L798.547547 277.501597
L790.385272 275.806832L782.409888 274.176336L774.572441 272.589409
L766.871551 271.045707L759.352383 269.564958L751.943571 268.116665
L744.713336 266.730540L737.635172 265.384807L730.688303 264.091948
L723.869754 262.840290L717.201127 261.639459L710.679617 260.477866
L704.261815 259.358075L697.990366 258.288277L691.862773 257.256986
L685.813459 256.256980L679.928494 255.304879L674.142331 254.393453
L668.453080 253.511373L662.904219 252.677971L657.449793 251.862492
L646.870320 250.359734L640.845680 249.530865L634.959776 248.750185
L629.210925 248.006467L623.577266 247.300936L618.058013 246.633449
L612.630907 245.994251L607.316827 245.392853L602.136064 244.827770
L597.024247 244.281078L592.023582 243.771881L587.111962 243.279575
L583.868231 242.964369L580.689657 242.667104L577.512793 242.369999
L574.379719 242.081247L571.248282 241.792646L568.181525 241.521922
L564.087857 241.154355L558.738665 240.683264L555.175073 240.369427
L550.419955 239.937220L547.300675 239.660597L545.249932 239.478077
L543.910850 239.369102L543.429383 239.345884L543.073592 239.325420
L542.864026 239.328066L542.717392 239.326662L542.633268 239.342914
L542.612078 239.355117L542.590887 239.367320L542.590675 239.378173
L542.590462 239.389027L542.590250 239.399881L542.611017 239.409385"/>
</g>
<g id="line2d38">
<path style="fill: none; stroke: #000000; stroke-width: 1.000000; stroke-linejoin: round; stroke-linecap: butt; stroke-dasharray: 3.000000,5.000000,1.000000,5.000000; stroke-dashoffset: 0.000000; opacity: 1.000000" clip-path="url(#p7465c351b3ff3dd617c2a96a1fda549e)" d="M765.856835 619.980547L692.049480 490.485885L625.276280 372.237765
L598.275428 323.125512L583.858758 295.807582L570.997350 270.047499
L560.084018 246.447845L553.607741 232.311707L552.827719 231.008012
L552.827719 231.008012"/>
</g>
<g id="line2d39">
<path style="fill: none; stroke: #000000; stroke-width: 1.000000; stroke-linejoin: round; stroke-linecap: butt; stroke-dasharray: 3.000000,5.000000,1.000000,5.000000; stroke-dashoffset: 0.000000; opacity: 1.000000" clip-path="url(#p7465c351b3ff3dd617c2a96a1fda549e)" d="M765.856835 619.980547L730.006034 597.574620L701.077275 578.808593
L676.851544 562.306114L658.888419 549.313951L643.421710 537.318007
L631.893820 527.634652L621.747228 518.334092L612.798859 509.260842
L604.916772 500.280402L597.953496 491.244435L592.764183 483.568179
L587.190978 474.059713L582.269434 464.111056L577.907831 453.553978
L574.037373 442.239421L570.590606 429.985983L567.038463 414.260659
L563.944216 396.707978L561.369232 378.419783L558.419950 351.096596
L556.368638 327.079973L553.715636 288.469932L551.044646 238.647059
L551.110652 232.302450L551.253657 231.246175L551.751115 230.178582
L551.751115 230.178582"/>
</g>
<g id="line2d40">
<path style="fill: none; stroke: #000000; stroke-width: 1.000000; stroke-linejoin: round; stroke-linecap: butt; stroke-dasharray: 3.000000,5.000000,1.000000,5.000000; stroke-dashoffset: 0.000000; opacity: 1.000000" clip-path="url(#p7465c351b3ff3dd617c2a96a1fda549e)" d="M710.249461 633.972459L657.570293 568.448124L612.214328 513.127307
L521.158565 402.876672L509.833186 387.816760L500.771205 374.778424
L493.379366 362.990888L491.511566 359.754729L491.511566 359.754729"/>
</g>
<g id="line2d41">
<path style="fill: none; stroke: #000000; stroke-width: 1.000000; stroke-linejoin: round; stroke-linecap: butt; stroke-dasharray: 3.000000,5.000000,1.000000,5.000000; stroke-dashoffset: 0.000000; opacity: 1.000000" clip-path="url(#p7465c351b3ff3dd617c2a96a1fda549e)" d="M710.249461 633.972459L642.732661 593.420808L601.794957 568.092288
L575.695319 551.184173L558.608964 539.395787L546.153923 530.080393
L536.948095 522.474469L530.095008 516.117238L524.261112 509.942343
L519.308861 503.797431L515.064099 497.496409L511.457917 490.900097
L508.362334 483.817218L505.403174 475.045055L503.132740 466.291076
L500.489177 452.366493L498.804172 440.487387L496.513416 419.123744
L493.107699 379.011859L491.285792 359.637638L491.285792 359.637638"/>
</g>
<g id="line2d42">
<path style="fill: none; stroke: #000000; stroke-width: 1.000000; stroke-linejoin: round; stroke-linecap: butt; stroke-dasharray: 3.000000,5.000000,1.000000,5.000000; stroke-dashoffset: 0.000000; opacity: 1.000000" clip-path="url(#p7465c351b3ff3dd617c2a96a1fda549e)" d="M821.384352 593.556385L786.212298 511.592013L745.351363 414.710910
L658.480441 207.583467L650.553390 190.482243L645.429503 180.461411
L639.887654 171.507572L636.733825 168.065304L635.727933 167.396874
L635.727933 167.396874"/>
</g>
<g id="line2d43">
<path style="fill: none; stroke: #000000; stroke-width: 1.000000; stroke-linejoin: round; stroke-linecap: butt; stroke-dasharray: 3.000000,5.000000,1.000000,5.000000; stroke-dashoffset: 0.000000; opacity: 1.000000" clip-path="url(#p7465c351b3ff3dd617c2a96a1fda549e)" d="M821.384352 593.556385L797.688460 576.864929L778.008700 562.272005
L760.384364 548.427133L744.576215 535.156179L730.431085 522.327705
L720.134268 512.249732L708.470243 499.803316L698.011818 487.387333
L690.402932 477.374038L683.416823 467.212658L676.999446 456.840030
L671.098599 446.171817L664.418103 432.340608L659.557306 420.768737
L654.067511 405.559360L650.070028 392.680216L645.572238 375.571943
L641.543474 357.143146L638.001777 337.235476L634.879166 315.606957
L631.942274 289.581709L629.782785 263.641711L628.312510 238.218590
L627.582980 210.721878L627.896175 191.262296L628.620334 181.301777
L629.753348 173.949051L631.472035 168.986041L632.372769 167.762968
L633.579561 167.042416L634.938907 167.071938L634.938907 167.071938"/>
</g>
<g id="line2d44">
<path style="fill: none; stroke: #000000; stroke-width: 1.000000; stroke-linejoin: round; stroke-linecap: butt; stroke-dasharray: 3.000000,5.000000,1.000000,5.000000; stroke-dashoffset: 0.000000; opacity: 1.000000" clip-path="url(#p7465c351b3ff3dd617c2a96a1fda549e)" d="M877.138720 547.214143L789.473584 292.452938L772.704140 245.201438
L759.006919 208.603900L750.069140 186.581903L743.785162 172.591858
L739.670711 164.440266L735.109475 156.762362L731.300677 151.920649
L728.761699 149.847694L728.761699 149.847694"/>
</g>
<g id="line2d45">
<path style="fill: none; stroke: #000000; stroke-width: 1.000000; stroke-linejoin: round; stroke-linecap: butt; stroke-dasharray: 3.000000,5.000000,1.000000,5.000000; stroke-dashoffset: 0.000000; opacity: 1.000000" clip-path="url(#p7465c351b3ff3dd617c2a96a1fda549e)" d="M877.138720 547.214143L857.658153 529.888236L842.140768 515.033189
L827.916028 500.332216L814.898513 485.693408L805.851315 474.682661
L794.681694 459.886278L784.477024 444.861730L777.367390 433.357278
L768.646814 417.674683L762.597338 405.571656L756.946441 393.121284
L751.689632 380.284724L746.822830 367.022803L742.296399 353.268878
L736.798572 334.078799L733.063411 318.989171L728.589506 297.811194
L724.750296 275.337704L721.925902 254.487438L719.659848 232.437946
L718.309043 212.551446L717.733229 195.272962L717.861654 181.034397
L718.487116 170.162876L720.009559 159.286584L721.623835 153.825447
L723.450790 150.614918L724.938616 149.434968L726.466541 149.107041
L727.643947 149.330981L727.643947 149.330981"/>
</g>
<g id="line2d46">
<path style="fill: none; stroke: #000000; stroke-width: 1.000000; stroke-linejoin: round; stroke-linecap: butt; stroke-dasharray: 3.000000,5.000000,1.000000,5.000000; stroke-dashoffset: 0.000000; opacity: 1.000000" clip-path="url(#p7465c351b3ff3dd617c2a96a1fda549e)" d="M933.566292 472.507303L933.566578 472.495696L933.566578 472.495696
L933.566577 472.495696L933.566577 472.495696L933.566576 472.495695
L933.566575 472.495695L933.566573 472.495694L933.566571 472.495693
L933.566569 472.495692L933.566565 472.495690L933.566560 472.495688
L933.566554 472.495685L933.566546 472.495681L933.566535 472.495676
L933.566520 472.495669L933.566501 472.495660L933.566475 472.495647
L933.566440 472.495630L933.566393 472.495608L933.566331 472.495579
L933.566249 472.495539L933.566139 472.495487L933.565992 472.495417
L933.565796 472.495324L933.565535 472.495199L933.565331 472.489230
L933.564867 472.489009L933.564249 472.488714L933.563567 472.482517
L933.562468 472.481992L933.561145 472.475490L933.559333 472.468754
L933.556869 472.461707L933.553536 472.454245L933.549187 472.440427
L933.543433 472.420068L933.535760 472.392921L933.525474 472.358656
L933.511801 472.311033L933.493363 472.255266L933.468940 472.173157
L933.436325 472.063656L933.392703 471.919550L933.334377 471.727332
L933.256419 471.467043L933.152014 471.117823L933.011868 470.651766
L932.823379 470.027656L932.569302 469.184467L932.228623 468.053537
L931.770965 466.538320L931.154909 464.490147L930.322582 461.729239
L929.201321 458.010430L928.057224 454.223430L926.890486 450.350798
L925.699943 446.409685L924.485393 442.388342L923.246099 438.286515
L921.981720 434.098270L920.691245 429.834981L919.374221 425.484800
L918.030430 421.047737L916.658634 416.523334L915.258501 411.905689
L913.828919 407.200289L912.369306 402.401130L910.879081 397.502215
L909.356887 392.508946L907.801134 387.414888L906.215056 382.227527
L904.591480 376.926195L902.932754 371.523870L901.236543 366.013830
L899.502921 360.396308L897.729565 354.664615L895.914031 348.817900
L894.056539 342.850633L892.154535 336.767819L890.205731 330.562864
L888.207847 324.229205L886.158370 317.771941L884.052660 311.177685
L881.890751 304.452693L879.668032 297.583659L877.376940 290.579563
L875.015550 283.422479L872.573993 276.114684L871.320137 272.402472
L868.746472 264.861918L867.419398 261.024893L864.682322 253.228607
L863.264992 249.266578L860.321056 241.193084L858.784608 237.083809
L855.558696 228.705588L853.852339 224.424462L850.179521 215.667988
L848.166996 211.169303L845.197327 205.003647L842.919094 200.749146
L841.160577 197.801748L839.792029 195.751580L838.716517 194.319774
L837.863045 193.314255L837.140906 192.558997L836.446383 191.931555
L835.777110 191.425082L835.247381 191.101607L834.991843 190.972713
L834.862722 190.916498L834.801774 190.892718"/>
</g>
<g id="line2d47">
<path style="fill: none; stroke: #000000; stroke-width: 1.000000; stroke-linejoin: round; stroke-linecap: butt; stroke-dasharray: 3.000000,5.000000,1.000000,5.000000; stroke-dashoffset: 0.000000; opacity: 1.000000" clip-path="url(#p7465c351b3ff3dd617c2a96a1fda549e)" d="M933.566292 472.507303L933.566579 472.495697L933.566579 472.495697
L933.566579 472.495697L933.566579 472.495697L933.566579 472.495697
L933.566579 472.495697L933.566579 472.495697L933.566579 472.495697
L933.566579 472.495697L933.566579 472.495697L933.566579 472.495697
L933.566579 472.495697L933.566579 472.495697L933.566579 472.495697
L933.566579 472.495697L933.566579 472.495697L933.566579 472.495697
L933.566579 472.495697L933.566579 472.495697L933.566579 472.495697
L933.566579 472.495697L933.566579 472.495697L933.566579 472.495697
L933.566579 472.495697L933.566579 472.495697L933.566722 472.489893
L933.566722 472.489893L933.566722 472.489893L933.566865 472.484090
L933.541062 472.471782L933.541205 472.465979L933.541348 472.460175
L933.541492 472.454372L933.515832 472.436261L933.490315 472.412347
L933.464943 472.382630L933.439714 472.347111L933.414629 472.305788
L933.364030 472.240555L933.287777 472.157217L933.186302 472.038368
L933.059611 471.884015L932.882060 471.676064L932.679740 471.415226
L932.375737 471.047237L931.970536 470.554760L931.439016 469.902409
L930.730644 469.031009L929.769709 467.851907L928.506640 466.283225
L926.841352 464.195901L924.624239 461.391047L921.733138 457.660425
L917.972215 452.704017L914.297706 447.737238L910.709372 442.742327
L907.206185 437.736196L903.762507 432.695038L900.428401 427.642162
L897.152876 422.547778L893.935282 417.423159L890.800570 412.268135
L887.748208 407.082284L884.777684 401.865179L881.863680 396.599211
L879.030628 391.301240L876.253329 385.953764L873.556381 380.562033
L870.914460 375.120140L868.352104 369.633209L865.868787 364.106518
L863.439797 358.511363L861.064632 352.858915L858.767719 347.154048
L856.524150 341.385413L854.358301 335.557757L852.269839 329.670570
L850.234093 323.706917L848.275168 317.682802L846.368471 311.581382
L844.538287 305.407056L842.759885 299.154536L841.081964 292.832732
L839.455485 286.425937L837.929085 279.942784L836.453737 273.373509
L835.078134 266.720724L833.801956 259.989307L833.176854 256.583063
L832.049518 249.729229L831.523090 246.265575L830.544433 239.275698
L830.116397 235.759107L829.358907 228.654628L829.053556 225.081953
L828.589727 217.888860L828.455582 214.271907L828.455365 207.041885
L828.613758 203.431871L829.133373 198.676538L829.771902 195.587156
L830.441147 193.601910L831.074108 192.340806L831.674679 191.567379
L832.196864 191.100961L832.691584 190.821805L833.208877 190.667931
L833.773218 190.643129L834.238138 190.707827L834.482347 190.773927
L834.604318 190.815679L834.677447 190.844211"/>
</g>
<g id="matplotlib.axis1">
</g>
<g id="matplotlib.axis2">
</g>
</g>
<g id="text21">
<defs>
<path id="c_7b26b13f539f13a4c64eef23b6952d29" d="M4.890625 -31.390625l26.312500 0.000000l0.000000 8.000000l-26.312500 0.000000z"/>
<path id="c_a469f8ee191679fe73f3b765bd271597" d="M64.406250 -67.281250l0.000000 10.390625q-4.984375 -4.640625 -10.625000 -6.921875q-5.640625 -2.296875 -11.984375 -2.296875q-12.500000 0.000000 -19.140625 7.640625q-6.640625 7.640625 -6.640625 22.093750q0.000000 14.406250 6.640625 22.046875q6.640625 7.640625 19.140625 7.640625q6.343750 0.000000 11.984375 -2.296875q5.640625 -2.296875 10.625000 -6.937500l0.000000 10.312500q-5.171875 3.515625 -10.968750 5.281250q-5.781250 1.750000 -12.218750 1.750000q-16.562500 0.000000 -26.093750 -10.125000q-9.515625 -10.140625 -9.515625 -27.671875q0.000000 -17.578125 9.515625 -27.703125q9.531250 -10.140625 26.093750 -10.140625q6.531250 0.000000 12.312500 1.734375q5.796875 1.734375 10.875000 5.203125"/>
<path id="c_9266f381a194deb1d9d439e9a9317ead" d="M9.421875 -54.687500l8.984375 0.000000l0.000000 55.671875q0.000000 10.437500 -3.984375 15.125000q-3.968750 4.687500 -12.812500 4.687500l-3.421875 0.000000l0.000000 -7.609375l2.406250 0.000000q5.125000 0.000000 6.968750 -2.375000q1.859375 -2.359375 1.859375 -9.828125zM9.421875 -75.984375l8.984375 0.000000l0.000000 11.390625l-8.984375 0.000000z"/>
<path id="c_e3864de5dabf2f8dd9eee74726882ec1" d="M45.406250 -27.984375q0.000000 -9.765625 -4.031250 -15.125000q-4.015625 -5.375000 -11.296875 -5.375000q-7.218750 0.000000 -11.250000 5.375000q-4.031250 5.359375 -4.031250 15.125000q0.000000 9.718750 4.031250 15.093750q4.031250 5.375000 11.250000 5.375000q7.281250 0.000000 11.296875 -5.375000q4.031250 -5.375000 4.031250 -15.093750M54.390625 -6.781250q0.000000 13.953125 -6.203125 20.765625q-6.187500 6.812500 -18.984375 6.812500q-4.734375 0.000000 -8.937500 -0.703125q-4.203125 -0.703125 -8.156250 -2.171875l0.000000 -8.734375q3.953125 2.140625 7.812500 3.156250q3.859375 1.031250 7.859375 1.031250q8.843750 0.000000 13.234375 -4.609375q4.390625 -4.609375 4.390625 -13.937500l0.000000 -4.453125q-2.781250 4.843750 -7.125000 7.234375q-4.343750 2.390625 -10.406250 2.390625q-10.046875 0.000000 -16.203125 -7.656250q-6.156250 -7.671875 -6.156250 -20.328125q0.000000 -12.687500 6.156250 -20.343750q6.156250 -7.671875 16.203125 -7.671875q6.062500 0.000000 10.406250 2.390625q4.343750 2.390625 7.125000 7.218750l0.000000 -8.296875l8.984375 0.000000z"/>
<path id="c_74d54c94aa871ec39e2bc6697dde6c00" d="M54.890625 -33.015625l0.000000 33.015625l-8.984375 0.000000l0.000000 -32.718750q0.000000 -7.765625 -3.031250 -11.609375q-3.031250 -3.859375 -9.078125 -3.859375q-7.281250 0.000000 -11.484375 4.640625q-4.203125 4.625000 -4.203125 12.640625l0.000000 30.906250l-9.031250 0.000000l0.000000 -75.984375l9.031250 0.000000l0.000000 29.796875q3.234375 -4.937500 7.593750 -7.375000q4.375000 -2.437500 10.093750 -2.437500q9.421875 0.000000 14.250000 5.828125q4.843750 5.828125 4.843750 17.156250"/>
<path id="c_a66ecc39892414b9ca9362e0fffdc75b" d="M14.796875 -27.296875q0.000000 9.906250 4.078125 15.546875q4.078125 5.640625 11.203125 5.640625q7.125000 0.000000 11.218750 -5.640625q4.109375 -5.640625 4.109375 -15.546875q0.000000 -9.906250 -4.109375 -15.546875q-4.093750 -5.640625 -11.218750 -5.640625q-7.125000 0.000000 -11.203125 5.640625q-4.078125 5.640625 -4.078125 15.546875M45.406250 -8.203125q-2.828125 4.875000 -7.156250 7.250000q-4.312500 2.375000 -10.375000 2.375000q-9.906250 0.000000 -16.140625 -7.906250q-6.218750 -7.921875 -6.218750 -20.812500q0.000000 -12.890625 6.218750 -20.796875q6.234375 -7.906250 16.140625 -7.906250q6.062500 0.000000 10.375000 2.375000q4.328125 2.359375 7.156250 7.234375l0.000000 -8.296875l8.984375 0.000000l0.000000 75.484375l-8.984375 0.000000z"/>
<path id="c_d821beae607506e87470f334d9ff47af" d="M45.406250 -46.390625l0.000000 -29.593750l8.984375 0.000000l0.000000 75.984375l-8.984375 0.000000l0.000000 -8.203125q-2.828125 4.875000 -7.156250 7.250000q-4.312500 2.375000 -10.375000 2.375000q-9.906250 0.000000 -16.140625 -7.906250q-6.218750 -7.921875 -6.218750 -20.812500q0.000000 -12.890625 6.218750 -20.796875q6.234375 -7.906250 16.140625 -7.906250q6.062500 0.000000 10.375000 2.375000q4.328125 2.359375 7.156250 7.234375M14.796875 -27.296875q0.000000 9.906250 4.078125 15.546875q4.078125 5.640625 11.203125 5.640625q7.125000 0.000000 11.218750 -5.640625q4.109375 -5.640625 4.109375 -15.546875q0.000000 -9.906250 -4.109375 -15.546875q-4.093750 -5.640625 -11.218750 -5.640625q-7.125000 0.000000 -11.203125 5.640625q-4.078125 5.640625 -4.078125 15.546875"/>
</defs>
<g style="fill: #000000; opacity: 1.000000" transform="translate(321.731250,24.533000)scale(0.120000)">
<use xlink:href="#c_518d586bee075aa0153eaebfcb5ab11f"/>
<use xlink:href="#c_6ec8d5749226675394676a5d2a3b468b" x="58.552734"/>
<use xlink:href="#c_0bce5afba2dc6b9024b26277c38ad8e8" x="97.416016"/>
<use xlink:href="#c_8e0810ad13fe20a2a87a2619799b154d" x="158.939453"/>
<use xlink:href="#c_8e0810ad13fe20a2a87a2619799b154d" x="211.039062"/>
<use xlink:href="#c_3b515ad41f960e225ec85275856806ca" x="263.138672"/>
<use xlink:href="#c_6ec8d5749226675394676a5d2a3b468b" x="326.517578"/>
<use xlink:href="#c_0bce5afba2dc6b9024b26277c38ad8e8" x="365.380859"/>
<use xlink:href="#c_7b26b13f539f13a4c64eef23b6952d29" x="426.904297"/>
<use xlink:href="#c_9e4b30cbdf32072672ded72e9074c4c9" x="453.863281"/>
<use xlink:href="#c_0bce5afba2dc6b9024b26277c38ad8e8" x="497.947266"/>
<use xlink:href="#c_4653c6dfde66c7610eae0911760d3490" x="559.470703"/>
<use xlink:href="#c_f15a64fcd463ef4629c48bab42cde24c" x="656.882812"/>
<use xlink:href="#c_0bce5afba2dc6b9024b26277c38ad8e8" x="720.359375"/>
<use xlink:href="#c_6ec8d5749226675394676a5d2a3b468b" x="781.882812"/>
<use xlink:href="#c_01d93a582460e35a7945ca50d148ffeb" x="822.996094"/>
<use xlink:href="#c_0f8c41144cfbf448378cb6fd1cc8e549" x="884.275391"/>
<use xlink:href="#c_3b515ad41f960e225ec85275856806ca" x="923.484375"/>
<use xlink:href="#c_6ec8d5749226675394676a5d2a3b468b" x="986.863281"/>
<use xlink:href="#c_0bce5afba2dc6b9024b26277c38ad8e8" x="1025.726562"/>
<use xlink:href="#c_7b26b13f539f13a4c64eef23b6952d29" x="1087.250000"/>
<use xlink:href="#c_a469f8ee191679fe73f3b765bd271597" x="1123.333984"/>
<use xlink:href="#c_f05dd90d41f04bb96ef1ca503cc2044b" x="1193.158203"/>
<use xlink:href="#c_4653c6dfde66c7610eae0911760d3490" x="1254.339844"/>
<use xlink:href="#c_f15a64fcd463ef4629c48bab42cde24c" x="1351.751953"/>
<use xlink:href="#c_f05dd90d41f04bb96ef1ca503cc2044b" x="1415.228516"/>
<use xlink:href="#c_8e0810ad13fe20a2a87a2619799b154d" x="1476.410156"/>
<use xlink:href="#c_6a63bda47b2f3da1cec6aadd80692cfe" x="1528.509766"/>
<use xlink:href="#c_0f8c41144cfbf448378cb6fd1cc8e549" x="1556.292969"/>
<use xlink:href="#c_6a63bda47b2f3da1cec6aadd80692cfe" x="1595.501953"/>
<use xlink:href="#c_f05dd90d41f04bb96ef1ca503cc2044b" x="1623.285156"/>
<use xlink:href="#c_fe791a90f5471e2ab20a5ed41a7fa451" x="1684.466797"/>
<use xlink:href="#c_d41d8cd98f00b204e9800998ecf8427e" x="1747.845703"/>
<use xlink:href="#c_f15a64fcd463ef4629c48bab42cde24c" x="1779.632813"/>
<use xlink:href="#c_6ec8d5749226675394676a5d2a3b468b" x="1843.109375"/>
<use xlink:href="#c_f05dd90d41f04bb96ef1ca503cc2044b" x="1881.972656"/>
<use xlink:href="#c_9266f381a194deb1d9d439e9a9317ead" x="1943.154297"/>
<use xlink:href="#c_0bce5afba2dc6b9024b26277c38ad8e8" x="1970.937500"/>
<use xlink:href="#c_d650c37394b681142a10dfc54356d478" x="2032.460938"/>
<use xlink:href="#c_0f8c41144cfbf448378cb6fd1cc8e549" x="2087.441406"/>
<use xlink:href="#c_6a63bda47b2f3da1cec6aadd80692cfe" x="2126.650391"/>
<use xlink:href="#c_f05dd90d41f04bb96ef1ca503cc2044b" x="2154.433594"/>
<use xlink:href="#c_fe791a90f5471e2ab20a5ed41a7fa451" x="2215.615234"/>
<use xlink:href="#c_d41d8cd98f00b204e9800998ecf8427e" x="2278.994141"/>
<use xlink:href="#c_f05dd90d41f04bb96ef1ca503cc2044b" x="2310.781250"/>
<use xlink:href="#c_73b12fe3945075d29fe0cc9a468fa31e" x="2371.962891"/>
<use xlink:href="#c_d41d8cd98f00b204e9800998ecf8427e" x="2407.167969"/>
<use xlink:href="#c_01d93a582460e35a7945ca50d148ffeb" x="2438.955078"/>
<use xlink:href="#c_d41d8cd98f00b204e9800998ecf8427e" x="2500.234375"/>
<use xlink:href="#c_e3864de5dabf2f8dd9eee74726882ec1" x="2532.021484"/>
<use xlink:href="#c_5099edb83619131346ae654950954dea" x="2595.498047"/>
<use xlink:href="#c_f05dd90d41f04bb96ef1ca503cc2044b" x="2623.281250"/>
<use xlink:href="#c_5cc9741494d2ad8f9764e03ae145569f" x="2684.462891"/>
<use xlink:href="#c_01d93a582460e35a7945ca50d148ffeb" x="2747.939453"/>
<use xlink:href="#c_5099edb83619131346ae654950954dea" x="2809.218750"/>
<use xlink:href="#c_d41d8cd98f00b204e9800998ecf8427e" x="2837.001953"/>
<use xlink:href="#c_f15a64fcd463ef4629c48bab42cde24c" x="2868.789062"/>
<use xlink:href="#c_74d54c94aa871ec39e2bc6697dde6c00" x="2932.265625"/>
<use xlink:href="#c_01d93a582460e35a7945ca50d148ffeb" x="2995.644531"/>
<use xlink:href="#c_8e0810ad13fe20a2a87a2619799b154d" x="3056.923828"/>
<use xlink:href="#c_0bce5afba2dc6b9024b26277c38ad8e8" x="3109.023438"/>
<use xlink:href="#c_d41d8cd98f00b204e9800998ecf8427e" x="3170.546875"/>
<use xlink:href="#c_0bce5afba2dc6b9024b26277c38ad8e8" x="3202.333984"/>
<use xlink:href="#c_a66ecc39892414b9ca9362e0fffdc75b" x="3263.857422"/>
<use xlink:href="#c_3b515ad41f960e225ec85275856806ca" x="3327.333984"/>
<use xlink:href="#c_6a63bda47b2f3da1cec6aadd80692cfe" x="3390.712891"/>
<use xlink:href="#c_5099edb83619131346ae654950954dea" x="3418.496094"/>
<use xlink:href="#c_6a63bda47b2f3da1cec6aadd80692cfe" x="3446.279297"/>
<use xlink:href="#c_5cc9741494d2ad8f9764e03ae145569f" x="3474.062500"/>
<use xlink:href="#c_6ec8d5749226675394676a5d2a3b468b" x="3537.539062"/>
<use xlink:href="#c_6a63bda47b2f3da1cec6aadd80692cfe" x="3578.652344"/>
<use xlink:href="#c_3b515ad41f960e225ec85275856806ca" x="3606.435547"/>
<use xlink:href="#c_4653c6dfde66c7610eae0911760d3490" x="3669.814453"/>
<use xlink:href="#c_d41d8cd98f00b204e9800998ecf8427e" x="3767.226562"/>
<use xlink:href="#c_d821beae607506e87470f334d9ff47af" x="3799.013672"/>
<use xlink:href="#c_6a63bda47b2f3da1cec6aadd80692cfe" x="3862.490234"/>
<use xlink:href="#c_01d93a582460e35a7945ca50d148ffeb" x="3890.273438"/>
<use xlink:href="#c_e3864de5dabf2f8dd9eee74726882ec1" x="3951.552734"/>
<use xlink:href="#c_6ec8d5749226675394676a5d2a3b468b" x="4015.029297"/>
<use xlink:href="#c_01d93a582460e35a7945ca50d148ffeb" x="4056.142578"/>
<use xlink:href="#c_4653c6dfde66c7610eae0911760d3490" x="4117.421875"/>
<use xlink:href="#c_d41d8cd98f00b204e9800998ecf8427e" x="4214.833984"/>
</g>
</g>
<g id="text22">
<defs>
<path id="c_5190dbc1cdbe53cbdd605e1721869cb7" d="M46.000000 -62.703125l0.000000 27.203125l27.187500 0.000000l0.000000 8.296875l-27.187500 0.000000l0.000000 27.203125l-8.203125 0.000000l0.000000 -27.203125l-27.203125 0.000000l0.000000 -8.296875l27.203125 0.000000l0.000000 -27.203125z"/>
<path id="c_83c92fcf7184248154f741f54a0382f5" d="M11.718750 -12.406250l10.296875 0.000000l0.000000 8.406250l-8.000000 15.625000l-6.296875 0.000000l4.000000 -15.625000z"/>
<path id="c_b672e4bee30772019085dff1098f516d" d="M53.515625 -70.515625l0.000000 9.625000q-5.609375 -2.687500 -10.593750 -4.000000q-4.984375 -1.328125 -9.625000 -1.328125q-8.046875 0.000000 -12.421875 3.125000q-4.375000 3.125000 -4.375000 8.890625q0.000000 4.843750 2.906250 7.312500q2.906250 2.453125 11.015625 3.968750l5.953125 1.218750q11.031250 2.109375 16.281250 7.406250q5.250000 5.296875 5.250000 14.171875q0.000000 10.609375 -7.109375 16.078125q-7.093750 5.468750 -20.812500 5.468750q-5.171875 0.000000 -11.015625 -1.171875q-5.828125 -1.171875 -12.078125 -3.468750l0.000000 -10.156250q6.000000 3.359375 11.765625 5.078125q5.765625 1.703125 11.328125 1.703125q8.437500 0.000000 13.031250 -3.312500q4.593750 -3.328125 4.593750 -9.484375q0.000000 -5.359375 -3.296875 -8.390625q-3.296875 -3.031250 -10.812500 -4.546875l-6.015625 -1.171875q-11.031250 -2.187500 -15.968750 -6.875000q-4.921875 -4.687500 -4.921875 -13.046875q0.000000 -9.671875 6.812500 -15.234375q6.812500 -5.562500 18.765625 -5.562500q5.140625 0.000000 10.453125 0.937500q5.328125 0.921875 10.890625 2.765625"/>
<path id="c_4c6532c564269b2c70b230c2e45c01e4" d="M44.390625 -34.187500q3.171875 1.078125 6.171875 4.593750q3.000000 3.515625 6.031250 9.671875l10.015625 19.921875l-10.609375 0.000000l-9.312500 -18.703125q-3.625000 -7.328125 -7.015625 -9.718750q-3.390625 -2.390625 -9.250000 -2.390625l-10.750000 0.000000l0.000000 30.812500l-9.859375 0.000000l0.000000 -72.906250l22.265625 0.000000q12.500000 0.000000 18.656250 5.234375q6.156250 5.218750 6.156250 15.765625q0.000000 6.890625 -3.203125 11.437500q-3.203125 4.531250 -9.296875 6.281250M19.671875 -64.796875l0.000000 25.875000l12.406250 0.000000q7.125000 0.000000 10.765625 -3.296875q3.640625 -3.296875 3.640625 -9.687500q0.000000 -6.390625 -3.640625 -9.640625q-3.640625 -3.250000 -10.765625 -3.250000z"/>
<path id="c_680e57528fc97ec49605e10827a40086" d="M39.406250 -66.218750q-10.750000 0.000000 -17.078125 8.015625q-6.312500 8.000000 -6.312500 21.828125q0.000000 13.765625 6.312500 21.781250q6.328125 8.000000 17.078125 8.000000q10.734375 0.000000 17.015625 -8.000000q6.281250 -8.015625 6.281250 -21.781250q0.000000 -13.828125 -6.281250 -21.828125q-6.281250 -8.015625 -17.015625 -8.015625M39.406250 -74.218750q15.328125 0.000000 24.500000 10.281250q9.187500 10.281250 9.187500 27.562500q0.000000 17.234375 -9.187500 27.515625q-9.171875 10.281250 -24.500000 10.281250q-15.375000 0.000000 -24.593750 -10.250000q-9.203125 -10.265625 -9.203125 -27.546875q0.000000 -17.281250 9.203125 -27.562500q9.218750 -10.281250 24.593750 -10.281250"/>
<path id="c_8c0379a31aa3b07b28207e25658c6113" d="M10.593750 -45.406250l62.593750 0.000000l0.000000 8.203125l-62.593750 0.000000zM10.593750 -25.484375l62.593750 0.000000l0.000000 8.296875l-62.593750 0.000000z"/>
<path id="c_07e3f33241aff50afcba519606f2a979" d="M9.812500 -72.906250l9.859375 0.000000l0.000000 64.609375l35.500000 0.000000l0.000000 8.296875l-45.359375 0.000000z"/>
</defs>
<g style="fill: #000000; opacity: 1.000000" transform="translate(11.484000,760.821000)scale(0.090000)">
<use xlink:href="#c_72234ddc5dcad8d05c893ef0371171da"/>
<use xlink:href="#c_dbe439baa035de1a298d0549b22269d8" x="86.279297"/>
<use xlink:href="#c_9e4b30cbdf32072672ded72e9074c4c9" x="149.462891"/>
<use xlink:href="#c_5e9f44da4350eed47d2641510279ca20" x="210.546875"/>
<use xlink:href="#c_6023715d605f81e6eb43b7f9d77e7c51" x="285.742188"/>
<use xlink:href="#c_fabc000b0fb83f456ee9f092ad635e20" x="354.150391"/>
<use xlink:href="#c_dbe439baa035de1a298d0549b22269d8" x="428.955078"/>
<use xlink:href="#c_d41d8cd98f00b204e9800998ecf8427e" x="492.138672"/>
<use xlink:href="#c_5190dbc1cdbe53cbdd605e1721869cb7" x="523.925781"/>
<use xlink:href="#c_d41d8cd98f00b204e9800998ecf8427e" x="607.714844"/>
<use xlink:href="#c_dbe439baa035de1a298d0549b22269d8" x="639.501953"/>
<use xlink:href="#c_9e4b30cbdf32072672ded72e9074c4c9" x="702.685547"/>
<use xlink:href="#c_5e9f44da4350eed47d2641510279ca20" x="763.769531"/>
<use xlink:href="#c_6023715d605f81e6eb43b7f9d77e7c51" x="838.964844"/>
<use xlink:href="#c_fabc000b0fb83f456ee9f092ad635e20" x="907.373047"/>
<use xlink:href="#c_dbe439baa035de1a298d0549b22269d8" x="982.177734"/>
<use xlink:href="#c_83c92fcf7184248154f741f54a0382f5" x="1045.361328"/>
<use xlink:href="#c_d41d8cd98f00b204e9800998ecf8427e" x="1077.148438"/>
<use xlink:href="#c_b672e4bee30772019085dff1098f516d" x="1108.935547"/>
<use xlink:href="#c_4c6532c564269b2c70b230c2e45c01e4" x="1172.412109"/>
<use xlink:href="#c_7aecf22c350a602b3f972fa102c17cac" x="1241.894531"/>
<use xlink:href="#c_d41d8cd98f00b204e9800998ecf8427e" x="1307.470703"/>
<use xlink:href="#c_dbe439baa035de1a298d0549b22269d8" x="1339.257812"/>
<use xlink:href="#c_680e57528fc97ec49605e10827a40086" x="1402.441406"/>
<use xlink:href="#c_b672e4bee30772019085dff1098f516d" x="1481.152344"/>
<use xlink:href="#c_83c92fcf7184248154f741f54a0382f5" x="1544.628906"/>
<use xlink:href="#c_d41d8cd98f00b204e9800998ecf8427e" x="1576.416016"/>
<use xlink:href="#c_7aecf22c350a602b3f972fa102c17cac" x="1608.203125"/>
<use xlink:href="#c_6a63bda47b2f3da1cec6aadd80692cfe" x="1673.779297"/>
<use xlink:href="#c_9266f381a194deb1d9d439e9a9317ead" x="1701.562500"/>
<use xlink:href="#c_d41d8cd98f00b204e9800998ecf8427e" x="1729.345703"/>
<use xlink:href="#c_8c0379a31aa3b07b28207e25658c6113" x="1761.132812"/>
<use xlink:href="#c_d41d8cd98f00b204e9800998ecf8427e" x="1844.921875"/>
<use xlink:href="#c_7a2040fe3b94fcd41d0a72c84e93b115" x="1876.708984"/>
<use xlink:href="#c_ed3e21196fb739f392806f09ca0594ef" x="1940.332031"/>
<use xlink:href="#c_7a2040fe3b94fcd41d0a72c84e93b115" x="1972.119141"/>
<use xlink:href="#c_83c92fcf7184248154f741f54a0382f5" x="2035.742188"/>
<use xlink:href="#c_d41d8cd98f00b204e9800998ecf8427e" x="2067.529297"/>
<use xlink:href="#c_07e3f33241aff50afcba519606f2a979" x="2099.316406"/>
<use xlink:href="#c_6a63bda47b2f3da1cec6aadd80692cfe" x="2155.029297"/>
<use xlink:href="#c_9266f381a194deb1d9d439e9a9317ead" x="2182.812500"/>
<use xlink:href="#c_d41d8cd98f00b204e9800998ecf8427e" x="2210.595703"/>
<use xlink:href="#c_8c0379a31aa3b07b28207e25658c6113" x="2242.382812"/>
<use xlink:href="#c_d41d8cd98f00b204e9800998ecf8427e" x="2326.171875"/>
<use xlink:href="#c_7a2040fe3b94fcd41d0a72c84e93b115" x="2357.958984"/>
<use xlink:href="#c_ed3e21196fb739f392806f09ca0594ef" x="2421.582031"/>
<use xlink:href="#c_7a2040fe3b94fcd41d0a72c84e93b115" x="2453.369141"/>
</g>
</g>
</g>
</svg>
