<?xml version="1.0" standalone="no"?>
<!DOCTYPE svg PUBLIC "-//W3C//DTD SVG 1.1//EN"
  "http://www.w3.org/Graphics/SVG/1.1/DTD/svg11.dtd">
<!-- Created with matplotlib (http://matplotlib.sourceforge.net/) -->
<svg width="719pt" height="617pt" viewBox="0 0 719 617"
   xmlns="http://www.w3.org/2000/svg"
   xmlns:xlink="http://www.w3.org/1999/xlink"
   version="1.1"
   id="svg1">
<g id="figure1">
<g id="patch1">
<path style="fill: #ffffff; stroke: #ffffff; stroke-width: 1.000000; stroke-linejoin: round; stroke-linecap: square;  opacity: 1.000000"  d="M0.000000 617.400000L719.100000 617.400000L719.100000 0.000000
L0.000000 0.000000L0.000000 617.400000"/>
</g>
<g id="patch2">
<path style="fill: #ffffff; opacity: 1.000000"  d="M0.000000 617.400000L719.100000 617.400000L719.100000 0.000000
L0.000000 0.000000L0.000000 617.400000"/>
</g>
<g id="axis3d1">
<g id="patch3">
<path style="fill: #f2f2f2; stroke: #f2f2f2; stroke-width: 1.000000; stroke-linejoin: round; stroke-linecap: square;  opacity: 0.500000"  d="M650.673013 477.115760L411.262518 386.042850L412.508462 73.886197
L659.713024 142.048541"/>
</g>
<g id="line2d1">
<path style="fill: none; stroke: #000000; stroke-width: 0.750000; stroke-linejoin: round; stroke-linecap: square;  opacity: 1.000000"  d="M650.673013 477.115760L321.115751 552.547863"/>
</g>
<g id="text1">
<defs>
<path id="c_9e4b30cbdf32072672ded72e9074c4c9" d="M-0.296875 -72.906250l61.671875 0.000000l0.000000 8.312500l-25.875000 0.000000l0.000000 64.593750l-9.906250 0.000000l0.000000 -64.593750l-25.890625 0.000000z"/>
<path id="c_0bce5afba2dc6b9024b26277c38ad8e8" d="M56.203125 -29.593750l0.000000 4.390625l-41.312500 0.000000q0.593750 9.281250 5.593750 14.140625q5.000000 4.859375 13.937500 4.859375q5.171875 0.000000 10.031250 -1.265625q4.859375 -1.265625 9.656250 -3.812500l0.000000 8.500000q-4.843750 2.046875 -9.921875 3.125000q-5.078125 1.078125 -10.296875 1.078125q-13.093750 0.000000 -20.734375 -7.609375q-7.640625 -7.625000 -7.640625 -20.625000q0.000000 -13.421875 7.250000 -21.296875q7.250000 -7.890625 19.562500 -7.890625q11.031250 0.000000 17.453125 7.109375q6.421875 7.093750 6.421875 19.296875M47.218750 -32.234375q-0.093750 -7.359375 -4.125000 -11.750000q-4.031250 -4.406250 -10.671875 -4.406250q-7.515625 0.000000 -12.031250 4.250000q-4.515625 4.250000 -5.203125 11.968750z"/>
<path id="c_4653c6dfde66c7610eae0911760d3490" d="M52.000000 -44.187500q3.375000 -6.062500 8.062500 -8.937500q4.687500 -2.875000 11.031250 -2.875000q8.546875 0.000000 13.187500 5.984375q4.640625 5.968750 4.640625 17.000000l0.000000 33.015625l-9.031250 0.000000l0.000000 -32.718750q0.000000 -7.859375 -2.796875 -11.656250q-2.781250 -3.812500 -8.484375 -3.812500q-6.984375 0.000000 -11.046875 4.640625q-4.046875 4.625000 -4.046875 12.640625l0.000000 30.906250l-9.031250 0.000000l0.000000 -32.718750q0.000000 -7.906250 -2.781250 -11.687500q-2.781250 -3.781250 -8.593750 -3.781250q-6.890625 0.000000 -10.953125 4.656250q-4.046875 4.656250 -4.046875 12.625000l0.000000 30.906250l-9.031250 0.000000l0.000000 -54.687500l9.031250 0.000000l0.000000 8.500000q3.078125 -5.031250 7.375000 -7.421875q4.296875 -2.390625 10.203125 -2.390625q5.968750 0.000000 10.140625 3.031250q4.171875 3.015625 6.171875 8.781250"/>
<path id="c_f15a64fcd463ef4629c48bab42cde24c" d="M18.109375 -8.203125l0.000000 29.000000l-9.031250 0.000000l0.000000 -75.484375l9.031250 0.000000l0.000000 8.296875q2.843750 -4.875000 7.156250 -7.234375q4.328125 -2.375000 10.328125 -2.375000q9.968750 0.000000 16.187500 7.906250q6.234375 7.906250 6.234375 20.796875q0.000000 12.890625 -6.234375 20.812500q-6.218750 7.906250 -16.187500 7.906250q-6.000000 0.000000 -10.328125 -2.375000q-4.312500 -2.375000 -7.156250 -7.250000M48.687500 -27.296875q0.000000 -9.906250 -4.078125 -15.546875q-4.078125 -5.640625 -11.203125 -5.640625q-7.140625 0.000000 -11.218750 5.640625q-4.078125 5.640625 -4.078125 15.546875q0.000000 9.906250 4.078125 15.546875q4.078125 5.640625 11.218750 5.640625q7.125000 0.000000 11.203125 -5.640625q4.078125 -5.640625 4.078125 -15.546875"/>
<path id="c_6ec8d5749226675394676a5d2a3b468b" d="M41.109375 -46.296875q-1.515625 -0.875000 -3.296875 -1.281250q-1.781250 -0.421875 -3.921875 -0.421875q-7.625000 0.000000 -11.703125 4.953125q-4.078125 4.953125 -4.078125 14.234375l0.000000 28.812500l-9.031250 0.000000l0.000000 -54.687500l9.031250 0.000000l0.000000 8.500000q2.843750 -4.984375 7.375000 -7.390625q4.546875 -2.421875 11.046875 -2.421875q0.921875 0.000000 2.046875 0.125000q1.125000 0.109375 2.484375 0.359375z"/>
<path id="c_01d93a582460e35a7945ca50d148ffeb" d="M34.281250 -27.484375q-10.890625 0.000000 -15.093750 2.484375q-4.203125 2.484375 -4.203125 8.500000q0.000000 4.781250 3.156250 7.593750q3.156250 2.796875 8.562500 2.796875q7.484375 0.000000 12.000000 -5.296875q4.515625 -5.296875 4.515625 -14.078125l0.000000 -2.000000zM52.203125 -31.203125l0.000000 31.203125l-8.984375 0.000000l0.000000 -8.296875q-3.078125 4.968750 -7.671875 7.343750q-4.593750 2.375000 -11.234375 2.375000q-8.390625 0.000000 -13.359375 -4.718750q-4.953125 -4.718750 -4.953125 -12.625000q0.000000 -9.218750 6.171875 -13.906250q6.187500 -4.687500 18.437500 -4.687500l12.609375 0.000000l0.000000 -0.890625q0.000000 -6.203125 -4.078125 -9.593750q-4.078125 -3.390625 -11.453125 -3.390625q-4.687500 0.000000 -9.140625 1.125000q-4.437500 1.125000 -8.531250 3.375000l0.000000 -8.312500q4.921875 -1.906250 9.562500 -2.843750q4.640625 -0.953125 9.031250 -0.953125q11.875000 0.000000 17.734375 6.156250q5.859375 6.140625 5.859375 18.640625"/>
<path id="c_0f8c41144cfbf448378cb6fd1cc8e549" d="M18.312500 -70.218750l0.000000 15.531250l18.500000 0.000000l0.000000 6.984375l-18.500000 0.000000l0.000000 29.687500q0.000000 6.687500 1.828125 8.593750q1.828125 1.906250 7.453125 1.906250l9.218750 0.000000l0.000000 7.515625l-9.218750 0.000000q-10.406250 0.000000 -14.359375 -3.875000q-3.953125 -3.890625 -3.953125 -14.140625l0.000000 -29.687500l-6.593750 0.000000l0.000000 -6.984375l6.593750 0.000000l0.000000 -15.531250z"/>
<path id="c_3b515ad41f960e225ec85275856806ca" d="M8.500000 -21.578125l0.000000 -33.109375l8.984375 0.000000l0.000000 32.765625q0.000000 7.765625 3.015625 11.656250q3.031250 3.875000 9.093750 3.875000q7.265625 0.000000 11.484375 -4.640625q4.234375 -4.640625 4.234375 -12.656250l0.000000 -31.000000l8.984375 0.000000l0.000000 54.687500l-8.984375 0.000000l0.000000 -8.406250q-3.265625 4.984375 -7.593750 7.406250q-4.312500 2.421875 -10.031250 2.421875q-9.421875 0.000000 -14.312500 -5.859375q-4.875000 -5.859375 -4.875000 -17.140625M31.109375 -56.000000z"/>
<path id="c_d41d8cd98f00b204e9800998ecf8427e" d=""/>
<path id="c_1a1d9ef1e4ddee695bd67a282879f099" d="M8.593750 -75.984375l20.703125 0.000000l0.000000 6.984375l-11.718750 0.000000l0.000000 75.203125l11.718750 0.000000l0.000000 6.984375l-20.703125 0.000000z"/>
<path id="c_7aecf22c350a602b3f972fa102c17cac" d="M9.812500 -72.906250l9.859375 0.000000l0.000000 30.812500l32.718750 -30.812500l12.703125 0.000000l-36.187500 33.984375l38.765625 38.921875l-12.984375 0.000000l-35.015625 -35.109375l0.000000 35.109375l-9.859375 0.000000z"/>
<path id="c_5bcf09947f6bf611091602c6fea1d302" d="M30.421875 -75.984375l0.000000 89.171875l-20.703125 0.000000l0.000000 -6.984375l11.671875 0.000000l0.000000 -75.203125l-11.671875 0.000000l0.000000 -6.984375z"/>
</defs>
<g style="fill: #000000; opacity: 1.000000" transform="translate(505.949154,566.834262)rotate(-14.9)scale(0.120000)">
<use xlink:href="#c_9e4b30cbdf32072672ded72e9074c4c9"/>
<use xlink:href="#c_0bce5afba2dc6b9024b26277c38ad8e8" x="44.083984"/>
<use xlink:href="#c_4653c6dfde66c7610eae0911760d3490" x="105.607422"/>
<use xlink:href="#c_f15a64fcd463ef4629c48bab42cde24c" x="203.019531"/>
<use xlink:href="#c_0bce5afba2dc6b9024b26277c38ad8e8" x="266.496094"/>
<use xlink:href="#c_6ec8d5749226675394676a5d2a3b468b" x="328.019531"/>
<use xlink:href="#c_01d93a582460e35a7945ca50d148ffeb" x="369.132812"/>
<use xlink:href="#c_0f8c41144cfbf448378cb6fd1cc8e549" x="430.412109"/>
<use xlink:href="#c_3b515ad41f960e225ec85275856806ca" x="469.621094"/>
<use xlink:href="#c_6ec8d5749226675394676a5d2a3b468b" x="533.000000"/>
<use xlink:href="#c_0bce5afba2dc6b9024b26277c38ad8e8" x="571.863281"/>
<use xlink:href="#c_d41d8cd98f00b204e9800998ecf8427e" x="633.386719"/>
<use xlink:href="#c_1a1d9ef1e4ddee695bd67a282879f099" x="665.173828"/>
<use xlink:href="#c_7aecf22c350a602b3f972fa102c17cac" x="704.187500"/>
<use xlink:href="#c_5bcf09947f6bf611091602c6fea1d302" x="769.763672"/>
</g>
</g>
<g id="Line3DCollection1">
<defs>
<path id="coll0_0_dc86cb83b6fb5d5739d0eb410ee98748" d="M377.412568 -77.737871L147.984745 -177.954789L141.101217 -503.584883"/>
<path id="coll0_1_a030c5e006100ea2fa68b9ecaec327d6" d="M444.753923 -93.151581L212.681476 -191.077652L207.865902 -513.407177"/>
<path id="coll0_2_77fe1be028671b2040ec758405d38880" d="M510.504180 -108.201106L275.965818 -203.914031L273.128734 -523.008522"/>
<path id="coll0_3_0f0a630a3b01c3abbb6d16b7d79fd1bb" d="M574.719073 -122.899202L337.883523 -216.473206L336.939823 -532.396288"/>
<path id="coll0_4_09a1b4d3befad26d1c5c8b24bba55868" d="M637.451760 -137.258038L398.478388 -228.764061L399.347079 -541.577526"/>
</defs>
<use style="fill: none; stroke: #e6e6e6; stroke-width: 1.000000; stroke-linejoin: round; stroke-linecap: butt;  opacity: 1.000000" xlink:href="#coll0_0_dc86cb83b6fb5d5739d0eb410ee98748" x="0.000000" y="617.400000"/>
<use style="fill: none; stroke: #e6e6e6; stroke-width: 1.000000; stroke-linejoin: round; stroke-linecap: butt;  opacity: 1.000000" xlink:href="#coll0_1_a030c5e006100ea2fa68b9ecaec327d6" x="0.000000" y="617.400000"/>
<use style="fill: none; stroke: #e6e6e6; stroke-width: 1.000000; stroke-linejoin: round; stroke-linecap: butt;  opacity: 1.000000" xlink:href="#coll0_2_77fe1be028671b2040ec758405d38880" x="0.000000" y="617.400000"/>
<use style="fill: none; stroke: #e6e6e6; stroke-width: 1.000000; stroke-linejoin: round; stroke-linecap: butt;  opacity: 1.000000" xlink:href="#coll0_3_0f0a630a3b01c3abbb6d16b7d79fd1bb" x="0.000000" y="617.400000"/>
<use style="fill: none; stroke: #e6e6e6; stroke-width: 1.000000; stroke-linejoin: round; stroke-linecap: butt;  opacity: 1.000000" xlink:href="#coll0_4_09a1b4d3befad26d1c5c8b24bba55868" x="0.000000" y="617.400000"/>
</g>
<g id="xtick1">
<g id="line2d2">
<path style="fill: none; stroke: #000000; stroke-width: 1.000000; stroke-linejoin: round; stroke-linecap: square;  opacity: 1.000000"  d="M375.423798 538.793409L381.398164 541.403086"/>
</g>
<g id="text2">
<defs>
<path id="c_42baa63129a918535c52adb20d687ea7" d="M12.406250 -8.296875l16.109375 0.000000l0.000000 -55.625000l-17.531250 3.515625l0.000000 -8.984375l17.437500 -3.515625l9.859375 0.000000l0.000000 64.609375l16.109375 0.000000l0.000000 8.296875l-41.984375 0.000000z"/>
<path id="c_7a2040fe3b94fcd41d0a72c84e93b115" d="M31.781250 -66.406250q-7.609375 0.000000 -11.453125 7.500000q-3.828125 7.484375 -3.828125 22.531250q0.000000 14.984375 3.828125 22.484375q3.843750 7.500000 11.453125 7.500000q7.671875 0.000000 11.500000 -7.500000q3.843750 -7.500000 3.843750 -22.484375q0.000000 -15.046875 -3.843750 -22.531250q-3.828125 -7.500000 -11.500000 -7.500000M31.781250 -74.218750q12.265625 0.000000 18.734375 9.703125q6.468750 9.687500 6.468750 28.140625q0.000000 18.406250 -6.468750 28.109375q-6.468750 9.687500 -18.734375 9.687500q-12.250000 0.000000 -18.718750 -9.687500q-6.468750 -9.703125 -6.468750 -28.109375q0.000000 -18.453125 6.468750 -28.140625q6.468750 -9.703125 18.718750 -9.703125"/>
</defs>
<g style="fill: #000000; opacity: 1.000000" transform="translate(378.963791,570.116451)scale(0.120000)">
<use xlink:href="#c_42baa63129a918535c52adb20d687ea7"/>
<use xlink:href="#c_7a2040fe3b94fcd41d0a72c84e93b115" x="63.623047"/>
<use xlink:href="#c_7a2040fe3b94fcd41d0a72c84e93b115" x="127.246094"/>
</g>
</g>
</g>
<g id="xtick2">
<g id="line2d3">
<path style="fill: none; stroke: #000000; stroke-width: 1.000000; stroke-linejoin: round; stroke-linecap: square;  opacity: 1.000000"  d="M442.744081 523.400340L448.781649 525.947972"/>
</g>
<g id="text3">
<defs>
<path id="c_1260a2df50f305f3db244e29828f968e" d="M10.796875 -72.906250l38.718750 0.000000l0.000000 8.312500l-29.687500 0.000000l0.000000 17.859375q2.140625 -0.734375 4.281250 -1.093750q2.156250 -0.359375 4.312500 -0.359375q12.203125 0.000000 19.328125 6.687500q7.140625 6.687500 7.140625 18.109375q0.000000 11.765625 -7.328125 18.296875q-7.328125 6.515625 -20.656250 6.515625q-4.593750 0.000000 -9.359375 -0.781250q-4.750000 -0.781250 -9.828125 -2.343750l0.000000 -9.921875q4.390625 2.390625 9.078125 3.562500q4.687500 1.171875 9.906250 1.171875q8.453125 0.000000 13.375000 -4.437500q4.937500 -4.437500 4.937500 -12.062500q0.000000 -7.609375 -4.937500 -12.046875q-4.921875 -4.453125 -13.375000 -4.453125q-3.953125 0.000000 -7.890625 0.875000q-3.921875 0.875000 -8.015625 2.734375z"/>
</defs>
<g style="fill: #000000; opacity: 1.000000" transform="translate(446.326943,554.406716)scale(0.120000)">
<use xlink:href="#c_42baa63129a918535c52adb20d687ea7"/>
<use xlink:href="#c_1260a2df50f305f3db244e29828f968e" x="63.623047"/>
<use xlink:href="#c_7a2040fe3b94fcd41d0a72c84e93b115" x="127.246094"/>
</g>
</g>
</g>
<g id="xtick3">
<g id="line2d4">
<path style="fill: none; stroke: #000000; stroke-width: 1.000000; stroke-linejoin: round; stroke-linecap: square;  opacity: 1.000000"  d="M508.474812 508.370728L514.570943 510.858502"/>
</g>
<g id="text4">
<defs>
<path id="c_ed3f3ed3ebfbd18bcb9c012009a68ad1" d="M19.187500 -8.296875l34.421875 0.000000l0.000000 8.296875l-46.281250 0.000000l0.000000 -8.296875q5.609375 -5.812500 15.296875 -15.593750q9.703125 -9.796875 12.187500 -12.640625q4.734375 -5.312500 6.609375 -9.000000q1.890625 -3.687500 1.890625 -7.250000q0.000000 -5.812500 -4.078125 -9.468750q-4.078125 -3.671875 -10.625000 -3.671875q-4.640625 0.000000 -9.796875 1.609375q-5.140625 1.609375 -11.000000 4.890625l0.000000 -9.968750q5.953125 -2.390625 11.125000 -3.609375q5.187500 -1.218750 9.484375 -1.218750q11.328125 0.000000 18.062500 5.671875q6.734375 5.656250 6.734375 15.125000q0.000000 4.500000 -1.687500 8.531250q-1.671875 4.015625 -6.125000 9.484375q-1.218750 1.421875 -7.765625 8.187500q-6.531250 6.765625 -18.453125 18.921875"/>
</defs>
<g style="fill: #000000; opacity: 1.000000" transform="translate(511.875877,539.069059)scale(0.120000)">
<use xlink:href="#c_ed3f3ed3ebfbd18bcb9c012009a68ad1"/>
<use xlink:href="#c_7a2040fe3b94fcd41d0a72c84e93b115" x="63.623047"/>
<use xlink:href="#c_7a2040fe3b94fcd41d0a72c84e93b115" x="127.246094"/>
</g>
</g>
</g>
<g id="xtick4">
<g id="line2d5">
<path style="fill: none; stroke: #000000; stroke-width: 1.000000; stroke-linejoin: round; stroke-linecap: square;  opacity: 1.000000"  d="M572.671632 493.691851L578.821960 496.121853"/>
</g>
<g id="text5">
<g style="fill: #000000; opacity: 1.000000" transform="translate(576.104112,524.090416)scale(0.120000)">
<use xlink:href="#c_ed3f3ed3ebfbd18bcb9c012009a68ad1"/>
<use xlink:href="#c_1260a2df50f305f3db244e29828f968e" x="63.623047"/>
<use xlink:href="#c_7a2040fe3b94fcd41d0a72c84e93b115" x="127.246094"/>
</g>
</g>
</g>
<g id="xtick5">
<g id="line2d6">
<path style="fill: none; stroke: #000000; stroke-width: 1.000000; stroke-linejoin: round; stroke-linecap: square;  opacity: 1.000000"  d="M635.387615 479.351574L641.588026 481.725792"/>
</g>
<g id="text6">
<defs>
<path id="c_3dcfa38a02242cb63ec6726c6e70be7a" d="M40.578125 -39.312500q7.078125 1.515625 11.046875 6.312500q3.984375 4.781250 3.984375 11.812500q0.000000 10.781250 -7.421875 16.703125q-7.421875 5.906250 -21.093750 5.906250q-4.578125 0.000000 -9.437500 -0.906250q-4.859375 -0.906250 -10.031250 -2.718750l0.000000 -9.515625q4.093750 2.390625 8.968750 3.609375q4.890625 1.218750 10.218750 1.218750q9.265625 0.000000 14.125000 -3.656250q4.859375 -3.656250 4.859375 -10.640625q0.000000 -6.453125 -4.515625 -10.078125q-4.515625 -3.640625 -12.562500 -3.640625l-8.500000 0.000000l0.000000 -8.109375l8.890625 0.000000q7.265625 0.000000 11.125000 -2.906250q3.859375 -2.906250 3.859375 -8.375000q0.000000 -5.609375 -3.984375 -8.609375q-3.968750 -3.015625 -11.390625 -3.015625q-4.062500 0.000000 -8.703125 0.890625q-4.640625 0.875000 -10.203125 2.718750l0.000000 -8.781250q5.625000 -1.562500 10.531250 -2.343750q4.906250 -0.781250 9.250000 -0.781250q11.234375 0.000000 17.765625 5.109375q6.546875 5.093750 6.546875 13.781250q0.000000 6.062500 -3.468750 10.234375q-3.468750 4.171875 -9.859375 5.781250"/>
</defs>
<g style="fill: #000000; opacity: 1.000000" transform="translate(638.869762,509.458328)scale(0.120000)">
<use xlink:href="#c_3dcfa38a02242cb63ec6726c6e70be7a"/>
<use xlink:href="#c_7a2040fe3b94fcd41d0a72c84e93b115" x="63.623047"/>
<use xlink:href="#c_7a2040fe3b94fcd41d0a72c84e93b115" x="127.246094"/>
</g>
</g>
</g>
</g>
<g id="axis3d2">
<g id="patch4">
<path style="fill: #e6e6e6; stroke: #e6e6e6; stroke-width: 1.000000; stroke-linejoin: round; stroke-linecap: square;  opacity: 0.500000"  d="M93.991013 450.397115L411.262518 386.042850L412.508462 73.886197
L85.346536 122.017640"/>
</g>
<g id="line2d7">
<path style="fill: none; stroke: #000000; stroke-width: 0.750000; stroke-linejoin: round; stroke-linecap: square;  opacity: 1.000000"  d="M93.991013 450.397115L321.115751 552.547863"/>
</g>
<g id="text7">
<defs>
<path id="c_ff9441f72805bc441fcb0bfe0d774f13" d="M19.671875 -64.796875l0.000000 56.687500l11.921875 0.000000q15.093750 0.000000 22.093750 -6.828125q7.000000 -6.843750 7.000000 -21.593750q0.000000 -14.640625 -7.000000 -21.453125q-7.000000 -6.812500 -22.093750 -6.812500zM9.812500 -72.906250l20.265625 0.000000q21.187500 0.000000 31.093750 8.812500q9.921875 8.812500 9.921875 27.562500q0.000000 18.859375 -9.968750 27.703125q-9.953125 8.828125 -31.046875 8.828125l-20.265625 0.000000z"/>
<path id="c_fe791a90f5471e2ab20a5ed41a7fa451" d="M54.890625 -33.015625l0.000000 33.015625l-8.984375 0.000000l0.000000 -32.718750q0.000000 -7.765625 -3.031250 -11.609375q-3.031250 -3.859375 -9.078125 -3.859375q-7.281250 0.000000 -11.484375 4.640625q-4.203125 4.625000 -4.203125 12.640625l0.000000 30.906250l-9.031250 0.000000l0.000000 -54.687500l9.031250 0.000000l0.000000 8.500000q3.234375 -4.937500 7.593750 -7.375000q4.375000 -2.437500 10.093750 -2.437500q9.421875 0.000000 14.250000 5.828125q4.843750 5.828125 4.843750 17.156250"/>
<path id="c_8e0810ad13fe20a2a87a2619799b154d" d="M44.281250 -53.078125l0.000000 8.500000q-3.796875 -1.953125 -7.906250 -2.921875q-4.093750 -0.984375 -8.500000 -0.984375q-6.687500 0.000000 -10.031250 2.046875q-3.343750 2.046875 -3.343750 6.156250q0.000000 3.125000 2.390625 4.906250q2.390625 1.781250 9.625000 3.390625l3.078125 0.687500q9.562500 2.046875 13.593750 5.781250q4.031250 3.734375 4.031250 10.421875q0.000000 7.625000 -6.031250 12.078125q-6.031250 4.437500 -16.578125 4.437500q-4.390625 0.000000 -9.156250 -0.859375q-4.765625 -0.859375 -10.031250 -2.562500l0.000000 -9.281250q4.984375 2.593750 9.812500 3.890625q4.828125 1.281250 9.578125 1.281250q6.343750 0.000000 9.750000 -2.171875q3.421875 -2.171875 3.421875 -6.125000q0.000000 -3.656250 -2.468750 -5.609375q-2.453125 -1.953125 -10.812500 -3.765625l-3.125000 -0.734375q-8.343750 -1.750000 -12.062500 -5.390625q-3.703125 -3.640625 -3.703125 -9.984375q0.000000 -7.718750 5.468750 -11.906250q5.468750 -4.203125 15.531250 -4.203125q4.968750 0.000000 9.359375 0.734375q4.406250 0.718750 8.109375 2.187500"/>
<path id="c_6a63bda47b2f3da1cec6aadd80692cfe" d="M9.421875 -54.687500l8.984375 0.000000l0.000000 54.687500l-8.984375 0.000000zM9.421875 -75.984375l8.984375 0.000000l0.000000 11.390625l-8.984375 0.000000z"/>
<path id="c_3fe22c4af425ac970aec982ae9662abe" d="M32.171875 5.078125q-3.796875 9.765625 -7.421875 12.734375q-3.609375 2.984375 -9.656250 2.984375l-7.187500 0.000000l0.000000 -7.515625l5.281250 0.000000q3.703125 0.000000 5.750000 -1.765625q2.062500 -1.750000 4.546875 -8.296875l1.609375 -4.093750l-22.109375 -53.812500l9.515625 0.000000l17.093750 42.765625l17.093750 -42.765625l9.515625 0.000000z"/>
<path id="c_f05dd90d41f04bb96ef1ca503cc2044b" d="M30.609375 -48.390625q-7.218750 0.000000 -11.421875 5.640625q-4.203125 5.640625 -4.203125 15.453125q0.000000 9.812500 4.171875 15.453125q4.187500 5.640625 11.453125 5.640625q7.187500 0.000000 11.375000 -5.656250q4.203125 -5.671875 4.203125 -15.437500q0.000000 -9.718750 -4.203125 -15.406250q-4.187500 -5.687500 -11.375000 -5.687500M30.609375 -56.000000q11.718750 0.000000 18.406250 7.625000q6.703125 7.609375 6.703125 21.078125q0.000000 13.421875 -6.703125 21.078125q-6.687500 7.640625 -18.406250 7.640625q-11.765625 0.000000 -18.437500 -7.640625q-6.656250 -7.656250 -6.656250 -21.078125q0.000000 -13.468750 6.656250 -21.078125q6.671875 -7.625000 18.437500 -7.625000"/>
<path id="c_5099edb83619131346ae654950954dea" d="M9.421875 -75.984375l8.984375 0.000000l0.000000 75.984375l-8.984375 0.000000z"/>
<path id="c_9c6d5cbc59c6231647eb409cc6b37bb3" d="M25.390625 -72.906250l8.296875 0.000000l-25.390625 82.187500l-8.296875 0.000000z"/>
</defs>
<g style="fill: #000000; opacity: 1.000000" transform="translate(103.133859,512.912327)rotate(-332.4)scale(0.120000)">
<use xlink:href="#c_ff9441f72805bc441fcb0bfe0d774f13"/>
<use xlink:href="#c_0bce5afba2dc6b9024b26277c38ad8e8" x="77.001953"/>
<use xlink:href="#c_fe791a90f5471e2ab20a5ed41a7fa451" x="138.525391"/>
<use xlink:href="#c_8e0810ad13fe20a2a87a2619799b154d" x="201.904297"/>
<use xlink:href="#c_6a63bda47b2f3da1cec6aadd80692cfe" x="254.003906"/>
<use xlink:href="#c_0f8c41144cfbf448378cb6fd1cc8e549" x="281.787109"/>
<use xlink:href="#c_3fe22c4af425ac970aec982ae9662abe" x="320.996094"/>
<use xlink:href="#c_d41d8cd98f00b204e9800998ecf8427e" x="380.175781"/>
<use xlink:href="#c_1a1d9ef1e4ddee695bd67a282879f099" x="411.962891"/>
<use xlink:href="#c_4653c6dfde66c7610eae0911760d3490" x="450.976563"/>
<use xlink:href="#c_f05dd90d41f04bb96ef1ca503cc2044b" x="548.388672"/>
<use xlink:href="#c_5099edb83619131346ae654950954dea" x="609.570312"/>
<use xlink:href="#c_9c6d5cbc59c6231647eb409cc6b37bb3" x="637.353516"/>
<use xlink:href="#c_5099edb83619131346ae654950954dea" x="671.044922"/>
<use xlink:href="#c_5bcf09947f6bf611091602c6fea1d302" x="698.828125"/>
</g>
</g>
<g id="Line3DCollection2">
<defs>
<path id="coll1_0_0ee89da9a059eeb937096925e138bbc3" d="M654.012904 -476.923168L645.165442 -142.379346L315.867511 -67.212565"/>
<path id="coll1_1_2e33e744ecbc3de7b68d9098a623e6e6" d="M614.423615 -487.839223L606.896798 -156.936924L279.431207 -83.600017"/>
<path id="coll1_2_c5acf36570c46e7a9c19c23723d1b626" d="M575.793557 -498.490788L569.527252 -171.152479L243.902185 -99.579413"/>
<path id="coll1_3_71a7a4b8cc2f60cf39258fb553d3a0f4" d="M538.088285 -508.887358L533.025488 -185.037927L209.246975 -115.165807"/>
<path id="coll1_4_d44ba7ded5d26290b963916a4076f78e" d="M501.274983 -519.037984L497.361625 -198.604633L175.433731 -130.373522"/>
<path id="coll1_5_cb31dd364623a5f8edddf70cf8600c64" d="M465.322371 -528.951290L462.507139 -211.863448L142.432138 -145.216191"/>
<path id="coll1_6_0ac4ea57d06b63b9c76d19584903913d" d="M430.200612 -538.635502L428.434787 -224.824736L110.213318 -159.706803"/>
</defs>
<use style="fill: none; stroke: #e6e6e6; stroke-width: 1.000000; stroke-linejoin: round; stroke-linecap: butt;  opacity: 1.000000" xlink:href="#coll1_0_0ee89da9a059eeb937096925e138bbc3" x="0.000000" y="617.400000"/>
<use style="fill: none; stroke: #e6e6e6; stroke-width: 1.000000; stroke-linejoin: round; stroke-linecap: butt;  opacity: 1.000000" xlink:href="#coll1_1_2e33e744ecbc3de7b68d9098a623e6e6" x="0.000000" y="617.400000"/>
<use style="fill: none; stroke: #e6e6e6; stroke-width: 1.000000; stroke-linejoin: round; stroke-linecap: butt;  opacity: 1.000000" xlink:href="#coll1_2_c5acf36570c46e7a9c19c23723d1b626" x="0.000000" y="617.400000"/>
<use style="fill: none; stroke: #e6e6e6; stroke-width: 1.000000; stroke-linejoin: round; stroke-linecap: butt;  opacity: 1.000000" xlink:href="#coll1_3_71a7a4b8cc2f60cf39258fb553d3a0f4" x="0.000000" y="617.400000"/>
<use style="fill: none; stroke: #e6e6e6; stroke-width: 1.000000; stroke-linejoin: round; stroke-linecap: butt;  opacity: 1.000000" xlink:href="#coll1_4_d44ba7ded5d26290b963916a4076f78e" x="0.000000" y="617.400000"/>
<use style="fill: none; stroke: #e6e6e6; stroke-width: 1.000000; stroke-linejoin: round; stroke-linecap: butt;  opacity: 1.000000" xlink:href="#coll1_5_cb31dd364623a5f8edddf70cf8600c64" x="0.000000" y="617.400000"/>
<use style="fill: none; stroke: #e6e6e6; stroke-width: 1.000000; stroke-linejoin: round; stroke-linecap: butt;  opacity: 1.000000" xlink:href="#coll1_6_0ac4ea57d06b63b9c76d19584903913d" x="0.000000" y="617.400000"/>
</g>
<g id="xtick6">
<g id="line2d8">
<path style="fill: none; stroke: #000000; stroke-width: 1.000000; stroke-linejoin: round; stroke-linecap: square;  opacity: 1.000000"  d="M318.662212 549.549506L310.269868 551.465174"/>
</g>
<g id="text8">
<g style="fill: #000000; opacity: 1.000000" transform="translate(296.129382,579.345880)scale(0.120000)">
<use xlink:href="#c_7a2040fe3b94fcd41d0a72c84e93b115"/>
</g>
</g>
</g>
<g id="xtick7">
<g id="line2d9">
<path style="fill: none; stroke: #000000; stroke-width: 1.000000; stroke-linejoin: round; stroke-linecap: square;  opacity: 1.000000"  d="M282.208348 533.178034L273.868838 535.045692"/>
</g>
<g id="text9">
<g style="fill: #000000; opacity: 1.000000" transform="translate(260.042481,562.524424)scale(0.120000)">
<use xlink:href="#c_1260a2df50f305f3db244e29828f968e"/>
</g>
</g>
</g>
<g id="xtick8">
<g id="line2d10">
<path style="fill: none; stroke: #000000; stroke-width: 1.000000; stroke-linejoin: round; stroke-linecap: square;  opacity: 1.000000"  d="M246.661769 517.214025L238.375082 519.035456"/>
</g>
<g id="text10">
<g style="fill: #000000; opacity: 1.000000" transform="translate(220.922533,546.430993)scale(0.120000)">
<use xlink:href="#c_42baa63129a918535c52adb20d687ea7"/>
<use xlink:href="#c_7a2040fe3b94fcd41d0a72c84e93b115" x="63.623047"/>
</g>
</g>
</g>
<g id="xtick9">
<g id="line2d11">
<path style="fill: none; stroke: #000000; stroke-width: 1.000000; stroke-linejoin: round; stroke-linecap: square;  opacity: 1.000000"  d="M211.989021 501.642453L203.755095 503.419352"/>
</g>
<g id="text11">
<g style="fill: #000000; opacity: 1.000000" transform="translate(186.548627,530.425236)scale(0.120000)">
<use xlink:href="#c_42baa63129a918535c52adb20d687ea7"/>
<use xlink:href="#c_1260a2df50f305f3db244e29828f968e" x="63.623047"/>
</g>
</g>
</g>
<g id="xtick10">
<g id="line2d12">
<path style="fill: none; stroke: #000000; stroke-width: 1.000000; stroke-linejoin: round; stroke-linecap: square;  opacity: 1.000000"  d="M178.158271 486.449025L169.977006 488.183005"/>
</g>
<g id="text12">
<g style="fill: #000000; opacity: 1.000000" transform="translate(152.545229,515.117551)scale(0.120000)">
<use xlink:href="#c_ed3f3ed3ebfbd18bcb9c012009a68ad1"/>
<use xlink:href="#c_7a2040fe3b94fcd41d0a72c84e93b115" x="63.623047"/>
</g>
</g>
</g>
<g id="xtick11">
<g id="line2d13">
<path style="fill: none; stroke: #000000; stroke-width: 1.000000; stroke-linejoin: round; stroke-linecap: square;  opacity: 1.000000"  d="M145.139218 471.620130L137.010474 473.312729"/>
</g>
<g id="text13">
<g style="fill: #000000; opacity: 1.000000" transform="translate(119.819582,500.025289)scale(0.120000)">
<use xlink:href="#c_ed3f3ed3ebfbd18bcb9c012009a68ad1"/>
<use xlink:href="#c_1260a2df50f305f3db244e29828f968e" x="63.623047"/>
</g>
</g>
</g>
<g id="xtick12">
<g id="line2d14">
<path style="fill: none; stroke: #000000; stroke-width: 1.000000; stroke-linejoin: round; stroke-linecap: square;  opacity: 1.000000"  d="M112.902996 457.142805L104.826597 458.795486"/>
</g>
<g id="text14">
<g style="fill: #000000; opacity: 1.000000" transform="translate(87.647553,485.291457)scale(0.120000)">
<use xlink:href="#c_3dcfa38a02242cb63ec6726c6e70be7a"/>
<use xlink:href="#c_7a2040fe3b94fcd41d0a72c84e93b115" x="63.623047"/>
</g>
</g>
</g>
</g>
<g id="axis3d3">
<g id="patch5">
<path style="fill: #ececec; stroke: #ececec; stroke-width: 1.000000; stroke-linejoin: round; stroke-linecap: square;  opacity: 0.500000"  d="M321.115751 552.547863L650.673013 477.115760L411.262518 386.042850
L93.991013 450.397115"/>
</g>
<g id="line2d15">
<path style="fill: none; stroke: #000000; stroke-width: 0.750000; stroke-linejoin: round; stroke-linecap: square;  opacity: 1.000000"  d="M93.991013 450.397115L85.346536 122.017640"/>
</g>
<g id="text15">
<defs>
<path id="c_518d586bee075aa0153eaebfcb5ab11f" d="M19.671875 -64.796875l0.000000 27.390625l12.406250 0.000000q6.890625 0.000000 10.640625 -3.562500q3.765625 -3.562500 3.765625 -10.156250q0.000000 -6.546875 -3.765625 -10.109375q-3.750000 -3.562500 -10.640625 -3.562500zM9.812500 -72.906250l22.265625 0.000000q12.265625 0.000000 18.531250 5.546875q6.281250 5.546875 6.281250 16.234375q0.000000 10.796875 -6.281250 16.312500q-6.265625 5.515625 -18.531250 5.515625l-12.406250 0.000000l0.000000 29.296875l-9.859375 0.000000z"/>
<path id="c_5cc9741494d2ad8f9764e03ae145569f" d="M48.687500 -27.296875q0.000000 -9.906250 -4.078125 -15.546875q-4.078125 -5.640625 -11.203125 -5.640625q-7.140625 0.000000 -11.218750 5.640625q-4.078125 5.640625 -4.078125 15.546875q0.000000 9.906250 4.078125 15.546875q4.078125 5.640625 11.218750 5.640625q7.125000 0.000000 11.203125 -5.640625q4.078125 -5.640625 4.078125 -15.546875M18.109375 -46.390625q2.843750 -4.875000 7.156250 -7.234375q4.328125 -2.375000 10.328125 -2.375000q9.968750 0.000000 16.187500 7.906250q6.234375 7.906250 6.234375 20.796875q0.000000 12.890625 -6.234375 20.812500q-6.218750 7.906250 -16.187500 7.906250q-6.000000 0.000000 -10.328125 -2.375000q-4.312500 -2.375000 -7.156250 -7.250000l0.000000 8.203125l-9.031250 0.000000l0.000000 -75.984375l9.031250 0.000000z"/>
</defs>
<g style="fill: #000000; opacity: 1.000000" transform="translate(24.991943,209.069714)rotate(-271.3)scale(0.120000)">
<use xlink:href="#c_518d586bee075aa0153eaebfcb5ab11f"/>
<use xlink:href="#c_6ec8d5749226675394676a5d2a3b468b" x="58.552734"/>
<use xlink:href="#c_0bce5afba2dc6b9024b26277c38ad8e8" x="97.416016"/>
<use xlink:href="#c_8e0810ad13fe20a2a87a2619799b154d" x="158.939453"/>
<use xlink:href="#c_8e0810ad13fe20a2a87a2619799b154d" x="211.039062"/>
<use xlink:href="#c_3b515ad41f960e225ec85275856806ca" x="263.138672"/>
<use xlink:href="#c_6ec8d5749226675394676a5d2a3b468b" x="326.517578"/>
<use xlink:href="#c_0bce5afba2dc6b9024b26277c38ad8e8" x="365.380859"/>
<use xlink:href="#c_d41d8cd98f00b204e9800998ecf8427e" x="426.904297"/>
<use xlink:href="#c_1a1d9ef1e4ddee695bd67a282879f099" x="458.691406"/>
<use xlink:href="#c_5cc9741494d2ad8f9764e03ae145569f" x="497.705078"/>
<use xlink:href="#c_01d93a582460e35a7945ca50d148ffeb" x="561.181641"/>
<use xlink:href="#c_6ec8d5749226675394676a5d2a3b468b" x="622.460937"/>
<use xlink:href="#c_5bcf09947f6bf611091602c6fea1d302" x="663.574219"/>
</g>
</g>
<g id="Line3DCollection3">
<defs>
<path id="coll2_0_5e736dbf83e32ddd744033b934261e62" d="M93.812096 -173.799436L411.288348 -237.828588L650.859988 -147.214460"/>
<path id="coll2_1_46f5366594f901eb49ed7d7a0cc717be" d="M92.111650 -238.394629L411.533751 -299.311357L652.637292 -213.090076"/>
<path id="coll2_2_15c244686eaca279e34705958b9a8518" d="M90.390079 -303.792296L411.782037 -361.516468L654.437174 -279.802537"/>
<path id="coll2_3_7f90035c32f68073deea05328ab21c30" d="M88.646987 -370.007484L412.033257 -424.456725L656.260066 -347.367892"/>
<path id="coll2_4_622ddc9d63a4b72c7c4d318b427c5dc9" d="M86.881968 -437.055619L412.287463 -488.145239L658.106414 -415.802602"/>
</defs>
<use style="fill: none; stroke: #e6e6e6; stroke-width: 1.000000; stroke-linejoin: round; stroke-linecap: butt;  opacity: 1.000000" xlink:href="#coll2_0_5e736dbf83e32ddd744033b934261e62" x="0.000000" y="617.400000"/>
<use style="fill: none; stroke: #e6e6e6; stroke-width: 1.000000; stroke-linejoin: round; stroke-linecap: butt;  opacity: 1.000000" xlink:href="#coll2_1_46f5366594f901eb49ed7d7a0cc717be" x="0.000000" y="617.400000"/>
<use style="fill: none; stroke: #e6e6e6; stroke-width: 1.000000; stroke-linejoin: round; stroke-linecap: butt;  opacity: 1.000000" xlink:href="#coll2_2_15c244686eaca279e34705958b9a8518" x="0.000000" y="617.400000"/>
<use style="fill: none; stroke: #e6e6e6; stroke-width: 1.000000; stroke-linejoin: round; stroke-linecap: butt;  opacity: 1.000000" xlink:href="#coll2_3_7f90035c32f68073deea05328ab21c30" x="0.000000" y="617.400000"/>
<use style="fill: none; stroke: #e6e6e6; stroke-width: 1.000000; stroke-linejoin: round; stroke-linecap: butt;  opacity: 1.000000" xlink:href="#coll2_4_622ddc9d63a4b72c7c4d318b427c5dc9" x="0.000000" y="617.400000"/>
</g>
<g id="xtick13">
<g id="line2d16">
<path style="fill: none; stroke: #000000; stroke-width: 1.000000; stroke-linejoin: round; stroke-linecap: square;  opacity: 1.000000"  d="M96.494700 443.059532L88.439579 444.684102"/>
</g>
<g id="text16">
<g style="fill: #000000; opacity: 1.000000" transform="translate(64.660419,451.259850)scale(0.120000)">
<use xlink:href="#c_7a2040fe3b94fcd41d0a72c84e93b115"/>
</g>
</g>
</g>
<g id="xtick14">
<g id="line2d17">
<path style="fill: none; stroke: #000000; stroke-width: 1.000000; stroke-linejoin: round; stroke-linecap: square;  opacity: 1.000000"  d="M94.811583 378.490469L86.704384 380.036586"/>
</g>
<g id="text17">
<g style="fill: #000000; opacity: 1.000000" transform="translate(59.019386,386.724886)scale(0.120000)">
<use xlink:href="#c_ed3f3ed3ebfbd18bcb9c012009a68ad1"/>
<use xlink:href="#c_7a2040fe3b94fcd41d0a72c84e93b115" x="63.623047"/>
</g>
</g>
</g>
<g id="xtick15">
<g id="line2d18">
<path style="fill: none; stroke: #000000; stroke-width: 1.000000; stroke-linejoin: round; stroke-linecap: square;  opacity: 1.000000"  d="M93.107565 313.119626L84.947612 314.585208"/>
</g>
<g id="text18">
<defs>
<path id="c_a0416418d96557a09b8c1332d34883ba" d="M37.796875 -64.312500l-24.906250 38.921875l24.906250 0.000000zM35.203125 -72.906250l12.406250 0.000000l0.000000 47.515625l10.406250 0.000000l0.000000 8.203125l-10.406250 0.000000l0.000000 17.187500l-9.812500 0.000000l0.000000 -17.187500l-32.906250 0.000000l0.000000 -9.515625z"/>
</defs>
<g style="fill: #000000; opacity: 1.000000" transform="translate(56.995897,321.389045)scale(0.120000)">
<use xlink:href="#c_a0416418d96557a09b8c1332d34883ba"/>
<use xlink:href="#c_7a2040fe3b94fcd41d0a72c84e93b115" x="63.623047"/>
</g>
</g>
</g>
<g id="xtick16">
<g id="line2d19">
<path style="fill: none; stroke: #000000; stroke-width: 1.000000; stroke-linejoin: round; stroke-linecap: square;  opacity: 1.000000"  d="M91.382256 246.931973L83.168858 248.314881"/>
</g>
<g id="text19">
<defs>
<path id="c_cc8d6d580d1b10c8632f7a42cd53db8a" d="M33.015625 -40.375000q-6.640625 0.000000 -10.531250 4.546875q-3.875000 4.531250 -3.875000 12.437500q0.000000 7.859375 3.875000 12.437500q3.890625 4.562500 10.531250 4.562500q6.640625 0.000000 10.515625 -4.562500q3.875000 -4.578125 3.875000 -12.437500q0.000000 -7.906250 -3.875000 -12.437500q-3.875000 -4.546875 -10.515625 -4.546875M52.593750 -71.296875l0.000000 8.984375q-3.718750 -1.750000 -7.500000 -2.671875q-3.781250 -0.937500 -7.500000 -0.937500q-9.765625 0.000000 -14.921875 6.593750q-5.140625 6.593750 -5.875000 19.921875q2.875000 -4.250000 7.218750 -6.515625q4.359375 -2.265625 9.578125 -2.265625q10.984375 0.000000 17.359375 6.671875q6.375000 6.656250 6.375000 18.125000q0.000000 11.234375 -6.640625 18.031250q-6.640625 6.781250 -17.671875 6.781250q-12.656250 0.000000 -19.343750 -9.687500q-6.687500 -9.703125 -6.687500 -28.109375q0.000000 -17.281250 8.203125 -27.562500q8.203125 -10.281250 22.015625 -10.281250q3.718750 0.000000 7.500000 0.734375q3.781250 0.734375 7.890625 2.187500"/>
</defs>
<g style="fill: #000000; opacity: 1.000000" transform="translate(55.214521,255.237325)scale(0.120000)">
<use xlink:href="#c_cc8d6d580d1b10c8632f7a42cd53db8a"/>
<use xlink:href="#c_7a2040fe3b94fcd41d0a72c84e93b115" x="63.623047"/>
</g>
</g>
</g>
<g id="xtick17">
<g id="line2d20">
<path style="fill: none; stroke: #000000; stroke-width: 1.000000; stroke-linejoin: round; stroke-linecap: square;  opacity: 1.000000"  d="M89.635253 179.912107L81.367708 181.210136"/>
</g>
<g id="text20">
<defs>
<path id="c_bef35738d52871942e50b9de9b122bab" d="M31.781250 -34.625000q-7.031250 0.000000 -11.062500 3.765625q-4.015625 3.765625 -4.015625 10.343750q0.000000 6.593750 4.015625 10.359375q4.031250 3.765625 11.062500 3.765625q7.031250 0.000000 11.078125 -3.781250q4.062500 -3.796875 4.062500 -10.343750q0.000000 -6.578125 -4.031250 -10.343750q-4.015625 -3.765625 -11.109375 -3.765625M21.921875 -38.812500q-6.343750 -1.562500 -9.890625 -5.906250q-3.531250 -4.359375 -3.531250 -10.609375q0.000000 -8.734375 6.218750 -13.812500q6.234375 -5.078125 17.062500 -5.078125q10.890625 0.000000 17.093750 5.078125q6.203125 5.078125 6.203125 13.812500q0.000000 6.250000 -3.546875 10.609375q-3.531250 4.343750 -9.828125 5.906250q7.125000 1.656250 11.093750 6.500000q3.984375 4.828125 3.984375 11.796875q0.000000 10.609375 -6.468750 16.281250q-6.468750 5.656250 -18.531250 5.656250q-12.046875 0.000000 -18.531250 -5.656250q-6.468750 -5.671875 -6.468750 -16.281250q0.000000 -6.968750 4.000000 -11.796875q4.015625 -4.843750 11.140625 -6.500000M18.312500 -54.390625q0.000000 5.656250 3.531250 8.828125q3.546875 3.171875 9.937500 3.171875q6.359375 0.000000 9.937500 -3.171875q3.593750 -3.171875 3.593750 -8.828125q0.000000 -5.671875 -3.593750 -8.843750q-3.578125 -3.171875 -9.937500 -3.171875q-6.390625 0.000000 -9.937500 3.171875q-3.531250 3.171875 -3.531250 8.843750"/>
</defs>
<g style="fill: #000000; opacity: 1.000000" transform="translate(53.268565,188.254347)scale(0.120000)">
<use xlink:href="#c_bef35738d52871942e50b9de9b122bab"/>
<use xlink:href="#c_7a2040fe3b94fcd41d0a72c84e93b115" x="63.623047"/>
</g>
</g>
</g>
</g>
<g id="axes1">
<g id="line2d21">
<defs>
  <clipPath id="pc4187b6043a42ef6e656d3a675add9dc">
<rect x="0.000000" y="0.000000" width="719.100000" height="617.400000"/>
  </clipPath>
</defs><path style="fill: none; stroke: #008000; stroke-width: 1.000000; stroke-linejoin: round; stroke-linecap: square;  opacity: 1.000000" clip-path="url(#pc4187b6043a42ef6e656d3a675add9dc)" d="M575.614039 202.014944L573.612111 201.562679L567.684085 201.944221
L561.674472 204.209185L556.117556 207.574830L550.366970 211.998461
L544.140032 217.618815L537.235264 224.668446L528.381799 234.597555
L512.890702 253.442535L469.727386 307.814166L454.146635 326.066445
L439.706586 341.818293L426.193925 355.303408L413.463600 366.858669
L401.407440 376.696293L389.942677 385.061497L379.003855 392.124355
L368.538043 398.105734L358.503223 403.141627L348.861574 407.376960
L336.565740 411.981850L324.854325 415.619981L310.962152 419.119021
L297.823423 421.750408L282.956899 424.106776L262.306687 426.619455
L231.689559 429.534108L167.957036 435.520548L124.843354 440.297733
L124.843354 440.297733"/>
</g>
<g id="line2d22">
<path style="fill: none; stroke: #008000; stroke-width: 1.000000; stroke-linejoin: round; stroke-linecap: square;  opacity: 1.000000" clip-path="url(#pc4187b6043a42ef6e656d3a675add9dc)" d="M575.612516 202.014484L577.515326 202.742155L582.212910 206.344599
L585.859909 211.565789L588.475811 217.469662L590.570888 224.371963
L592.265805 232.546730L593.544898 242.301215L594.429646 255.550128
L594.601567 268.069194L594.290387 279.891691L592.734248 301.833141
L590.331394 321.712337L587.393349 339.726371L584.072039 356.090002
L580.486073 370.943901L576.700568 384.444724L572.765247 396.677729
L568.723327 407.792258L562.522733 422.562598L556.215532 435.294823
L549.852657 446.276606L543.472382 455.711060L537.102113 463.850244
L530.764154 470.853693L524.475519 476.889164L518.247273 482.092874
L510.059548 487.950523L502.017356 492.798828L494.138584 496.843498
L484.531114 501.029077L473.375143 505.105348L459.151316 509.462707
L440.819630 514.262934L409.615591 521.591841L343.376239 536.643065
L343.376239 536.643065"/>
</g>
<g id="line2d23">
<path style="fill: none; stroke: #008000; stroke-width: 1.000000; stroke-linejoin: round; stroke-linecap: square;  opacity: 1.000000" clip-path="url(#pc4187b6043a42ef6e656d3a675add9dc)" d="M598.183910 293.038750L596.844063 292.719159L592.709870 292.895707
L588.325870 294.432817L584.141782 296.688720L579.702124 299.708390
L574.791273 303.555392L562.698920 314.528231L545.401117 331.896240
L516.180899 361.347202L499.008028 377.332788L486.978614 387.662468
L475.553935 396.750173L464.653105 404.710332L454.217736 411.660314
L444.199254 417.759839L431.427524 424.678233L419.258972 430.441496
L407.638551 435.237463L393.813201 440.122170L380.693814 444.028368
L365.799889 447.728230L349.486989 451.064589L330.025858 454.328213
L302.734024 458.138451L192.619425 472.797434L178.201874 474.908083
L178.201874 474.908083"/>
</g>
<g id="line2d24">
<path style="fill: none; stroke: #008000; stroke-width: 1.000000; stroke-linejoin: round; stroke-linecap: square;  opacity: 1.000000" clip-path="url(#pc4187b6043a42ef6e656d3a675add9dc)" d="M598.180081 293.037492L599.426266 293.567962L602.323334 296.060438
L604.334955 299.718059L605.560400 303.784531L606.321313 308.565008
L606.665178 314.215812L606.554266 320.974046L605.883832 329.178420
L603.501632 344.416708L600.342484 358.290884L596.720493 371.001070
L592.809238 382.671164L588.706325 393.400108L582.305039 407.878604
L575.738561 420.639009L569.077787 431.905464L562.383471 441.834612
L555.694083 450.573259L549.033717 458.305788L542.423893 465.106319
L533.711035 472.944230L525.139221 479.587608L516.724178 485.232149
L508.479042 490.045630L498.424087 495.112531L488.658813 499.339877
L477.332823 503.568530L462.900419 508.174588L445.932657 512.843454
L421.175207 518.890701L360.344330 532.791566L325.300120 540.746014
L325.300120 540.746014"/>
</g>
<g id="line2d25">
<path style="fill: none; stroke: #000000; stroke-width: 1.000000; stroke-linejoin: round; stroke-linecap: square;  opacity: 1.000000" clip-path="url(#pc4187b6043a42ef6e656d3a675add9dc)" d="M598.183910 293.038750L591.511902 270.522147L585.881049 249.264820
L580.794947 227.515966L575.972631 203.917739L575.708518 202.526572
L575.708518 202.526572"/>
</g>
<g id="line2d26">
<path style="fill: none; stroke: #000000; stroke-width: 1.000000; stroke-linejoin: round; stroke-linecap: square;  opacity: 1.000000" clip-path="url(#pc4187b6043a42ef6e656d3a675add9dc)" d="M140.271606 138.256599L141.255869 182.723324L143.170905 269.214579
L144.103252 311.281464L144.563499 332.029237L145.471628 372.964832
L145.920004 393.157993L146.142854 403.186575L146.584876 423.109863
L146.804841 433.005218L146.914070 437.936046L146.968926 440.397758
L147.077935 445.312221L147.132611 447.765615L147.241783 452.664108
L147.295764 455.108899L147.307115 455.613126"/>
</g>
<g id="line2d27">
<path style="fill: none; stroke: #0000ff; stroke-width: 1.000000; stroke-linejoin: round; stroke-linecap: square;  opacity: 1.000000" clip-path="url(#pc4187b6043a42ef6e656d3a675add9dc)" d="M147.307115 455.613126L147.601400 455.744406L147.674548 455.777320
L147.765463 455.818362L147.879322 455.870257L147.994870 455.923074
L148.110295 455.975923L148.225310 456.029284L148.339420 456.082417
L148.453140 456.135636L148.566335 456.188971L148.679006 456.242420
L148.792070 456.296216L148.903445 456.349524L149.015193 456.403605
L149.126302 456.457403L149.236486 456.511398L149.411621 456.597537
L149.670601 456.726702L149.954702 456.870548L150.265858 457.030801
L150.606639 457.209901L150.979757 457.410268L151.386212 457.634257
L151.830132 457.885699L152.311718 458.167556L152.832984 458.484121
L153.393589 458.839343L153.993941 459.238730L154.630770 459.687305
L155.300239 460.191510L155.994544 460.757798L156.702792 461.393728
L157.407321 462.106611L158.085618 462.904821L158.697092 463.783035
L159.127097 464.575479L159.419835 465.301660L159.602471 465.973637
L159.695043 466.600321L159.713053 467.188627L159.668234 467.743715
L159.568268 468.269042"/>
</g>
<g id="line2d28">
<path style="fill: none; stroke: #0000ff; stroke-width: 1.000000; stroke-linejoin: round; stroke-linecap: square;  opacity: 1.000000" clip-path="url(#pc4187b6043a42ef6e656d3a675add9dc)" d="M147.307115 455.613126L147.009957 455.482478L146.935244 455.449910
L146.841334 455.409100L146.723674 455.358464L146.602517 455.306451
L146.481884 455.254758L146.359546 455.203001L146.236952 455.151304
L146.114616 455.099981L145.991108 455.048484L145.867726 454.997388
L145.743439 454.946065L145.619410 454.895115L145.493810 454.844075
L145.368220 454.793038L145.241707 454.742198L145.040074 454.661461
L144.736178 454.541313L144.396456 454.408839L144.015066 454.262317
L143.587449 454.101021L143.105307 453.922481L142.562518 453.725885
L141.948962 453.508729L141.254496 453.269363L140.468196 453.006306
L139.576163 452.717443L138.562661 452.401047L137.410260 452.055755
L136.098399 451.680442L134.603905 451.274536L132.899290 450.837948
L130.955576 450.372578L128.738414 449.881016L126.249208 449.375993
L123.957982 448.952457L121.821269 448.591214L119.811028 448.279981
L117.906377 448.009631L116.092268 447.773616L114.357674 447.567079
L112.693390 447.386049"/>
</g>
<g id="line2d29">
<path style="fill: none; stroke: #ff0000; stroke-width: 1.000000; stroke-linejoin: round; stroke-linecap: square;  opacity: 1.000000" clip-path="url(#pc4187b6043a42ef6e656d3a675add9dc)" d="M334.715119 538.608981L334.713600 538.609326L334.712771 538.609514
L334.711528 538.609796L334.709181 538.610329L334.706557 538.610925
L334.703795 538.611552L334.699928 538.612429L334.695784 538.613370
L334.691227 538.614404L334.686117 538.615564L334.680455 538.616849
L334.674516 538.618197L334.668163 538.619639L334.660843 538.621301
L334.653524 538.622962L334.645237 538.624843L334.631565 538.627947
L334.608500 538.633182L334.579773 538.639702L334.544002 538.647822
L334.499115 538.658010L334.443178 538.670707L334.373151 538.686602
L334.285857 538.706416L334.176736 538.731184L334.040397 538.762131
L333.870345 538.800730L333.658145 538.848895L333.393564 538.908950
L333.063735 538.983815L332.653019 539.077040L332.141891 539.193057
L331.506515 539.337276L330.718042 539.516245L329.756699 539.734452
L328.804580 539.950566L327.861693 540.164584L326.927911 540.376535
L326.003103 540.586450L325.087140 540.794357L324.180031 541.000254
L323.281645 541.204171"/>
</g>
<g id="line2d30">
<path style="fill: none; stroke: #bf00bf; stroke-width: 1.000000; stroke-linejoin: round; stroke-linecap: square;  opacity: 1.000000" clip-path="url(#pc4187b6043a42ef6e656d3a675add9dc)" d="M363.809164 400.552448L363.711486 400.695049L363.443847 401.109050
L362.778391 402.128303L361.592766 403.912529L360.420407 405.636068
L359.261316 407.298872L358.115123 408.907326L356.981021 410.461140
L355.858891 411.963470L354.748484 413.414321L353.648879 414.819790
L352.559403 416.182741L351.479676 417.500026L350.410400 418.778238
L349.349834 420.016870L348.298118 421.219037L347.255436 422.385078
L346.220569 423.520755L345.193814 424.620004L344.175191 425.689167
L343.163098 426.730901L342.158908 427.745723L341.161557 428.730208
L340.170514 429.690408L339.185415 430.629568L338.207616 431.541817
L337.234840 432.432741L336.268463 433.302866L335.306997 434.151637
L334.350891 434.982557L333.400837 435.795882L332.455209 436.587877
L331.514038 437.364926L330.577889 438.127314L329.646511 438.874111
L328.719230 439.605335L327.796059 440.322571L326.877311 441.026802
L325.962437 441.718021L325.051193 442.396908L324.144403 443.064663
L323.240320 443.720464L322.339643 444.365864L321.442936 445.001479
L320.549651 445.626982L319.658730 446.243125L318.771550 446.850458
L317.887567 447.449303L317.005717 448.039767L316.127380 448.622726
L315.251193 449.197600L314.378410 449.765942L313.507538 450.327199
L312.639957 450.882252L311.774174 451.430547L310.910885 451.973007
L310.049968 452.509648L309.191432 453.040785L308.335155 453.566759
L307.481014 454.087265L306.629021 454.603266L305.779180 455.114429
L304.931370 455.621098L304.085599 456.123265L303.241744 456.621307
L302.399683 457.115406L301.559683 457.605564L300.722047 458.092276
L300.349971 458.307294"/>
</g>
<g id="line2d31">
<path style="fill: none; stroke: #bf00bf; stroke-width: 1.000000; stroke-linejoin: round; stroke-linecap: square;  opacity: 1.000000" clip-path="url(#pc4187b6043a42ef6e656d3a675add9dc)" d="M534.139619 467.234668L534.020527 467.379368L533.653169 467.784384
L532.734310 468.778438L531.084793 470.510593L529.439496 472.174097
L527.798416 473.768903L526.162590 475.302333L524.531889 476.774372
L522.906133 478.188345L521.285826 479.544572L519.670613 480.849752
L518.061211 482.107492L516.456519 483.314197L514.857969 484.477123
L513.264413 485.596019L511.676701 486.674471L510.094317 487.712564
L508.518068 488.717234L506.947656 489.681849L505.382237 490.612765
L503.823035 491.513973L502.269295 492.385143L500.721435 493.223296
L499.179506 494.035075L497.643083 494.823896L496.112255 495.583038
L494.587445 496.319547L493.067900 497.033095L491.554636 497.724156
L490.046675 498.395845L488.544329 499.048270L487.047685 499.678241
L485.556522 500.292390L484.071021 500.890856L482.590938 501.472678
L481.116429 502.038240L479.647483 502.589206L478.183783 503.126356
L476.725615 503.650046L475.272793 504.161029L473.825446 504.660270
L472.383266 505.147545L470.946400 505.624250L469.514643 506.090710
L468.088287 506.546950L466.666934 506.994060L465.250743 507.432094
L463.839772 507.861656L462.433781 508.283227L461.032698 508.697106
L459.636757 509.103380L458.245674 509.503020L456.859476 509.896113
L455.478166 510.282990L454.101620 510.663675L452.729990 511.038901
L451.363075 511.408660L450.000956 511.773316L448.643504 512.133233
L447.290672 512.488129L445.942459 512.839013L444.598875 513.185544
L443.259836 513.528104L441.925394 513.866708L440.595421 514.201754
L439.269811 514.533448L437.948860 514.861802L436.632197 515.187050
L436.048397 515.330653"/>
</g>
<g id="line2d32">
<path style="fill: none; stroke: #8f00ff; stroke-width: 1.000000; stroke-linejoin: round; stroke-linecap: butt; stroke-dasharray: 6.000000,6.000000; stroke-dashoffset: 0.000000; opacity: 1.000000" clip-path="url(#pc4187b6043a42ef6e656d3a675add9dc)" d="M587.715138 256.492868L585.922312 256.203839L584.583534 256.204958
L580.910427 256.932356L576.856057 258.697995L572.448737 261.443312
L566.486074 266.153565L560.045664 272.136314L551.781596 280.732893
L539.978089 294.028753L494.749204 346.041608L481.507897 359.853218
L470.033094 370.965941L458.748488 381.054607L447.704976 390.074613
L436.951445 398.037172L426.520584 404.991470L416.445271 411.006724
L405.358492 416.850153L394.752725 421.721457L383.382518 426.213417
L371.442080 430.184254L359.090916 433.566104L345.507712 436.539061
L330.291971 439.078665L329.283248 439.220576L329.283248 439.220576"/>
</g>
<g id="line2d33">
<path style="fill: none; stroke: #8f00ff; stroke-width: 1.000000; stroke-linejoin: round; stroke-linecap: butt; stroke-dasharray: 6.000000,6.000000; stroke-dashoffset: 0.000000; opacity: 1.000000" clip-path="url(#pc4187b6043a42ef6e656d3a675add9dc)" d="M587.718194 256.493840L589.456221 257.328662L590.580024 258.114417
L593.196641 260.852034L595.371097 264.622834L597.115608 269.369322
L598.434989 275.027660L599.334665 281.513377L599.878046 290.642195
L599.774313 300.720239L599.084615 311.535572L597.533642 325.178688
L595.240678 339.218099L591.737263 355.658539L587.484349 371.736038
L582.591190 387.099362L578.004400 399.502458L572.264223 412.928404
L567.129392 423.474007L560.924558 434.629409L554.597999 444.569237
L548.223345 453.352695L540.934555 462.089177L533.743561 469.571263
L526.675549 475.963749L518.097861 482.646772L509.842292 488.134528
L500.414466 493.468772L491.572778 497.732335L482.012971 501.695386
L482.012971 501.695386"/>
</g>
<g id="matplotlib.axis1">
</g>
<g id="matplotlib.axis2">
</g>
<g id="text21">
<defs>
<path id="c_7b26b13f539f13a4c64eef23b6952d29" d="M4.890625 -31.390625l26.312500 0.000000l0.000000 8.000000l-26.312500 0.000000z"/>
<path id="c_9266f381a194deb1d9d439e9a9317ead" d="M9.421875 -54.687500l8.984375 0.000000l0.000000 55.671875q0.000000 10.437500 -3.984375 15.125000q-3.968750 4.687500 -12.812500 4.687500l-3.421875 0.000000l0.000000 -7.609375l2.406250 0.000000q5.125000 0.000000 6.968750 -2.375000q1.859375 -2.359375 1.859375 -9.828125zM9.421875 -75.984375l8.984375 0.000000l0.000000 11.390625l-8.984375 0.000000z"/>
<path id="c_d650c37394b681142a10dfc54356d478" d="M48.781250 -52.593750l0.000000 8.406250q-3.812500 -2.109375 -7.640625 -3.156250q-3.828125 -1.046875 -7.734375 -1.046875q-8.750000 0.000000 -13.593750 5.546875q-4.828125 5.531250 -4.828125 15.546875q0.000000 10.015625 4.828125 15.562500q4.843750 5.531250 13.593750 5.531250q3.906250 0.000000 7.734375 -1.046875q3.828125 -1.046875 7.640625 -3.156250l0.000000 8.312500q-3.765625 1.750000 -7.796875 2.625000q-4.015625 0.890625 -8.562500 0.890625q-12.359375 0.000000 -19.640625 -7.765625q-7.265625 -7.765625 -7.265625 -20.953125q0.000000 -13.375000 7.343750 -21.031250q7.359375 -7.671875 20.156250 -7.671875q4.140625 0.000000 8.093750 0.859375q3.953125 0.843750 7.671875 2.546875"/>
<path id="c_73b12fe3945075d29fe0cc9a468fa31e" d="M37.109375 -75.984375l0.000000 7.484375l-8.593750 0.000000q-4.828125 0.000000 -6.718750 1.953125q-1.875000 1.953125 -1.875000 7.031250l0.000000 4.828125l14.796875 0.000000l0.000000 6.984375l-14.796875 0.000000l0.000000 47.703125l-9.031250 0.000000l0.000000 -47.703125l-8.593750 0.000000l0.000000 -6.984375l8.593750 0.000000l0.000000 -3.812500q0.000000 -9.125000 4.250000 -13.296875q4.250000 -4.187500 13.468750 -4.187500z"/>
<path id="c_e3864de5dabf2f8dd9eee74726882ec1" d="M45.406250 -27.984375q0.000000 -9.765625 -4.031250 -15.125000q-4.015625 -5.375000 -11.296875 -5.375000q-7.218750 0.000000 -11.250000 5.375000q-4.031250 5.359375 -4.031250 15.125000q0.000000 9.718750 4.031250 15.093750q4.031250 5.375000 11.250000 5.375000q7.281250 0.000000 11.296875 -5.375000q4.031250 -5.375000 4.031250 -15.093750M54.390625 -6.781250q0.000000 13.953125 -6.203125 20.765625q-6.187500 6.812500 -18.984375 6.812500q-4.734375 0.000000 -8.937500 -0.703125q-4.203125 -0.703125 -8.156250 -2.171875l0.000000 -8.734375q3.953125 2.140625 7.812500 3.156250q3.859375 1.031250 7.859375 1.031250q8.843750 0.000000 13.234375 -4.609375q4.390625 -4.609375 4.390625 -13.937500l0.000000 -4.453125q-2.781250 4.843750 -7.125000 7.234375q-4.343750 2.390625 -10.406250 2.390625q-10.046875 0.000000 -16.203125 -7.656250q-6.156250 -7.671875 -6.156250 -20.328125q0.000000 -12.687500 6.156250 -20.343750q6.156250 -7.671875 16.203125 -7.671875q6.062500 0.000000 10.406250 2.390625q4.343750 2.390625 7.125000 7.218750l0.000000 -8.296875l8.984375 0.000000z"/>
<path id="c_74d54c94aa871ec39e2bc6697dde6c00" d="M54.890625 -33.015625l0.000000 33.015625l-8.984375 0.000000l0.000000 -32.718750q0.000000 -7.765625 -3.031250 -11.609375q-3.031250 -3.859375 -9.078125 -3.859375q-7.281250 0.000000 -11.484375 4.640625q-4.203125 4.625000 -4.203125 12.640625l0.000000 30.906250l-9.031250 0.000000l0.000000 -75.984375l9.031250 0.000000l0.000000 29.796875q3.234375 -4.937500 7.593750 -7.375000q4.375000 -2.437500 10.093750 -2.437500q9.421875 0.000000 14.250000 5.828125q4.843750 5.828125 4.843750 17.156250"/>
<path id="c_a66ecc39892414b9ca9362e0fffdc75b" d="M14.796875 -27.296875q0.000000 9.906250 4.078125 15.546875q4.078125 5.640625 11.203125 5.640625q7.125000 0.000000 11.218750 -5.640625q4.109375 -5.640625 4.109375 -15.546875q0.000000 -9.906250 -4.109375 -15.546875q-4.093750 -5.640625 -11.218750 -5.640625q-7.125000 0.000000 -11.203125 5.640625q-4.078125 5.640625 -4.078125 15.546875M45.406250 -8.203125q-2.828125 4.875000 -7.156250 7.250000q-4.312500 2.375000 -10.375000 2.375000q-9.906250 0.000000 -16.140625 -7.906250q-6.218750 -7.921875 -6.218750 -20.812500q0.000000 -12.890625 6.218750 -20.796875q6.234375 -7.906250 16.140625 -7.906250q6.062500 0.000000 10.375000 2.375000q4.328125 2.359375 7.156250 7.234375l0.000000 -8.296875l8.984375 0.000000l0.000000 75.484375l-8.984375 0.000000z"/>
<path id="c_d821beae607506e87470f334d9ff47af" d="M45.406250 -46.390625l0.000000 -29.593750l8.984375 0.000000l0.000000 75.984375l-8.984375 0.000000l0.000000 -8.203125q-2.828125 4.875000 -7.156250 7.250000q-4.312500 2.375000 -10.375000 2.375000q-9.906250 0.000000 -16.140625 -7.906250q-6.218750 -7.921875 -6.218750 -20.812500q0.000000 -12.890625 6.218750 -20.796875q6.234375 -7.906250 16.140625 -7.906250q6.062500 0.000000 10.375000 2.375000q4.328125 2.359375 7.156250 7.234375M14.796875 -27.296875q0.000000 9.906250 4.078125 15.546875q4.078125 5.640625 11.203125 5.640625q7.125000 0.000000 11.218750 -5.640625q4.109375 -5.640625 4.109375 -15.546875q0.000000 -9.906250 -4.109375 -15.546875q-4.093750 -5.640625 -11.218750 -5.640625q-7.125000 0.000000 -11.203125 5.640625q-4.078125 5.640625 -4.078125 15.546875"/>
</defs>
<g style="fill: #000000; opacity: 1.000000" transform="translate(74.885938,-7.906250)scale(0.144000)">
<use xlink:href="#c_518d586bee075aa0153eaebfcb5ab11f"/>
<use xlink:href="#c_6ec8d5749226675394676a5d2a3b468b" x="58.552734"/>
<use xlink:href="#c_0bce5afba2dc6b9024b26277c38ad8e8" x="97.416016"/>
<use xlink:href="#c_8e0810ad13fe20a2a87a2619799b154d" x="158.939453"/>
<use xlink:href="#c_8e0810ad13fe20a2a87a2619799b154d" x="211.039062"/>
<use xlink:href="#c_3b515ad41f960e225ec85275856806ca" x="263.138672"/>
<use xlink:href="#c_6ec8d5749226675394676a5d2a3b468b" x="326.517578"/>
<use xlink:href="#c_0bce5afba2dc6b9024b26277c38ad8e8" x="365.380859"/>
<use xlink:href="#c_7b26b13f539f13a4c64eef23b6952d29" x="426.904297"/>
<use xlink:href="#c_9e4b30cbdf32072672ded72e9074c4c9" x="453.863281"/>
<use xlink:href="#c_0bce5afba2dc6b9024b26277c38ad8e8" x="497.947266"/>
<use xlink:href="#c_4653c6dfde66c7610eae0911760d3490" x="559.470703"/>
<use xlink:href="#c_f15a64fcd463ef4629c48bab42cde24c" x="656.882813"/>
<use xlink:href="#c_0bce5afba2dc6b9024b26277c38ad8e8" x="720.359375"/>
<use xlink:href="#c_6ec8d5749226675394676a5d2a3b468b" x="781.882813"/>
<use xlink:href="#c_01d93a582460e35a7945ca50d148ffeb" x="822.996094"/>
<use xlink:href="#c_0f8c41144cfbf448378cb6fd1cc8e549" x="884.275391"/>
<use xlink:href="#c_3b515ad41f960e225ec85275856806ca" x="923.484375"/>
<use xlink:href="#c_6ec8d5749226675394676a5d2a3b468b" x="986.863281"/>
<use xlink:href="#c_0bce5afba2dc6b9024b26277c38ad8e8" x="1025.726562"/>
<use xlink:href="#c_7b26b13f539f13a4c64eef23b6952d29" x="1087.250000"/>
<use xlink:href="#c_ff9441f72805bc441fcb0bfe0d774f13" x="1123.333984"/>
<use xlink:href="#c_0bce5afba2dc6b9024b26277c38ad8e8" x="1200.335938"/>
<use xlink:href="#c_fe791a90f5471e2ab20a5ed41a7fa451" x="1261.859375"/>
<use xlink:href="#c_8e0810ad13fe20a2a87a2619799b154d" x="1325.238281"/>
<use xlink:href="#c_6a63bda47b2f3da1cec6aadd80692cfe" x="1377.337891"/>
<use xlink:href="#c_0f8c41144cfbf448378cb6fd1cc8e549" x="1405.121094"/>
<use xlink:href="#c_3fe22c4af425ac970aec982ae9662abe" x="1444.330078"/>
<use xlink:href="#c_d41d8cd98f00b204e9800998ecf8427e" x="1503.509766"/>
<use xlink:href="#c_f15a64fcd463ef4629c48bab42cde24c" x="1535.296875"/>
<use xlink:href="#c_6ec8d5749226675394676a5d2a3b468b" x="1598.773438"/>
<use xlink:href="#c_f05dd90d41f04bb96ef1ca503cc2044b" x="1637.636719"/>
<use xlink:href="#c_9266f381a194deb1d9d439e9a9317ead" x="1698.818359"/>
<use xlink:href="#c_0bce5afba2dc6b9024b26277c38ad8e8" x="1726.601562"/>
<use xlink:href="#c_d650c37394b681142a10dfc54356d478" x="1788.125000"/>
<use xlink:href="#c_0f8c41144cfbf448378cb6fd1cc8e549" x="1843.105469"/>
<use xlink:href="#c_6a63bda47b2f3da1cec6aadd80692cfe" x="1882.314453"/>
<use xlink:href="#c_f05dd90d41f04bb96ef1ca503cc2044b" x="1910.097656"/>
<use xlink:href="#c_fe791a90f5471e2ab20a5ed41a7fa451" x="1971.279297"/>
<use xlink:href="#c_d41d8cd98f00b204e9800998ecf8427e" x="2034.658203"/>
<use xlink:href="#c_f05dd90d41f04bb96ef1ca503cc2044b" x="2066.445312"/>
<use xlink:href="#c_73b12fe3945075d29fe0cc9a468fa31e" x="2127.626953"/>
<use xlink:href="#c_d41d8cd98f00b204e9800998ecf8427e" x="2162.832031"/>
<use xlink:href="#c_01d93a582460e35a7945ca50d148ffeb" x="2194.619141"/>
<use xlink:href="#c_d41d8cd98f00b204e9800998ecf8427e" x="2255.898437"/>
<use xlink:href="#c_e3864de5dabf2f8dd9eee74726882ec1" x="2287.685547"/>
<use xlink:href="#c_5099edb83619131346ae654950954dea" x="2351.162109"/>
<use xlink:href="#c_f05dd90d41f04bb96ef1ca503cc2044b" x="2378.945312"/>
<use xlink:href="#c_5cc9741494d2ad8f9764e03ae145569f" x="2440.126953"/>
<use xlink:href="#c_01d93a582460e35a7945ca50d148ffeb" x="2503.603516"/>
<use xlink:href="#c_5099edb83619131346ae654950954dea" x="2564.882812"/>
<use xlink:href="#c_d41d8cd98f00b204e9800998ecf8427e" x="2592.666016"/>
<use xlink:href="#c_f15a64fcd463ef4629c48bab42cde24c" x="2624.453125"/>
<use xlink:href="#c_74d54c94aa871ec39e2bc6697dde6c00" x="2687.929687"/>
<use xlink:href="#c_01d93a582460e35a7945ca50d148ffeb" x="2751.308594"/>
<use xlink:href="#c_8e0810ad13fe20a2a87a2619799b154d" x="2812.587891"/>
<use xlink:href="#c_0bce5afba2dc6b9024b26277c38ad8e8" x="2864.687500"/>
<use xlink:href="#c_d41d8cd98f00b204e9800998ecf8427e" x="2926.210937"/>
<use xlink:href="#c_0bce5afba2dc6b9024b26277c38ad8e8" x="2957.998047"/>
<use xlink:href="#c_a66ecc39892414b9ca9362e0fffdc75b" x="3019.521484"/>
<use xlink:href="#c_3b515ad41f960e225ec85275856806ca" x="3082.998047"/>
<use xlink:href="#c_6a63bda47b2f3da1cec6aadd80692cfe" x="3146.376953"/>
<use xlink:href="#c_5099edb83619131346ae654950954dea" x="3174.160156"/>
<use xlink:href="#c_6a63bda47b2f3da1cec6aadd80692cfe" x="3201.943359"/>
<use xlink:href="#c_5cc9741494d2ad8f9764e03ae145569f" x="3229.726562"/>
<use xlink:href="#c_6ec8d5749226675394676a5d2a3b468b" x="3293.203125"/>
<use xlink:href="#c_6a63bda47b2f3da1cec6aadd80692cfe" x="3334.316406"/>
<use xlink:href="#c_3b515ad41f960e225ec85275856806ca" x="3362.099609"/>
<use xlink:href="#c_4653c6dfde66c7610eae0911760d3490" x="3425.478516"/>
<use xlink:href="#c_d41d8cd98f00b204e9800998ecf8427e" x="3522.890625"/>
<use xlink:href="#c_d821beae607506e87470f334d9ff47af" x="3554.677734"/>
<use xlink:href="#c_6a63bda47b2f3da1cec6aadd80692cfe" x="3618.154297"/>
<use xlink:href="#c_01d93a582460e35a7945ca50d148ffeb" x="3645.937500"/>
<use xlink:href="#c_e3864de5dabf2f8dd9eee74726882ec1" x="3707.216797"/>
<use xlink:href="#c_6ec8d5749226675394676a5d2a3b468b" x="3770.693359"/>
<use xlink:href="#c_01d93a582460e35a7945ca50d148ffeb" x="3811.806641"/>
<use xlink:href="#c_4653c6dfde66c7610eae0911760d3490" x="3873.085938"/>
</g>
</g>
<g id="legend1">
<g id="patch6">
<path style="fill: #ffffff; stroke: #000000; stroke-width: 1.000000; stroke-linejoin: round; stroke-linecap: square;  opacity: 1.000000"  d="M398.028750 136.001250L711.900000 136.001250L711.900000 7.200000
L398.028750 7.200000L398.028750 136.001250z"/>
</g>
<g id="line2d34">
<path style="fill: none; stroke: #008000; stroke-width: 1.000000; stroke-linejoin: round; stroke-linecap: square;  opacity: 1.000000"  d="M408.108750 18.560625L428.268750 18.560625"/>
</g>
<g id="line2d35">
</g>
<g id="text22">
<defs>
<path id="c_c48ceabac27bf136feba2f4bf2716ab6" d="M2.984375 -54.687500l9.515625 0.000000l17.093750 45.890625l17.093750 -45.890625l9.515625 0.000000l-20.515625 54.687500l-12.203125 0.000000z"/>
</defs>
<g style="fill: #000000; opacity: 1.000000" transform="translate(444.108750,23.600625)scale(0.144000)">
<use xlink:href="#c_518d586bee075aa0153eaebfcb5ab11f"/>
<use xlink:href="#c_3b515ad41f960e225ec85275856806ca" x="58.552734"/>
<use xlink:href="#c_6ec8d5749226675394676a5d2a3b468b" x="121.931641"/>
<use xlink:href="#c_0bce5afba2dc6b9024b26277c38ad8e8" x="160.794922"/>
<use xlink:href="#c_d41d8cd98f00b204e9800998ecf8427e" x="222.318359"/>
<use xlink:href="#c_d650c37394b681142a10dfc54356d478" x="254.105469"/>
<use xlink:href="#c_f05dd90d41f04bb96ef1ca503cc2044b" x="309.085937"/>
<use xlink:href="#c_4653c6dfde66c7610eae0911760d3490" x="370.267578"/>
<use xlink:href="#c_f15a64fcd463ef4629c48bab42cde24c" x="467.679687"/>
<use xlink:href="#c_f05dd90d41f04bb96ef1ca503cc2044b" x="531.156250"/>
<use xlink:href="#c_3b515ad41f960e225ec85275856806ca" x="592.337891"/>
<use xlink:href="#c_fe791a90f5471e2ab20a5ed41a7fa451" x="655.716797"/>
<use xlink:href="#c_d821beae607506e87470f334d9ff47af" x="719.095703"/>
<use xlink:href="#c_d41d8cd98f00b204e9800998ecf8427e" x="782.572266"/>
<use xlink:href="#c_c48ceabac27bf136feba2f4bf2716ab6" x="814.359375"/>
<use xlink:href="#c_01d93a582460e35a7945ca50d148ffeb" x="873.539062"/>
<use xlink:href="#c_f15a64fcd463ef4629c48bab42cde24c" x="934.818359"/>
<use xlink:href="#c_f05dd90d41f04bb96ef1ca503cc2044b" x="998.294922"/>
<use xlink:href="#c_6ec8d5749226675394676a5d2a3b468b" x="1059.476562"/>
<use xlink:href="#c_d41d8cd98f00b204e9800998ecf8427e" x="1100.589844"/>
<use xlink:href="#c_f15a64fcd463ef4629c48bab42cde24c" x="1132.376953"/>
<use xlink:href="#c_6ec8d5749226675394676a5d2a3b468b" x="1195.853516"/>
<use xlink:href="#c_0bce5afba2dc6b9024b26277c38ad8e8" x="1234.716797"/>
<use xlink:href="#c_8e0810ad13fe20a2a87a2619799b154d" x="1296.240234"/>
<use xlink:href="#c_8e0810ad13fe20a2a87a2619799b154d" x="1348.339844"/>
<use xlink:href="#c_3b515ad41f960e225ec85275856806ca" x="1400.439453"/>
<use xlink:href="#c_6ec8d5749226675394676a5d2a3b468b" x="1463.818359"/>
<use xlink:href="#c_0bce5afba2dc6b9024b26277c38ad8e8" x="1502.681641"/>
<use xlink:href="#c_d41d8cd98f00b204e9800998ecf8427e" x="1564.205078"/>
<use xlink:href="#c_5099edb83619131346ae654950954dea" x="1595.992188"/>
<use xlink:href="#c_6a63bda47b2f3da1cec6aadd80692cfe" x="1623.775391"/>
<use xlink:href="#c_fe791a90f5471e2ab20a5ed41a7fa451" x="1651.558594"/>
<use xlink:href="#c_0bce5afba2dc6b9024b26277c38ad8e8" x="1714.937500"/>
<use xlink:href="#c_8e0810ad13fe20a2a87a2619799b154d" x="1776.460937"/>
</g>
</g>
<g id="line2d36">
<path style="fill: none; stroke: #000000; stroke-width: 1.000000; stroke-linejoin: round; stroke-linecap: square;  opacity: 1.000000"  d="M408.108750 39.307500L428.268750 39.307500"/>
</g>
<g id="line2d37">
</g>
<g id="text23">
<defs>
<path id="c_a469f8ee191679fe73f3b765bd271597" d="M64.406250 -67.281250l0.000000 10.390625q-4.984375 -4.640625 -10.625000 -6.921875q-5.640625 -2.296875 -11.984375 -2.296875q-12.500000 0.000000 -19.140625 7.640625q-6.640625 7.640625 -6.640625 22.093750q0.000000 14.406250 6.640625 22.046875q6.640625 7.640625 19.140625 7.640625q6.343750 0.000000 11.984375 -2.296875q5.640625 -2.296875 10.625000 -6.937500l0.000000 10.312500q-5.171875 3.515625 -10.968750 5.281250q-5.781250 1.750000 -12.218750 1.750000q-16.562500 0.000000 -26.093750 -10.125000q-9.515625 -10.140625 -9.515625 -27.671875q0.000000 -17.578125 9.515625 -27.703125q9.531250 -10.140625 26.093750 -10.140625q6.531250 0.000000 12.312500 1.734375q5.796875 1.734375 10.875000 5.203125"/>
</defs>
<g style="fill: #000000; opacity: 1.000000" transform="translate(444.108750,44.347500)scale(0.144000)">
<use xlink:href="#c_a469f8ee191679fe73f3b765bd271597"/>
<use xlink:href="#c_6ec8d5749226675394676a5d2a3b468b" x="69.824219"/>
<use xlink:href="#c_6a63bda47b2f3da1cec6aadd80692cfe" x="110.937500"/>
<use xlink:href="#c_0f8c41144cfbf448378cb6fd1cc8e549" x="138.720703"/>
<use xlink:href="#c_6a63bda47b2f3da1cec6aadd80692cfe" x="177.929688"/>
<use xlink:href="#c_d650c37394b681142a10dfc54356d478" x="205.712891"/>
<use xlink:href="#c_01d93a582460e35a7945ca50d148ffeb" x="260.693359"/>
<use xlink:href="#c_5099edb83619131346ae654950954dea" x="321.972656"/>
<use xlink:href="#c_d41d8cd98f00b204e9800998ecf8427e" x="349.755859"/>
<use xlink:href="#c_5099edb83619131346ae654950954dea" x="381.542969"/>
<use xlink:href="#c_6a63bda47b2f3da1cec6aadd80692cfe" x="409.326172"/>
<use xlink:href="#c_fe791a90f5471e2ab20a5ed41a7fa451" x="437.109375"/>
<use xlink:href="#c_0bce5afba2dc6b9024b26277c38ad8e8" x="500.488281"/>
<use xlink:href="#c_8e0810ad13fe20a2a87a2619799b154d" x="562.011719"/>
</g>
</g>
<g id="line2d38">
<path style="fill: none; stroke: #0000ff; stroke-width: 1.000000; stroke-linejoin: round; stroke-linecap: square;  opacity: 1.000000"  d="M408.108750 60.054375L428.268750 60.054375"/>
</g>
<g id="line2d39">
</g>
<g id="text24">
<defs>
<path id="c_07e3f33241aff50afcba519606f2a979" d="M9.812500 -72.906250l9.859375 0.000000l0.000000 64.609375l35.500000 0.000000l0.000000 8.296875l-45.359375 0.000000z"/>
<path id="c_ae70b0af174184799fa4976b9c5da571" d="M28.609375 -0.000000l-27.828125 -72.906250l10.296875 0.000000l23.109375 61.375000l23.140625 -61.375000l10.250000 0.000000l-27.781250 72.906250z"/>
</defs>
<g style="fill: #000000; opacity: 1.000000" transform="translate(444.108750,65.094375)scale(0.144000)">
<use xlink:href="#c_07e3f33241aff50afcba519606f2a979"/>
<use xlink:href="#c_07e3f33241aff50afcba519606f2a979" x="55.712891"/>
<use xlink:href="#c_ae70b0af174184799fa4976b9c5da571" x="100.425781"/>
</g>
</g>
<g id="line2d40">
<path style="fill: none; stroke: #ff0000; stroke-width: 1.000000; stroke-linejoin: round; stroke-linecap: square;  opacity: 1.000000"  d="M408.108750 80.801250L428.268750 80.801250"/>
</g>
<g id="line2d41">
</g>
<g id="text25">
<g style="fill: #000000; opacity: 1.000000" transform="translate(444.108750,85.841250)scale(0.144000)">
<use xlink:href="#c_07e3f33241aff50afcba519606f2a979"/>
<use xlink:href="#c_07e3f33241aff50afcba519606f2a979" x="55.712891"/>
<use xlink:href="#c_ae70b0af174184799fa4976b9c5da571" x="100.425781"/>
</g>
</g>
<g id="line2d42">
<path style="fill: none; stroke: #bf00bf; stroke-width: 1.000000; stroke-linejoin: round; stroke-linecap: square;  opacity: 1.000000"  d="M408.108750 101.548125L428.268750 101.548125"/>
</g>
<g id="line2d43">
</g>
<g id="text26">
<defs>
<path id="c_6023715d605f81e6eb43b7f9d77e7c51" d="M34.187500 -63.187500l-13.390625 36.281250l26.812500 0.000000zM28.609375 -72.906250l11.187500 0.000000l27.781250 72.906250l-10.250000 0.000000l-6.640625 -18.703125l-32.859375 0.000000l-6.640625 18.703125l-10.406250 0.000000z"/>
<path id="c_9f267d35ece7e6f3f1d851c2e17a8dec" d="M5.515625 -54.687500l42.671875 0.000000l0.000000 8.203125l-33.781250 39.312500l33.781250 0.000000l0.000000 7.171875l-43.890625 0.000000l0.000000 -8.203125l33.796875 -39.312500l-32.578125 0.000000z"/>
</defs>
<g style="fill: #000000; opacity: 1.000000" transform="translate(444.108750,106.588125)scale(0.144000)">
<use xlink:href="#c_6023715d605f81e6eb43b7f9d77e7c51"/>
<use xlink:href="#c_9f267d35ece7e6f3f1d851c2e17a8dec" x="68.408203"/>
<use xlink:href="#c_0bce5afba2dc6b9024b26277c38ad8e8" x="120.898438"/>
<use xlink:href="#c_f05dd90d41f04bb96ef1ca503cc2044b" x="182.421875"/>
<use xlink:href="#c_0f8c41144cfbf448378cb6fd1cc8e549" x="243.603516"/>
<use xlink:href="#c_6ec8d5749226675394676a5d2a3b468b" x="282.812500"/>
<use xlink:href="#c_f05dd90d41f04bb96ef1ca503cc2044b" x="321.675781"/>
<use xlink:href="#c_f15a64fcd463ef4629c48bab42cde24c" x="382.857422"/>
<use xlink:href="#c_6a63bda47b2f3da1cec6aadd80692cfe" x="446.333984"/>
<use xlink:href="#c_d650c37394b681142a10dfc54356d478" x="474.117188"/>
<use xlink:href="#c_d41d8cd98f00b204e9800998ecf8427e" x="529.097656"/>
<use xlink:href="#c_5099edb83619131346ae654950954dea" x="560.884766"/>
<use xlink:href="#c_6a63bda47b2f3da1cec6aadd80692cfe" x="588.667969"/>
<use xlink:href="#c_fe791a90f5471e2ab20a5ed41a7fa451" x="616.451172"/>
<use xlink:href="#c_0bce5afba2dc6b9024b26277c38ad8e8" x="679.830078"/>
<use xlink:href="#c_8e0810ad13fe20a2a87a2619799b154d" x="741.353516"/>
</g>
</g>
<g id="line2d44">
<path style="fill: none; stroke: #8f00ff; stroke-width: 1.000000; stroke-linejoin: round; stroke-linecap: butt; stroke-dasharray: 6.000000,6.000000; stroke-dashoffset: 0.000000; opacity: 1.000000"  d="M408.108750 122.295000L428.268750 122.295000"/>
</g>
<g id="line2d45">
</g>
<g id="text27">
<defs>
<path id="c_814edda51889e387a3dfbce453bfa1ec" d="M9.812500 -72.906250l9.859375 0.000000l0.000000 72.906250l-9.859375 0.000000z"/>
<path id="c_7efa9804c2b4c09a4b614b91fdebee3d" d="M31.000000 -75.875000q-6.531250 11.218750 -9.718750 22.218750q-3.171875 10.984375 -3.171875 22.265625q0.000000 11.265625 3.203125 22.328125q3.203125 11.062500 9.687500 22.250000l-7.812500 0.000000q-7.312500 -11.484375 -10.953125 -22.562500q-3.640625 -11.078125 -3.640625 -22.015625q0.000000 -10.890625 3.609375 -21.921875q3.625000 -11.046875 10.984375 -22.562500z"/>
<path id="c_00459d740017895360a22eba7af45b6f" d="M5.609375 -72.906250l57.281250 0.000000l0.000000 7.531250l-46.093750 57.078125l47.218750 0.000000l0.000000 8.296875l-59.515625 0.000000l0.000000 -7.515625l46.093750 -57.078125l-44.984375 0.000000z"/>
<path id="c_8c0379a31aa3b07b28207e25658c6113" d="M10.593750 -45.406250l62.593750 0.000000l0.000000 8.203125l-62.593750 0.000000zM10.593750 -25.484375l62.593750 0.000000l0.000000 8.296875l-62.593750 0.000000z"/>
<path id="c_ed3e21196fb739f392806f09ca0594ef" d="M10.687500 -12.406250l10.312500 0.000000l0.000000 12.406250l-10.312500 0.000000z"/>
<path id="c_e96974be642f6eac0427d72f9cec6c19" d="M8.015625 -75.875000l7.812500 0.000000q7.312500 11.515625 10.953125 22.562500q3.640625 11.031250 3.640625 21.921875q0.000000 10.937500 -3.640625 22.015625q-3.640625 11.078125 -10.953125 22.562500l-7.812500 0.000000q6.484375 -11.187500 9.687500 -22.250000q3.203125 -11.062500 3.203125 -22.328125q0.000000 -11.281250 -3.203125 -22.265625q-3.203125 -11.000000 -9.687500 -22.218750"/>
</defs>
<g style="fill: #000000; opacity: 1.000000" transform="translate(444.108750,127.335000)scale(0.144000)">
<use xlink:href="#c_814edda51889e387a3dfbce453bfa1ec"/>
<use xlink:href="#c_8e0810ad13fe20a2a87a2619799b154d" x="29.492188"/>
<use xlink:href="#c_f05dd90d41f04bb96ef1ca503cc2044b" x="81.591797"/>
<use xlink:href="#c_f15a64fcd463ef4629c48bab42cde24c" x="142.773438"/>
<use xlink:href="#c_5099edb83619131346ae654950954dea" x="206.250000"/>
<use xlink:href="#c_0bce5afba2dc6b9024b26277c38ad8e8" x="234.033203"/>
<use xlink:href="#c_0f8c41144cfbf448378cb6fd1cc8e549" x="295.556641"/>
<use xlink:href="#c_74d54c94aa871ec39e2bc6697dde6c00" x="334.765625"/>
<use xlink:href="#c_d41d8cd98f00b204e9800998ecf8427e" x="398.144531"/>
<use xlink:href="#c_5099edb83619131346ae654950954dea" x="429.931641"/>
<use xlink:href="#c_6a63bda47b2f3da1cec6aadd80692cfe" x="457.714844"/>
<use xlink:href="#c_fe791a90f5471e2ab20a5ed41a7fa451" x="485.498047"/>
<use xlink:href="#c_0bce5afba2dc6b9024b26277c38ad8e8" x="548.876953"/>
<use xlink:href="#c_8e0810ad13fe20a2a87a2619799b154d" x="610.400391"/>
<use xlink:href="#c_d41d8cd98f00b204e9800998ecf8427e" x="662.500000"/>
<use xlink:href="#c_7efa9804c2b4c09a4b614b91fdebee3d" x="694.287109"/>
<use xlink:href="#c_00459d740017895360a22eba7af45b6f" x="733.300781"/>
<use xlink:href="#c_d41d8cd98f00b204e9800998ecf8427e" x="801.806641"/>
<use xlink:href="#c_8c0379a31aa3b07b28207e25658c6113" x="833.593750"/>
<use xlink:href="#c_d41d8cd98f00b204e9800998ecf8427e" x="917.382812"/>
<use xlink:href="#c_7a2040fe3b94fcd41d0a72c84e93b115" x="949.169922"/>
<use xlink:href="#c_ed3e21196fb739f392806f09ca0594ef" x="1012.792969"/>
<use xlink:href="#c_1260a2df50f305f3db244e29828f968e" x="1044.580078"/>
<use xlink:href="#c_e96974be642f6eac0427d72f9cec6c19" x="1108.203125"/>
</g>
</g>
</g>
</g>
</g>
</svg>
