<?xml version="1.0" standalone="no"?>
<!DOCTYPE svg PUBLIC "-//W3C//DTD SVG 1.1//EN"
  "http://www.w3.org/Graphics/SVG/1.1/DTD/svg11.dtd">
<!-- Created with matplotlib (http://matplotlib.sourceforge.net/) -->
<svg width="719pt" height="617pt" viewBox="0 0 719 617"
   xmlns="http://www.w3.org/2000/svg"
   xmlns:xlink="http://www.w3.org/1999/xlink"
   version="1.1"
   id="svg1">
<g id="figure1">
<g id="patch1">
<path style="fill: #ffffff; stroke: #ffffff; stroke-width: 1.000000; stroke-linejoin: round; stroke-linecap: square;  opacity: 1.000000"  d="M0.000000 617.400000L719.100000 617.400000L719.100000 0.000000
L0.000000 0.000000L0.000000 617.400000"/>
</g>
<g id="patch2">
<path style="fill: #ffffff; opacity: 1.000000"  d="M0.000000 617.400000L719.100000 617.400000L719.100000 0.000000
L0.000000 0.000000L0.000000 617.400000"/>
</g>
<g id="axis3d1">
<g id="patch3">
<path style="fill: #f2f2f2; stroke: #f2f2f2; stroke-width: 1.000000; stroke-linejoin: round; stroke-linecap: square;  opacity: 0.500000"  d="M621.902562 510.172147L499.768167 372.410342L504.816857 66.547233
L632.632385 180.239076"/>
</g>
<g id="line2d1">
<path style="fill: none; stroke: #000000; stroke-width: 0.750000; stroke-linejoin: round; stroke-linecap: square;  opacity: 1.000000"  d="M621.902562 510.172147L222.698285 553.174713"/>
</g>
<g id="text1">
<defs>
<path id="c_9e4b30cbdf32072672ded72e9074c4c9" d="M-0.296875 -72.906250l61.671875 0.000000l0.000000 8.312500l-25.875000 0.000000l0.000000 64.593750l-9.906250 0.000000l0.000000 -64.593750l-25.890625 0.000000z"/>
<path id="c_0bce5afba2dc6b9024b26277c38ad8e8" d="M56.203125 -29.593750l0.000000 4.390625l-41.312500 0.000000q0.593750 9.281250 5.593750 14.140625q5.000000 4.859375 13.937500 4.859375q5.171875 0.000000 10.031250 -1.265625q4.859375 -1.265625 9.656250 -3.812500l0.000000 8.500000q-4.843750 2.046875 -9.921875 3.125000q-5.078125 1.078125 -10.296875 1.078125q-13.093750 0.000000 -20.734375 -7.609375q-7.640625 -7.625000 -7.640625 -20.625000q0.000000 -13.421875 7.250000 -21.296875q7.250000 -7.890625 19.562500 -7.890625q11.031250 0.000000 17.453125 7.109375q6.421875 7.093750 6.421875 19.296875M47.218750 -32.234375q-0.093750 -7.359375 -4.125000 -11.750000q-4.031250 -4.406250 -10.671875 -4.406250q-7.515625 0.000000 -12.031250 4.250000q-4.515625 4.250000 -5.203125 11.968750z"/>
<path id="c_4653c6dfde66c7610eae0911760d3490" d="M52.000000 -44.187500q3.375000 -6.062500 8.062500 -8.937500q4.687500 -2.875000 11.031250 -2.875000q8.546875 0.000000 13.187500 5.984375q4.640625 5.968750 4.640625 17.000000l0.000000 33.015625l-9.031250 0.000000l0.000000 -32.718750q0.000000 -7.859375 -2.796875 -11.656250q-2.781250 -3.812500 -8.484375 -3.812500q-6.984375 0.000000 -11.046875 4.640625q-4.046875 4.625000 -4.046875 12.640625l0.000000 30.906250l-9.031250 0.000000l0.000000 -32.718750q0.000000 -7.906250 -2.781250 -11.687500q-2.781250 -3.781250 -8.593750 -3.781250q-6.890625 0.000000 -10.953125 4.656250q-4.046875 4.656250 -4.046875 12.625000l0.000000 30.906250l-9.031250 0.000000l0.000000 -54.687500l9.031250 0.000000l0.000000 8.500000q3.078125 -5.031250 7.375000 -7.421875q4.296875 -2.390625 10.203125 -2.390625q5.968750 0.000000 10.140625 3.031250q4.171875 3.015625 6.171875 8.781250"/>
<path id="c_f15a64fcd463ef4629c48bab42cde24c" d="M18.109375 -8.203125l0.000000 29.000000l-9.031250 0.000000l0.000000 -75.484375l9.031250 0.000000l0.000000 8.296875q2.843750 -4.875000 7.156250 -7.234375q4.328125 -2.375000 10.328125 -2.375000q9.968750 0.000000 16.187500 7.906250q6.234375 7.906250 6.234375 20.796875q0.000000 12.890625 -6.234375 20.812500q-6.218750 7.906250 -16.187500 7.906250q-6.000000 0.000000 -10.328125 -2.375000q-4.312500 -2.375000 -7.156250 -7.250000M48.687500 -27.296875q0.000000 -9.906250 -4.078125 -15.546875q-4.078125 -5.640625 -11.203125 -5.640625q-7.140625 0.000000 -11.218750 5.640625q-4.078125 5.640625 -4.078125 15.546875q0.000000 9.906250 4.078125 15.546875q4.078125 5.640625 11.218750 5.640625q7.125000 0.000000 11.203125 -5.640625q4.078125 -5.640625 4.078125 -15.546875"/>
<path id="c_6ec8d5749226675394676a5d2a3b468b" d="M41.109375 -46.296875q-1.515625 -0.875000 -3.296875 -1.281250q-1.781250 -0.421875 -3.921875 -0.421875q-7.625000 0.000000 -11.703125 4.953125q-4.078125 4.953125 -4.078125 14.234375l0.000000 28.812500l-9.031250 0.000000l0.000000 -54.687500l9.031250 0.000000l0.000000 8.500000q2.843750 -4.984375 7.375000 -7.390625q4.546875 -2.421875 11.046875 -2.421875q0.921875 0.000000 2.046875 0.125000q1.125000 0.109375 2.484375 0.359375z"/>
<path id="c_01d93a582460e35a7945ca50d148ffeb" d="M34.281250 -27.484375q-10.890625 0.000000 -15.093750 2.484375q-4.203125 2.484375 -4.203125 8.500000q0.000000 4.781250 3.156250 7.593750q3.156250 2.796875 8.562500 2.796875q7.484375 0.000000 12.000000 -5.296875q4.515625 -5.296875 4.515625 -14.078125l0.000000 -2.000000zM52.203125 -31.203125l0.000000 31.203125l-8.984375 0.000000l0.000000 -8.296875q-3.078125 4.968750 -7.671875 7.343750q-4.593750 2.375000 -11.234375 2.375000q-8.390625 0.000000 -13.359375 -4.718750q-4.953125 -4.718750 -4.953125 -12.625000q0.000000 -9.218750 6.171875 -13.906250q6.187500 -4.687500 18.437500 -4.687500l12.609375 0.000000l0.000000 -0.890625q0.000000 -6.203125 -4.078125 -9.593750q-4.078125 -3.390625 -11.453125 -3.390625q-4.687500 0.000000 -9.140625 1.125000q-4.437500 1.125000 -8.531250 3.375000l0.000000 -8.312500q4.921875 -1.906250 9.562500 -2.843750q4.640625 -0.953125 9.031250 -0.953125q11.875000 0.000000 17.734375 6.156250q5.859375 6.140625 5.859375 18.640625"/>
<path id="c_0f8c41144cfbf448378cb6fd1cc8e549" d="M18.312500 -70.218750l0.000000 15.531250l18.500000 0.000000l0.000000 6.984375l-18.500000 0.000000l0.000000 29.687500q0.000000 6.687500 1.828125 8.593750q1.828125 1.906250 7.453125 1.906250l9.218750 0.000000l0.000000 7.515625l-9.218750 0.000000q-10.406250 0.000000 -14.359375 -3.875000q-3.953125 -3.890625 -3.953125 -14.140625l0.000000 -29.687500l-6.593750 0.000000l0.000000 -6.984375l6.593750 0.000000l0.000000 -15.531250z"/>
<path id="c_3b515ad41f960e225ec85275856806ca" d="M8.500000 -21.578125l0.000000 -33.109375l8.984375 0.000000l0.000000 32.765625q0.000000 7.765625 3.015625 11.656250q3.031250 3.875000 9.093750 3.875000q7.265625 0.000000 11.484375 -4.640625q4.234375 -4.640625 4.234375 -12.656250l0.000000 -31.000000l8.984375 0.000000l0.000000 54.687500l-8.984375 0.000000l0.000000 -8.406250q-3.265625 4.984375 -7.593750 7.406250q-4.312500 2.421875 -10.031250 2.421875q-9.421875 0.000000 -14.312500 -5.859375q-4.875000 -5.859375 -4.875000 -17.140625M31.109375 -56.000000z"/>
<path id="c_d41d8cd98f00b204e9800998ecf8427e" d=""/>
<path id="c_1a1d9ef1e4ddee695bd67a282879f099" d="M8.593750 -75.984375l20.703125 0.000000l0.000000 6.984375l-11.718750 0.000000l0.000000 75.203125l11.718750 0.000000l0.000000 6.984375l-20.703125 0.000000z"/>
<path id="c_7aecf22c350a602b3f972fa102c17cac" d="M9.812500 -72.906250l9.859375 0.000000l0.000000 30.812500l32.718750 -30.812500l12.703125 0.000000l-36.187500 33.984375l38.765625 38.921875l-12.984375 0.000000l-35.015625 -35.109375l0.000000 35.109375l-9.859375 0.000000z"/>
<path id="c_5bcf09947f6bf611091602c6fea1d302" d="M30.421875 -75.984375l0.000000 89.171875l-20.703125 0.000000l0.000000 -6.984375l11.671875 0.000000l0.000000 -75.203125l-11.671875 0.000000l0.000000 -6.984375z"/>
</defs>
<g style="fill: #000000; opacity: 1.000000" transform="translate(431.502733,585.646858)rotate(-7.2)scale(0.120000)">
<use xlink:href="#c_9e4b30cbdf32072672ded72e9074c4c9"/>
<use xlink:href="#c_0bce5afba2dc6b9024b26277c38ad8e8" x="44.083984"/>
<use xlink:href="#c_4653c6dfde66c7610eae0911760d3490" x="105.607422"/>
<use xlink:href="#c_f15a64fcd463ef4629c48bab42cde24c" x="203.019531"/>
<use xlink:href="#c_0bce5afba2dc6b9024b26277c38ad8e8" x="266.496094"/>
<use xlink:href="#c_6ec8d5749226675394676a5d2a3b468b" x="328.019531"/>
<use xlink:href="#c_01d93a582460e35a7945ca50d148ffeb" x="369.132812"/>
<use xlink:href="#c_0f8c41144cfbf448378cb6fd1cc8e549" x="430.412109"/>
<use xlink:href="#c_3b515ad41f960e225ec85275856806ca" x="469.621094"/>
<use xlink:href="#c_6ec8d5749226675394676a5d2a3b468b" x="533.000000"/>
<use xlink:href="#c_0bce5afba2dc6b9024b26277c38ad8e8" x="571.863281"/>
<use xlink:href="#c_d41d8cd98f00b204e9800998ecf8427e" x="633.386719"/>
<use xlink:href="#c_1a1d9ef1e4ddee695bd67a282879f099" x="665.173828"/>
<use xlink:href="#c_7aecf22c350a602b3f972fa102c17cac" x="704.187500"/>
<use xlink:href="#c_5bcf09947f6bf611091602c6fea1d302" x="769.763672"/>
</g>
</g>
<g id="Line3DCollection1">
<defs>
<path id="coll0_0_2d0a5afcb53e9fe8ab0bb1f2ae5b3dce" d="M244.486058 -66.572281L152.656794 -211.084096L144.075544 -522.947889"/>
<path id="coll0_1_e742713fecd581d855f01a37bee5b5dc" d="M295.545269 -72.072415L199.528111 -215.662449L192.825022 -526.718869"/>
<path id="coll0_2_124397c40098d836b9d50523aea88831" d="M346.264485 -77.535925L246.114548 -220.212975L241.266540 -530.466027"/>
<path id="coll0_3_d6e768535f8f4d96be79fb0e612d8f73" d="M396.647092 -82.963175L292.418693 -224.735927L289.403007 -534.189588"/>
<path id="coll0_4_b19d4cdd4d287dde1a7f4d4a7cca7dd8" d="M446.696428 -88.354525L338.443105 -229.231554L337.237295 -537.889774"/>
<path id="coll0_5_51f5a215bd6f2f77d57e3dbf475a6081" d="M496.415790 -93.710329L384.190310 -233.700105L384.772240 -541.566804"/>
<path id="coll0_6_6edf7afb2424a74ba6dd36a7d8ed5cb8" d="M545.808430 -99.030939L429.662806 -238.141822L432.010645 -545.220896"/>
<path id="coll0_7_a06a8abf246adb9bb679d73e8ed987c5" d="M594.877558 -104.316700L474.863060 -242.556947L478.955275 -548.852263"/>
</defs>
<use style="fill: none; stroke: #e6e6e6; stroke-width: 1.000000; stroke-linejoin: round; stroke-linecap: butt;  opacity: 1.000000" xlink:href="#coll0_0_2d0a5afcb53e9fe8ab0bb1f2ae5b3dce" x="0.000000" y="617.400000"/>
<use style="fill: none; stroke: #e6e6e6; stroke-width: 1.000000; stroke-linejoin: round; stroke-linecap: butt;  opacity: 1.000000" xlink:href="#coll0_1_e742713fecd581d855f01a37bee5b5dc" x="0.000000" y="617.400000"/>
<use style="fill: none; stroke: #e6e6e6; stroke-width: 1.000000; stroke-linejoin: round; stroke-linecap: butt;  opacity: 1.000000" xlink:href="#coll0_2_124397c40098d836b9d50523aea88831" x="0.000000" y="617.400000"/>
<use style="fill: none; stroke: #e6e6e6; stroke-width: 1.000000; stroke-linejoin: round; stroke-linecap: butt;  opacity: 1.000000" xlink:href="#coll0_3_d6e768535f8f4d96be79fb0e612d8f73" x="0.000000" y="617.400000"/>
<use style="fill: none; stroke: #e6e6e6; stroke-width: 1.000000; stroke-linejoin: round; stroke-linecap: butt;  opacity: 1.000000" xlink:href="#coll0_4_b19d4cdd4d287dde1a7f4d4a7cca7dd8" x="0.000000" y="617.400000"/>
<use style="fill: none; stroke: #e6e6e6; stroke-width: 1.000000; stroke-linejoin: round; stroke-linecap: butt;  opacity: 1.000000" xlink:href="#coll0_5_51f5a215bd6f2f77d57e3dbf475a6081" x="0.000000" y="617.400000"/>
<use style="fill: none; stroke: #e6e6e6; stroke-width: 1.000000; stroke-linejoin: round; stroke-linecap: butt;  opacity: 1.000000" xlink:href="#coll0_6_6edf7afb2424a74ba6dd36a7d8ed5cb8" x="0.000000" y="617.400000"/>
<use style="fill: none; stroke: #e6e6e6; stroke-width: 1.000000; stroke-linejoin: round; stroke-linecap: butt;  opacity: 1.000000" xlink:href="#coll0_7_a06a8abf246adb9bb679d73e8ed987c5" x="0.000000" y="617.400000"/>
</g>
<g id="xtick1">
<g id="line2d2">
<path style="fill: none; stroke: #000000; stroke-width: 1.000000; stroke-linejoin: round; stroke-linecap: square;  opacity: 1.000000"  d="M243.681361 549.561366L246.099175 553.366283"/>
</g>
<g id="text2">
<defs>
<path id="c_42baa63129a918535c52adb20d687ea7" d="M12.406250 -8.296875l16.109375 0.000000l0.000000 -55.625000l-17.531250 3.515625l0.000000 -8.984375l17.437500 -3.515625l9.859375 0.000000l0.000000 64.609375l16.109375 0.000000l0.000000 8.296875l-41.984375 0.000000z"/>
<path id="c_7a2040fe3b94fcd41d0a72c84e93b115" d="M31.781250 -66.406250q-7.609375 0.000000 -11.453125 7.500000q-3.828125 7.484375 -3.828125 22.531250q0.000000 14.984375 3.828125 22.484375q3.843750 7.500000 11.453125 7.500000q7.671875 0.000000 11.500000 -7.500000q3.843750 -7.500000 3.843750 -22.484375q0.000000 -15.046875 -3.843750 -22.531250q-3.828125 -7.500000 -11.500000 -7.500000M31.781250 -74.218750q12.265625 0.000000 18.734375 9.703125q6.468750 9.687500 6.468750 28.140625q0.000000 18.406250 -6.468750 28.109375q-6.468750 9.687500 -18.734375 9.687500q-12.250000 0.000000 -18.718750 -9.687500q-6.468750 -9.703125 -6.468750 -28.109375q0.000000 -18.453125 6.468750 -28.140625q6.468750 -9.703125 18.718750 -9.703125"/>
</defs>
<g style="fill: #000000; opacity: 1.000000" transform="translate(239.175223,582.893128)scale(0.120000)">
<use xlink:href="#c_42baa63129a918535c52adb20d687ea7"/>
<use xlink:href="#c_7a2040fe3b94fcd41d0a72c84e93b115" x="63.623047"/>
<use xlink:href="#c_7a2040fe3b94fcd41d0a72c84e93b115" x="127.246094"/>
</g>
</g>
</g>
<g id="xtick2">
<g id="line2d3">
<path style="fill: none; stroke: #000000; stroke-width: 1.000000; stroke-linejoin: round; stroke-linecap: square;  opacity: 1.000000"  d="M294.704118 544.069675L297.231449 547.849204"/>
</g>
<g id="text3">
<defs>
<path id="c_1260a2df50f305f3db244e29828f968e" d="M10.796875 -72.906250l38.718750 0.000000l0.000000 8.312500l-29.687500 0.000000l0.000000 17.859375q2.140625 -0.734375 4.281250 -1.093750q2.156250 -0.359375 4.312500 -0.359375q12.203125 0.000000 19.328125 6.687500q7.140625 6.687500 7.140625 18.109375q0.000000 11.765625 -7.328125 18.296875q-7.328125 6.515625 -20.656250 6.515625q-4.593750 0.000000 -9.359375 -0.781250q-4.750000 -0.781250 -9.828125 -2.343750l0.000000 -9.921875q4.390625 2.390625 9.078125 3.562500q4.687500 1.171875 9.906250 1.171875q8.453125 0.000000 13.375000 -4.437500q4.937500 -4.437500 4.937500 -12.062500q0.000000 -7.609375 -4.937500 -12.046875q-4.921875 -4.453125 -13.375000 -4.453125q-3.953125 0.000000 -7.890625 0.875000q-3.921875 0.875000 -8.015625 2.734375z"/>
</defs>
<g style="fill: #000000; opacity: 1.000000" transform="translate(290.350699,577.301065)scale(0.120000)">
<use xlink:href="#c_42baa63129a918535c52adb20d687ea7"/>
<use xlink:href="#c_1260a2df50f305f3db244e29828f968e" x="63.623047"/>
<use xlink:href="#c_7a2040fe3b94fcd41d0a72c84e93b115" x="127.246094"/>
</g>
</g>
</g>
<g id="xtick3">
<g id="line2d4">
<path style="fill: none; stroke: #000000; stroke-width: 1.000000; stroke-linejoin: round; stroke-linecap: square;  opacity: 1.000000"  d="M345.387382 538.614524L348.022721 542.368918"/>
</g>
<g id="text4">
<defs>
<path id="c_ed3f3ed3ebfbd18bcb9c012009a68ad1" d="M19.187500 -8.296875l34.421875 0.000000l0.000000 8.296875l-46.281250 0.000000l0.000000 -8.296875q5.609375 -5.812500 15.296875 -15.593750q9.703125 -9.796875 12.187500 -12.640625q4.734375 -5.312500 6.609375 -9.000000q1.890625 -3.687500 1.890625 -7.250000q0.000000 -5.812500 -4.078125 -9.468750q-4.078125 -3.671875 -10.625000 -3.671875q-4.640625 0.000000 -9.796875 1.609375q-5.140625 1.609375 -11.000000 4.890625l0.000000 -9.968750q5.953125 -2.390625 11.125000 -3.609375q5.187500 -1.218750 9.484375 -1.218750q11.328125 0.000000 18.062500 5.671875q6.734375 5.656250 6.734375 15.125000q0.000000 4.500000 -1.687500 8.531250q-1.671875 4.015625 -6.125000 9.484375q-1.218750 1.421875 -7.765625 8.187500q-6.531250 6.765625 -18.453125 18.921875"/>
</defs>
<g style="fill: #000000; opacity: 1.000000" transform="translate(340.965768,571.746336)scale(0.120000)">
<use xlink:href="#c_ed3f3ed3ebfbd18bcb9c012009a68ad1"/>
<use xlink:href="#c_7a2040fe3b94fcd41d0a72c84e93b115" x="63.623047"/>
<use xlink:href="#c_7a2040fe3b94fcd41d0a72c84e93b115" x="127.246094"/>
</g>
</g>
</g>
<g id="xtick4">
<g id="line2d5">
<path style="fill: none; stroke: #000000; stroke-width: 1.000000; stroke-linejoin: round; stroke-linecap: square;  opacity: 1.000000"  d="M395.734532 533.195550L398.476390 536.925059"/>
</g>
<g id="text5">
<g style="fill: #000000; opacity: 1.000000" transform="translate(391.461343,566.228568)scale(0.120000)">
<use xlink:href="#c_ed3f3ed3ebfbd18bcb9c012009a68ad1"/>
<use xlink:href="#c_1260a2df50f305f3db244e29828f968e" x="63.623047"/>
<use xlink:href="#c_7a2040fe3b94fcd41d0a72c84e93b115" x="127.246094"/>
</g>
</g>
</g>
<g id="xtick5">
<g id="line2d6">
<path style="fill: none; stroke: #000000; stroke-width: 1.000000; stroke-linejoin: round; stroke-linecap: square;  opacity: 1.000000"  d="M445.748898 527.812394L448.595811 531.517265"/>
</g>
<g id="text6">
<defs>
<path id="c_3dcfa38a02242cb63ec6726c6e70be7a" d="M40.578125 -39.312500q7.078125 1.515625 11.046875 6.312500q3.984375 4.781250 3.984375 11.812500q0.000000 10.781250 -7.421875 16.703125q-7.421875 5.906250 -21.093750 5.906250q-4.578125 0.000000 -9.437500 -0.906250q-4.859375 -0.906250 -10.031250 -2.718750l0.000000 -9.515625q4.093750 2.390625 8.968750 3.609375q4.890625 1.218750 10.218750 1.218750q9.265625 0.000000 14.125000 -3.656250q4.859375 -3.656250 4.859375 -10.640625q0.000000 -6.453125 -4.515625 -10.078125q-4.515625 -3.640625 -12.562500 -3.640625l-8.500000 0.000000l0.000000 -8.109375l8.890625 0.000000q7.265625 0.000000 11.125000 -2.906250q3.859375 -2.906250 3.859375 -8.375000q0.000000 -5.609375 -3.984375 -8.609375q-3.968750 -3.015625 -11.390625 -3.015625q-4.062500 0.000000 -8.703125 0.890625q-4.640625 0.875000 -10.203125 2.718750l0.000000 -8.781250q5.625000 -1.562500 10.531250 -2.343750q4.906250 -0.781250 9.250000 -0.781250q11.234375 0.000000 17.765625 5.109375q6.546875 5.093750 6.546875 13.781250q0.000000 6.062500 -3.468750 10.234375q-3.468750 4.171875 -9.859375 5.781250"/>
</defs>
<g style="fill: #000000; opacity: 1.000000" transform="translate(441.645473,560.747393)scale(0.120000)">
<use xlink:href="#c_3dcfa38a02242cb63ec6726c6e70be7a"/>
<use xlink:href="#c_7a2040fe3b94fcd41d0a72c84e93b115" x="63.623047"/>
<use xlink:href="#c_7a2040fe3b94fcd41d0a72c84e93b115" x="127.246094"/>
</g>
</g>
</g>
<g id="xtick6">
<g id="line2d7">
<path style="fill: none; stroke: #000000; stroke-width: 1.000000; stroke-linejoin: round; stroke-linecap: square;  opacity: 1.000000"  d="M495.433771 522.464703L498.384294 526.145178"/>
</g>
<g id="text7">
<g style="fill: #000000; opacity: 1.000000" transform="translate(491.474606,555.302448)scale(0.120000)">
<use xlink:href="#c_3dcfa38a02242cb63ec6726c6e70be7a"/>
<use xlink:href="#c_1260a2df50f305f3db244e29828f968e" x="63.623047"/>
<use xlink:href="#c_7a2040fe3b94fcd41d0a72c84e93b115" x="127.246094"/>
</g>
</g>
</g>
<g id="xtick7">
<g id="line2d8">
<path style="fill: none; stroke: #000000; stroke-width: 1.000000; stroke-linejoin: round; stroke-linecap: square;  opacity: 1.000000"  d="M544.792394 517.152126L547.845107 520.808447"/>
</g>
<g id="text8">
<defs>
<path id="c_a0416418d96557a09b8c1332d34883ba" d="M37.796875 -64.312500l-24.906250 38.921875l24.906250 0.000000zM35.203125 -72.906250l12.406250 0.000000l0.000000 47.515625l10.406250 0.000000l0.000000 8.203125l-10.406250 0.000000l0.000000 17.187500l-9.812500 0.000000l0.000000 -17.187500l-32.906250 0.000000l0.000000 -9.515625z"/>
</defs>
<g style="fill: #000000; opacity: 1.000000" transform="translate(540.811392,549.893376)scale(0.120000)">
<use xlink:href="#c_a0416418d96557a09b8c1332d34883ba"/>
<use xlink:href="#c_7a2040fe3b94fcd41d0a72c84e93b115" x="63.623047"/>
<use xlink:href="#c_7a2040fe3b94fcd41d0a72c84e93b115" x="127.246094"/>
</g>
</g>
</g>
<g id="xtick8">
<g id="line2d9">
<path style="fill: none; stroke: #000000; stroke-width: 1.000000; stroke-linejoin: round; stroke-linecap: square;  opacity: 1.000000"  d="M593.827972 511.874320L596.981474 515.506722"/>
</g>
<g id="text9">
<g style="fill: #000000; opacity: 1.000000" transform="translate(589.987190,544.519822)scale(0.120000)">
<use xlink:href="#c_a0416418d96557a09b8c1332d34883ba"/>
<use xlink:href="#c_1260a2df50f305f3db244e29828f968e" x="63.623047"/>
<use xlink:href="#c_7a2040fe3b94fcd41d0a72c84e93b115" x="127.246094"/>
</g>
</g>
</g>
</g>
<g id="axis3d2">
<g id="patch4">
<path style="fill: #e6e6e6; stroke: #e6e6e6; stroke-width: 1.000000; stroke-linejoin: round; stroke-linecap: square;  opacity: 0.500000"  d="M132.664426 408.268743L499.768167 372.410342L504.816857 66.547233
L123.278488 96.060852"/>
</g>
<g id="line2d10">
<path style="fill: none; stroke: #000000; stroke-width: 0.750000; stroke-linejoin: round; stroke-linecap: square;  opacity: 1.000000"  d="M132.664426 408.268743L222.698285 553.174713"/>
</g>
<g id="text10">
<defs>
<path id="c_a469f8ee191679fe73f3b765bd271597" d="M64.406250 -67.281250l0.000000 10.390625q-4.984375 -4.640625 -10.625000 -6.921875q-5.640625 -2.296875 -11.984375 -2.296875q-12.500000 0.000000 -19.140625 7.640625q-6.640625 7.640625 -6.640625 22.093750q0.000000 14.406250 6.640625 22.046875q6.640625 7.640625 19.140625 7.640625q6.343750 0.000000 11.984375 -2.296875q5.640625 -2.296875 10.625000 -6.937500l0.000000 10.312500q-5.171875 3.515625 -10.968750 5.281250q-5.781250 1.750000 -12.218750 1.750000q-16.562500 0.000000 -26.093750 -10.125000q-9.515625 -10.140625 -9.515625 -27.671875q0.000000 -17.578125 9.515625 -27.703125q9.531250 -10.140625 26.093750 -10.140625q6.531250 0.000000 12.312500 1.734375q5.796875 1.734375 10.875000 5.203125"/>
<path id="c_f05dd90d41f04bb96ef1ca503cc2044b" d="M30.609375 -48.390625q-7.218750 0.000000 -11.421875 5.640625q-4.203125 5.640625 -4.203125 15.453125q0.000000 9.812500 4.171875 15.453125q4.187500 5.640625 11.453125 5.640625q7.187500 0.000000 11.375000 -5.656250q4.203125 -5.671875 4.203125 -15.437500q0.000000 -9.718750 -4.203125 -15.406250q-4.187500 -5.687500 -11.375000 -5.687500M30.609375 -56.000000q11.718750 0.000000 18.406250 7.625000q6.703125 7.609375 6.703125 21.078125q0.000000 13.421875 -6.703125 21.078125q-6.687500 7.640625 -18.406250 7.640625q-11.765625 0.000000 -18.437500 -7.640625q-6.656250 -7.656250 -6.656250 -21.078125q0.000000 -13.468750 6.656250 -21.078125q6.671875 -7.625000 18.437500 -7.625000"/>
<path id="c_8e0810ad13fe20a2a87a2619799b154d" d="M44.281250 -53.078125l0.000000 8.500000q-3.796875 -1.953125 -7.906250 -2.921875q-4.093750 -0.984375 -8.500000 -0.984375q-6.687500 0.000000 -10.031250 2.046875q-3.343750 2.046875 -3.343750 6.156250q0.000000 3.125000 2.390625 4.906250q2.390625 1.781250 9.625000 3.390625l3.078125 0.687500q9.562500 2.046875 13.593750 5.781250q4.031250 3.734375 4.031250 10.421875q0.000000 7.625000 -6.031250 12.078125q-6.031250 4.437500 -16.578125 4.437500q-4.390625 0.000000 -9.156250 -0.859375q-4.765625 -0.859375 -10.031250 -2.562500l0.000000 -9.281250q4.984375 2.593750 9.812500 3.890625q4.828125 1.281250 9.578125 1.281250q6.343750 0.000000 9.750000 -2.171875q3.421875 -2.171875 3.421875 -6.125000q0.000000 -3.656250 -2.468750 -5.609375q-2.453125 -1.953125 -10.812500 -3.765625l-3.125000 -0.734375q-8.343750 -1.750000 -12.062500 -5.390625q-3.703125 -3.640625 -3.703125 -9.984375q0.000000 -7.718750 5.468750 -11.906250q5.468750 -4.203125 15.531250 -4.203125q4.968750 0.000000 9.359375 0.734375q4.406250 0.718750 8.109375 2.187500"/>
<path id="c_6a63bda47b2f3da1cec6aadd80692cfe" d="M9.421875 -54.687500l8.984375 0.000000l0.000000 54.687500l-8.984375 0.000000zM9.421875 -75.984375l8.984375 0.000000l0.000000 11.390625l-8.984375 0.000000z"/>
<path id="c_fe791a90f5471e2ab20a5ed41a7fa451" d="M54.890625 -33.015625l0.000000 33.015625l-8.984375 0.000000l0.000000 -32.718750q0.000000 -7.765625 -3.031250 -11.609375q-3.031250 -3.859375 -9.078125 -3.859375q-7.281250 0.000000 -11.484375 4.640625q-4.203125 4.625000 -4.203125 12.640625l0.000000 30.906250l-9.031250 0.000000l0.000000 -54.687500l9.031250 0.000000l0.000000 8.500000q3.234375 -4.937500 7.593750 -7.375000q4.375000 -2.437500 10.093750 -2.437500q9.421875 0.000000 14.250000 5.828125q4.843750 5.828125 4.843750 17.156250"/>
</defs>
<g style="fill: #000000; opacity: 1.000000" transform="translate(122.349009,497.329701)rotate(-298.1)scale(0.120000)">
<use xlink:href="#c_a469f8ee191679fe73f3b765bd271597"/>
<use xlink:href="#c_f05dd90d41f04bb96ef1ca503cc2044b" x="69.824219"/>
<use xlink:href="#c_4653c6dfde66c7610eae0911760d3490" x="131.005859"/>
<use xlink:href="#c_f15a64fcd463ef4629c48bab42cde24c" x="228.417969"/>
<use xlink:href="#c_f05dd90d41f04bb96ef1ca503cc2044b" x="291.894531"/>
<use xlink:href="#c_8e0810ad13fe20a2a87a2619799b154d" x="353.076172"/>
<use xlink:href="#c_6a63bda47b2f3da1cec6aadd80692cfe" x="405.175781"/>
<use xlink:href="#c_0f8c41144cfbf448378cb6fd1cc8e549" x="432.958984"/>
<use xlink:href="#c_6a63bda47b2f3da1cec6aadd80692cfe" x="472.167969"/>
<use xlink:href="#c_f05dd90d41f04bb96ef1ca503cc2044b" x="499.951172"/>
<use xlink:href="#c_fe791a90f5471e2ab20a5ed41a7fa451" x="561.132812"/>
</g>
</g>
<g id="Line3DCollection2">
<defs>
<path id="coll1_0_d73abd6de997e6e2998717951de92e28" d="M603.489147 -463.083818L594.132791 -138.550837L202.190915 -97.231095"/>
<path id="coll1_1_0a2e4b4f6764ceeda82617c66e3fab25" d="M578.098729 -485.668581L569.901444 -165.882647L184.314080 -126.003161"/>
<path id="coll1_2_4c409e00fb23e85e855806e9efcec4a0" d="M553.609548 -507.451695L546.497008 -192.281742L167.062753 -153.768496"/>
<path id="coll1_3_09d4c6168ff002dc969c53a4aaeeb491" d="M529.974456 -528.475096L523.877863 -217.795065L150.404669 -180.579030"/>
</defs>
<use style="fill: none; stroke: #e6e6e6; stroke-width: 1.000000; stroke-linejoin: round; stroke-linecap: butt;  opacity: 1.000000" xlink:href="#coll1_0_d73abd6de997e6e2998717951de92e28" x="0.000000" y="617.400000"/>
<use style="fill: none; stroke: #e6e6e6; stroke-width: 1.000000; stroke-linejoin: round; stroke-linecap: butt;  opacity: 1.000000" xlink:href="#coll1_1_0a2e4b4f6764ceeda82617c66e3fab25" x="0.000000" y="617.400000"/>
<use style="fill: none; stroke: #e6e6e6; stroke-width: 1.000000; stroke-linejoin: round; stroke-linecap: butt;  opacity: 1.000000" xlink:href="#coll1_2_4c409e00fb23e85e855806e9efcec4a0" x="0.000000" y="617.400000"/>
<use style="fill: none; stroke: #e6e6e6; stroke-width: 1.000000; stroke-linejoin: round; stroke-linecap: butt;  opacity: 1.000000" xlink:href="#coll1_3_09d4c6168ff002dc969c53a4aaeeb491" x="0.000000" y="617.400000"/>
</g>
<g id="xtick9">
<g id="line2d11">
<path style="fill: none; stroke: #000000; stroke-width: 1.000000; stroke-linejoin: round; stroke-linecap: square;  opacity: 1.000000"  d="M205.408060 519.829743L195.752570 520.847655"/>
</g>
<g id="text11">
<defs>
<path id="c_ed3e21196fb739f392806f09ca0594ef" d="M10.687500 -12.406250l10.312500 0.000000l0.000000 12.406250l-10.312500 0.000000z"/>
</defs>
<g style="fill: #000000; opacity: 1.000000" transform="translate(174.679309,546.364786)scale(0.120000)">
<use xlink:href="#c_7a2040fe3b94fcd41d0a72c84e93b115"/>
<use xlink:href="#c_ed3e21196fb739f392806f09ca0594ef" x="63.623047"/>
<use xlink:href="#c_ed3f3ed3ebfbd18bcb9c012009a68ad1" x="95.410156"/>
</g>
</g>
</g>
<g id="xtick10">
<g id="line2d12">
<path style="fill: none; stroke: #000000; stroke-width: 1.000000; stroke-linejoin: round; stroke-linecap: square;  opacity: 1.000000"  d="M187.477637 491.069647L177.983051 492.051628"/>
</g>
<g id="text12">
<g style="fill: #000000; opacity: 1.000000" transform="translate(156.886734,517.305064)scale(0.120000)">
<use xlink:href="#c_7a2040fe3b94fcd41d0a72c84e93b115"/>
<use xlink:href="#c_ed3e21196fb739f392806f09ca0594ef" x="63.623047"/>
<use xlink:href="#c_a0416418d96557a09b8c1332d34883ba" x="95.410156"/>
</g>
</g>
</g>
<g id="xtick11">
<g id="line2d13">
<path style="fill: none; stroke: #000000; stroke-width: 1.000000; stroke-linejoin: round; stroke-linecap: square;  opacity: 1.000000"  d="M170.174470 463.315659L160.835537 464.263577"/>
</g>
<g id="text13">
<defs>
<path id="c_cc8d6d580d1b10c8632f7a42cd53db8a" d="M33.015625 -40.375000q-6.640625 0.000000 -10.531250 4.546875q-3.875000 4.531250 -3.875000 12.437500q0.000000 7.859375 3.875000 12.437500q3.890625 4.562500 10.531250 4.562500q6.640625 0.000000 10.515625 -4.562500q3.875000 -4.578125 3.875000 -12.437500q0.000000 -7.906250 -3.875000 -12.437500q-3.875000 -4.546875 -10.515625 -4.546875M52.593750 -71.296875l0.000000 8.984375q-3.718750 -1.750000 -7.500000 -2.671875q-3.781250 -0.937500 -7.500000 -0.937500q-9.765625 0.000000 -14.921875 6.593750q-5.140625 6.593750 -5.875000 19.921875q2.875000 -4.250000 7.218750 -6.515625q4.359375 -2.265625 9.578125 -2.265625q10.984375 0.000000 17.359375 6.671875q6.375000 6.656250 6.375000 18.125000q0.000000 11.234375 -6.640625 18.031250q-6.640625 6.781250 -17.671875 6.781250q-12.656250 0.000000 -19.343750 -9.687500q-6.687500 -9.703125 -6.687500 -28.109375q0.000000 -17.281250 8.203125 -27.562500q8.203125 -10.281250 22.015625 -10.281250q3.718750 0.000000 7.500000 0.734375q3.781250 0.734375 7.890625 2.187500"/>
</defs>
<g style="fill: #000000; opacity: 1.000000" transform="translate(140.019505,489.261443)scale(0.120000)">
<use xlink:href="#c_7a2040fe3b94fcd41d0a72c84e93b115"/>
<use xlink:href="#c_ed3e21196fb739f392806f09ca0594ef" x="63.623047"/>
<use xlink:href="#c_cc8d6d580d1b10c8632f7a42cd53db8a" x="95.410156"/>
</g>
</g>
</g>
<g id="xtick12">
<g id="line2d14">
<path style="fill: none; stroke: #000000; stroke-width: 1.000000; stroke-linejoin: round; stroke-linecap: square;  opacity: 1.000000"  d="M153.466209 436.515892L144.277930 437.431490"/>
</g>
<g id="text14">
<defs>
<path id="c_bef35738d52871942e50b9de9b122bab" d="M31.781250 -34.625000q-7.031250 0.000000 -11.062500 3.765625q-4.015625 3.765625 -4.015625 10.343750q0.000000 6.593750 4.015625 10.359375q4.031250 3.765625 11.062500 3.765625q7.031250 0.000000 11.078125 -3.781250q4.062500 -3.796875 4.062500 -10.343750q0.000000 -6.578125 -4.031250 -10.343750q-4.015625 -3.765625 -11.109375 -3.765625M21.921875 -38.812500q-6.343750 -1.562500 -9.890625 -5.906250q-3.531250 -4.359375 -3.531250 -10.609375q0.000000 -8.734375 6.218750 -13.812500q6.234375 -5.078125 17.062500 -5.078125q10.890625 0.000000 17.093750 5.078125q6.203125 5.078125 6.203125 13.812500q0.000000 6.250000 -3.546875 10.609375q-3.531250 4.343750 -9.828125 5.906250q7.125000 1.656250 11.093750 6.500000q3.984375 4.828125 3.984375 11.796875q0.000000 10.609375 -6.468750 16.281250q-6.468750 5.656250 -18.531250 5.656250q-12.046875 0.000000 -18.531250 -5.656250q-6.468750 -5.671875 -6.468750 -16.281250q0.000000 -6.968750 4.000000 -11.796875q4.015625 -4.843750 11.140625 -6.500000M18.312500 -54.390625q0.000000 5.656250 3.531250 8.828125q3.546875 3.171875 9.937500 3.171875q6.359375 0.000000 9.937500 -3.171875q3.593750 -3.171875 3.593750 -8.828125q0.000000 -5.671875 -3.593750 -8.843750q-3.578125 -3.171875 -9.937500 -3.171875q-6.390625 0.000000 -9.937500 3.171875q-3.531250 3.171875 -3.531250 8.843750"/>
</defs>
<g style="fill: #000000; opacity: 1.000000" transform="translate(123.717907,462.181546)scale(0.120000)">
<use xlink:href="#c_7a2040fe3b94fcd41d0a72c84e93b115"/>
<use xlink:href="#c_ed3e21196fb739f392806f09ca0594ef" x="63.623047"/>
<use xlink:href="#c_bef35738d52871942e50b9de9b122bab" x="95.410156"/>
</g>
</g>
</g>
</g>
<g id="axis3d3">
<g id="patch5">
<path style="fill: #ececec; stroke: #ececec; stroke-width: 1.000000; stroke-linejoin: round; stroke-linecap: square;  opacity: 0.500000"  d="M222.698285 553.174713L621.902562 510.172147L499.768167 372.410342
L132.664426 408.268743"/>
</g>
<g id="line2d15">
<path style="fill: none; stroke: #000000; stroke-width: 0.750000; stroke-linejoin: round; stroke-linecap: square;  opacity: 1.000000"  d="M132.664426 408.268743L123.278488 96.060852"/>
</g>
<g id="text15">
<defs>
<path id="c_518d586bee075aa0153eaebfcb5ab11f" d="M19.671875 -64.796875l0.000000 27.390625l12.406250 0.000000q6.890625 0.000000 10.640625 -3.562500q3.765625 -3.562500 3.765625 -10.156250q0.000000 -6.546875 -3.765625 -10.109375q-3.750000 -3.562500 -10.640625 -3.562500zM9.812500 -72.906250l22.265625 0.000000q12.265625 0.000000 18.531250 5.546875q6.281250 5.546875 6.281250 16.234375q0.000000 10.796875 -6.281250 16.312500q-6.265625 5.515625 -18.531250 5.515625l-12.406250 0.000000l0.000000 29.296875l-9.859375 0.000000z"/>
<path id="c_5cc9741494d2ad8f9764e03ae145569f" d="M48.687500 -27.296875q0.000000 -9.906250 -4.078125 -15.546875q-4.078125 -5.640625 -11.203125 -5.640625q-7.140625 0.000000 -11.218750 5.640625q-4.078125 5.640625 -4.078125 15.546875q0.000000 9.906250 4.078125 15.546875q4.078125 5.640625 11.218750 5.640625q7.125000 0.000000 11.203125 -5.640625q4.078125 -5.640625 4.078125 -15.546875M18.109375 -46.390625q2.843750 -4.875000 7.156250 -7.234375q4.328125 -2.375000 10.328125 -2.375000q9.968750 0.000000 16.187500 7.906250q6.234375 7.906250 6.234375 20.796875q0.000000 12.890625 -6.234375 20.812500q-6.218750 7.906250 -16.187500 7.906250q-6.000000 0.000000 -10.328125 -2.375000q-4.312500 -2.375000 -7.156250 -7.250000l0.000000 8.203125l-9.031250 0.000000l0.000000 -75.984375l9.031250 0.000000z"/>
</defs>
<g style="fill: #000000; opacity: 1.000000" transform="translate(72.246864,170.675835)rotate(-271.5)scale(0.120000)">
<use xlink:href="#c_518d586bee075aa0153eaebfcb5ab11f"/>
<use xlink:href="#c_6ec8d5749226675394676a5d2a3b468b" x="58.552734"/>
<use xlink:href="#c_0bce5afba2dc6b9024b26277c38ad8e8" x="97.416016"/>
<use xlink:href="#c_8e0810ad13fe20a2a87a2619799b154d" x="158.939453"/>
<use xlink:href="#c_8e0810ad13fe20a2a87a2619799b154d" x="211.039062"/>
<use xlink:href="#c_3b515ad41f960e225ec85275856806ca" x="263.138672"/>
<use xlink:href="#c_6ec8d5749226675394676a5d2a3b468b" x="326.517578"/>
<use xlink:href="#c_0bce5afba2dc6b9024b26277c38ad8e8" x="365.380859"/>
<use xlink:href="#c_d41d8cd98f00b204e9800998ecf8427e" x="426.904297"/>
<use xlink:href="#c_1a1d9ef1e4ddee695bd67a282879f099" x="458.691406"/>
<use xlink:href="#c_5cc9741494d2ad8f9764e03ae145569f" x="497.705078"/>
<use xlink:href="#c_01d93a582460e35a7945ca50d148ffeb" x="561.181641"/>
<use xlink:href="#c_6ec8d5749226675394676a5d2a3b468b" x="622.460937"/>
<use xlink:href="#c_5bcf09947f6bf611091602c6fea1d302" x="663.574219"/>
</g>
</g>
<g id="Line3DCollection3">
<defs>
<path id="coll2_0_caca902e8c2b8890e35c14ca22acaa6f" d="M130.584785 -278.307119L500.887628 -312.809594L624.274990 -180.178029"/>
<path id="coll2_1_d1416f896ff9728ef35e9bf87d2af8f5" d="M128.655134 -342.493819L501.925931 -375.712747L626.478842 -247.944639"/>
<path id="coll2_2_1ff44a2dfe830dbc3f53fcd178a59ca2" d="M126.694027 -407.726823L502.980746 -439.616232L628.721119 -316.892778"/>
<path id="coll2_3_67e669a0f77df373634f7bc6756725fc" d="M124.700690 -474.031927L504.052469 -504.544101L631.002835 -387.053621"/>
</defs>
<use style="fill: none; stroke: #e6e6e6; stroke-width: 1.000000; stroke-linejoin: round; stroke-linecap: butt;  opacity: 1.000000" xlink:href="#coll2_0_caca902e8c2b8890e35c14ca22acaa6f" x="0.000000" y="617.400000"/>
<use style="fill: none; stroke: #e6e6e6; stroke-width: 1.000000; stroke-linejoin: round; stroke-linecap: butt;  opacity: 1.000000" xlink:href="#coll2_1_d1416f896ff9728ef35e9bf87d2af8f5" x="0.000000" y="617.400000"/>
<use style="fill: none; stroke: #e6e6e6; stroke-width: 1.000000; stroke-linejoin: round; stroke-linecap: butt;  opacity: 1.000000" xlink:href="#coll2_2_1ff44a2dfe830dbc3f53fcd178a59ca2" x="0.000000" y="617.400000"/>
<use style="fill: none; stroke: #e6e6e6; stroke-width: 1.000000; stroke-linejoin: round; stroke-linecap: butt;  opacity: 1.000000" xlink:href="#coll2_3_67e669a0f77df373634f7bc6756725fc" x="0.000000" y="617.400000"/>
</g>
<g id="xtick13">
<g id="line2d16">
<path style="fill: none; stroke: #000000; stroke-width: 1.000000; stroke-linejoin: round; stroke-linecap: square;  opacity: 1.000000"  d="M133.619605 338.810116L124.511555 339.658746"/>
</g>
<g id="text16">
<g style="fill: #000000; opacity: 1.000000" transform="translate(101.886667,343.603970)scale(0.120000)">
<use xlink:href="#c_42baa63129a918535c52adb20d687ea7"/>
<use xlink:href="#c_7a2040fe3b94fcd41d0a72c84e93b115" x="63.623047"/>
</g>
</g>
</g>
<g id="xtick14">
<g id="line2d17">
<path style="fill: none; stroke: #000000; stroke-width: 1.000000; stroke-linejoin: round; stroke-linecap: square;  opacity: 1.000000"  d="M131.714867 274.633883L122.532018 275.451103"/>
</g>
<g id="text17">
<g style="fill: #000000; opacity: 1.000000" transform="translate(99.566009,279.580059)scale(0.120000)">
<use xlink:href="#c_ed3f3ed3ebfbd18bcb9c012009a68ad1"/>
<use xlink:href="#c_7a2040fe3b94fcd41d0a72c84e93b115" x="63.623047"/>
</g>
</g>
</g>
<g id="xtick15">
<g id="line2d18">
<path style="fill: none; stroke: #000000; stroke-width: 1.000000; stroke-linejoin: round; stroke-linecap: square;  opacity: 1.000000"  d="M129.779087 209.411725L120.520199 210.196394"/>
</g>
<g id="text18">
<g style="fill: #000000; opacity: 1.000000" transform="translate(97.453382,214.515746)scale(0.120000)">
<use xlink:href="#c_3dcfa38a02242cb63ec6726c6e70be7a"/>
<use xlink:href="#c_7a2040fe3b94fcd41d0a72c84e93b115" x="63.623047"/>
</g>
</g>
</g>
<g id="xtick16">
<g id="line2d19">
<path style="fill: none; stroke: #000000; stroke-width: 1.000000; stroke-linejoin: round; stroke-linecap: square;  opacity: 1.000000"  d="M127.811498 143.117864L118.475302 143.868796"/>
</g>
<g id="text19">
<g style="fill: #000000; opacity: 1.000000" transform="translate(95.118259,148.385463)scale(0.120000)">
<use xlink:href="#c_a0416418d96557a09b8c1332d34883ba"/>
<use xlink:href="#c_7a2040fe3b94fcd41d0a72c84e93b115" x="63.623047"/>
</g>
</g>
</g>
</g>
<g id="axes1">
<g id="line2d20">
<defs>
  <clipPath id="pc4187b6043a42ef6e656d3a675add9dc">
<rect x="0.000000" y="0.000000" width="719.100000" height="617.400000"/>
  </clipPath>
</defs><path style="fill: none; stroke: #008000; stroke-width: 1.000000; stroke-linejoin: round; stroke-linecap: square;  opacity: 1.000000" clip-path="url(#pc4187b6043a42ef6e656d3a675add9dc)" d="M405.574259 106.748705L398.098541 142.473535L389.933180 177.794207
L382.024899 208.570615L374.354111 235.279881L366.905490 258.440384
L359.664152 278.487493L352.616256 295.842084L345.752371 310.849924
L339.062068 323.690866L332.537624 334.740674L326.171816 344.199706
L319.959234 352.277393L313.892350 359.161914L307.967786 365.007804
L300.281060 371.439464L292.829125 376.577711L285.603003 380.675449
L278.596134 383.940423L270.135444 387.110082L260.401039 389.919011
L249.599983 392.259785L236.543610 394.363683L217.965880 396.615712
L175.770678 400.838747L141.665999 404.163228L141.665999 404.163228"/>
</g>
<g id="line2d21">
<path style="fill: none; stroke: #008000; stroke-width: 1.000000; stroke-linejoin: round; stroke-linecap: square;  opacity: 1.000000" clip-path="url(#pc4187b6043a42ef6e656d3a675add9dc)" d="M618.800567 272.780071L608.785936 302.684258L600.847416 324.642353
L593.113429 344.567934L585.572602 362.623978L578.210626 379.037000
L571.020474 393.824108L563.989633 407.271823L553.728839 424.998432
L543.786304 440.223324L534.139254 453.251791L524.769706 464.388821
L515.659402 473.887553L506.795989 481.970208L498.164609 488.843338
L489.754203 494.664566L481.556433 499.596642L473.561135 503.774970
L463.202318 508.372000L453.172927 512.059554L441.078600 515.689740
L429.452687 518.504921L413.921346 521.500502L395.156283 524.341843
L368.451514 527.619594L302.463589 534.779125L254.051790 539.962992
L254.051790 539.962992"/>
</g>
<g id="line2d22">
<path style="fill: none; stroke: #000000; stroke-width: 1.000000; stroke-linejoin: round; stroke-linecap: square;  opacity: 1.000000" clip-path="url(#pc4187b6043a42ef6e656d3a675add9dc)" d="M618.800567 272.780071L595.012649 238.031668L577.062948 212.993232
L561.644346 192.576552L547.883610 175.412571L534.846358 160.250403
L523.594905 148.159576L513.172170 137.889350L503.619080 129.345475
L493.888288 121.579245L485.077915 115.429362L477.235801 110.710215
L469.261042 106.683680L462.313233 103.843178L455.255095 101.621951
L448.079423 100.075771L440.777461 99.265137L434.588287 99.197148
L428.296404 99.723308L421.892130 100.885015L415.362693 102.728586
L408.691833 105.303855L405.979045 106.551852L405.979045 106.551852"/>
</g>
<g id="line2d23">
<path style="fill: none; stroke: #bfbf00; stroke-width: 1.000000; stroke-linejoin: round; stroke-linecap: butt; stroke-dasharray: 3.000000,5.000000,1.000000,5.000000; stroke-dashoffset: 0.000000; opacity: 1.000000" clip-path="url(#pc4187b6043a42ef6e656d3a675add9dc)" d="M444.438794 514.760820L407.568163 448.402593L376.343562 390.895755
L351.684679 344.173273L340.684840 322.684063L340.684840 322.684063"/>
</g>
<g id="line2d24">
<path style="fill: none; stroke: #bfbf00; stroke-width: 1.000000; stroke-linejoin: round; stroke-linecap: butt; stroke-dasharray: 3.000000,5.000000,1.000000,5.000000; stroke-dashoffset: 0.000000; opacity: 1.000000" clip-path="url(#pc4187b6043a42ef6e656d3a675add9dc)" d="M444.438794 514.760820L411.015605 469.663361L390.260570 440.583868
L377.015469 420.916430L367.635105 405.792049L360.864387 393.592640
L355.880525 383.291317L351.780306 373.278951L348.077579 362.095520
L345.151379 350.736662L342.651750 338.147188L340.308874 322.689392
L340.308874 322.689392"/>
</g>
<g id="line2d25">
<path style="fill: none; stroke: #000000; stroke-width: 1.000000; stroke-linejoin: round; stroke-linecap: butt; stroke-dasharray: 3.000000,5.000000,1.000000,5.000000; stroke-dashoffset: 0.000000; opacity: 1.000000" clip-path="url(#pc4187b6043a42ef6e656d3a675add9dc)" d="M581.999192 370.757697L515.051564 341.264205L489.428251 329.107216
L469.395852 318.966381L449.040861 307.973366L425.978032 294.570740
L405.096500 281.535801L382.777312 266.701598L368.493420 256.782527
L368.493420 256.782527"/>
</g>
<g id="line2d26">
<path style="fill: none; stroke: #000000; stroke-width: 1.000000; stroke-linejoin: round; stroke-linecap: butt; stroke-dasharray: 3.000000,5.000000,1.000000,5.000000; stroke-dashoffset: 0.000000; opacity: 1.000000" clip-path="url(#pc4187b6043a42ef6e656d3a675add9dc)" d="M581.999192 370.757697L536.613758 340.777506L509.674314 323.686734
L485.537512 309.058221L462.387049 295.850929L444.675916 286.446714
L428.690446 278.591614L414.364544 272.157949L397.627591 265.487289
L382.707999 260.419352L369.267118 256.609915L368.177682 256.324894
L368.177682 256.324894"/>
</g>
<g id="line2d27">
<path style="fill: none; stroke: #8f00ff; stroke-width: 1.000000; stroke-linejoin: round; stroke-linecap: butt; stroke-dasharray: 6.000000,6.000000; stroke-dashoffset: 0.000000; opacity: 1.000000" clip-path="url(#pc4187b6043a42ef6e656d3a675add9dc)" d="M522.252161 146.787155L522.753513 148.081186L522.932076 149.449383
L522.900539 154.719465L521.991068 164.280333L520.200682 176.928527
L516.533376 197.620339L511.561901 221.328798L506.324066 243.381284
L499.494106 268.872989L492.939215 290.597761L486.998308 308.332641
L480.853364 324.980653L474.552839 340.379302L467.092758 356.643335
L460.672509 369.107979L454.270676 380.234752L446.865552 391.614431
L439.573206 401.403058L433.447465 408.646335L426.467382 415.909236
L418.739858 422.844444L411.281209 428.548777L404.106505 433.228053
L395.630849 437.876049L387.673531 441.489834L378.755213 444.821201
L369.121665 447.720866L357.471558 450.479649L343.438684 453.027272
L325.725113 455.499103L296.480904 458.778726L199.181583 468.738938
L199.181583 468.738938"/>
</g>
<g id="matplotlib.axis1">
</g>
<g id="matplotlib.axis2">
</g>
<g id="text20">
<defs>
<path id="c_7b26b13f539f13a4c64eef23b6952d29" d="M4.890625 -31.390625l26.312500 0.000000l0.000000 8.000000l-26.312500 0.000000z"/>
<path id="c_9266f381a194deb1d9d439e9a9317ead" d="M9.421875 -54.687500l8.984375 0.000000l0.000000 55.671875q0.000000 10.437500 -3.984375 15.125000q-3.968750 4.687500 -12.812500 4.687500l-3.421875 0.000000l0.000000 -7.609375l2.406250 0.000000q5.125000 0.000000 6.968750 -2.375000q1.859375 -2.359375 1.859375 -9.828125zM9.421875 -75.984375l8.984375 0.000000l0.000000 11.390625l-8.984375 0.000000z"/>
<path id="c_d650c37394b681142a10dfc54356d478" d="M48.781250 -52.593750l0.000000 8.406250q-3.812500 -2.109375 -7.640625 -3.156250q-3.828125 -1.046875 -7.734375 -1.046875q-8.750000 0.000000 -13.593750 5.546875q-4.828125 5.531250 -4.828125 15.546875q0.000000 10.015625 4.828125 15.562500q4.843750 5.531250 13.593750 5.531250q3.906250 0.000000 7.734375 -1.046875q3.828125 -1.046875 7.640625 -3.156250l0.000000 8.312500q-3.765625 1.750000 -7.796875 2.625000q-4.015625 0.890625 -8.562500 0.890625q-12.359375 0.000000 -19.640625 -7.765625q-7.265625 -7.765625 -7.265625 -20.953125q0.000000 -13.375000 7.343750 -21.031250q7.359375 -7.671875 20.156250 -7.671875q4.140625 0.000000 8.093750 0.859375q3.953125 0.843750 7.671875 2.546875"/>
<path id="c_73b12fe3945075d29fe0cc9a468fa31e" d="M37.109375 -75.984375l0.000000 7.484375l-8.593750 0.000000q-4.828125 0.000000 -6.718750 1.953125q-1.875000 1.953125 -1.875000 7.031250l0.000000 4.828125l14.796875 0.000000l0.000000 6.984375l-14.796875 0.000000l0.000000 47.703125l-9.031250 0.000000l0.000000 -47.703125l-8.593750 0.000000l0.000000 -6.984375l8.593750 0.000000l0.000000 -3.812500q0.000000 -9.125000 4.250000 -13.296875q4.250000 -4.187500 13.468750 -4.187500z"/>
<path id="c_e3864de5dabf2f8dd9eee74726882ec1" d="M45.406250 -27.984375q0.000000 -9.765625 -4.031250 -15.125000q-4.015625 -5.375000 -11.296875 -5.375000q-7.218750 0.000000 -11.250000 5.375000q-4.031250 5.359375 -4.031250 15.125000q0.000000 9.718750 4.031250 15.093750q4.031250 5.375000 11.250000 5.375000q7.281250 0.000000 11.296875 -5.375000q4.031250 -5.375000 4.031250 -15.093750M54.390625 -6.781250q0.000000 13.953125 -6.203125 20.765625q-6.187500 6.812500 -18.984375 6.812500q-4.734375 0.000000 -8.937500 -0.703125q-4.203125 -0.703125 -8.156250 -2.171875l0.000000 -8.734375q3.953125 2.140625 7.812500 3.156250q3.859375 1.031250 7.859375 1.031250q8.843750 0.000000 13.234375 -4.609375q4.390625 -4.609375 4.390625 -13.937500l0.000000 -4.453125q-2.781250 4.843750 -7.125000 7.234375q-4.343750 2.390625 -10.406250 2.390625q-10.046875 0.000000 -16.203125 -7.656250q-6.156250 -7.671875 -6.156250 -20.328125q0.000000 -12.687500 6.156250 -20.343750q6.156250 -7.671875 16.203125 -7.671875q6.062500 0.000000 10.406250 2.390625q4.343750 2.390625 7.125000 7.218750l0.000000 -8.296875l8.984375 0.000000z"/>
<path id="c_5099edb83619131346ae654950954dea" d="M9.421875 -75.984375l8.984375 0.000000l0.000000 75.984375l-8.984375 0.000000z"/>
<path id="c_74d54c94aa871ec39e2bc6697dde6c00" d="M54.890625 -33.015625l0.000000 33.015625l-8.984375 0.000000l0.000000 -32.718750q0.000000 -7.765625 -3.031250 -11.609375q-3.031250 -3.859375 -9.078125 -3.859375q-7.281250 0.000000 -11.484375 4.640625q-4.203125 4.625000 -4.203125 12.640625l0.000000 30.906250l-9.031250 0.000000l0.000000 -75.984375l9.031250 0.000000l0.000000 29.796875q3.234375 -4.937500 7.593750 -7.375000q4.375000 -2.437500 10.093750 -2.437500q9.421875 0.000000 14.250000 5.828125q4.843750 5.828125 4.843750 17.156250"/>
<path id="c_a66ecc39892414b9ca9362e0fffdc75b" d="M14.796875 -27.296875q0.000000 9.906250 4.078125 15.546875q4.078125 5.640625 11.203125 5.640625q7.125000 0.000000 11.218750 -5.640625q4.109375 -5.640625 4.109375 -15.546875q0.000000 -9.906250 -4.109375 -15.546875q-4.093750 -5.640625 -11.218750 -5.640625q-7.125000 0.000000 -11.203125 5.640625q-4.078125 5.640625 -4.078125 15.546875M45.406250 -8.203125q-2.828125 4.875000 -7.156250 7.250000q-4.312500 2.375000 -10.375000 2.375000q-9.906250 0.000000 -16.140625 -7.906250q-6.218750 -7.921875 -6.218750 -20.812500q0.000000 -12.890625 6.218750 -20.796875q6.234375 -7.906250 16.140625 -7.906250q6.062500 0.000000 10.375000 2.375000q4.328125 2.359375 7.156250 7.234375l0.000000 -8.296875l8.984375 0.000000l0.000000 75.484375l-8.984375 0.000000z"/>
<path id="c_d821beae607506e87470f334d9ff47af" d="M45.406250 -46.390625l0.000000 -29.593750l8.984375 0.000000l0.000000 75.984375l-8.984375 0.000000l0.000000 -8.203125q-2.828125 4.875000 -7.156250 7.250000q-4.312500 2.375000 -10.375000 2.375000q-9.906250 0.000000 -16.140625 -7.906250q-6.218750 -7.921875 -6.218750 -20.812500q0.000000 -12.890625 6.218750 -20.796875q6.234375 -7.906250 16.140625 -7.906250q6.062500 0.000000 10.375000 2.375000q4.328125 2.359375 7.156250 7.234375M14.796875 -27.296875q0.000000 9.906250 4.078125 15.546875q4.078125 5.640625 11.203125 5.640625q7.125000 0.000000 11.218750 -5.640625q4.109375 -5.640625 4.109375 -15.546875q0.000000 -9.906250 -4.109375 -15.546875q-4.093750 -5.640625 -11.218750 -5.640625q-7.125000 0.000000 -11.203125 5.640625q-4.078125 5.640625 -4.078125 15.546875"/>
</defs>
<g style="fill: #000000; opacity: 1.000000" transform="translate(57.323438,-7.906250)scale(0.144000)">
<use xlink:href="#c_518d586bee075aa0153eaebfcb5ab11f"/>
<use xlink:href="#c_6ec8d5749226675394676a5d2a3b468b" x="58.552734"/>
<use xlink:href="#c_0bce5afba2dc6b9024b26277c38ad8e8" x="97.416016"/>
<use xlink:href="#c_8e0810ad13fe20a2a87a2619799b154d" x="158.939453"/>
<use xlink:href="#c_8e0810ad13fe20a2a87a2619799b154d" x="211.039062"/>
<use xlink:href="#c_3b515ad41f960e225ec85275856806ca" x="263.138672"/>
<use xlink:href="#c_6ec8d5749226675394676a5d2a3b468b" x="326.517578"/>
<use xlink:href="#c_0bce5afba2dc6b9024b26277c38ad8e8" x="365.380859"/>
<use xlink:href="#c_7b26b13f539f13a4c64eef23b6952d29" x="426.904297"/>
<use xlink:href="#c_9e4b30cbdf32072672ded72e9074c4c9" x="453.863281"/>
<use xlink:href="#c_0bce5afba2dc6b9024b26277c38ad8e8" x="497.947266"/>
<use xlink:href="#c_4653c6dfde66c7610eae0911760d3490" x="559.470703"/>
<use xlink:href="#c_f15a64fcd463ef4629c48bab42cde24c" x="656.882813"/>
<use xlink:href="#c_0bce5afba2dc6b9024b26277c38ad8e8" x="720.359375"/>
<use xlink:href="#c_6ec8d5749226675394676a5d2a3b468b" x="781.882813"/>
<use xlink:href="#c_01d93a582460e35a7945ca50d148ffeb" x="822.996094"/>
<use xlink:href="#c_0f8c41144cfbf448378cb6fd1cc8e549" x="884.275391"/>
<use xlink:href="#c_3b515ad41f960e225ec85275856806ca" x="923.484375"/>
<use xlink:href="#c_6ec8d5749226675394676a5d2a3b468b" x="986.863281"/>
<use xlink:href="#c_0bce5afba2dc6b9024b26277c38ad8e8" x="1025.726562"/>
<use xlink:href="#c_7b26b13f539f13a4c64eef23b6952d29" x="1087.250000"/>
<use xlink:href="#c_a469f8ee191679fe73f3b765bd271597" x="1123.333984"/>
<use xlink:href="#c_f05dd90d41f04bb96ef1ca503cc2044b" x="1193.158203"/>
<use xlink:href="#c_4653c6dfde66c7610eae0911760d3490" x="1254.339844"/>
<use xlink:href="#c_f15a64fcd463ef4629c48bab42cde24c" x="1351.751953"/>
<use xlink:href="#c_f05dd90d41f04bb96ef1ca503cc2044b" x="1415.228516"/>
<use xlink:href="#c_8e0810ad13fe20a2a87a2619799b154d" x="1476.410156"/>
<use xlink:href="#c_6a63bda47b2f3da1cec6aadd80692cfe" x="1528.509766"/>
<use xlink:href="#c_0f8c41144cfbf448378cb6fd1cc8e549" x="1556.292969"/>
<use xlink:href="#c_6a63bda47b2f3da1cec6aadd80692cfe" x="1595.501953"/>
<use xlink:href="#c_f05dd90d41f04bb96ef1ca503cc2044b" x="1623.285156"/>
<use xlink:href="#c_fe791a90f5471e2ab20a5ed41a7fa451" x="1684.466797"/>
<use xlink:href="#c_d41d8cd98f00b204e9800998ecf8427e" x="1747.845703"/>
<use xlink:href="#c_f15a64fcd463ef4629c48bab42cde24c" x="1779.632812"/>
<use xlink:href="#c_6ec8d5749226675394676a5d2a3b468b" x="1843.109375"/>
<use xlink:href="#c_f05dd90d41f04bb96ef1ca503cc2044b" x="1881.972656"/>
<use xlink:href="#c_9266f381a194deb1d9d439e9a9317ead" x="1943.154297"/>
<use xlink:href="#c_0bce5afba2dc6b9024b26277c38ad8e8" x="1970.937500"/>
<use xlink:href="#c_d650c37394b681142a10dfc54356d478" x="2032.460938"/>
<use xlink:href="#c_0f8c41144cfbf448378cb6fd1cc8e549" x="2087.441406"/>
<use xlink:href="#c_6a63bda47b2f3da1cec6aadd80692cfe" x="2126.650391"/>
<use xlink:href="#c_f05dd90d41f04bb96ef1ca503cc2044b" x="2154.433594"/>
<use xlink:href="#c_fe791a90f5471e2ab20a5ed41a7fa451" x="2215.615234"/>
<use xlink:href="#c_d41d8cd98f00b204e9800998ecf8427e" x="2278.994141"/>
<use xlink:href="#c_f05dd90d41f04bb96ef1ca503cc2044b" x="2310.781250"/>
<use xlink:href="#c_73b12fe3945075d29fe0cc9a468fa31e" x="2371.962891"/>
<use xlink:href="#c_d41d8cd98f00b204e9800998ecf8427e" x="2407.167969"/>
<use xlink:href="#c_01d93a582460e35a7945ca50d148ffeb" x="2438.955078"/>
<use xlink:href="#c_d41d8cd98f00b204e9800998ecf8427e" x="2500.234375"/>
<use xlink:href="#c_e3864de5dabf2f8dd9eee74726882ec1" x="2532.021484"/>
<use xlink:href="#c_5099edb83619131346ae654950954dea" x="2595.498047"/>
<use xlink:href="#c_f05dd90d41f04bb96ef1ca503cc2044b" x="2623.281250"/>
<use xlink:href="#c_5cc9741494d2ad8f9764e03ae145569f" x="2684.462891"/>
<use xlink:href="#c_01d93a582460e35a7945ca50d148ffeb" x="2747.939453"/>
<use xlink:href="#c_5099edb83619131346ae654950954dea" x="2809.218750"/>
<use xlink:href="#c_d41d8cd98f00b204e9800998ecf8427e" x="2837.001953"/>
<use xlink:href="#c_f15a64fcd463ef4629c48bab42cde24c" x="2868.789062"/>
<use xlink:href="#c_74d54c94aa871ec39e2bc6697dde6c00" x="2932.265625"/>
<use xlink:href="#c_01d93a582460e35a7945ca50d148ffeb" x="2995.644531"/>
<use xlink:href="#c_8e0810ad13fe20a2a87a2619799b154d" x="3056.923828"/>
<use xlink:href="#c_0bce5afba2dc6b9024b26277c38ad8e8" x="3109.023437"/>
<use xlink:href="#c_d41d8cd98f00b204e9800998ecf8427e" x="3170.546875"/>
<use xlink:href="#c_0bce5afba2dc6b9024b26277c38ad8e8" x="3202.333984"/>
<use xlink:href="#c_a66ecc39892414b9ca9362e0fffdc75b" x="3263.857422"/>
<use xlink:href="#c_3b515ad41f960e225ec85275856806ca" x="3327.333984"/>
<use xlink:href="#c_6a63bda47b2f3da1cec6aadd80692cfe" x="3390.712891"/>
<use xlink:href="#c_5099edb83619131346ae654950954dea" x="3418.496094"/>
<use xlink:href="#c_6a63bda47b2f3da1cec6aadd80692cfe" x="3446.279297"/>
<use xlink:href="#c_5cc9741494d2ad8f9764e03ae145569f" x="3474.062500"/>
<use xlink:href="#c_6ec8d5749226675394676a5d2a3b468b" x="3537.539062"/>
<use xlink:href="#c_6a63bda47b2f3da1cec6aadd80692cfe" x="3578.652344"/>
<use xlink:href="#c_3b515ad41f960e225ec85275856806ca" x="3606.435547"/>
<use xlink:href="#c_4653c6dfde66c7610eae0911760d3490" x="3669.814453"/>
<use xlink:href="#c_d41d8cd98f00b204e9800998ecf8427e" x="3767.226562"/>
<use xlink:href="#c_d821beae607506e87470f334d9ff47af" x="3799.013672"/>
<use xlink:href="#c_6a63bda47b2f3da1cec6aadd80692cfe" x="3862.490234"/>
<use xlink:href="#c_01d93a582460e35a7945ca50d148ffeb" x="3890.273437"/>
<use xlink:href="#c_e3864de5dabf2f8dd9eee74726882ec1" x="3951.552734"/>
<use xlink:href="#c_6ec8d5749226675394676a5d2a3b468b" x="4015.029297"/>
<use xlink:href="#c_01d93a582460e35a7945ca50d148ffeb" x="4056.142578"/>
<use xlink:href="#c_4653c6dfde66c7610eae0911760d3490" x="4117.421875"/>
</g>
</g>
<g id="legend1">
<g id="patch6">
<path style="fill: #ffffff; stroke: #000000; stroke-width: 1.000000; stroke-linejoin: round; stroke-linecap: square;  opacity: 1.000000"  d="M7.200000 115.254375L321.071250 115.254375L321.071250 7.200000
L7.200000 7.200000L7.200000 115.254375z"/>
</g>
<g id="line2d28">
<path style="fill: none; stroke: #008000; stroke-width: 1.000000; stroke-linejoin: round; stroke-linecap: square;  opacity: 1.000000"  d="M17.280000 18.560625L37.440000 18.560625"/>
</g>
<g id="line2d29">
</g>
<g id="text21">
<defs>
<path id="c_c48ceabac27bf136feba2f4bf2716ab6" d="M2.984375 -54.687500l9.515625 0.000000l17.093750 45.890625l17.093750 -45.890625l9.515625 0.000000l-20.515625 54.687500l-12.203125 0.000000z"/>
</defs>
<g style="fill: #000000; opacity: 1.000000" transform="translate(53.280000,23.600625)scale(0.144000)">
<use xlink:href="#c_518d586bee075aa0153eaebfcb5ab11f"/>
<use xlink:href="#c_3b515ad41f960e225ec85275856806ca" x="58.552734"/>
<use xlink:href="#c_6ec8d5749226675394676a5d2a3b468b" x="121.931641"/>
<use xlink:href="#c_0bce5afba2dc6b9024b26277c38ad8e8" x="160.794922"/>
<use xlink:href="#c_d41d8cd98f00b204e9800998ecf8427e" x="222.318359"/>
<use xlink:href="#c_d650c37394b681142a10dfc54356d478" x="254.105469"/>
<use xlink:href="#c_f05dd90d41f04bb96ef1ca503cc2044b" x="309.085937"/>
<use xlink:href="#c_4653c6dfde66c7610eae0911760d3490" x="370.267578"/>
<use xlink:href="#c_f15a64fcd463ef4629c48bab42cde24c" x="467.679687"/>
<use xlink:href="#c_f05dd90d41f04bb96ef1ca503cc2044b" x="531.156250"/>
<use xlink:href="#c_3b515ad41f960e225ec85275856806ca" x="592.337891"/>
<use xlink:href="#c_fe791a90f5471e2ab20a5ed41a7fa451" x="655.716797"/>
<use xlink:href="#c_d821beae607506e87470f334d9ff47af" x="719.095703"/>
<use xlink:href="#c_d41d8cd98f00b204e9800998ecf8427e" x="782.572266"/>
<use xlink:href="#c_c48ceabac27bf136feba2f4bf2716ab6" x="814.359375"/>
<use xlink:href="#c_01d93a582460e35a7945ca50d148ffeb" x="873.539062"/>
<use xlink:href="#c_f15a64fcd463ef4629c48bab42cde24c" x="934.818359"/>
<use xlink:href="#c_f05dd90d41f04bb96ef1ca503cc2044b" x="998.294922"/>
<use xlink:href="#c_6ec8d5749226675394676a5d2a3b468b" x="1059.476562"/>
<use xlink:href="#c_d41d8cd98f00b204e9800998ecf8427e" x="1100.589844"/>
<use xlink:href="#c_f15a64fcd463ef4629c48bab42cde24c" x="1132.376953"/>
<use xlink:href="#c_6ec8d5749226675394676a5d2a3b468b" x="1195.853516"/>
<use xlink:href="#c_0bce5afba2dc6b9024b26277c38ad8e8" x="1234.716797"/>
<use xlink:href="#c_8e0810ad13fe20a2a87a2619799b154d" x="1296.240234"/>
<use xlink:href="#c_8e0810ad13fe20a2a87a2619799b154d" x="1348.339844"/>
<use xlink:href="#c_3b515ad41f960e225ec85275856806ca" x="1400.439453"/>
<use xlink:href="#c_6ec8d5749226675394676a5d2a3b468b" x="1463.818359"/>
<use xlink:href="#c_0bce5afba2dc6b9024b26277c38ad8e8" x="1502.681641"/>
<use xlink:href="#c_d41d8cd98f00b204e9800998ecf8427e" x="1564.205078"/>
<use xlink:href="#c_5099edb83619131346ae654950954dea" x="1595.992188"/>
<use xlink:href="#c_6a63bda47b2f3da1cec6aadd80692cfe" x="1623.775391"/>
<use xlink:href="#c_fe791a90f5471e2ab20a5ed41a7fa451" x="1651.558594"/>
<use xlink:href="#c_0bce5afba2dc6b9024b26277c38ad8e8" x="1714.937500"/>
<use xlink:href="#c_8e0810ad13fe20a2a87a2619799b154d" x="1776.460937"/>
</g>
</g>
<g id="line2d30">
<path style="fill: none; stroke: #000000; stroke-width: 1.000000; stroke-linejoin: round; stroke-linecap: square;  opacity: 1.000000"  d="M17.280000 39.307500L37.440000 39.307500"/>
</g>
<g id="line2d31">
</g>
<g id="text22">
<g style="fill: #000000; opacity: 1.000000" transform="translate(53.280000,44.347500)scale(0.144000)">
<use xlink:href="#c_a469f8ee191679fe73f3b765bd271597"/>
<use xlink:href="#c_6ec8d5749226675394676a5d2a3b468b" x="69.824219"/>
<use xlink:href="#c_6a63bda47b2f3da1cec6aadd80692cfe" x="110.937500"/>
<use xlink:href="#c_0f8c41144cfbf448378cb6fd1cc8e549" x="138.720703"/>
<use xlink:href="#c_6a63bda47b2f3da1cec6aadd80692cfe" x="177.929688"/>
<use xlink:href="#c_d650c37394b681142a10dfc54356d478" x="205.712891"/>
<use xlink:href="#c_01d93a582460e35a7945ca50d148ffeb" x="260.693359"/>
<use xlink:href="#c_5099edb83619131346ae654950954dea" x="321.972656"/>
<use xlink:href="#c_d41d8cd98f00b204e9800998ecf8427e" x="349.755859"/>
<use xlink:href="#c_5099edb83619131346ae654950954dea" x="381.542969"/>
<use xlink:href="#c_6a63bda47b2f3da1cec6aadd80692cfe" x="409.326172"/>
<use xlink:href="#c_fe791a90f5471e2ab20a5ed41a7fa451" x="437.109375"/>
<use xlink:href="#c_0bce5afba2dc6b9024b26277c38ad8e8" x="500.488281"/>
<use xlink:href="#c_8e0810ad13fe20a2a87a2619799b154d" x="562.011719"/>
</g>
</g>
<g id="line2d32">
<path style="fill: none; stroke: #bfbf00; stroke-width: 1.000000; stroke-linejoin: round; stroke-linecap: butt; stroke-dasharray: 3.000000,5.000000,1.000000,5.000000; stroke-dashoffset: 0.000000; opacity: 1.000000"  d="M17.280000 60.054375L37.440000 60.054375"/>
</g>
<g id="line2d33">
</g>
<g id="text23">
<defs>
<path id="c_814edda51889e387a3dfbce453bfa1ec" d="M9.812500 -72.906250l9.859375 0.000000l0.000000 72.906250l-9.859375 0.000000z"/>
<path id="c_7efa9804c2b4c09a4b614b91fdebee3d" d="M31.000000 -75.875000q-6.531250 11.218750 -9.718750 22.218750q-3.171875 10.984375 -3.171875 22.265625q0.000000 11.265625 3.203125 22.328125q3.203125 11.062500 9.687500 22.250000l-7.812500 0.000000q-7.312500 -11.484375 -10.953125 -22.562500q-3.640625 -11.078125 -3.640625 -22.015625q0.000000 -10.890625 3.609375 -21.921875q3.625000 -11.046875 10.984375 -22.562500z"/>
<path id="c_8c0379a31aa3b07b28207e25658c6113" d="M10.593750 -45.406250l62.593750 0.000000l0.000000 8.203125l-62.593750 0.000000zM10.593750 -25.484375l62.593750 0.000000l0.000000 8.296875l-62.593750 0.000000z"/>
<path id="c_e96974be642f6eac0427d72f9cec6c19" d="M8.015625 -75.875000l7.812500 0.000000q7.312500 11.515625 10.953125 22.562500q3.640625 11.031250 3.640625 21.921875q0.000000 10.937500 -3.640625 22.015625q-3.640625 11.078125 -10.953125 22.562500l-7.812500 0.000000q6.484375 -11.187500 9.687500 -22.250000q3.203125 -11.062500 3.203125 -22.328125q0.000000 -11.281250 -3.203125 -22.265625q-3.203125 -11.000000 -9.687500 -22.218750"/>
</defs>
<g style="fill: #000000; opacity: 1.000000" transform="translate(53.280000,65.094375)scale(0.144000)">
<use xlink:href="#c_814edda51889e387a3dfbce453bfa1ec"/>
<use xlink:href="#c_8e0810ad13fe20a2a87a2619799b154d" x="29.492188"/>
<use xlink:href="#c_f05dd90d41f04bb96ef1ca503cc2044b" x="81.591797"/>
<use xlink:href="#c_0f8c41144cfbf448378cb6fd1cc8e549" x="142.773438"/>
<use xlink:href="#c_74d54c94aa871ec39e2bc6697dde6c00" x="181.982422"/>
<use xlink:href="#c_0bce5afba2dc6b9024b26277c38ad8e8" x="245.361328"/>
<use xlink:href="#c_6ec8d5749226675394676a5d2a3b468b" x="306.884766"/>
<use xlink:href="#c_4653c6dfde66c7610eae0911760d3490" x="346.248047"/>
<use xlink:href="#c_01d93a582460e35a7945ca50d148ffeb" x="443.660156"/>
<use xlink:href="#c_5099edb83619131346ae654950954dea" x="504.939453"/>
<use xlink:href="#c_d41d8cd98f00b204e9800998ecf8427e" x="532.722656"/>
<use xlink:href="#c_5099edb83619131346ae654950954dea" x="564.509766"/>
<use xlink:href="#c_6a63bda47b2f3da1cec6aadd80692cfe" x="592.292969"/>
<use xlink:href="#c_fe791a90f5471e2ab20a5ed41a7fa451" x="620.076172"/>
<use xlink:href="#c_0bce5afba2dc6b9024b26277c38ad8e8" x="683.455078"/>
<use xlink:href="#c_8e0810ad13fe20a2a87a2619799b154d" x="744.978516"/>
<use xlink:href="#c_d41d8cd98f00b204e9800998ecf8427e" x="797.078125"/>
<use xlink:href="#c_7efa9804c2b4c09a4b614b91fdebee3d" x="828.865234"/>
<use xlink:href="#c_9e4b30cbdf32072672ded72e9074c4c9" x="867.878906"/>
<use xlink:href="#c_d41d8cd98f00b204e9800998ecf8427e" x="928.962891"/>
<use xlink:href="#c_8c0379a31aa3b07b28207e25658c6113" x="960.750000"/>
<use xlink:href="#c_d41d8cd98f00b204e9800998ecf8427e" x="1044.539063"/>
<use xlink:href="#c_3dcfa38a02242cb63ec6726c6e70be7a" x="1076.326172"/>
<use xlink:href="#c_7a2040fe3b94fcd41d0a72c84e93b115" x="1139.949219"/>
<use xlink:href="#c_7a2040fe3b94fcd41d0a72c84e93b115" x="1203.572266"/>
<use xlink:href="#c_ed3e21196fb739f392806f09ca0594ef" x="1267.195313"/>
<use xlink:href="#c_7a2040fe3b94fcd41d0a72c84e93b115" x="1298.982422"/>
<use xlink:href="#c_e96974be642f6eac0427d72f9cec6c19" x="1362.605469"/>
</g>
</g>
<g id="line2d34">
<path style="fill: none; stroke: #000000; stroke-width: 1.000000; stroke-linejoin: round; stroke-linecap: butt; stroke-dasharray: 3.000000,5.000000,1.000000,5.000000; stroke-dashoffset: 0.000000; opacity: 1.000000"  d="M17.280000 80.801250L37.440000 80.801250"/>
</g>
<g id="line2d35">
</g>
<g id="text24">
<g style="fill: #000000; opacity: 1.000000" transform="translate(53.280000,85.841250)scale(0.144000)">
<use xlink:href="#c_814edda51889e387a3dfbce453bfa1ec"/>
<use xlink:href="#c_8e0810ad13fe20a2a87a2619799b154d" x="29.492188"/>
<use xlink:href="#c_f05dd90d41f04bb96ef1ca503cc2044b" x="81.591797"/>
<use xlink:href="#c_5cc9741494d2ad8f9764e03ae145569f" x="142.773438"/>
<use xlink:href="#c_01d93a582460e35a7945ca50d148ffeb" x="206.250000"/>
<use xlink:href="#c_6ec8d5749226675394676a5d2a3b468b" x="267.529297"/>
<use xlink:href="#c_6a63bda47b2f3da1cec6aadd80692cfe" x="308.642578"/>
<use xlink:href="#c_d650c37394b681142a10dfc54356d478" x="336.425781"/>
<use xlink:href="#c_d41d8cd98f00b204e9800998ecf8427e" x="391.406250"/>
<use xlink:href="#c_5099edb83619131346ae654950954dea" x="423.193359"/>
<use xlink:href="#c_6a63bda47b2f3da1cec6aadd80692cfe" x="450.976563"/>
<use xlink:href="#c_fe791a90f5471e2ab20a5ed41a7fa451" x="478.759766"/>
<use xlink:href="#c_0bce5afba2dc6b9024b26277c38ad8e8" x="542.138672"/>
<use xlink:href="#c_8e0810ad13fe20a2a87a2619799b154d" x="603.662109"/>
<use xlink:href="#c_d41d8cd98f00b204e9800998ecf8427e" x="655.761719"/>
<use xlink:href="#c_7efa9804c2b4c09a4b614b91fdebee3d" x="687.548828"/>
<use xlink:href="#c_518d586bee075aa0153eaebfcb5ab11f" x="726.562500"/>
<use xlink:href="#c_d41d8cd98f00b204e9800998ecf8427e" x="786.865234"/>
<use xlink:href="#c_8c0379a31aa3b07b28207e25658c6113" x="818.652344"/>
<use xlink:href="#c_d41d8cd98f00b204e9800998ecf8427e" x="902.441406"/>
<use xlink:href="#c_ed3f3ed3ebfbd18bcb9c012009a68ad1" x="934.228516"/>
<use xlink:href="#c_7a2040fe3b94fcd41d0a72c84e93b115" x="997.851563"/>
<use xlink:href="#c_ed3e21196fb739f392806f09ca0594ef" x="1061.474609"/>
<use xlink:href="#c_7a2040fe3b94fcd41d0a72c84e93b115" x="1093.261719"/>
<use xlink:href="#c_e96974be642f6eac0427d72f9cec6c19" x="1156.884766"/>
</g>
</g>
<g id="line2d36">
<path style="fill: none; stroke: #8f00ff; stroke-width: 1.000000; stroke-linejoin: round; stroke-linecap: butt; stroke-dasharray: 6.000000,6.000000; stroke-dashoffset: 0.000000; opacity: 1.000000"  d="M17.280000 101.548125L37.440000 101.548125"/>
</g>
<g id="line2d37">
</g>
<g id="text25">
<defs>
<path id="c_00459d740017895360a22eba7af45b6f" d="M5.609375 -72.906250l57.281250 0.000000l0.000000 7.531250l-46.093750 57.078125l47.218750 0.000000l0.000000 8.296875l-59.515625 0.000000l0.000000 -7.515625l46.093750 -57.078125l-44.984375 0.000000z"/>
</defs>
<g style="fill: #000000; opacity: 1.000000" transform="translate(53.280000,106.588125)scale(0.144000)">
<use xlink:href="#c_814edda51889e387a3dfbce453bfa1ec"/>
<use xlink:href="#c_8e0810ad13fe20a2a87a2619799b154d" x="29.492188"/>
<use xlink:href="#c_f05dd90d41f04bb96ef1ca503cc2044b" x="81.591797"/>
<use xlink:href="#c_f15a64fcd463ef4629c48bab42cde24c" x="142.773438"/>
<use xlink:href="#c_5099edb83619131346ae654950954dea" x="206.250000"/>
<use xlink:href="#c_0bce5afba2dc6b9024b26277c38ad8e8" x="234.033203"/>
<use xlink:href="#c_0f8c41144cfbf448378cb6fd1cc8e549" x="295.556641"/>
<use xlink:href="#c_74d54c94aa871ec39e2bc6697dde6c00" x="334.765625"/>
<use xlink:href="#c_d41d8cd98f00b204e9800998ecf8427e" x="398.144531"/>
<use xlink:href="#c_8e0810ad13fe20a2a87a2619799b154d" x="429.931641"/>
<use xlink:href="#c_01d93a582460e35a7945ca50d148ffeb" x="482.031250"/>
<use xlink:href="#c_0f8c41144cfbf448378cb6fd1cc8e549" x="543.310547"/>
<use xlink:href="#c_3b515ad41f960e225ec85275856806ca" x="582.519531"/>
<use xlink:href="#c_6ec8d5749226675394676a5d2a3b468b" x="645.898437"/>
<use xlink:href="#c_01d93a582460e35a7945ca50d148ffeb" x="687.011719"/>
<use xlink:href="#c_0f8c41144cfbf448378cb6fd1cc8e549" x="748.291016"/>
<use xlink:href="#c_0bce5afba2dc6b9024b26277c38ad8e8" x="787.500000"/>
<use xlink:href="#c_d821beae607506e87470f334d9ff47af" x="849.023438"/>
<use xlink:href="#c_d41d8cd98f00b204e9800998ecf8427e" x="912.500000"/>
<use xlink:href="#c_5099edb83619131346ae654950954dea" x="944.287109"/>
<use xlink:href="#c_6a63bda47b2f3da1cec6aadd80692cfe" x="972.070312"/>
<use xlink:href="#c_fe791a90f5471e2ab20a5ed41a7fa451" x="999.853516"/>
<use xlink:href="#c_0bce5afba2dc6b9024b26277c38ad8e8" x="1063.232422"/>
<use xlink:href="#c_d41d8cd98f00b204e9800998ecf8427e" x="1124.755859"/>
<use xlink:href="#c_d41d8cd98f00b204e9800998ecf8427e" x="1156.542969"/>
<use xlink:href="#c_7efa9804c2b4c09a4b614b91fdebee3d" x="1188.330078"/>
<use xlink:href="#c_00459d740017895360a22eba7af45b6f" x="1227.343750"/>
<use xlink:href="#c_d41d8cd98f00b204e9800998ecf8427e" x="1295.849609"/>
<use xlink:href="#c_8c0379a31aa3b07b28207e25658c6113" x="1327.636719"/>
<use xlink:href="#c_d41d8cd98f00b204e9800998ecf8427e" x="1411.425781"/>
<use xlink:href="#c_7a2040fe3b94fcd41d0a72c84e93b115" x="1443.212891"/>
<use xlink:href="#c_ed3e21196fb739f392806f09ca0594ef" x="1506.835938"/>
<use xlink:href="#c_1260a2df50f305f3db244e29828f968e" x="1538.623047"/>
<use xlink:href="#c_e96974be642f6eac0427d72f9cec6c19" x="1602.246094"/>
</g>
</g>
</g>
</g>
</g>
</svg>
